<?xml version="1.0" standalone="no"?>
<!DOCTYPE svg PUBLIC "-//W3C//DTD SVG 20010904//EN"
 "http://www.w3.org/TR/2001/REC-SVG-20010904/DTD/svg10.dtd">
<svg version="1.0" xmlns="http://www.w3.org/2000/svg"
 width="1000%" height="1000%" viewBox="0 0 1132.000000 223.000000"
 preserveAspectRatio="xMidYMid meet">

<g transform="translate(0.000000,300.000000) scale(0.100000,-0.100000)"
fill="#000000" stroke="none">
<path d="M1920 2472 c-29 -29 -56 -103 -46 -127 5 -14 -56 -72 -122 -117 -56
-37 -94 -117 -100 -212 -4 -60 0 -82 21 -136 14 -36 27 -92 31 -126 5 -58 4
-62 -24 -82 -33 -25 -32 -26 -54 48 -9 30 -19 60 -24 67 -4 7 -124 35 -267 62
-237 46 -261 49 -282 36 -13 -9 -23 -26 -23 -38 0 -12 34 -117 75 -232 89
-245 79 -213 70 -250 -5 -22 -18 -35 -48 -50 -86 -41 -87 -122 -3 -170 14 -8
26 -56 55 -214 l37 -204 403 -159 c222 -87 408 -158 415 -158 6 0 39 13 74 30
59 28 65 29 86 14 22 -14 28 -13 82 13 48 23 60 33 62 56 3 23 15 33 81 66 72
37 78 38 102 24 22 -14 29 -13 81 10 47 21 57 30 60 53 2 18 12 33 26 40 13 6
27 16 32 20 4 5 14 101 21 214 10 171 15 209 31 229 20 26 24 72 8 100 -7 13
0 39 25 97 94 218 79 509 -40 731 -45 86 -45 86 -26 107 27 29 61 105 61 139
0 41 -27 92 -56 106 -57 26 -126 7 -193 -54 l-40 -37 -63 21 c-89 29 -201 43
-285 35 -48 -4 -73 -3 -73 4 0 6 -14 24 -31 41 -42 42 -98 43 -139 3z m100 -7
c17 -9 30 -17 30 -19 0 -3 3 -11 6 -20 4 -11 0 -16 -12 -16 -11 0 -48 -14 -83
-30 l-64 -30 6 37 c4 25 17 48 37 66 35 31 41 32 80 12z m697 -25 c33 -12 53
-46 53 -88 0 -33 -31 -102 -54 -121 -15 -13 -21 -10 -54 23 l-37 37 33 28 c17
15 32 33 32 39 0 21 -28 13 -62 -17 l-33 -29 -29 23 -29 23 27 27 c22 22 98
64 117 65 3 0 20 -5 36 -10z m-316 -66 c209 -62 349 -223 411 -469 16 -68 22
-121 22 -215 1 -138 -16 -223 -62 -321 l-27 -56 -110 32 c-60 18 -150 45 -200
60 l-89 27 37 19 c36 19 44 29 31 42 -3 3 -37 -10 -76 -28 -93 -45 -169 -62
-204 -47 -49 23 -10 80 89 133 75 39 70 35 62 48 -7 12 -90 -26 -141 -65 -17
-13 -36 -24 -43 -24 -7 0 -70 18 -141 40 l-130 39 -43 -18 c-23 -10 -56 -21
-73 -25 -28 -6 -31 -4 -42 31 -11 36 -10 39 26 78 36 38 38 43 32 88 -7 52 -5
54 22 31 22 -21 108 -30 136 -15 17 9 27 8 47 -5 14 -9 25 -21 25 -27 0 -19
43 -96 57 -101 37 -15 78 44 89 127 10 73 1 92 -55 113 -47 17 -49 18 -39 43
20 48 14 171 -11 226 -34 77 -89 125 -142 125 -22 0 -22 0 -3 21 44 49 144 92
249 108 79 13 228 5 296 -15z m-491 -163 c68 -49 101 -152 82 -254 -10 -52
-18 -67 -52 -98 -22 -20 -40 -44 -40 -52 0 -9 -15 -20 -35 -27 -120 -40 -224
129 -180 295 35 134 141 198 225 136z m-578 -388 l248 -47 75 -232 c41 -128
75 -239 75 -247 0 -9 -9 -18 -19 -22 -19 -6 -487 129 -505 145 -4 5 -41 102
-82 216 -56 158 -71 210 -63 221 6 7 14 13 18 13 3 0 117 -21 253 -47z m753
-11 c3 -8 -1 -22 -10 -31 -12 -13 -20 -13 -46 -4 -24 9 -35 9 -50 0 -15 -9
-22 -8 -35 5 -28 28 -11 49 35 42 21 -3 47 -2 57 4 22 12 40 6 49 -16z m-85
-87 c0 -14 -4 -25 -10 -25 -5 0 -10 11 -10 25 0 14 5 25 10 25 6 0 10 -11 10
-25z m23 -5 c-7 -28 -13 -25 -13 6 0 14 4 23 9 20 5 -3 7 -15 4 -26z m32 -39
c-8 -17 -19 -31 -24 -31 -16 0 -20 28 -5 34 8 3 14 12 14 20 0 15 23 28 28 15
2 -4 -4 -21 -13 -38z m-175 -135 c25 -8 84 -26 131 -40 l86 -26 -6 -32 c-6
-31 -13 -35 -165 -96 -87 -34 -160 -61 -162 -59 -2 2 -7 17 -10 34 -6 28 -4
30 23 26 15 -2 46 2 68 10 l40 14 -42 13 c-30 9 -49 10 -72 2 -19 -7 -31 -7
-31 -1 0 5 7 9 15 9 24 0 17 18 -7 22 -34 5 -34 34 -1 45 l28 10 -32 7 c-18 4
-35 12 -39 17 -6 10 39 2 67 -12 18 -9 59 -1 59 11 0 4 -17 12 -37 17 l-38 10
35 16 c44 19 37 19 90 3z m449 -160 c19 -7 31 -15 25 -18 -5 -3 -85 -38 -179
-78 -93 -40 -188 -81 -211 -91 -36 -17 -44 -18 -80 -5 l-39 14 25 11 c71 32
416 180 420 180 3 0 21 -6 39 -13z m-181 -2 c18 -5 -12 -21 -135 -74 -87 -36
-193 -79 -235 -94 l-77 -28 -251 78 c-236 74 -278 94 -236 110 8 3 117 -26
244 -65 126 -39 237 -71 246 -71 10 0 67 20 127 45 61 25 112 45 114 45 2 0 2
-7 -1 -15 -7 -18 2 -19 45 -4 21 8 31 17 29 28 -3 10 8 22 31 33 39 18 64 21
99 12z m294 -43 c5 -4 -82 -47 -193 -96 -110 -50 -203 -93 -205 -97 -5 -7 -74
12 -74 21 0 4 96 48 213 98 198 85 235 96 259 74z m-859 -145 c78 -25 117 -42
117 -52 0 -8 -3 -14 -7 -14 -25 -1 -493 166 -493 176 0 7 49 -4 133 -31 72
-24 185 -59 250 -79z m904 92 c-3 -7 -5 -2 -5 12 0 14 2 19 5 13 2 -7 2 -19 0
-25z m-67 -8 c-8 -5 -19 -10 -25 -10 -5 0 -3 5 5 10 8 5 20 10 25 10 6 0 3 -5
-5 -10z m-958 -106 c130 -43 237 -84 238 -90 0 -11 -482 154 -497 170 -10 11
-30 17 259 -80z m868 66 c-8 -5 -19 -10 -25 -10 -5 0 -3 5 5 10 8 5 20 10 25
10 6 0 3 -5 -5 -10z m167 -52 c-3 -7 -5 -2 -5 12 0 14 2 19 5 13 2 -7 2 -19 0
-25z m-697 -5 c0 -15 -15 -28 -43 -41 -36 -16 -37 -15 -37 7 0 12 11 22 33 29
41 13 47 14 47 5z m650 -23 c-8 -5 -19 -10 -25 -10 -5 0 -3 5 5 10 8 5 20 10
25 10 6 0 3 -5 -5 -10z m-320 -10 c-8 -5 -19 -10 -25 -10 -5 0 -3 5 5 10 8 5
20 10 25 10 6 0 3 -5 -5 -10z m-117 -37 c-1 -5 -3 -40 -4 -76 -2 -71 -6 -75
-53 -57 -25 9 -26 13 -26 83 0 41 3 76 6 80 8 8 79 -19 77 -30z m50 2 c-3 -9
-8 -14 -10 -11 -3 3 -2 9 2 15 9 16 15 13 8 -4z m-273 -9 c0 -8 -14 -19 -31
-25 -40 -14 -39 -14 -39 4 0 9 10 20 23 25 32 13 47 12 47 -4z m257 -83 c-2
-16 -4 -5 -4 22 0 28 2 40 4 28 2 -13 2 -35 0 -50z m53 -23 c-8 -5 -19 -10
-25 -10 -5 0 -3 5 5 10 8 5 20 10 25 10 6 0 3 -5 -5 -10z"/>
<path d="M2751 2344 c0 -11 3 -14 6 -6 3 7 2 16 -1 19 -3 4 -6 -2 -5 -13z"/>
<path d="M2715 2264 c-9 -14 -15 -27 -13 -30 2 -2 12 10 22 26 21 37 15 40 -9
4z"/>
<path d="M2268 2373 c7 -3 16 -2 19 1 4 3 -2 6 -13 5 -11 0 -14 -3 -6 -6z"/>
<path d="M2565 2220 c21 -22 41 -40 44 -40 3 0 -13 18 -34 40 -21 22 -41 40
-44 40 -3 0 13 -18 34 -40z"/>
<path d="M2288 2236 c-210 -58 -276 -317 -121 -472 104 -104 282 -104 386 0
62 62 82 110 82 201 0 70 -4 87 -29 133 -64 115 -196 172 -318 138z m135 -27
c200 -50 255 -323 88 -444 -174 -127 -401 -13 -401 201 0 167 151 284 313 243z"/>
<path d="M2232 1950 c-28 -12 -44 -52 -33 -84 24 -61 121 -41 121 25 0 30 -9
43 -37 58 -25 13 -21 13 -51 1z m63 -50 c-5 -8 -11 -8 -17 -2 -6 6 -7 16 -3
22 5 8 11 8 17 2 6 -6 7 -16 3 -22z"/>
<path d="M1822 1968 c-24 -31 -23 -57 2 -83 14 -14 32 -25 41 -25 28 0 67 48
59 73 -11 36 -25 47 -59 47 -18 0 -37 -6 -43 -12z m78 -23 c0 -8 -7 -15 -15
-15 -16 0 -20 12 -8 23 11 12 23 8 23 -8z"/>
<path d="M1832 1482 c-17 -11 59 -35 82 -26 25 10 19 21 -15 28 -41 8 -51 7
-67 -2z"/>
<path d="M1756 1456 l-29 -13 36 -12 c29 -10 45 -10 74 -1 l36 13 -39 13 c-45
16 -41 16 -78 0z"/>
<path d="M1936 1452 c-15 -7 -11 -10 22 -20 37 -11 98 -3 76 10 -18 11 -79 17
-98 10z"/>
<path d="M1860 1425 c-36 -12 -33 -19 16 -29 33 -7 84 1 84 13 0 17 -66 28
-100 16z"/>
<path d="M1877 1294 c-37 -20 -25 -37 15 -21 33 13 50 37 26 37 -7 -1 -26 -8
-41 -16z"/>
</g>
</svg>
