<?xml version="1.0" standalone="no"?>
<!DOCTYPE svg PUBLIC "-//W3C//DTD SVG 20010904//EN"
 "http://www.w3.org/TR/2001/REC-SVG-20010904/DTD/svg10.dtd">
<svg version="1.0" xmlns="http://www.w3.org/2000/svg"
 width="100%" height="700%" viewBox="0 0 1500.000000 500.000000"
 preserveAspectRatio="xMidYMid meet">

<g transform="translate(0.000000,546.000000) scale(0.100000,-0.100000)"
fill="#000000" stroke="none">
<path d="M6257 5440 c-9 -11 -17 -26 -17 -33 0 -8 3 -8 9 2 10 15 48 22 124
22 61 0 75 -11 70 -56 -3 -30 0 -37 22 -45 36 -14 93 -12 97 2 4 12 -4 43 -26
101 l-11 27 -125 0 c-113 0 -127 -2 -143 -20z"/>
<path d="M6600 5442 c-25 -20 -20 -42 8 -42 9 0 25 -14 35 -31 17 -30 20 -31
66 -26 61 7 87 -8 78 -45 -7 -25 -4 -26 59 -38 41 -8 76 -22 94 -37 24 -20 34
-22 62 -15 25 6 35 15 43 40 5 18 15 32 21 32 7 0 14 4 16 9 2 4 20 11 42 15
37 7 38 6 32 -17 -10 -41 58 -61 112 -33 28 15 97 16 119 3 6 -4 45 -10 87
-14 42 -3 76 -9 76 -13 0 -4 -21 -10 -47 -13 -27 -3 -67 -8 -91 -11 -23 -3
-58 -13 -77 -22 -29 -13 -40 -14 -71 -4 -44 15 -151 -3 -171 -28 -8 -10 -13
-46 -13 -94 0 -80 -10 -96 -35 -61 -12 16 -18 16 -66 3 -30 -7 -65 -13 -78
-12 -32 3 -91 -27 -85 -42 3 -7 -2 -19 -11 -26 -12 -10 -45 -11 -143 -6 -155
7 -326 7 -407 0 -79 -8 -89 3 -82 88 7 81 17 128 28 128 5 0 9 -7 9 -15 0 -20
62 -30 108 -17 60 17 108 37 126 51 11 9 36 12 80 9 36 -2 62 0 60 4 -3 4 -11
8 -17 8 -7 0 -24 7 -40 14 -32 17 -55 14 -109 -14 -38 -20 -41 -20 -54 -3 -7
10 -14 21 -14 26 0 13 -45 7 -68 -9 -33 -23 -76 -33 -95 -22 -22 12 -39 80
-31 125 l7 36 -54 -8 c-99 -15 -353 -22 -484 -13 -44 3 -91 2 -105 -2 -24 -6
-25 -10 -25 -76 -1 -38 -3 -74 -7 -79 -6 -11 15 -159 26 -186 4 -10 0 -23 -9
-33 -14 -13 -42 -16 -184 -16 -147 0 -170 2 -183 18 -9 9 -18 26 -20 37 -2 11
-10 21 -18 23 -12 2 -15 -13 -16 -82 -1 -65 -8 -104 -30 -166 l-28 -82 -36 6
c-19 3 -72 6 -118 6 l-82 0 2 33 3 32 -52 3 c-49 3 -53 1 -59 -22 -3 -15 -11
-26 -17 -26 -6 0 -8 3 -4 6 11 11 -17 31 -37 26 -15 -4 -18 -1 -13 11 4 11 -6
26 -31 46 -22 18 -33 34 -27 38 6 5 15 17 21 28 6 11 22 21 36 23 14 2 36 14
49 28 16 17 33 24 62 24 38 0 38 1 32 30 -4 19 -2 36 5 45 10 12 9 16 -5 21
-12 5 -13 9 -4 14 26 16 -32 32 -99 26 -226 -17 -294 -36 -349 -99 -42 -48
-57 -105 -48 -189 l6 -68 -74 0 -74 0 8 43 c16 84 12 123 -17 142 -22 14 -28
15 -35 4 -5 -8 -9 -19 -9 -25 0 -17 -53 -62 -83 -69 -15 -4 -32 -16 -37 -26
-7 -12 -24 -19 -53 -21 l-42 -3 33 -10 34 -10 1 -97 c1 -57 7 -102 13 -108 18
-18 24 2 16 56 -8 56 -4 154 6 154 4 0 6 -20 4 -45 -3 -30 1 -54 12 -70 11
-17 14 -36 10 -68 -5 -34 -3 -45 9 -50 25 -10 27 43 4 111 -21 60 -21 64 -4
73 9 6 17 19 17 29 0 11 4 20 9 20 5 0 9 -41 10 -91 0 -54 5 -96 12 -105 6 -7
9 -21 5 -29 -3 -9 0 -15 8 -15 16 0 29 -27 20 -41 -3 -5 -18 -9 -34 -9 -15 0
-52 -11 -82 -25 -30 -14 -71 -25 -95 -25 -24 0 -43 -4 -43 -8 0 -5 55 -13 123
-18 l122 -9 3 -72 3 -73 -28 -1 c-15 0 -36 -4 -47 -8 -16 -6 -48 -4 -208 12
-57 6 -35 -10 24 -18 29 -4 58 -14 64 -23 16 -22 111 -28 149 -8 16 8 33 12
37 8 7 -7 -4 -314 -18 -479 l-6 -73 -33 0 c-19 0 -37 5 -40 10 -9 14 -52 13
-57 -2 -2 -6 3 -26 11 -44 12 -26 26 -37 63 -50 35 -11 48 -21 48 -35 0 -25
-21 -24 -54 2 -23 18 -36 21 -76 16 l-48 -6 -5 46 c-2 25 -14 58 -26 74 -12
15 -21 33 -21 39 0 6 -14 31 -30 56 -29 41 -32 43 -53 30 -52 -32 -139 -76
-152 -76 -14 0 -28 138 -29 295 l-1 80 28 3 c22 3 30 -1 34 -17 8 -30 24 -26
82 20 55 44 60 59 37 114 -11 26 -21 35 -39 35 -13 0 -61 20 -108 45 -46 25
-94 48 -107 52 -13 3 -35 18 -51 33 -15 16 -47 34 -70 41 -23 7 -48 20 -54 29
-23 33 -57 40 -209 45 -84 3 -188 9 -231 13 l-78 8 -15 -34 c-16 -40 -18 -129
-4 -187 6 -22 14 -88 20 -148 7 -87 6 -114 -6 -142 -8 -19 -19 -35 -24 -35 -5
0 -16 -13 -25 -30 -10 -19 -24 -30 -38 -31 -12 0 -16 -3 -9 -6 18 -7 15 -88
-4 -129 -16 -34 -18 -35 -70 -33 -33 2 -59 -3 -69 -11 -9 -8 -35 -16 -58 -20
-41 -5 -42 -6 -40 -43 1 -20 8 -47 15 -60 16 -30 10 -69 -13 -85 -11 -7 -17
-18 -14 -23 4 -5 2 -9 -3 -9 -11 0 -23 -51 -15 -63 3 -5 11 1 19 11 18 26 70
38 89 22 21 -18 11 -27 -50 -46 -52 -17 -73 -34 -40 -34 11 0 10 -5 -6 -21
-19 -19 -20 -22 -4 -39 13 -14 14 -23 6 -39 -6 -11 -11 -28 -11 -39 0 -11 -8
-30 -18 -42 l-19 -23 -91 65 c-50 36 -106 72 -124 79 -18 8 -64 30 -103 50
-38 20 -101 46 -140 58 -92 29 -322 77 -407 86 l-67 7 -18 -38 c-12 -26 -30
-45 -55 -56 -74 -35 -92 -105 -35 -134 17 -9 35 -22 39 -28 8 -13 -69 -66 -97
-66 -27 0 -71 -39 -142 -123 l-58 -69 -65 -4 c-72 -4 -96 -14 -155 -59 -21
-16 -42 -30 -45 -30 -3 0 -16 -12 -28 -27 -13 -15 -30 -28 -38 -28 -8 0 -14
-4 -14 -8 0 -5 -18 -28 -40 -52 -22 -24 -40 -49 -40 -56 0 -7 -9 -19 -19 -26
-10 -8 -24 -31 -30 -53 -22 -80 -71 -132 -71 -75 0 10 -4 21 -9 25 -10 6 -16
0 -52 -48 -18 -24 -24 -26 -35 -15 -10 11 -10 27 1 88 8 41 14 91 14 111 1 48
51 155 106 228 82 107 191 169 391 221 62 16 130 40 151 54 21 13 63 31 94 40
31 9 59 22 61 28 2 7 3 40 1 73 -4 87 -3 168 3 187 6 22 91 55 105 41 5 -5 12
-23 15 -39 7 -37 8 -38 28 -19 21 21 22 130 1 171 -8 17 -31 38 -51 47 -36 17
-37 17 -56 -3 -21 -22 -78 -27 -123 -10 -37 14 -27 31 30 50 41 14 51 23 66
56 16 38 16 40 -12 96 -16 31 -33 59 -38 62 -5 3 -7 14 -4 24 5 21 -52 82 -77
82 -9 0 -20 4 -25 8 -6 5 -39 17 -75 27 -58 16 -118 38 -144 53 -5 3 -6 1 -3
-5 4 -6 -9 -3 -28 6 -19 9 -33 22 -32 30 1 7 -14 22 -33 32 -19 11 -35 25 -35
33 0 26 -27 45 -71 52 -26 4 -48 13 -53 23 -21 40 -63 249 -63 317 -1 40 -4
71 -8 69 -4 -3 -11 11 -14 30 -5 26 -3 40 9 51 8 8 15 12 15 8 0 -5 5 -3 12 4
16 16 28 15 28 -3 0 -8 7 -15 15 -15 8 0 14 5 12 12 -1 7 15 15 41 18 23 4 55
16 71 27 15 12 45 28 65 37 36 15 45 33 26 52 -8 8 -6 15 4 23 14 12 14 16 0
43 -9 16 -13 33 -9 36 3 4 37 8 76 10 67 4 100 22 40 22 -17 0 -33 5 -36 10
-4 6 6 10 24 10 16 0 32 4 35 9 4 5 -29 12 -71 16 -43 3 -105 10 -138 15 -33
5 -91 11 -130 15 -38 3 -112 10 -163 17 -66 7 -96 8 -104 0 -7 -7 -6 -31 6
-79 113 -479 206 -900 206 -930 0 -15 -92 -46 -112 -38 -22 9 -29 -8 -18 -41
11 -32 1 -85 -17 -91 -6 -2 -13 4 -16 14 -3 10 -10 39 -17 66 -7 26 -18 47
-25 47 -20 0 -57 47 -53 67 4 18 10 20 40 8 15 -6 16 -3 6 32 -23 84 -82 251
-104 294 -13 25 -35 88 -49 140 -14 51 -37 135 -51 184 -30 103 -33 153 -9
189 44 66 -19 104 -76 46 -23 -22 -35 -28 -42 -21 -21 21 -27 10 -27 -46 1
-57 2 -59 46 -93 59 -45 81 -91 138 -280 71 -235 96 -313 107 -332 13 -26 12
-28 -20 -28 -26 0 -29 4 -34 44 -11 80 -38 186 -48 186 -15 0 -10 -49 15 -145
16 -59 20 -94 14 -102 -9 -11 5 -51 22 -63 14 -10 50 -99 50 -125 0 -14 13
-80 30 -145 32 -126 35 -150 22 -150 -9 0 -17 24 -67 210 -15 52 -31 99 -36
104 -15 16 -10 -44 11 -124 26 -98 25 -145 -1 -60 -27 88 -38 112 -47 107 -4
-3 -33 -12 -64 -21 -45 -13 -58 -21 -58 -36 0 -24 -13 -26 -30 -4 -8 8 -22 20
-32 25 -17 9 -18 -33 -18 -1295 0 -1299 0 -1304 20 -1299 26 7 26 -13 0 -27
-19 -10 -20 -21 -20 -160 0 -133 2 -149 18 -153 16 -4 16 -5 0 -6 -17 -1 -18
-33 -18 -531 l0 -530 4100 0 4100 0 -2 1118 -3 1117 -40 1 c-28 1 -77 20 -160
62 -111 56 -118 61 -95 70 220 88 235 92 275 66 l25 -16 0 132 c0 72 -3 130
-7 128 -5 -3 -23 -11 -40 -18 -38 -17 -43 -30 -10 -31 12 -1 0 -5 -28 -10 -27
-5 -56 -6 -64 -4 -9 4 -11 0 -7 -11 3 -8 6 -17 6 -20 0 -2 12 1 27 7 33 12 49
-1 34 -29 -14 -26 -14 -59 0 -64 5 -2 -59 -31 -143 -64 -92 -37 -154 -57 -156
-50 -1 6 -35 28 -75 48 -39 21 -161 85 -271 144 -198 106 -198 106 -220 86
-52 -48 -190 -135 -282 -178 -124 -59 -193 -65 -289 -23 -224 99 -261 109
-328 89 -55 -17 -170 -74 -157 -78 6 -2 7 -8 4 -13 -3 -6 -11 -5 -20 2 -11 9
-14 8 -15 -7 0 -11 -3 -14 -6 -6 -3 8 -23 2 -66 -22 -34 -19 -84 -46 -112 -59
l-49 -25 -37 26 c-21 15 -45 41 -55 57 -10 17 -34 49 -53 73 -37 44 -54 52
-164 73 -45 8 -57 14 -55 27 2 9 7 20 13 24 16 12 -44 28 -104 28 -72 0 -129
-22 -136 -53 -3 -12 -23 -98 -46 -192 -22 -93 -58 -244 -79 -335 -21 -91 -42
-175 -47 -187 -7 -20 -92 -83 -112 -83 -4 0 -30 -24 -57 -52 -80 -85 -168
-165 -357 -324 -241 -202 -224 -189 -239 -177 -7 6 -26 13 -43 16 -24 4 -91
32 -157 65 -4 2 -14 -12 -21 -31 -17 -40 -74 -107 -91 -107 -7 0 -18 11 -24
25 -16 36 -44 34 -36 -2 9 -37 18 -48 75 -85 27 -17 49 -35 49 -39 0 -5 -39
-7 -87 -7 -54 2 -124 -5 -180 -17 -73 -15 -95 -16 -106 -6 -27 22 -47 78 -47
133 -1 29 -7 64 -15 78 -8 14 -14 39 -15 55 0 22 -12 44 -40 74 -22 23 -40 49
-40 56 0 8 -8 16 -18 20 -11 3 -31 30 -47 60 -24 48 -27 63 -23 118 4 39 1 71
-7 87 -7 14 -18 53 -24 88 -7 35 -14 69 -18 77 -4 12 2 14 24 12 16 -2 34 -6
39 -10 6 -3 31 -11 56 -16 24 -6 53 -13 64 -16 10 -3 7 1 -9 8 l-27 13 25 22
c26 23 69 29 80 12 3 -5 12 -10 18 -10 7 0 4 5 -6 11 -18 10 -18 11 0 25 10 7
13 14 6 14 -6 0 -15 -5 -18 -10 -3 -5 -19 -10 -35 -10 -16 0 -32 5 -35 10 -3
5 -1 10 4 10 6 0 11 7 11 15 0 11 7 14 24 9 14 -3 36 1 53 11 15 9 19 13 8 10
-44 -15 -51 -15 -70 -1 -18 14 -19 15 -2 16 13 0 17 5 12 19 -3 12 0 21 10 25
9 3 13 11 9 17 -3 6 6 22 22 36 22 18 24 21 7 13 -13 -6 -35 -7 -49 -4 -23 6
-26 4 -21 -10 12 -30 -11 -16 -48 29 l-37 45 -26 -21 c-17 -13 -28 -16 -30 -9
-2 6 -15 0 -29 -15 -42 -41 -96 -29 -108 25 -5 21 -13 30 -26 30 -10 0 -19 4
-19 9 0 18 22 23 45 11 18 -10 28 -9 54 4 17 9 31 18 31 21 0 2 -25 4 -56 4
-64 0 -84 12 -84 51 0 16 -7 30 -16 34 -9 3 -14 12 -11 20 3 8 -2 16 -13 19
-10 2 -27 25 -39 51 -11 26 -44 70 -74 99 -29 28 -65 68 -79 87 -41 56 -191
152 -269 171 -36 9 -89 28 -118 43 -29 14 -60 26 -68 26 -22 0 3 30 26 30 18
1 222 89 205 90 -6 0 -37 -9 -69 -20 -33 -11 -63 -19 -67 -18 -5 2 2 19 15 38
13 19 27 53 30 75 21 139 27 174 32 186 3 8 37 36 76 62 39 27 69 51 66 53 -2
2 -35 -12 -74 -32 -46 -24 -90 -39 -125 -42 l-53 -5 25 28 c24 27 24 27 3 21
-25 -8 -63 9 -63 27 0 8 17 22 38 32 36 18 36 18 12 25 l-25 6 22 12 c29 16
43 15 43 -2 0 -7 8 -16 18 -19 9 -2 25 -8 36 -12 16 -7 17 -5 11 16 -8 27 -48
69 -66 69 -6 0 -18 8 -25 18 -12 15 -13 14 -14 -14 0 -33 -17 -44 -67 -44 -20
0 -23 5 -23 39 0 43 23 106 43 118 25 16 55 79 45 97 -5 9 -7 20 -3 25 3 5 1
12 -5 16 -16 10 -11 44 11 75 13 17 19 35 15 46 -3 9 -3 32 0 51 10 51 24 21
24 -49 0 -32 3 -58 8 -58 4 0 20 9 36 19 20 14 39 17 67 14 33 -5 39 -3 39 13
0 23 -14 46 -26 44 -17 -2 -84 41 -84 54 0 22 38 49 67 48 15 -1 52 6 80 15
36 12 56 14 63 7 6 -6 17 -62 25 -125 18 -137 21 -146 46 -159 24 -14 24 -36
0 -50 -19 -10 -19 -11 -1 -48 11 -22 16 -49 13 -60 -3 -13 -1 -22 6 -22 6 0
11 -11 11 -25 0 -14 5 -25 10 -25 6 0 21 -11 33 -25 20 -23 31 -26 122 -31 55
-3 108 -7 117 -10 19 -6 78 22 78 36 0 24 28 7 36 -22 12 -40 33 -45 113 -28
31 6 86 12 123 13 55 2 68 5 68 18 0 9 12 25 27 34 25 17 29 17 95 -5 l68 -22
0 -77 0 -77 44 -2 c24 -1 81 -8 127 -16 46 -9 190 -34 319 -56 129 -23 357
-63 505 -90 149 -27 292 -52 319 -56 51 -7 96 -39 96 -67 0 -8 -18 -89 -40
-181 -22 -91 -40 -172 -40 -180 0 -12 7 -13 33 -5 17 5 74 10 125 11 74 2 90
5 77 14 -12 9 -13 13 -3 17 7 3 2 6 -12 6 -19 1 -21 4 -11 10 8 5 11 16 8 24
-6 16 -26 16 298 2 174 -8 212 -15 198 -38 -3 -6 -1 -7 5 -3 7 4 41 -22 84
-64 48 -47 66 -70 53 -68 -11 2 -20 8 -20 13 0 17 -15 35 -28 34 -9 0 -9 -2 1
-6 6 -2 12 -13 12 -22 0 -10 10 -23 23 -30 l22 -12 -23 5 c-12 2 -20 0 -17 -4
3 -5 -1 -11 -7 -14 -51 -24 75 18 138 46 22 10 60 18 85 18 42 0 65 -8 289
-104 91 -38 122 -42 185 -22 41 13 40 14 -20 34 -24 8 -14 9 45 6 69 -5 79 -3
120 23 67 41 229 157 230 164 0 3 -45 29 -99 58 l-100 52 -7 45 c-4 27 -2 56
6 74 11 26 18 30 52 30 21 0 49 -6 61 -14 12 -8 42 -17 66 -21 30 -5 53 -17
70 -36 19 -20 42 -32 79 -39 28 -5 57 -8 64 -6 7 3 25 7 41 10 18 4 27 13 27
26 0 20 2 19 50 -5 27 -14 52 -25 55 -25 3 0 5 26 5 58 0 34 7 71 18 92 19 40
17 40 188 27 l101 -8 7 61 c9 76 -8 113 -77 176 -60 53 -86 68 -170 94 -81 26
-152 26 -202 0 -22 -11 -44 -20 -50 -20 -5 0 -28 -15 -50 -34 -37 -31 -38 -34
-22 -50 9 -10 17 -22 17 -28 0 -6 -8 -1 -17 11 -18 22 -19 21 -168 -126 -162
-159 -221 -200 -388 -269 -105 -42 -192 -62 -312 -69 -119 -7 -86 8 65 30 232
34 388 104 546 243 54 49 115 108 135 133 20 24 62 68 92 98 55 54 56 55 35
70 -16 11 -23 12 -26 3 -4 -14 -52 -16 -52 -2 0 5 6 7 13 5 19 -8 71 47 144
151 36 52 68 92 71 90 2 -3 -5 -18 -17 -33 -12 -15 -46 -65 -76 -110 l-54 -83
25 -6 c16 -4 40 0 61 10 57 27 138 30 225 7 94 -24 137 -51 209 -129 59 -63
79 -112 79 -191 0 -40 1 -41 33 -41 58 0 71 -18 64 -86 l-6 -59 16 35 c20 47
30 51 86 44 l47 -6 0 70 c0 47 -4 72 -12 75 -10 4 -10 7 0 18 9 10 12 244 12
1100 l0 1087 -87 7 c-121 9 -116 7 -131 37 -14 30 -48 43 -134 53 -57 6 -81
25 -33 25 18 0 25 5 25 20 0 11 -6 20 -12 20 -7 0 -22 3 -33 6 -14 3 -23 -2
-30 -18 -7 -16 -20 -24 -40 -25 -22 -2 -25 0 -12 5 10 4 19 12 19 17 0 6 4 16
10 23 15 17 -312 18 -330 0 -9 -9 -15 -9 -24 0 -9 9 -109 12 -389 12 -351 0
-378 -1 -399 -18z m1068 -134 c3 -85 2 -88 -21 -93 -13 -4 -39 -2 -58 3 -19 6
-26 11 -17 11 22 1 34 24 41 84 6 45 5 48 -20 58 -15 5 -39 8 -53 5 -22 -5
-22 -4 5 9 17 8 50 14 75 12 l45 -2 3 -87z m-1563 -52 c18 -13 16 -46 -3 -46
-20 0 -45 28 -39 44 8 20 17 20 42 2z m-5985 -175 c0 -12 -20 -25 -27 -18 -7
7 6 27 18 27 5 0 9 -4 9 -9z m3990 -258 c0 -38 -31 -103 -49 -103 -19 0 -17
26 6 67 12 23 23 49 23 57 0 9 5 16 10 16 6 0 10 -17 10 -37z m1054 -19 c8
-21 -13 -49 -27 -35 -10 10 0 51 13 51 4 0 11 -7 14 -16z m-41 -141 c-7 -2
-21 -2 -30 0 -10 3 -4 5 12 5 17 0 24 -2 18 -5z m1795 -12 c20 -10 59 -21 86
-25 58 -7 68 -18 61 -66 -3 -19 -6 -62 -7 -95 -2 -84 -11 -99 -55 -92 -20 4
-44 14 -54 23 -11 10 -27 14 -39 11 -13 -3 -47 7 -83 24 -83 39 -104 37 -37
-4 59 -35 67 -48 50 -91 l-10 -27 -101 2 c-55 2 -101 5 -103 8 -1 3 1 44 6 91
5 47 10 105 11 130 l2 45 -54 10 -54 11 67 13 c37 7 93 21 124 31 76 24 144
25 190 1z m-2867 -37 c-5 -21 -9 -30 -10 -19 -1 24 10 67 15 62 3 -2 0 -22 -5
-43z m454 -24 c3 -5 1 -10 -4 -10 -6 0 -11 5 -11 10 0 6 2 10 4 10 3 0 8 -4
11 -10z m1290 -70 c-3 -5 -10 -10 -16 -10 -5 0 -9 5 -9 10 0 6 7 10 16 10 8 0
12 -4 9 -10z m468 -27 c-7 -2 -21 -2 -30 0 -10 3 -4 5 12 5 17 0 24 -2 18 -5z
m284 -19 c-9 -9 -28 6 -21 18 4 6 10 6 17 -1 6 -6 8 -13 4 -17z m-2362 -24 c4
-6 11 -8 16 -5 5 4 9 -1 9 -10 0 -9 -5 -13 -10 -10 -6 3 -22 13 -38 21 -25 13
-25 14 -5 14 12 0 25 -5 28 -10z m49 -15 c-4 -8 -8 -15 -10 -15 -2 0 -4 7 -4
15 0 8 4 15 10 15 5 0 7 -7 4 -15z m363 -17 c-3 -8 -6 -5 -6 6 -1 11 2 17 5
13 3 -3 4 -12 1 -19z m63 2 c0 -5 -10 -10 -22 -9 -22 0 -22 1 -3 9 11 5 21 9
23 9 1 1 2 -3 2 -9z m1898 -2 c-6 -18 -28 -21 -28 -4 0 9 7 16 16 16 9 0 14
-5 12 -12z m-3316 -23 c14 -32 7 -39 -32 -30 -35 8 -50 32 -29 46 25 16 49 9
61 -16z m1555 9 c-3 -3 -12 -4 -19 -1 -8 3 -5 6 6 6 11 1 17 -2 13 -5z m136
-11 c-13 -2 -35 -2 -50 0 -16 2 -5 4 22 4 28 0 40 -2 28 -4z m-640 -10 c-7 -2
-21 -2 -30 0 -10 3 -4 5 12 5 17 0 24 -2 18 -5z m-1505 -19 c8 -14 15 -15 43
-6 30 10 84 16 115 13 7 -1 15 -13 19 -28 4 -16 10 -22 12 -15 7 19 47 14 66
-8 9 -11 27 -20 39 -19 l23 0 -22 11 c-25 12 -32 48 -10 48 20 0 50 -37 44
-54 -4 -9 4 -21 20 -31 22 -15 33 -16 84 -6 31 7 68 9 81 7 13 -3 58 -8 100
-11 56 -3 91 -11 127 -30 62 -31 67 -39 41 -65 -24 -24 -11 -26 31 -4 28 14
33 14 55 -1 27 -17 31 -46 10 -64 -9 -7 -40 -11 -78 -9 -58 3 -63 5 -63 26 0
13 -6 26 -12 30 -6 4 -15 20 -18 35 -6 23 -11 27 -29 22 -11 -4 -50 -14 -86
-24 -36 -9 -64 -21 -63 -26 7 -42 26 -193 37 -304 9 -82 19 -137 27 -141 19
-12 2 -40 -24 -40 -24 0 -25 4 -37 113 -6 61 -17 173 -23 247 l-12 135 -125
17 c-129 17 -142 15 -139 -22 3 -34 -2 -40 -32 -40 -24 0 -30 -4 -27 -17 3
-12 12 -17 27 -15 27 3 24 -21 -4 -27 -10 -2 -25 -9 -33 -17 -15 -16 -112 -19
-112 -4 0 6 9 19 20 30 27 27 26 30 -18 30 -32 0 -41 5 -50 25 -7 14 -12 40
-12 56 0 17 -4 38 -9 47 -5 9 -12 47 -16 85 -5 56 -4 67 9 67 8 0 19 -7 24
-16z m2747 0 c68 -4 349 -23 515 -34 74 -5 186 -12 248 -16 62 -4 115 -11 118
-15 2 -4 -10 -6 -28 -4 -18 3 -114 9 -213 15 -315 18 -354 20 -639 40 -175 13
-282 16 -286 10 -5 -7 -42 -8 -92 -1 -5 1 -8 6 -8 13 0 10 140 7 385 -8z
m-1206 -20 c2 -2 -17 -4 -42 -4 -26 0 -47 4 -47 9 0 8 79 3 89 -5z m71 -4 c0
-5 -11 -10 -25 -10 -14 0 -25 5 -25 10 0 6 11 10 25 10 14 0 25 -4 25 -10z
m433 3 c-7 -2 -19 -2 -25 0 -7 3 -2 5 12 5 14 0 19 -2 13 -5z m160 -10 c-7 -2
-19 -2 -25 0 -7 3 -2 5 12 5 14 0 19 -2 13 -5z m-866 -9 c-3 -3 -12 -4 -19 -1
-8 3 -5 6 6 6 11 1 17 -2 13 -5z m1041 -1 c-10 -2 -26 -2 -35 0 -10 3 -2 5 17
5 19 0 27 -2 18 -5z m-1810 -21 c2 -7 -2 -10 -12 -6 -9 3 -16 11 -16 16 0 13
23 5 28 -10z m1960 11 c-10 -2 -28 -2 -40 0 -13 2 -5 4 17 4 22 1 32 -1 23 -4z
m-1005 -10 c-7 -2 -19 -2 -25 0 -7 3 -2 5 12 5 14 0 19 -2 13 -5z m1167 -1 c0
-4 -16 -6 -35 -4 -19 2 -35 6 -35 8 0 2 16 4 35 4 19 0 35 -4 35 -8z m-1042
-9 c-10 -2 -28 -2 -40 0 -13 2 -5 4 17 4 22 1 32 -1 23 -4z m1228 -5 c7 -10
-55 -9 -81 2 -15 6 -7 9 28 8 26 -1 50 -5 53 -10z m139 -8 c7 -12 -32 -12 -60
0 -16 7 -13 9 17 9 20 1 40 -3 43 -9z m-1498 -6 c-3 -3 -12 -4 -19 -1 -8 3 -5
6 6 6 11 1 17 -2 13 -5z m1692 -10 c3 -3 -24 -4 -62 -2 -37 1 -67 6 -67 11 0
9 119 1 129 -9z m41 -4 c0 -5 -2 -10 -4 -10 -3 0 -8 5 -11 10 -3 6 -1 10 4 10
6 0 11 -4 11 -10z m50 0 c0 -5 -4 -10 -10 -10 -5 0 -10 5 -10 10 0 6 5 10 10
10 6 0 10 -4 10 -10z m43 -7 c-7 -2 -19 -2 -25 0 -7 3 -2 5 12 5 14 0 19 -2
13 -5z m171 -14 c-3 -5 -10 -7 -15 -3 -5 3 -7 10 -3 15 3 5 10 7 15 3 5 -3 7
-10 3 -15z m54 3 c2 -7 -3 -12 -12 -12 -9 0 -16 7 -16 16 0 17 22 14 28 -4z
m-2035 1 c-7 -2 -21 -2 -30 0 -10 3 -4 5 12 5 17 0 24 -2 18 -5z m410 0 c-7
-2 -21 -2 -30 0 -10 3 -4 5 12 5 17 0 24 -2 18 -5z m185 -20 c-10 -2 -28 -2
-40 0 -13 2 -5 4 17 4 22 1 32 -1 23 -4z m197 -14 c24 -7 20 -8 -19 -4 -27 3
-74 5 -105 5 -36 0 -51 3 -42 9 15 10 120 4 166 -10z m244 -15 c70 -9 43 -16
-34 -9 -44 4 -100 8 -124 10 -24 2 -46 7 -50 11 -5 6 122 -1 208 -12z m-1041
-11 c-10 -2 -26 -2 -35 0 -10 3 -2 5 17 5 19 0 27 -2 18 -5z m2501 -15 c34
-10 169 -6 204 7 15 6 17 0 17 -55 l0 -63 -42 8 c-24 4 -104 10 -179 14 -145
7 -163 13 -172 58 -9 50 -1 56 72 48 36 -3 81 -11 100 -17z m-2480 -14 c2 -2
-10 -4 -27 -4 -17 0 -34 4 -37 10 -5 9 53 3 64 -6z m416 -14 c3 -6 -1 -7 -9
-4 -18 7 -21 14 -7 14 6 0 13 -4 16 -10z m-498 -6 c-3 -3 -12 -4 -19 -1 -8 3
-5 6 6 6 11 1 17 -2 13 -5z m586 -1 c-7 -2 -19 -2 -25 0 -7 3 -2 5 12 5 14 0
19 -2 13 -5z m-4232 -95 c2 -29 -5 -116 -14 -193 -9 -77 -26 -234 -37 -350
-12 -115 -26 -223 -30 -240 -13 -48 -10 197 3 302 13 97 12 113 -6 113 -7 0
-25 11 -42 24 l-30 25 35 14 c19 8 42 17 52 20 12 4 18 23 22 74 4 37 8 83 11
100 3 25 -1 35 -16 43 -24 14 -24 30 0 37 15 4 21 18 26 66 6 48 9 57 16 40 4
-12 9 -46 10 -75z m4354 83 c3 -5 -6 -8 -20 -7 -35 4 -44 16 -12 16 14 0 28
-4 32 -9z m92 -7 c-3 -3 -12 -4 -19 -1 -8 3 -5 6 6 6 11 1 17 -2 13 -5z m-736
-22 c-18 -2 -37 0 -42 5 -5 5 11 6 34 3 41 -4 41 -5 8 -8z m572 11 c-7 -2 -19
-2 -25 0 -7 3 -2 5 12 5 14 0 19 -2 13 -5z m1557 -4 c0 -5 -11 -9 -25 -9 -14
0 -25 4 -25 9 0 5 11 9 25 9 14 0 25 -4 25 -9z m-1713 -5 c-3 -3 -12 -4 -19
-1 -8 3 -5 6 6 6 11 1 17 -2 13 -5z m-3914 -32 c7 -5 32 -12 56 -15 50 -6 71
-21 54 -38 -16 -16 -148 -39 -225 -39 -64 0 -68 1 -74 26 -17 66 125 116 189
66z m4254 22 c-3 -3 -12 -4 -19 -1 -8 3 -5 6 6 6 11 1 17 -2 13 -5z m270 0
c-3 -3 -12 -4 -19 -1 -8 3 -5 6 6 6 11 1 17 -2 13 -5z m161 -4 c17 0 32 -4 32
-8 0 -5 -33 -5 -72 0 -90 10 -123 19 -48 13 30 -3 70 -5 88 -5z m-253 -10 c3
-6 -5 -10 -19 -10 -14 0 -28 5 -31 10 -3 6 5 10 19 10 14 0 28 -4 31 -10z
m-1015 -10 c0 -5 -5 -10 -11 -10 -5 0 -7 5 -4 10 3 6 8 10 11 10 2 0 4 -4 4
-10z m97 4 c-3 -3 -12 -4 -19 -1 -8 3 -5 6 6 6 11 1 17 -2 13 -5z m2283 -49
c0 -2 -7 -5 -15 -9 -9 -3 -15 0 -15 9 0 9 6 12 15 9 8 -4 15 -7 15 -9z m-2333
-11 c-3 -3 -12 -4 -19 -1 -8 3 -5 6 6 6 11 1 17 -2 13 -5z m21 -31 c-10 -2
-26 -2 -35 0 -10 3 -2 5 17 5 19 0 27 -2 18 -5z m2347 -19 c87 -14 185 -44
145 -44 -16 0 -201 30 -218 36 -19 6 -3 26 16 20 10 -3 35 -8 57 -12z m-2352
-11 c-7 -2 -21 -2 -30 0 -10 3 -4 5 12 5 17 0 24 -2 18 -5z m770 -10 c-13 -2
-33 -2 -45 0 -13 2 -3 4 22 4 25 0 35 -2 23 -4z m64 -9 c-3 -3 -12 -4 -19 -1
-8 3 -5 6 6 6 11 1 17 -2 13 -5z m-814 -11 c-7 -2 -19 -2 -25 0 -7 3 -2 5 12
5 14 0 19 -2 13 -5z m475 0 c-10 -2 -26 -2 -35 0 -10 3 -2 5 17 5 19 0 27 -2
18 -5z m485 0 c-7 -2 -19 -2 -25 0 -7 3 -2 5 12 5 14 0 19 -2 13 -5z m67 -9
c0 -2 -9 -4 -20 -4 -11 0 -20 4 -20 9 0 5 9 7 20 4 11 -3 20 -7 20 -9z m-503
0 c-3 -3 -12 -4 -19 -1 -8 3 -5 6 6 6 11 1 17 -2 13 -5z m1410 0 c-3 -3 -12
-4 -19 -1 -8 3 -5 6 6 6 11 1 17 -2 13 -5z m-1912 -19 c6 -2 -11 -4 -37 -4
-27 -1 -48 3 -48 7 0 7 62 5 85 -3z m2656 5 c16 0 29 -4 29 -10 0 -11 -37 -13
-104 -4 -25 4 -46 11 -46 17 0 6 18 7 46 3 26 -3 60 -6 75 -6z m-2314 -16 c-3
-3 -12 -4 -19 -1 -8 3 -5 6 6 6 11 1 17 -2 13 -5z m-4422 -27 c20 -28 4 -45
-41 -44 -28 1 -38 6 -45 25 -12 32 -7 38 35 39 26 1 40 -5 51 -20z m4058 6
c-7 -2 -19 -2 -25 0 -7 3 -2 5 12 5 14 0 19 -2 13 -5z m-18 -23 c13 -5 14 -9
5 -9 -8 0 -24 4 -35 9 -13 5 -14 9 -5 9 8 0 24 -4 35 -9z m1935 -34 c0 -2 -9
-2 -20 1 -11 3 -20 9 -20 15 0 5 9 4 20 -2 11 -6 20 -12 20 -14z m187 8 c-3
-3 -12 -4 -19 -1 -8 3 -5 6 6 6 11 1 17 -2 13 -5z m1683 -4 c0 -5 -7 -7 -15
-4 -8 4 -15 8 -15 10 0 2 7 4 15 4 8 0 15 -4 15 -10z m-3362 -7 c-10 -2 -26
-2 -35 0 -10 3 -2 5 17 5 19 0 27 -2 18 -5z m-3950 -33 c83 -39 82 -63 -6 -94
-23 -8 -54 -25 -70 -36 -25 -19 -33 -20 -53 -9 -13 7 -31 15 -39 19 -8 4 -16
23 -18 43 -2 28 3 43 28 71 40 45 72 47 158 6z m5404 -2 c-15 -15 -24 -6 -16
16 5 12 10 14 17 7 8 -8 8 -14 -1 -23z m-1919 15 c-7 -2 -19 -2 -25 0 -7 3 -2
5 12 5 14 0 19 -2 13 -5z m1080 0 c-7 -2 -19 -2 -25 0 -7 3 -2 5 12 5 14 0 19
-2 13 -5z m84 -9 c-3 -3 -12 -4 -19 -1 -8 3 -5 6 6 6 11 1 17 -2 13 -5z
m-1102 -23 c35 -8 36 -9 10 -9 -16 -1 -48 3 -70 7 -35 8 -36 9 -10 9 17 1 48
-3 70 -7z m702 -7 c-3 -3 -12 -4 -19 -1 -8 3 -5 6 6 6 11 1 17 -2 13 -5z
m-292 -14 c19 -8 19 -9 -2 -9 -12 -1 -25 4 -28 9 -7 12 2 12 30 0z m-478 -6
c-3 -3 -12 -4 -19 -1 -8 3 -5 6 6 6 11 1 17 -2 13 -5z m-3300 -46 c77 -39 104
-60 91 -74 -6 -6 -296 -84 -312 -84 -19 0 -55 43 -58 70 -3 19 3 25 29 30 35
8 143 76 143 91 0 16 19 10 107 -33z m3331 15 c-10 -2 -28 -2 -40 0 -13 2 -5
4 17 4 22 1 32 -1 23 -4z m75 -10 c-7 -2 -21 -2 -30 0 -10 3 -4 5 12 5 17 0
24 -2 18 -5z m520 0 c-7 -2 -21 -2 -30 0 -10 3 -4 5 12 5 17 0 24 -2 18 -5z
m657 -3 c13 -9 13 -10 0 -10 -8 0 -22 5 -30 10 -13 9 -13 10 0 10 8 0 22 -5
30 -10z m-1221 -16 c2 -2 -16 -4 -42 -4 -25 0 -48 4 -51 9 -5 8 84 3 93 -5z
m639 9 c-10 -2 -28 -2 -40 0 -13 2 -5 4 17 4 22 1 32 -1 23 -4z m635 0 c-7 -2
-19 -2 -25 0 -7 3 -2 5 12 5 14 0 19 -2 13 -5z m112 -16 c7 -6 2 -8 -15 -3
-14 3 -37 6 -52 6 -16 0 -28 4 -28 9 0 12 82 2 95 -12z m-688 7 c-3 -3 -12 -4
-19 -1 -8 3 -5 6 6 6 11 1 17 -2 13 -5z m63 -4 c13 -9 13 -10 0 -10 -8 0 -22
5 -30 10 -13 9 -13 10 0 10 8 0 22 -5 30 -10z m2217 -5 c8 -22 1 -26 -37 -19
-30 7 -32 8 -15 21 25 17 44 17 52 -2z m-2934 -2 c-7 -2 -19 -2 -25 0 -7 3 -2
5 12 5 14 0 19 -2 13 -5z m877 -14 c24 -5 14 -6 -30 -2 -36 3 -74 9 -85 14
-23 9 63 1 115 -12z m517 15 c-3 -3 -12 -4 -19 -1 -8 3 -5 6 6 6 11 1 17 -2
13 -5z m1793 -9 c0 -8 -4 -15 -10 -15 -5 0 -7 7 -4 15 4 8 8 15 10 15 2 0 4
-7 4 -15z m70 -6 c0 -5 -4 -9 -10 -9 -5 0 -10 7 -10 16 0 8 5 12 10 9 6 -3 10
-10 10 -16z m-3373 5 c-3 -3 -12 -4 -19 -1 -8 3 -5 6 6 6 11 1 17 -2 13 -5z
m1591 -1 c-10 -2 -26 -2 -35 0 -10 3 -2 5 17 5 19 0 27 -2 18 -5z m90 -10
c-10 -2 -28 -2 -40 0 -13 2 -5 4 17 4 22 1 32 -1 23 -4z m92 -9 c0 -2 -16 -4
-36 -4 -19 0 -33 4 -30 8 5 8 66 4 66 -4z m2008 -8 c4 -17 0 -18 -49 -11 -30
5 -112 8 -184 6 -84 -1 -126 2 -120 8 13 13 82 18 230 17 109 -1 120 -3 123
-20z m-4728 -7 c0 -5 -7 -9 -15 -9 -15 0 -20 12 -9 23 8 8 24 -1 24 -14z
m4075 11 c4 -6 -6 -10 -24 -10 -16 0 -33 5 -36 10 -4 6 6 10 24 10 16 0 33 -4
36 -10z m722 -6 c-27 -15 -47 -12 -47 7 0 5 17 9 38 9 l37 -1 -28 -15z m-3850
0 c-3 -3 -12 -4 -19 -1 -8 3 -5 6 6 6 11 1 17 -2 13 -5z m1841 -1 c-10 -2 -26
-2 -35 0 -10 3 -2 5 17 5 19 0 27 -2 18 -5z m-1785 -10 c-7 -2 -21 -2 -30 0
-10 3 -4 5 12 5 17 0 24 -2 18 -5z m-56 -19 c-3 -3 -12 -4 -19 -1 -8 3 -5 6 6
6 11 1 17 -2 13 -5z m83 -10 c0 -2 -13 -4 -30 -4 -16 0 -30 4 -30 8 0 5 14 7
30 4 17 -2 30 -6 30 -8z m383 9 c-7 -2 -21 -2 -30 0 -10 3 -4 5 12 5 17 0 24
-2 18 -5z m-463 -29 c0 -2 -7 -4 -15 -4 -8 0 -15 4 -15 10 0 5 7 7 15 4 8 -4
15 -8 15 -10z m3563 3 c3 -8 -1 -14 -9 -14 -8 0 -14 6 -14 14 0 7 4 13 9 13 5
0 11 -6 14 -13z m187 -11 c8 -3 -25 -4 -74 -3 -53 1 -91 6 -93 13 -3 9 124 2
167 -10z m169 -12 c2 -2 -14 -4 -37 -4 -23 0 -42 5 -42 10 0 10 67 4 79 -6z
m-3899 -10 c0 -2 -11 -4 -25 -4 -14 0 -25 4 -25 9 0 4 11 6 25 3 14 -2 25 -6
25 -8z m-26 -23 c3 -4 -6 -6 -19 -3 -14 2 -25 6 -25 8 0 8 39 4 44 -5z m-3969
-30 c3 -5 1 -12 -5 -16 -5 -3 -10 1 -10 9 0 18 6 21 15 7z m3979 0 c3 -4 -6
-6 -19 -3 -14 2 -25 6 -25 8 0 8 39 4 44 -5z m903 3 c-3 -3 -12 -4 -19 -1 -8
3 -5 6 6 6 11 1 17 -2 13 -5z m2933 -9 c0 -9 -14 -16 -37 -20 -21 -4 -56 -15
-79 -26 -50 -23 -54 -23 -54 -3 0 9 -5 12 -12 8 -8 -5 0 -17 23 -37 29 -25 30
-28 10 -22 -18 5 -22 4 -16 -5 5 -9 4 -11 -3 -6 -7 4 -20 3 -29 -3 -12 -6 -26
-5 -46 5 -65 34 -6 87 123 110 92 17 120 17 120 -1z m-3387 -2 c-7 -2 -19 -2
-25 0 -7 3 -2 5 12 5 14 0 19 -2 13 -5z m54 -9 c-3 -3 -12 -4 -19 -1 -8 3 -5
6 6 6 11 1 17 -2 13 -5z m-472 -14 c27 -7 27 -8 5 -8 -14 0 -38 4 -55 8 -27 7
-27 8 -5 8 14 0 39 -4 55 -8z m-32 -27 c-7 -2 -21 -2 -30 0 -10 3 -4 5 12 5
17 0 24 -2 18 -5z m-12 -31 c-7 -2 -18 1 -23 6 -8 8 -4 9 13 5 13 -4 18 -8 10
-11z m2999 -12 c0 -31 -16 -41 -26 -15 -8 19 2 45 16 45 5 0 10 -13 10 -30z
m-3000 -10 c20 -6 21 -8 5 -8 -11 0 -29 3 -40 8 -25 11 1 11 35 0z m553 -7
c-7 -2 -19 -2 -25 0 -7 3 -2 5 12 5 14 0 19 -2 13 -5z m-663 -13 c0 -5 -4 -10
-9 -10 -6 0 -13 5 -16 10 -3 6 1 10 9 10 9 0 16 -4 16 -10z m577 4 c-3 -3 -12
-4 -19 -1 -8 3 -5 6 6 6 11 1 17 -2 13 -5z m160 0 c-3 -3 -12 -4 -19 -1 -8 3
-5 6 6 6 11 1 17 -2 13 -5z m2738 -5 c-4 -5 -43 -9 -88 -9 -46 0 -76 4 -69 8
18 12 164 13 157 1z m-3365 -9 c0 -5 -7 -7 -15 -4 -8 4 -15 8 -15 10 0 2 7 4
15 4 8 0 15 -4 15 -10z m687 4 c-3 -3 -12 -4 -19 -1 -8 3 -5 6 6 6 11 1 17 -2
13 -5z m3148 -4 l20 -9 -20 0 c-11 0 -27 4 -35 9 -13 9 -13 10 0 9 8 0 24 -4
35 -9z m-3798 -6 c-3 -3 -12 -4 -19 -1 -8 3 -5 6 6 6 11 1 17 -2 13 -5z m-67
-14 c0 -12 -8 -12 -35 0 -18 8 -17 9 8 9 15 1 27 -3 27 -9z m2363 -99 c-5 -21
18 -71 42 -91 9 -7 21 -23 27 -34 5 -12 -11 0 -37 26 -38 36 -48 53 -49 80 -1
26 -10 42 -38 67 -56 49 -46 59 11 11 34 -29 47 -47 44 -59z m-228 78 c9 -14
-3 -130 -15 -149 -7 -12 -14 -12 -27 -4 -21 13 -27 59 -18 121 5 37 10 43 30
43 13 0 27 -5 30 -11z m1080 1 c3 -5 2 -10 -4 -10 -5 0 -13 5 -16 10 -3 6 -2
10 4 10 5 0 13 -4 16 -10z m35 -20 c0 -5 -2 -10 -4 -10 -3 0 -8 5 -11 10 -3 6
-1 10 4 10 6 0 11 -4 11 -10z m-270 -8 c0 -25 -284 -102 -303 -83 -5 5 24 14
65 21 74 12 181 42 208 60 18 12 30 13 30 2z m-1030 -11 c0 -4 -11 -6 -25 -3
-14 2 -25 6 -25 8 0 2 11 4 25 4 14 0 25 -4 25 -9z m50 -7 c0 -2 -9 -4 -20 -4
-11 0 -20 4 -20 9 0 5 9 7 20 4 11 -3 20 -7 20 -9z m-3700 -9 c0 -8 -4 -15
-10 -15 -5 0 -10 7 -10 15 0 8 5 15 10 15 6 0 10 -7 10 -15z m2273 -2 c-7 -2
-19 -2 -25 0 -7 3 -2 5 12 5 14 0 19 -2 13 -5z m70 -10 c-7 -2 -19 -2 -25 0
-7 3 -2 5 12 5 14 0 19 -2 13 -5z m64 -9 c-3 -3 -12 -4 -19 -1 -8 3 -5 6 6 6
11 1 17 -2 13 -5z m1213 -4 c0 -5 -4 -10 -10 -10 -5 0 -10 5 -10 10 0 6 5 10
10 10 6 0 10 -4 10 -10z m612 -25 l73 -13 -56 -1 c-61 -1 -163 25 -154 39 3 5
18 4 35 -2 16 -5 62 -16 102 -23z m1348 -24 c0 -8 6 -11 16 -7 19 7 44 -10 44
-31 0 -18 -37 -8 -61 16 -9 9 -26 22 -37 30 -12 8 -19 18 -16 22 7 11 54 -14
54 -30z m-1776 -47 c28 -11 17 -32 -19 -36 -36 -4 -39 -1 -29 26 6 17 22 20
48 10z m1141 -44 c27 -30 12 -34 -15 -5 -13 14 -19 25 -13 25 5 0 18 -9 28
-20z m-210 -65 c28 -12 23 -13 -69 -14 -105 -1 -117 4 -45 18 63 12 80 12 114
-4z m-4667 -20 c28 -14 57 -25 66 -25 9 0 16 -4 16 -9 0 -4 12 -6 28 -4 26 4
26 4 7 -12 -11 -9 -44 -23 -74 -32 -53 -15 -54 -15 -77 8 -24 26 -44 99 -26
99 6 0 33 -11 60 -25z m4301 -9 c-2 -1 -19 -8 -36 -14 -37 -12 -45 -6 -10 8
22 9 54 13 46 6z m-569 -26 c0 -22 -3 -23 -37 -14 -34 9 -29 34 7 34 23 0 30
-4 30 -20z m-585 -76 c86 -15 206 -62 221 -86 5 -8 1 -9 -12 -4 -10 5 -73 10
-139 12 -153 4 -193 11 -205 35 -10 17 -7 19 22 20 31 1 32 1 8 9 -14 4 -44 8
-67 9 -24 1 -43 6 -43 11 0 15 113 12 215 -6z m290 -57 c6 -1 12 -5 15 -9 4
-4 50 -9 104 -10 53 -1 99 -5 101 -9 7 -10 -50 -19 -123 -19 -55 0 -72 4 -104
26 -41 29 -49 40 -20 29 9 -3 22 -7 27 -8z m320 -47 c28 -7 28 -8 -12 -9 -23
0 -45 4 -48 9 -7 11 16 11 60 0z m-160 -80 c11 -17 -5 -11 -28 11 l-22 21 22
-11 c12 -6 25 -16 28 -21z m35 -15 c-22 -13 -16 -21 12 -16 4 0 5 -6 2 -13 -5
-12 -9 -12 -24 2 -22 18 -10 42 19 42 11 -1 8 -5 -9 -15z m-6013 -183 c95 -53
173 -100 173 -104 0 -6 -255 133 -345 189 -88 55 10 6 172 -85z m913 -8 c0
-19 -34 -74 -46 -74 -14 0 -19 36 -8 64 6 15 54 24 54 10z m-700 -24 c0 -5 -5
-10 -11 -10 -5 0 -7 5 -4 10 3 6 8 10 11 10 2 0 4 -4 4 -10z m80 -45 c0 -8 -4
-15 -10 -15 -5 0 -10 7 -10 15 0 8 5 15 10 15 6 0 10 -7 10 -15z m7190 -79
c-14 -7 -36 -16 -50 -20 -14 -3 -7 3 15 13 45 22 73 27 35 7z m-1805 -26 c18
-35 12 -65 -16 -80 -10 -6 -19 -17 -19 -25 0 -8 -6 -15 -14 -15 -8 0 -22 -3
-31 -6 -11 -5 -18 0 -22 16 -6 22 -7 22 -20 5 -7 -11 -13 -15 -13 -10 0 5 -9
-1 -20 -13 -21 -22 -50 -30 -50 -13 0 5 7 16 15 25 8 8 15 17 15 20 0 3 14 20
31 37 25 26 33 29 41 18 8 -12 10 -12 15 0 7 17 56 71 65 71 4 0 15 -14 23
-30z m-238 -54 c23 -1 40 -45 19 -50 -6 -2 -28 -9 -49 -16 -50 -16 -61 -4 -58
58 1 20 5 22 34 16 17 -4 42 -8 54 -8z m-5098 -68 c0 -27 -2 -29 -8 -13 -5 11
-6 26 -4 33 8 21 13 13 12 -20z m7538 6 c-3 -3 -12 -4 -19 -1 -8 3 -5 6 6 6
11 1 17 -2 13 -5z m-4521 -79 c-14 -6 -35 -20 -48 -32 -23 -21 -96 -63 -110
-63 -5 0 -8 12 -8 28 0 22 11 34 58 64 69 44 91 49 115 29 18 -15 18 -16 -7
-26z m-3035 -2 c-8 -15 -10 -15 -11 -2 0 17 10 32 18 25 2 -3 -1 -13 -7 -23z
m3072 -28 c-16 -22 -53 -35 -53 -18 0 14 34 43 52 43 18 0 18 -1 1 -25z m-33
-44 c0 -19 -30 -33 -57 -26 -27 6 -27 7 -9 21 22 15 66 19 66 5z m-60 -42 c13
-9 13 -10 0 -6 -8 2 -23 0 -32 -5 -11 -5 -18 -5 -18 1 0 8 15 18 30 20 3 0 12
-4 20 -10z m-3000 -86 c0 -4 -7 -33 -16 -65 -11 -37 -22 -58 -31 -58 -12 0
-14 8 -9 38 10 55 27 92 42 92 8 0 14 -3 14 -7z m-55 -212 l-7 -46 -16 32
c-14 30 -14 34 1 51 9 10 18 25 18 33 1 8 3 6 6 -5 3 -10 2 -39 -2 -65z m-57
-598 c-32 -2 -86 -2 -120 0 -35 2 -9 3 57 3 66 0 94 -1 63 -3z m-225 -10 c-7
-2 -19 -2 -25 0 -7 3 -2 5 12 5 14 0 19 -2 13 -5z m-106 -9 c-3 -3 -12 -4 -19
-1 -8 3 -5 6 6 6 11 1 17 -2 13 -5z m4285 -24 c21 -19 21 -21 3 -33 -12 -10
-14 -16 -7 -21 13 -8 16 -36 5 -36 -15 0 -94 100 -87 111 9 16 60 3 86 -21z
m-3832 -415 c0 -3 -9 -38 -21 -78 -11 -39 -24 -85 -28 -102 -9 -40 -51 -56
-89 -34 -37 20 -53 55 -41 88 15 39 179 155 179 126z"/>
<path d="M6685 4480 c3 -5 11 -10 16 -10 6 0 7 5 4 10 -3 6 -11 10 -16 10 -6
0 -7 -4 -4 -10z"/>
<path d="M5847 2829 c7 -7 15 -10 18 -7 3 3 -2 9 -12 12 -14 6 -15 5 -6 -5z"/>
<path d="M2545 5412 c-22 -16 -41 -131 -24 -146 2 -2 23 -6 47 -9 42 -5 42 -5
42 26 0 18 -3 56 -6 85 -6 44 -10 52 -28 52 -12 0 -26 -4 -31 -8z"/>
<path d="M4468 5393 c-36 -14 -51 -33 -27 -33 7 0 10 -14 7 -36 l-4 -37 22 27
c24 27 48 32 74 16 9 -6 17 -5 23 3 5 7 10 8 13 2 12 -27 21 -34 42 -29 31 9
13 37 -46 75 -53 33 -54 33 -104 12z"/>
<path d="M1960 5359 c-19 -12 -53 -26 -75 -29 -22 -4 -60 -12 -85 -19 -25 -6
-70 -13 -101 -17 -64 -6 -89 -20 -91 -51 -2 -18 -5 -19 -25 -10 -21 9 -28 6
-59 -25 -22 -23 -58 -44 -100 -59 -36 -13 -70 -31 -75 -40 -5 -10 -35 -25 -66
-34 -66 -19 -83 -30 -83 -54 0 -10 -13 -30 -30 -46 -16 -16 -30 -34 -30 -40 0
-7 -14 -24 -31 -39 -29 -26 -31 -31 -25 -74 9 -65 25 -102 45 -102 9 0 24 -7
34 -15 25 -18 17 -39 -40 -116 -50 -69 -50 -79 5 -114 40 -25 55 -68 42 -114
-10 -35 -1 -55 38 -86 7 -5 18 -37 25 -70 8 -37 25 -77 45 -104 18 -25 32 -56
32 -72 0 -16 18 -69 40 -118 22 -49 40 -96 40 -105 0 -20 30 -80 64 -131 14
-19 26 -41 28 -47 6 -16 99 -29 251 -35 l128 -5 42 48 c23 26 76 82 118 123
72 72 139 158 139 179 0 18 55 110 89 148 31 34 35 36 46 20 7 -9 16 -37 20
-62 3 -24 10 -42 15 -39 5 3 7 18 4 34 -4 19 2 44 20 79 23 46 35 112 20 112
-19 0 -42 -24 -47 -50 -9 -41 -37 -41 -37 1 0 22 11 41 40 70 22 22 40 44 40
49 0 5 11 17 24 26 23 14 28 14 71 -5 26 -11 54 -30 63 -41 14 -18 20 -19 34
-8 12 10 19 39 26 109 7 70 16 111 36 153 42 88 43 111 7 190 -32 68 -32 68
-15 112 9 24 14 53 11 64 -3 13 0 23 8 26 16 7 27 46 19 68 -3 9 -17 16 -30
16 -13 0 -28 9 -34 20 -6 11 -33 29 -60 41 -28 12 -62 35 -75 51 -24 28 -24
30 -8 61 18 35 20 124 4 140 -7 7 -18 7 -33 -1 -13 -7 -48 -12 -78 -13 -30 -1
-78 -6 -106 -12 -65 -12 -119 3 -128 37 -4 16 -15 26 -33 29 -16 3 -39 8 -53
12 -17 4 -37 -2 -60 -16z m-355 -299 c9 -15 -14 -40 -36 -40 -21 0 -25 20 -7
38 15 15 35 15 43 2z m-272 -316 c3 -4 -3 -25 -15 -47 -19 -38 -21 -40 -34
-22 -11 15 -11 22 3 46 17 28 33 36 46 23z"/>
<path d="M6270 5357 c0 -22 26 -52 34 -39 4 7 18 12 31 12 19 0 35 16 35 36 0
2 -22 4 -50 4 -35 0 -50 -4 -50 -13z"/>
<path d="M6410 5301 l-35 -6 40 -18 c50 -21 87 -26 92 -10 3 10 -48 46 -59 42
-2 -1 -19 -4 -38 -8z"/>
<path d="M4398 5216 c-8 -6 -19 -22 -23 -36 -6 -20 -5 -23 6 -14 8 6 24 14 37
17 18 4 22 1 22 -17 0 -29 -39 -51 -74 -42 -14 3 -26 2 -26 -3 0 -5 -2 -16 -6
-24 -7 -18 84 -31 104 -14 8 6 26 10 42 9 56 -4 230 68 230 96 0 10 -22 32
-32 32 -4 0 -8 -8 -8 -19 0 -32 -25 -45 -61 -32 -26 9 -36 8 -49 -4 -25 -23
-43 -18 -79 19 -38 39 -61 48 -83 32z"/>
<path d="M6890 5148 c0 -25 3 -29 10 -18 13 20 13 50 0 50 -5 0 -10 -15 -10
-32z"/>
<path d="M1114 5114 c3 -9 6 -19 6 -22 0 -9 20 21 20 31 0 4 -7 7 -16 7 -11 0
-14 -5 -10 -16z"/>
<path d="M6533 5070 c-34 -14 -28 -30 10 -30 40 0 51 8 36 27 -13 15 -16 15
-46 3z"/>
<path d="M3600 4959 c-30 -5 -61 -16 -69 -24 -22 -21 -33 -134 -16 -159 10
-13 11 -25 4 -37 -6 -12 -6 -67 1 -155 6 -75 8 -145 5 -155 -8 -26 31 -40 104
-38 31 1 66 -1 78 -5 15 -5 25 -1 36 15 9 12 29 30 46 40 27 16 29 21 21 51
-5 18 -11 68 -15 110 -4 43 -10 80 -14 83 -11 6 -30 -90 -30 -146 1 -56 -25
-112 -49 -107 -26 5 -23 94 5 133 36 50 66 350 39 393 -8 14 -66 14 -146 1z
m115 -39 c12 -19 15 -55 6 -69 -9 -15 -81 -29 -119 -23 -12 2 -29 16 -37 31
-13 26 -12 30 3 44 26 23 135 36 147 17z m-55 -145 c0 -8 -6 -15 -14 -15 -20
0 -29 17 -14 23 22 9 28 7 28 -8z"/>
<path d="M3988 4890 c-26 -29 -26 -31 -5 -24 22 6 22 6 -2 -20 -26 -27 -22
-33 9 -16 27 15 41 45 32 69 -7 20 -9 20 -34 -9z"/>
<path d="M3910 4865 c-19 -19 -30 -35 -24 -35 10 0 74 55 74 64 0 14 -19 3
-50 -29z"/>
<path d="M3845 4790 c4 -6 11 -8 16 -5 14 9 11 15 -7 15 -8 0 -12 -5 -9 -10z"/>
<path d="M2727 4754 c-19 -10 -26 -21 -23 -32 3 -9 8 -48 12 -85 11 -111 49
-135 224 -139 l105 -3 3 28 c5 42 -11 53 -84 60 -71 7 -94 19 -94 47 0 12 -11
20 -36 25 -34 6 -36 8 -30 36 7 35 -11 79 -33 79 -9 -1 -29 -8 -44 -16z"/>
<path d="M4966 4704 c-10 -25 1 -29 14 -5 6 12 7 21 1 21 -5 0 -12 -7 -15 -16z"/>
<path d="M1070 4630 c0 -5 5 -10 10 -10 6 0 10 5 10 10 0 6 -4 10 -10 10 -5 0
-10 -4 -10 -10z"/>
<path d="M0 4065 c0 -9 9 -15 25 -15 18 0 23 4 19 15 -4 8 -15 15 -25 15 -10
0 -19 -7 -19 -15z"/>
<path d="M2326 3968 c-11 -43 -6 -83 17 -122 12 -22 27 -41 34 -43 15 -5 52
35 60 66 8 33 -6 52 -56 76 -24 12 -42 24 -41 29 4 20 -8 14 -14 -6z"/>
<path d="M2844 3700 c-37 -15 -38 -30 -2 -24 40 8 74 34 43 33 -11 0 -30 -4
-41 -9z"/>
<path d="M2966 3691 c-4 -5 -2 -12 4 -16 5 -3 10 -17 10 -30 0 -19 16 -35 35
-35 2 0 -2 19 -8 42 -12 41 -30 58 -41 39z"/>
<path d="M2711 3574 c0 -11 3 -14 6 -6 3 7 2 16 -1 19 -3 4 -6 -2 -5 -13z"/>
<path d="M3060 3480 c0 -5 5 -10 11 -10 5 0 7 5 4 10 -3 6 -8 10 -11 10 -2 0
-4 -4 -4 -10z"/>
<path d="M2884 3446 c-10 -8 -17 -17 -14 -19 3 -3 16 3 30 13 29 22 14 27 -16
6z"/>
<path d="M2830 3361 c-7 -15 -7 -21 0 -21 12 0 25 28 17 36 -3 3 -10 -4 -17
-15z"/>
<path d="M4011 3272 c-5 -10 -35 -124 -66 -253 -31 -129 -83 -344 -116 -479
-33 -134 -58 -253 -57 -264 2 -13 17 -24 48 -34 25 -7 51 -16 59 -18 10 -3 11
-7 1 -18 -9 -12 -5 -16 22 -24 18 -6 245 -71 505 -146 259 -75 480 -136 490
-136 11 0 24 5 30 11 15 15 143 -16 177 -42 24 -19 24 -19 35 9 6 15 44 167
85 337 41 171 100 412 130 537 63 257 67 294 34 307 -13 5 -122 25 -243 46
-121 20 -317 54 -435 75 -689 123 -683 122 -699 92z m69 -121 c0 -5 -9 -7 -20
-4 -11 3 -20 7 -20 9 0 2 9 4 20 4 11 0 20 -4 20 -9z m97 -17 c-3 -3 -12 -4
-19 -1 -8 3 -5 6 6 6 11 1 17 -2 13 -5z m100 -20 c-3 -3 -12 -4 -19 -1 -8 3
-5 6 6 6 11 1 17 -2 13 -5z m73 -14 c0 -5 -2 -10 -4 -10 -3 0 -8 5 -11 10 -3
6 -1 10 4 10 6 0 11 -4 11 -10z m-275 -51 c22 -6 48 -17 58 -24 15 -11 11 -12
-27 -8 -38 5 -46 3 -46 -11 0 -9 -5 -16 -11 -16 -6 0 -8 9 -4 21 5 15 2 22
-14 26 -23 6 -29 23 -8 23 6 0 30 -5 52 -11z m135 -39 l25 -8 -25 -1 c-14 0
-32 4 -40 9 -13 9 -13 10 0 9 8 -1 26 -5 40 -9z m347 -6 c-3 -3 -12 -4 -19 -1
-8 3 -5 6 6 6 11 1 17 -2 13 -5z m-217 -23 l25 -12 -25 6 c-14 2 -35 5 -47 5
-13 0 -23 5 -23 10 0 12 34 8 70 -9z m-190 -12 c17 -6 10 -7 -20 -3 -25 3 -49
10 -55 16 -10 9 22 4 75 -13z m881 11 c6 0 8 -4 5 -9 -4 -5 -14 -8 -24 -6 -9
2 -21 4 -25 4 -5 1 -5 6 -2 12 4 6 14 8 22 5 8 -3 19 -6 24 -6z m-981 -16 c0
-8 -5 -12 -10 -9 -6 4 -8 11 -5 16 9 14 15 11 15 -7z m443 -10 c62 -16 188
-40 287 -54 30 -4 73 -13 95 -18 22 -6 67 -16 100 -22 33 -7 87 -18 120 -25
33 -8 77 -16 98 -20 20 -3 37 -11 37 -16 0 -6 -8 -8 -17 -5 -10 3 -144 31
-298 62 -200 40 -293 54 -325 51 -30 -4 -38 -3 -25 3 11 5 18 9 15 10 -3 1
-52 12 -110 25 -64 14 -92 23 -71 24 18 1 61 -6 94 -15z m-353 -15 c-29 -8
-62 -10 -42 -2 6 2 10 8 8 12 -3 4 9 5 27 2 31 -4 31 -5 7 -12z m1083 5 c9 -3
17 -10 17 -16 0 -5 -7 -7 -17 -4 -9 4 -32 9 -52 12 -59 10 -73 26 -16 19 28
-3 58 -8 68 -11z m-856 0 c-3 -3 -12 -4 -19 -1 -8 3 -5 6 6 6 11 1 17 -2 13
-5z m-331 -31 c-10 -10 -19 5 -10 18 6 11 8 11 12 0 2 -7 1 -15 -2 -18z m381
21 c-3 -3 -12 -4 -19 -1 -8 3 -5 6 6 6 11 1 17 -2 13 -5z m878 -14 c-3 -4 -15
-6 -27 -2 -21 5 -21 6 -2 12 21 8 37 3 29 -10z m-125 0 c13 -8 13 -10 -2 -10
-9 0 -20 5 -23 10 -8 13 5 13 25 0z m-1068 -9 c-16 -10 -12 -30 9 -51 15 -14
15 -16 -2 -32 -11 -10 -19 -13 -19 -8 0 6 -8 10 -17 10 -16 0 -16 2 -3 11 12
9 11 10 -7 6 -16 -3 -23 0 -23 9 0 8 9 14 20 14 13 0 20 7 20 18 0 21 8 32 24
32 6 0 5 -4 -2 -9z m405 3 c-3 -3 -12 -4 -19 -1 -8 3 -5 6 6 6 11 1 17 -2 13
-5z m-473 -29 c-4 -8 -10 -12 -15 -9 -14 8 -10 24 6 24 9 0 12 -6 9 -15z m307
-3 c-7 -2 -18 1 -23 6 -8 8 -4 9 13 5 13 -4 18 -8 10 -11z m969 8 c0 -5 -2
-10 -4 -10 -3 0 -8 5 -11 10 -3 6 -1 10 4 10 6 0 11 -4 11 -10z m-1285 -40
c-3 -5 -10 -10 -16 -10 -5 0 -9 5 -9 10 0 6 7 10 16 10 8 0 12 -4 9 -10z m342
-26 c26 -7 58 -13 71 -14 12 0 22 -4 22 -9 0 -5 6 -9 13 -8 6 0 26 -1 42 -2
25 -1 27 -3 13 -11 -16 -10 -120 8 -148 25 -6 4 -18 1 -26 -6 -12 -10 -13 -9
-8 5 3 9 2 16 -4 16 -5 0 -12 -9 -15 -21 -4 -13 -10 -18 -17 -14 -9 6 -9 10 1
16 9 6 10 12 4 17 -5 4 -11 16 -13 27 -2 16 -1 17 7 6 5 -8 31 -20 58 -27z
m110 30 c-3 -3 -12 -4 -19 -1 -8 3 -5 6 6 6 11 1 17 -2 13 -5z m357 -3 c4 -5
-3 -7 -14 -4 -23 6 -26 13 -6 13 8 0 17 -4 20 -9z m-659 -11 c3 -5 1 -10 -4
-10 -6 0 -11 5 -11 10 0 6 2 10 4 10 3 0 8 -4 11 -10z m420 -5 c28 -7 41 -13
30 -13 -11 -1 -45 5 -75 13 -30 7 -44 13 -30 13 14 0 48 -6 75 -13z m335 -4
c0 -5 -9 -7 -20 -4 -11 3 -20 7 -20 9 0 2 9 4 20 4 11 0 20 -4 20 -9z m-650
-11 c-8 -5 -19 -10 -25 -10 -5 0 -3 5 5 10 8 5 20 10 25 10 6 0 3 -5 -5 -10z
m715 0 c13 -5 14 -9 5 -9 -8 0 -24 4 -35 9 -13 5 -14 9 -5 9 8 0 24 -4 35 -9z
m-922 -7 c-7 -2 -21 -2 -30 0 -10 3 -4 5 12 5 17 0 24 -2 18 -5z m967 -3 c0
-5 -5 -10 -11 -10 -5 0 -7 5 -4 10 3 6 8 10 11 10 2 0 4 -4 4 -10z m61 -18
c-13 -2 -27 0 -32 5 -6 6 3 7 23 4 28 -4 29 -6 9 -9z m-1014 1 c-13 -3 -16
-12 -13 -40 2 -19 10 -39 17 -44 11 -7 11 -9 -3 -9 -9 0 -24 3 -33 6 -13 5
-14 8 -3 15 8 6 9 9 1 9 -8 0 -8 9 0 35 8 26 16 35 31 34 17 -1 18 -2 3 -6z
m1113 -13 c0 -5 -4 -10 -10 -10 -5 0 -10 5 -10 10 0 6 5 10 10 10 6 0 10 -4
10 -10z m-593 -26 c-3 -3 -12 -4 -19 -1 -8 3 -5 6 6 6 11 1 17 -2 13 -5z m108
-4 c19 -8 19 -9 -2 -9 -12 -1 -25 4 -28 9 -7 12 2 12 30 0z m-282 -47 c-7 -2
-19 -2 -25 0 -7 3 -2 5 12 5 14 0 19 -2 13 -5z m792 -3 c3 -5 -1 -10 -9 -10
-9 0 -16 5 -16 10 0 6 4 10 9 10 6 0 13 -4 16 -10z m-1175 -4 c0 -3 -4 -8 -10
-11 -5 -3 -10 -1 -10 4 0 6 5 11 10 11 6 0 10 -2 10 -4z m320 -6 c11 -8 7 -9
-15 -4 -37 8 -45 14 -19 14 10 0 26 -5 34 -10z m164 -9 c4 -5 -3 -7 -14 -4
-23 6 -26 13 -6 13 8 0 17 -4 20 -9z m-494 -41 c-20 -13 -33 -13 -25 0 3 6 14
10 23 10 15 0 15 -2 2 -10z m265 -10 c3 -5 2 -10 -4 -10 -5 0 -13 5 -16 10 -3
6 -2 10 4 10 5 0 13 -4 16 -10z m-275 -24 c0 -8 -6 -17 -12 -19 -7 -3 -3 -6 9
-6 17 -1 21 3 17 17 -4 10 -3 13 3 6 4 -7 16 -13 26 -15 12 -3 2 -10 -27 -20
-45 -16 -45 -16 -41 5 2 11 4 27 4 34 1 17 21 15 21 -2z m1180 0 c0 -3 -4 -8
-10 -11 -5 -3 -10 -1 -10 4 0 6 5 11 10 11 6 0 10 -2 10 -4z m-900 -26 c0 -5
-4 -10 -10 -10 -5 0 -10 5 -10 10 0 6 5 10 10 10 6 0 10 -4 10 -10z m783 -48
c-6 -24 -23 -30 -23 -9 0 13 21 39 26 34 2 -2 1 -13 -3 -25z m-670 11 c-7 -2
-19 -2 -25 0 -7 3 -2 5 12 5 14 0 19 -2 13 -5z m-368 -23 c3 -6 -1 -7 -9 -4
-18 7 -21 14 -7 14 6 0 13 -4 16 -10z m222 -16 c-3 -3 -12 -4 -19 -1 -8 3 -5
6 6 6 11 1 17 -2 13 -5z m536 -11 c-7 -2 -19 -2 -25 0 -7 3 -2 5 12 5 14 0 19
-2 13 -5z m-526 -19 c-3 -3 -12 -4 -19 -1 -8 3 -5 6 6 6 11 1 17 -2 13 -5z
m700 -20 c-3 -3 -12 -4 -19 -1 -8 3 -5 6 6 6 11 1 17 -2 13 -5z m-697 -23 c0
-5 -9 -7 -20 -4 -11 3 -20 7 -20 9 0 2 9 4 20 4 11 0 20 -4 20 -9z m-383 -46
c-5 -11 0 -13 23 -8 19 3 30 1 30 -5 0 -13 175 -66 250 -76 8 -1 44 -11 80
-23 36 -11 106 -31 155 -44 50 -13 83 -25 73 -27 -9 -2 -42 4 -75 13 -218 61
-324 89 -435 116 -119 29 -126 32 -115 50 14 23 21 25 14 4z m393 -25 c0 -5
-4 -10 -10 -10 -5 0 -10 5 -10 10 0 6 5 10 10 10 6 0 10 -4 10 -10z m41 -8
c-7 -2 -18 1 -23 6 -8 8 -4 9 13 5 13 -4 18 -8 10 -11z m793 -100 c9 -14 -28
-132 -41 -132 -18 0 -27 20 -14 33 6 6 11 25 11 43 0 18 3 39 6 48 6 17 29 22
38 8z m-70 -33 c-5 -9 -64 -13 -64 -5 0 26 14 34 41 24 16 -5 26 -14 23 -19z
m-497 -25 c-3 -3 -12 -4 -19 -1 -8 3 -5 6 6 6 11 1 17 -2 13 -5z m40 -10 c-3
-3 -12 -4 -19 -1 -8 3 -5 6 6 6 11 1 17 -2 13 -5z m70 -20 c-3 -3 -12 -4 -19
-1 -8 3 -5 6 6 6 11 1 17 -2 13 -5z m198 -55 l20 -8 -20 0 c-11 0 -36 7 -55
15 l-35 14 35 -6 c19 -4 44 -10 55 -15z m106 -23 c36 -8 74 -14 85 -13 10 1
20 -6 22 -15 3 -15 -2 -17 -30 -11 -39 7 -167 51 -153 52 6 0 40 -6 76 -13z"/>
<path d="M4090 2850 c0 -5 5 -10 11 -10 5 0 7 5 4 10 -3 6 -8 10 -11 10 -2 0
-4 -4 -4 -10z"/>
<path d="M8041 2804 c0 -11 3 -14 6 -6 3 7 2 16 -1 19 -3 4 -6 -2 -5 -13z"/>
<path d="M7760 2710 c8 -5 20 -10 25 -10 6 0 3 5 -5 10 -8 5 -19 10 -25 10 -5
0 -3 -5 5 -10z"/>
<path d="M7844 2676 c11 -9 24 -16 30 -16 12 0 7 5 -24 19 -24 11 -24 11 -6
-3z"/>
<path d="M7900 2656 c0 -2 7 -7 16 -10 8 -3 12 -2 9 4 -6 10 -25 14 -25 6z"/>
<path d="M7755 2610 c22 -11 50 -20 62 -20 12 0 33 -4 46 -9 28 -11 38 -6 31
14 -6 13 -34 20 -129 29 l-50 5 40 -19z"/>
<path d="M7970 2585 c-10 -12 -9 -16 4 -21 9 -3 28 -4 41 -2 22 5 25 2 26 -26
0 -26 2 -28 9 -11 12 28 12 29 -10 53 -24 26 -52 28 -70 7z"/>
<path d="M5800 2510 c11 -16 26 -32 32 -36 16 -10 -2 39 -20 54 -28 21 -34 13
-12 -18z"/>
<path d="M5851 2460 c0 -8 13 -30 29 -49 l29 -34 46 17 c25 10 45 22 45 27 0
5 6 9 13 9 6 0 21 8 32 16 19 16 19 16 -5 9 -14 -4 -38 -16 -54 -27 -24 -17
-28 -18 -23 -4 6 14 4 15 -16 2 -35 -23 -71 -12 -87 28 -5 12 -9 15 -9 6z"/>
<path d="M3480 2400 c20 -13 33 -13 25 0 -3 6 -14 10 -23 10 -15 0 -15 -2 -2
-10z"/>
<path d="M3497 2337 c18 -7 55 -38 84 -70 47 -53 55 -58 88 -55 26 2 37 8 39
22 2 10 0 16 -5 13 -15 -9 -55 23 -49 39 5 14 -30 54 -48 54 -5 0 -1 -7 10
-16 14 -11 15 -14 3 -11 -9 3 -22 1 -29 -3 -9 -6 -24 0 -43 16 -16 13 -41 24
-55 23 -26 -1 -26 -1 5 -12z"/>
<path d="M3723 2333 c-17 -9 -34 -24 -36 -35 -5 -18 -2 -17 36 5 64 38 64 62
0 30z"/>
<path d="M3775 2164 c11 -3 29 -9 40 -14 11 -6 31 -11 45 -12 13 -2 32 -10 42
-18 17 -14 17 -16 2 -27 -9 -7 -30 -9 -48 -6 -17 3 -28 2 -24 -2 4 -5 24 -11
45 -14 20 -3 38 -12 41 -20 3 -8 0 -11 -6 -7 -6 4 -20 1 -31 -5 -19 -12 -18
-13 5 -32 15 -11 34 -17 49 -15 14 3 26 0 29 -7 5 -13 -31 -25 -86 -28 -14 -1
-26 -6 -25 -12 1 -5 -3 -9 -10 -8 -6 2 -27 -4 -45 -12 -27 -11 -29 -14 -11
-15 12 0 24 4 27 8 3 5 19 9 36 10 17 0 38 6 45 12 11 9 18 9 29 -2 38 -34 44
-36 54 -26 7 7 17 6 31 -1 11 -6 32 -9 46 -5 32 8 75 -28 75 -61 0 -25 39 -65
64 -65 9 0 25 4 35 10 14 7 24 4 41 -15 13 -14 31 -25 41 -25 27 0 32 -18 9
-30 -30 -16 -26 -48 8 -56 15 -3 41 -12 59 -20 17 -8 38 -14 46 -14 8 0 28 -7
43 -15 16 -8 41 -15 56 -15 14 0 28 -5 30 -11 5 -15 80 -17 85 -2 3 7 -13 14
-41 18 -40 6 -44 9 -31 22 9 8 12 20 8 26 -4 7 0 8 13 3 10 -4 41 -12 68 -19
46 -10 50 -10 70 13 11 14 31 30 43 35 21 9 88 64 139 111 12 12 29 24 38 27
32 12 15 25 -62 46 -43 12 -83 21 -89 21 -6 0 -24 7 -39 15 -16 8 -41 15 -56
15 -15 0 -29 4 -32 9 -4 5 -25 12 -49 16 -23 4 -50 12 -60 17 -10 5 -28 10
-40 12 -12 1 -29 5 -37 9 -18 7 -138 42 -200 58 -25 6 -54 15 -65 20 -24 10
-167 48 -210 56 -16 3 -35 9 -41 14 -6 5 -26 11 -45 13 -19 3 -36 6 -39 7 -3
1 -16 4 -30 5 -75 10 -103 13 -85 8z m201 -63 c-3 -5 -15 -7 -26 -4 -28 7 -25
13 6 13 14 0 23 -4 20 -9z m54 -15 c0 -3 -4 -8 -10 -11 -5 -3 -10 -1 -10 4 0
6 5 11 10 11 6 0 10 -2 10 -4z m30 -6 c0 -5 -4 -10 -10 -10 -5 0 -10 5 -10 10
0 6 5 10 10 10 6 0 10 -4 10 -10z m45 -20 c3 -5 1 -10 -4 -10 -6 0 -11 5 -11
10 0 6 2 10 4 10 3 0 8 -4 11 -10z m-109 -26 c17 -14 17 -15 1 -10 -10 3 -23
6 -28 6 -5 0 -9 5 -9 10 0 14 13 12 36 -6z m229 -4 c3 -5 1 -10 -4 -10 -6 0
-11 5 -11 10 0 6 2 10 4 10 3 0 8 -4 11 -10z m-275 -10 c0 -5 -4 -10 -9 -10
-6 0 -13 5 -16 10 -3 6 1 10 9 10 9 0 16 -4 16 -10z m133 -24 c-4 -6 -8 -5
-11 2 -2 7 -10 12 -18 12 -9 0 -12 4 -9 10 4 6 13 5 25 -2 10 -7 16 -17 13
-22z m77 -6 c8 -5 11 -12 8 -16 -4 -3 -14 1 -23 10 -18 17 -9 21 15 6z m70
-20 c0 -5 -5 -10 -11 -10 -5 0 -7 5 -4 10 3 6 8 10 11 10 2 0 4 -4 4 -10z
m-192 -14 c-4 -14 -56 -18 -64 -4 -4 7 -3 8 4 4 7 -4 12 -2 12 4 0 6 11 10 25
8 14 -2 24 -7 23 -12z m407 4 c3 -5 1 -10 -4 -10 -6 0 -11 5 -11 10 0 6 2 10
4 10 3 0 8 -4 11 -10z m-185 -4 c0 -3 -4 -8 -10 -11 -5 -3 -10 -1 -10 4 0 6 5
11 10 11 6 0 10 -2 10 -4z m-124 -34 c-9 -9 -37 8 -31 18 5 8 11 7 21 -1 8 -6
12 -14 10 -17z m200 13 c17 -13 17 -14 2 -15 -10 0 -18 4 -18 9 0 5 -8 12 -17
14 -14 4 -15 5 -2 6 8 0 24 -6 35 -14z m87 -39 c-4 -6 -8 -5 -11 2 -2 7 -10
12 -18 12 -9 0 -12 4 -9 10 4 6 13 5 25 -2 10 -7 16 -17 13 -22z m-212 11 c-1
-12 -15 -9 -19 4 -3 6 1 10 8 8 6 -3 11 -8 11 -12z m279 -17 c0 -5 -2 -10 -4
-10 -3 0 -8 5 -11 10 -3 6 -1 10 4 10 6 0 11 -4 11 -10z m-185 -10 c3 -5 -1
-10 -9 -10 -8 0 -18 5 -21 10 -3 6 1 10 9 10 8 0 18 -4 21 -10z m-123 -24 c10
-7 15 -16 12 -19 -7 -7 -44 14 -44 25 0 12 13 9 32 -6z m208 -1 c0 -8 -4 -15
-10 -15 -5 0 -10 7 -10 15 0 8 5 15 10 15 6 0 10 -7 10 -15z m215 -5 c3 -5 1
-10 -4 -10 -6 0 -11 5 -11 10 0 6 2 10 4 10 3 0 8 -4 11 -10z m-329 -25 c15
-11 16 -14 3 -15 -8 0 -24 7 -35 15 -15 11 -16 14 -3 15 8 0 24 -7 35 -15z
m204 0 c0 -8 -4 -15 -9 -15 -5 0 -11 7 -15 15 -3 9 0 15 9 15 8 0 15 -7 15
-15z m220 -5 c0 -5 -2 -10 -4 -10 -3 0 -8 5 -11 10 -3 6 -1 10 4 10 6 0 11 -4
11 -10z m-334 -25 c14 -11 15 -14 4 -14 -8 0 -24 6 -34 14 -15 11 -16 15 -5
15 8 0 24 -7 35 -15z m205 0 c1 -17 -18 -17 -25 0 -4 11 -1 15 10 13 8 -2 15
-7 15 -13z m229 1 c0 -3 -4 -8 -10 -11 -5 -3 -10 -1 -10 4 0 6 5 11 10 11 6 0
10 -2 10 -4z m-360 -16 c0 -5 7 -10 15 -10 8 0 15 -4 15 -10 0 -5 -7 -10 -15
-10 -8 0 -15 5 -15 10 0 6 -7 10 -16 10 -8 0 -12 5 -9 10 3 6 10 10 16 10 5 0
9 -4 9 -10z m225 -10 c3 -5 -1 -10 -9 -10 -8 0 -18 5 -21 10 -3 6 1 10 9 10 8
0 18 -4 21 -10z m-121 -25 c27 -20 15 -28 -17 -12 -15 8 -24 17 -20 20 9 10
15 8 37 -8z m213 -11 c-9 -9 -28 6 -21 18 4 6 10 6 17 -1 6 -6 8 -13 4 -17z
m-337 -16 c0 -6 51 -22 75 -23 30 -2 35 -17 10 -37 -24 -19 -28 -19 -59 -4
-19 9 -39 16 -46 16 -7 0 -9 8 -5 20 4 14 2 20 -9 20 -8 0 -17 4 -20 9 -3 4 8
8 24 7 17 -1 30 -4 30 -8z m205 2 c3 -5 -1 -10 -9 -10 -9 0 -16 5 -16 10 0 6
4 10 9 10 6 0 13 -4 16 -10z m95 -30 c0 -5 -4 -10 -9 -10 -6 0 -13 5 -16 10
-3 6 1 10 9 10 9 0 16 -4 16 -10z"/>
<path d="M3820 2110 c-8 -6 -28 -8 -45 -5 -28 5 -29 5 -6 -5 18 -8 33 -8 52 1
15 6 32 8 38 5 5 -4 12 -2 16 4 8 13 -35 13 -55 0z"/>
<path d="M3720 2061 c0 -8 41 -23 47 -17 2 1 -8 8 -22 14 -14 6 -25 8 -25 3z"/>
<path d="M3810 2066 c0 -2 7 -7 16 -10 8 -3 12 -2 9 4 -6 10 -25 14 -25 6z"/>
<path d="M3800 2034 c10 -11 10 -14 0 -14 -8 0 -11 -2 -8 -5 3 -3 15 -2 26 2
20 8 20 8 -4 20 -22 10 -24 10 -14 -3z"/>
<path d="M3847 1994 c-3 -4 -21 -10 -39 -14 l-33 -8 30 -1 c31 -1 64 14 54 23
-3 4 -8 3 -12 0z"/>
<path d="M3875 1990 c-3 -5 -1 -10 4 -10 6 0 11 5 11 10 0 6 -2 10 -4 10 -3 0
-8 -4 -11 -10z"/>
<path d="M3980 1865 c0 -16 6 -25 15 -25 9 0 15 9 15 25 0 16 -6 25 -15 25 -9
0 -15 -9 -15 -25z"/>
<path d="M3978 1805 c-3 -14 -1 -28 4 -31 13 -8 17 -2 20 26 4 32 -18 37 -24
5z"/>
<path d="M4128 1756 c-4 -21 -1 -26 14 -26 11 0 27 -8 36 -17 16 -16 17 -15
20 16 4 39 4 39 -35 47 -27 5 -31 3 -35 -20z"/>
<path d="M4147 1613 c-10 -9 -9 -23 2 -23 5 0 11 7 15 15 5 15 -5 20 -17 8z"/>
</g>
</svg>
