<?xml version="1.0" standalone="no"?>
<!DOCTYPE svg PUBLIC "-//W3C//DTD SVG 20010904//EN"
 "http://www.w3.org/TR/2001/REC-SVG-20010904/DTD/svg10.dtd">
<svg version="1.0" xmlns="http://www.w3.org/2000/svg"
 width="50%" height="50%" viewBox="0 0 1132.000000 623.000000"
 preserveAspectRatio="xMidYMid meet">

<g transform="translate(0.000000,623.000000) scale(0.100000,-0.100000)"
fill="#000000" stroke="none">
<path d="M6320 5826 l0 -114 63 0 c79 0 97 14 97 77 0 26 -7 56 -16 69 -17 24
-53 29 -72 10 -9 -9 -12 -3 -12 30 0 40 -1 42 -30 42 l-30 0 0 -114z m100 -29
c0 -40 -8 -51 -27 -36 -14 12 -18 51 -6 62 17 18 33 5 33 -26z"/>
<path d="M8200 5825 l0 -115 30 0 30 0 0 115 0 115 -30 0 -30 0 0 -115z"/>
<path d="M8295 5930 c-4 -7 0 -19 9 -28 13 -13 20 -14 34 -6 9 6 17 17 17 25
0 17 -50 24 -60 9z"/>
<path d="M5597 5923 c-4 -3 -7 -53 -7 -111 l0 -104 66 4 c58 4 70 8 90 32 29
32 33 109 9 143 -23 32 -137 58 -158 36z m94 -53 c14 -8 19 -21 19 -48 0 -41
-14 -62 -42 -62 -15 0 -18 9 -18 60 0 62 5 68 41 50z"/>
<path d="M6015 5891 c-3 -11 -12 -22 -20 -25 -17 -6 -21 -36 -5 -36 6 0 10
-19 10 -43 0 -60 16 -79 65 -75 32 2 40 7 40 23 0 13 -7 20 -20 20 -16 0 -21
8 -23 38 -3 32 0 37 17 37 16 0 21 6 21 25 0 18 -5 25 -20 25 -11 0 -20 7 -20
15 0 22 -38 18 -45 -4z"/>
<path d="M5831 5871 c-8 -5 -11 -16 -7 -26 4 -12 13 -15 35 -10 16 3 32 2 35
-3 3 -6 -11 -13 -32 -17 -48 -9 -62 -21 -62 -54 0 -35 17 -51 55 -51 17 0 36
5 43 12 9 9 12 9 12 0 0 -7 11 -12 25 -12 24 0 25 2 25 65 0 52 -4 69 -20 85
-21 21 -83 27 -109 11z m67 -103 c-7 -19 -38 -22 -38 -4 0 10 9 16 21 16 12 0
19 -5 17 -12z"/>
<path d="M6163 5873 c-7 -2 -13 -14 -13 -25 0 -18 4 -19 35 -14 45 9 47 -10 3
-19 -18 -4 -39 -12 -45 -17 -16 -13 -17 -60 -1 -76 15 -15 53 -16 79 -2 13 7
19 7 19 0 0 -5 9 -10 20 -10 18 0 20 7 20 68 0 54 -4 72 -18 85 -18 16 -72 21
-99 10z m61 -108 c-4 -8 -12 -15 -20 -15 -8 0 -14 7 -14 15 0 8 9 15 20 15 13
0 18 -5 14 -15z"/>
<path d="M6543 5873 c-7 -2 -13 -14 -13 -25 0 -18 4 -19 35 -14 45 9 47 -10 3
-19 -18 -4 -39 -12 -45 -17 -16 -13 -17 -60 -1 -76 15 -15 53 -16 79 -2 13 7
19 7 19 0 0 -5 9 -10 20 -10 18 0 20 7 20 68 0 54 -4 72 -18 85 -18 16 -72 21
-99 10z m61 -108 c-4 -8 -12 -15 -20 -15 -8 0 -14 7 -14 15 0 8 9 15 20 15 13
0 18 -5 14 -15z"/>
<path d="M6716 5861 c-25 -28 -15 -65 24 -81 41 -17 38 -34 -5 -27 -32 5 -35
4 -35 -19 0 -22 4 -24 48 -24 61 0 85 16 80 55 -2 22 -11 34 -35 45 -40 19
-43 34 -4 25 21 -4 30 -2 35 11 9 23 4 26 -46 31 -35 4 -47 1 -62 -16z"/>
<path d="M6886 5859 c-21 -17 -26 -29 -26 -65 0 -64 25 -86 93 -82 44 3 52 6
55 24 3 18 -2 21 -39 20 -25 -1 -44 4 -46 12 -3 8 10 12 46 12 48 0 51 2 51
25 0 35 -42 75 -78 75 -16 0 -41 -9 -56 -21z m74 -34 c0 -8 -9 -15 -20 -15
-20 0 -26 11 -13 23 12 13 33 7 33 -8z"/>
<path d="M7151 5871 c-8 -5 -11 -16 -7 -26 4 -12 13 -15 35 -10 16 3 32 2 35
-3 3 -6 -11 -13 -32 -17 -48 -9 -62 -21 -62 -54 0 -35 17 -51 55 -51 17 0 36
5 43 12 9 9 12 9 12 0 0 -7 11 -12 25 -12 24 0 25 2 25 65 0 52 -4 69 -20 85
-21 21 -83 27 -109 11z m67 -103 c-7 -19 -38 -22 -38 -4 0 10 9 16 21 16 12 0
19 -5 17 -12z"/>
<path d="M7317 5873 c-4 -3 -7 -42 -7 -85 l0 -78 30 0 c29 0 30 1 30 48 0 55
11 77 34 69 12 -5 16 -20 16 -62 0 -54 0 -55 30 -55 l30 0 0 63 c0 74 -18 107
-59 107 -15 0 -33 -6 -40 -12 -11 -10 -14 -10 -18 0 -5 13 -35 17 -46 5z"/>
<path d="M7535 5855 c-53 -52 -18 -145 54 -145 47 0 78 22 86 61 19 85 -80
145 -140 84z m85 -59 c0 -31 -16 -50 -34 -43 -19 7 -22 57 -4 75 16 16 38 -3
38 -32z"/>
<path d="M7710 5795 l0 -85 30 0 c28 0 29 1 32 57 2 46 7 59 21 61 15 3 17 -5
17 -57 0 -61 0 -61 30 -61 28 0 29 1 32 57 2 46 7 59 21 61 15 3 17 -5 17 -57
l0 -61 30 0 30 0 0 75 c0 71 -1 76 -26 87 -18 8 -33 9 -53 2 -18 -7 -34 -7
-50 0 -16 7 -32 6 -52 -1 -17 -7 -31 -7 -35 -2 -3 5 -14 9 -25 9 -17 0 -19 -8
-19 -85z"/>
<path d="M8038 5873 c-20 -5 -22 -12 -9 -31 5 -8 17 -11 33 -7 14 4 29 2 32
-3 3 -5 -14 -15 -39 -21 -49 -12 -66 -42 -45 -80 12 -23 67 -30 87 -10 8 8 13
8 17 0 4 -6 16 -11 27 -11 17 0 19 7 19 65 0 52 -4 69 -20 85 -19 19 -60 24
-102 13z m62 -103 c0 -12 -28 -25 -36 -17 -9 9 6 27 22 27 8 0 14 -5 14 -10z"/>
<path d="M8297 5873 c-4 -3 -7 -42 -7 -85 l0 -78 30 0 30 0 0 85 c0 82 -1 85
-23 85 -13 0 -27 -3 -30 -7z"/>
<path d="M8416 5859 c-21 -17 -26 -29 -26 -65 0 -64 25 -86 93 -82 44 3 52 6
55 24 3 18 -2 21 -39 20 -25 -1 -44 4 -46 12 -3 8 10 12 46 12 48 0 51 2 51
25 0 35 -42 75 -78 75 -16 0 -41 -9 -56 -21z m74 -34 c0 -8 -9 -15 -20 -15
-20 0 -26 11 -13 23 12 13 33 7 33 -8z"/>
<path d="M8596 5867 c-29 -22 -18 -69 22 -86 42 -19 41 -35 -3 -28 -32 5 -35
4 -35 -19 0 -22 4 -24 49 -24 53 0 81 17 81 51 0 22 -34 59 -54 59 -8 0 -18 5
-22 11 -5 9 3 10 28 5 30 -5 36 -3 41 13 3 14 -2 21 -17 25 -35 10 -71 7 -90
-7z"/>
<path d="M7270 5041 c0 -74 2 -81 20 -81 17 0 20 7 20 48 l0 47 27 -47 c22
-40 31 -48 55 -48 l28 0 0 80 c0 73 -2 80 -20 80 -17 0 -20 -7 -20 -52 l0 -53
-28 50 c-21 39 -33 51 -54 53 l-28 3 0 -80z"/>
<path d="M7460 5065 c-7 -9 -13 -29 -13 -45 0 -43 20 -62 62 -58 76 6 76 110
0 116 -23 2 -40 -2 -49 -13z m60 -45 c0 -20 -5 -30 -15 -30 -10 0 -15 10 -15
30 0 20 5 30 15 30 10 0 15 -10 15 -30z"/>
<path d="M7590 5018 c0 -51 2 -58 19 -58 16 0 20 8 23 43 2 29 8 42 18 42 10
0 16 -13 18 -42 3 -35 7 -43 23 -43 16 0 19 7 19 49 0 27 -6 53 -12 59 -7 6
-34 10 -60 10 l-48 -1 0 -59z"/>
<path d="M8977 4974 c-4 -4 -7 -43 -7 -86 0 -76 1 -78 24 -78 22 0 25 5 28 42
4 59 28 63 28 4 0 -40 3 -46 20 -46 19 0 21 5 18 58 -3 56 -3 57 -35 60 -24 2
-33 9 -35 25 -3 22 -28 34 -41 21z"/>
<path d="M8840 4890 c0 -73 2 -80 20 -80 14 0 20 7 20 23 0 17 8 25 33 32 28
9 32 15 35 48 3 32 0 38 -23 47 -14 6 -40 10 -56 10 l-29 0 0 -80z m70 25 c0
-8 -7 -15 -15 -15 -8 0 -15 7 -15 15 0 8 7 15 15 15 8 0 15 -7 15 -15z"/>
<path d="M9417 4937 c-8 -13 -13 -36 -10 -53 11 -72 12 -74 43 -74 32 0 42 23
15 34 -8 3 -15 17 -15 31 0 16 6 25 15 25 8 0 15 7 15 15 0 8 -7 15 -15 15 -8
0 -15 7 -15 15 0 22 -16 18 -33 -8z"/>
<path d="M9132 4918 c3 -7 18 -15 34 -17 l29 -3 -35 -12 c-30 -9 -35 -16 -35
-41 0 -29 1 -30 53 -31 l52 -2 0 47 c0 26 -5 52 -12 59 -16 16 -91 16 -86 0z
m53 -68 c-3 -5 -10 -10 -16 -10 -5 0 -9 5 -9 10 0 6 7 10 16 10 8 0 12 -4 9
-10z"/>
<path d="M9260 4869 c0 -52 2 -59 19 -59 16 0 20 8 23 42 4 59 28 63 28 4 0
-42 2 -46 25 -46 23 0 25 4 25 41 0 65 -12 79 -70 78 l-50 -2 0 -58z"/>
<path d="M9516 4914 c-22 -21 -20 -67 2 -87 41 -37 102 -11 102 43 0 36 -24
60 -60 60 -16 0 -36 -7 -44 -16z m59 -44 c0 -27 -22 -39 -31 -16 -8 22 3 49
19 43 6 -2 12 -14 12 -27z"/>
<path d="M9640 4869 c0 -56 1 -59 25 -59 23 0 25 4 25 46 0 59 24 55 28 -4 3
-33 7 -42 22 -42 15 0 19 9 22 42 4 59 28 63 28 4 0 -42 2 -46 25 -46 23 0 25
4 25 41 0 72 -7 77 -110 77 l-90 0 0 -59z"/>
<path d="M1813 4884 c-3 -8 -1 -20 5 -26 16 -16 47 -5 50 20 3 18 -1 22 -23
22 -14 0 -28 -7 -32 -16z"/>
<path d="M462 4858 c2 -15 11 -24 26 -26 21 -3 22 -8 22 -83 l0 -79 30 0 30 0
0 80 c0 79 0 80 25 80 20 0 25 5 25 25 0 25 -1 25 -81 25 -78 0 -80 -1 -77
-22z"/>
<path d="M1684 4837 c-12 -20 -17 -39 -13 -48 4 -7 11 -36 16 -64 l8 -50 45 0
c38 0 45 3 45 20 0 13 -7 20 -20 20 -16 0 -21 8 -23 38 -3 32 0 37 17 37 16 0
21 6 21 25 0 18 -5 25 -20 25 -11 0 -20 7 -20 15 0 27 -34 15 -56 -18z"/>
<path d="M657 4833 c-4 -3 -7 -42 -7 -85 l0 -78 29 0 c29 0 30 2 33 53 3 45 6
52 26 55 12 2 22 7 22 12 0 5 3 15 6 24 9 23 -23 32 -45 12 -16 -15 -19 -15
-24 -1 -7 15 -28 20 -40 8z"/>
<path d="M817 4833 c-27 -7 -16 -38 13 -39 45 -2 51 -4 45 -14 -3 -5 -17 -10
-31 -10 -41 0 -64 -18 -64 -48 0 -16 5 -33 12 -40 15 -15 53 -16 79 -2 13 7
19 7 19 0 0 -5 9 -10 20 -10 18 0 20 7 20 69 0 61 -3 72 -22 85 -22 16 -54 19
-91 9z m61 -105 c-7 -19 -38 -22 -38 -4 0 10 9 16 21 16 12 0 19 -5 17 -12z"/>
<path d="M977 4833 c-4 -3 -7 -42 -7 -85 l0 -78 30 0 c29 0 30 1 30 48 0 55
11 77 34 69 12 -5 16 -20 16 -62 0 -54 0 -55 30 -55 30 0 30 1 30 54 0 30 -4
66 -10 80 -11 30 -49 42 -80 26 -16 -9 -25 -9 -33 -1 -12 12 -30 14 -40 4z"/>
<path d="M1192 4824 c-34 -24 -26 -65 16 -83 42 -19 41 -35 -3 -28 -32 5 -35
4 -35 -19 0 -22 4 -24 49 -24 56 0 81 17 81 56 0 18 -9 29 -35 41 -42 20 -46
37 -6 28 39 -8 52 21 15 35 -36 14 -56 12 -82 -6z"/>
<path d="M1363 4833 c-13 -2 -23 -7 -23 -11 1 -19 20 -33 41 -30 13 2 26 -1
29 -7 3 -5 -9 -11 -26 -13 -45 -4 -70 -35 -58 -70 7 -21 17 -28 42 -30 18 -2
39 2 47 8 9 8 15 8 20 0 3 -5 15 -10 26 -10 17 0 19 7 19 65 0 93 -27 115
-117 98z m57 -108 c0 -8 -9 -15 -20 -15 -20 0 -26 11 -13 23 12 13 33 7 33 -8z"/>
<path d="M1555 4829 c-33 -19 -45 -41 -45 -79 0 -48 30 -80 75 -80 47 0 65 9
65 32 0 17 -5 20 -28 15 -38 -8 -54 5 -50 39 2 24 8 29 35 32 27 3 52 27 39
39 -10 11 -73 12 -91 2z"/>
<path d="M1817 4833 c-4 -3 -7 -42 -7 -85 l0 -78 30 0 30 0 0 85 c0 82 -1 85
-23 85 -13 0 -27 -3 -30 -7z"/>
<path d="M1938 4820 c-30 -23 -40 -62 -26 -102 12 -34 35 -48 82 -48 80 0 107
118 35 155 -38 20 -61 19 -91 -5z m67 -70 c0 -43 -29 -55 -39 -16 -8 32 3 58
23 54 11 -2 16 -14 16 -38z"/>
<path d="M2107 4833 c-4 -3 -7 -42 -7 -85 l0 -78 30 0 c30 0 30 1 30 55 0 42
4 57 16 62 23 8 34 -14 34 -69 0 -44 2 -48 25 -48 24 0 25 2 25 68 0 54 -4 72
-18 85 -21 19 -45 21 -72 7 -13 -7 -21 -7 -25 0 -7 11 -28 13 -38 3z"/>
<path d="M4955 4820 c-4 -7 -3 -16 3 -22 14 -14 45 -2 40 15 -6 16 -34 21 -43
7z"/>
<path d="M5907 4824 c-4 -4 -7 -15 -7 -25 0 -12 -9 -19 -27 -21 -34 -4 -52
-44 -37 -85 9 -25 14 -28 62 -30 l53 -2 -3 82 c-2 64 -6 82 -18 85 -9 1 -19 0
-23 -4z m-2 -104 c0 -27 -22 -39 -31 -16 -8 22 3 49 19 43 6 -2 12 -14 12 -27z"/>
<path d="M7797 4824 c-4 -4 -7 -42 -7 -85 l0 -77 47 0 c59 0 73 10 73 57 0 42
-14 61 -46 61 -16 0 -24 7 -26 22 -3 23 -27 35 -41 22z m68 -102 c0 -31 -19
-28 -23 4 -3 18 0 25 10 22 7 -3 13 -14 13 -26z"/>
<path d="M7937 4824 c-4 -4 -7 -43 -7 -86 0 -77 0 -78 25 -78 26 0 26 0 23 82
-2 65 -6 83 -18 86 -9 1 -19 0 -23 -4z"/>
<path d="M4798 4814 c-5 -4 -8 -40 -8 -81 l0 -73 45 0 c119 0 132 144 15 157
-25 3 -48 1 -52 -3z m77 -74 c0 -25 -5 -36 -17 -38 -15 -3 -18 4 -18 38 0 34
3 41 18 38 12 -2 17 -13 17 -38z"/>
<path d="M5420 4740 c0 -73 2 -80 20 -80 15 0 20 7 20 25 0 14 4 25 8 25 5 0
14 -11 20 -25 8 -17 20 -25 38 -25 l26 0 -22 34 c-13 22 -17 37 -10 41 5 3 10
20 10 36 0 33 -27 49 -81 49 l-29 0 0 -80z m68 28 c-6 -18 -28 -21 -28 -4 0 9
7 16 16 16 9 0 14 -5 12 -12z"/>
<path d="M6867 4813 c-4 -3 -7 -39 -7 -80 0 -71 1 -73 25 -73 21 0 25 5 25 28
l1 27 22 -27 c13 -16 33 -28 46 -28 l22 0 -22 31 c-18 26 -20 35 -11 50 18 28
15 46 -10 63 -23 16 -79 22 -91 9z m71 -45 c-6 -18 -28 -21 -28 -4 0 9 7 16
16 16 9 0 14 -5 12 -12z"/>
<path d="M5137 4787 c-8 -13 -13 -36 -10 -53 11 -72 12 -74 43 -74 32 0 42 23
15 34 -8 3 -15 17 -15 31 0 16 6 25 15 25 8 0 15 7 15 15 0 8 -7 15 -15 15 -8
0 -15 7 -15 15 0 22 -16 18 -33 -8z"/>
<path d="M7568 4788 c-16 -25 -13 -94 4 -115 15 -19 68 -17 68 2 0 8 -7 15
-15 15 -10 0 -15 10 -15 30 0 20 5 30 15 30 8 0 15 7 15 15 0 8 -6 15 -14 15
-8 0 -16 7 -20 15 -8 21 -21 19 -38 -7z"/>
<path d="M4950 4720 c0 -57 1 -60 25 -60 24 0 25 3 25 60 0 57 -1 60 -25 60
-24 0 -25 -3 -25 -60z"/>
<path d="M5020 4719 c0 -52 2 -59 20 -59 15 0 20 7 20 28 0 32 9 46 33 55 9 3
17 13 17 21 0 10 -12 14 -45 14 l-45 0 0 -59z"/>
<path d="M5231 4728 c11 -29 21 -55 21 -58 2 -20 -4 -30 -17 -30 -8 0 -15 -7
-15 -15 0 -24 47 -18 65 8 12 19 55 131 55 144 0 1 -9 3 -19 3 -14 0 -23 -12
-32 -37 l-13 -38 -9 38 c-7 30 -14 37 -33 37 l-24 0 21 -52z"/>
<path d="M5576 4764 c-9 -8 -16 -28 -16 -44 0 -40 24 -60 71 -60 28 0 39 4 39
15 0 10 -10 15 -29 15 -17 0 -33 5 -36 10 -4 6 10 10 34 10 34 0 41 3 41 19 0
28 -27 51 -60 51 -16 0 -36 -7 -44 -16z m61 -20 c-3 -3 -12 -4 -19 -1 -8 3 -5
6 6 6 11 1 17 -2 13 -5z"/>
<path d="M5710 4765 c0 -10 10 -15 28 -15 l27 -1 -33 -14 c-67 -29 -50 -74 29
-73 l49 1 0 47 c0 25 -5 51 -12 58 -18 18 -88 16 -88 -3z m55 -65 c-3 -5 -10
-10 -16 -10 -5 0 -9 5 -9 10 0 6 7 10 16 10 8 0 12 -4 9 -10z"/>
<path d="M7020 4764 c-8 -8 -13 -28 -13 -44 0 -42 19 -60 64 -60 28 0 39 4 39
15 0 10 -10 15 -30 15 -16 0 -30 5 -30 10 0 6 16 10 35 10 30 0 35 3 35 23 0
13 -5 28 -12 35 -17 17 -73 15 -88 -4z m57 -20 c-3 -3 -12 -4 -19 -1 -8 3 -5
6 6 6 11 1 17 -2 13 -5z"/>
<path d="M7140 4694 c0 -83 0 -84 25 -84 20 0 25 5 25 25 0 19 5 25 23 25 33
0 47 18 47 61 0 47 -14 57 -73 57 l-47 0 0 -84z m75 28 c0 -31 -19 -28 -23 4
-3 18 0 25 10 22 7 -3 13 -14 13 -26z"/>
<path d="M7296 4758 c-34 -48 -6 -98 55 -98 28 0 39 4 39 15 0 10 -10 15 -30
15 -16 0 -30 5 -30 10 0 6 16 10 35 10 37 0 44 14 25 51 -15 28 -74 26 -94 -3z
m61 -14 c-3 -3 -12 -4 -19 -1 -8 3 -5 6 6 6 11 1 17 -2 13 -5z"/>
<path d="M7432 4768 c3 -7 18 -15 34 -17 l29 -3 -35 -12 c-30 -9 -35 -16 -35
-41 0 -29 1 -30 53 -31 l52 -2 0 47 c0 26 -5 52 -12 59 -16 16 -91 16 -86 0z
m53 -68 c-3 -5 -10 -10 -16 -10 -5 0 -9 5 -9 10 0 6 7 10 16 10 8 0 12 -4 9
-10z"/>
<path d="M7670 4765 c0 -9 10 -15 28 -16 27 -1 27 -1 -5 -11 -34 -11 -48 -34
-37 -61 4 -12 19 -16 60 -16 l54 1 0 40 c0 60 -14 78 -60 78 -29 0 -40 -4 -40
-15z m50 -65 c0 -5 -4 -10 -10 -10 -5 0 -10 5 -10 10 0 6 5 10 10 10 6 0 10
-4 10 -10z"/>
<path d="M8016 4764 c-9 -8 -16 -28 -16 -44 0 -40 24 -60 71 -60 28 0 39 4 39
15 0 10 -10 15 -29 15 -17 0 -33 5 -36 10 -4 6 10 10 34 10 34 0 41 3 41 19 0
28 -27 51 -60 51 -16 0 -36 -7 -44 -16z m61 -20 c-3 -3 -12 -4 -19 -1 -8 3 -5
6 6 6 11 1 17 -2 13 -5z"/>
<path d="M9560 4652 c0 -26 -3 -28 -29 -24 -24 3 -30 0 -39 -27 -8 -22 -8 -40
-1 -60 10 -28 14 -30 60 -29 l49 1 0 84 c0 76 -2 83 -20 83 -15 0 -20 -7 -20
-28z m0 -82 c0 -25 -18 -36 -26 -16 -8 21 3 49 16 41 5 -3 10 -15 10 -25z"/>
<path d="M9077 4663 c-4 -3 -7 -39 -7 -80 0 -71 1 -73 25 -73 21 0 25 5 25 28
l1 27 20 -27 c11 -16 29 -28 40 -28 24 0 24 5 -1 40 -17 24 -18 29 -5 40 22
18 18 46 -7 64 -23 16 -79 22 -91 9z m63 -48 c0 -8 -4 -15 -10 -15 -5 0 -10 7
-10 15 0 8 5 15 10 15 6 0 10 -7 10 -15z"/>
<path d="M9226 4608 c-34 -48 -6 -98 55 -98 28 0 39 4 39 15 0 10 -10 15 -30
15 -16 0 -30 5 -30 10 0 6 16 10 35 10 37 0 44 14 25 51 -15 28 -74 26 -94 -3z
m61 -14 c-3 -3 -12 -4 -19 -1 -8 3 -5 6 6 6 11 1 17 -2 13 -5z"/>
<path d="M9362 4618 c3 -7 18 -15 34 -17 l29 -3 -35 -12 c-30 -9 -35 -16 -35
-41 0 -29 1 -30 53 -31 l52 -2 0 47 c0 26 -5 52 -12 59 -16 16 -91 16 -86 0z
m53 -68 c-3 -5 -10 -10 -16 -10 -5 0 -9 5 -9 10 0 6 7 10 16 10 8 0 12 -4 9
-10z"/>
<path d="M7717 4513 c-4 -3 -7 -15 -7 -25 0 -12 -7 -18 -23 -18 -33 0 -47 -18
-47 -61 0 -45 13 -57 68 -56 l42 0 0 83 c0 63 -3 84 -13 84 -8 0 -17 -3 -20
-7z m-3 -88 c7 -18 -2 -45 -15 -45 -5 0 -12 7 -15 15 -7 18 2 45 15 45 5 0 11
-7 15 -15z"/>
<path d="M7227 4503 c-4 -3 -7 -39 -7 -80 0 -71 1 -73 25 -73 21 0 25 5 25 28
l1 27 22 -27 c13 -16 33 -28 46 -28 l22 0 -22 31 c-18 26 -20 35 -11 50 18 28
15 46 -10 63 -23 16 -79 22 -91 9z m71 -45 c-6 -18 -28 -21 -28 -4 0 9 7 16
16 16 9 0 14 -5 12 -12z"/>
<path d="M630 4375 l0 -115 30 0 30 0 0 115 0 115 -30 0 -30 0 0 -115z"/>
<path d="M1054 4475 c-4 -9 -2 -21 4 -27 16 -16 47 -5 47 17 0 26 -42 34 -51
10z"/>
<path d="M2340 4376 l0 -116 30 0 31 0 -3 113 -3 112 -27 3 -28 3 0 -115z"/>
<path d="M180 4365 l0 -105 30 0 30 0 0 105 0 105 -30 0 -30 0 0 -105z"/>
<path d="M1620 4365 l0 -105 71 0 c67 0 70 1 67 23 -2 18 -10 23 -40 25 l-38
3 0 80 0 79 -30 0 -30 0 0 -105z"/>
<path d="M7380 4454 c-8 -8 -13 -28 -13 -44 0 -42 19 -60 64 -60 28 0 39 4 39
15 0 10 -10 15 -30 15 -16 0 -30 5 -30 10 0 6 16 10 35 10 30 0 35 3 35 23 0
13 -5 28 -12 35 -17 17 -73 15 -88 -4z m57 -20 c-3 -3 -12 -4 -19 -1 -8 3 -5
6 6 6 11 1 17 -2 13 -5z"/>
<path d="M7517 4464 c-12 -12 3 -24 31 -25 25 0 25 -1 -8 -12 -30 -10 -35 -17
-35 -42 0 -29 1 -30 53 -31 l53 -2 -3 57 -3 56 -40 3 c-23 2 -44 0 -48 -4z
m53 -74 c0 -5 -7 -10 -15 -10 -8 0 -15 5 -15 10 0 6 7 10 15 10 8 0 15 -4 15
-10z"/>
<path d="M932 4435 c-6 -14 -16 -25 -22 -25 -5 0 -10 -7 -10 -15 0 -8 5 -15
10 -15 6 0 10 -18 10 -41 0 -61 14 -79 60 -79 35 0 40 3 40 24 0 17 -5 23 -17
22 -14 -1 -19 8 -21 37 -3 32 0 37 17 37 28 0 29 40 1 47 -11 3 -20 12 -20 19
0 24 -36 15 -48 -11z"/>
<path d="M301 4413 c-32 -26 -23 -66 19 -83 48 -20 49 -34 1 -27 -39 5 -42 4
-39 -16 3 -19 11 -22 51 -25 59 -4 79 10 75 52 -2 24 -11 35 -35 46 -40 19
-43 34 -4 25 21 -4 30 -2 35 11 8 22 5 25 -41 31 -28 4 -44 0 -62 -14z"/>
<path d="M468 4410 c-30 -23 -40 -62 -26 -102 12 -34 35 -48 82 -48 80 0 107
118 35 155 -38 20 -61 19 -91 -5z m67 -70 c0 -43 -29 -55 -39 -16 -8 32 3 58
23 54 11 -2 16 -14 16 -38z"/>
<path d="M757 4423 c-30 -8 -16 -38 18 -38 44 0 44 -19 0 -26 -40 -7 -55 -21
-55 -54 0 -30 19 -45 55 -45 17 0 36 5 43 12 9 9 12 9 12 0 0 -7 11 -12 25
-12 24 0 25 2 25 63 0 36 -6 71 -13 81 -13 18 -77 29 -110 19z m63 -103 c0
-12 -28 -25 -36 -17 -9 9 6 27 22 27 8 0 14 -5 14 -10z"/>
<path d="M1057 4424 c-4 -4 -7 -43 -7 -86 l0 -78 30 0 31 0 -3 83 c-3 74 -5
82 -23 85 -12 2 -24 0 -28 -4z"/>
<path d="M1183 4420 c-74 -30 -47 -160 33 -160 47 0 70 14 82 48 27 79 -38
143 -115 112z m61 -56 c10 -26 -4 -65 -23 -62 -17 3 -27 39 -17 64 7 19 32 18
40 -2z"/>
<path d="M1340 4345 l0 -85 30 0 30 0 0 61 c0 52 2 60 18 57 13 -2 18 -15 20
-61 3 -56 4 -57 32 -57 l30 0 0 65 c0 89 -35 125 -92 94 -14 -8 -23 -8 -31 0
-29 29 -37 11 -37 -74z"/>
<path d="M1823 4420 c-46 -19 -57 -89 -22 -134 19 -24 27 -27 73 -24 43 3 51
6 54 24 3 18 -2 21 -39 20 -25 -1 -44 4 -46 12 -3 8 10 12 46 12 48 0 51 2 51
25 0 14 -11 37 -25 50 -25 26 -54 30 -92 15z m55 -48 c2 -7 -6 -12 -17 -12
-21 0 -27 11 -14 24 9 9 26 2 31 -12z"/>
<path d="M1960 4418 c0 -7 12 -46 27 -86 27 -70 29 -73 58 -70 26 3 32 10 56
73 35 90 36 97 2 93 -22 -2 -29 -12 -43 -53 l-17 -50 -15 50 c-13 42 -19 51
-41 53 -17 2 -27 -1 -27 -10z"/>
<path d="M2176 4407 c-33 -34 -36 -97 -5 -128 16 -16 30 -19 72 -17 44 3 52 6
55 24 3 18 -2 21 -39 20 -25 -1 -44 4 -46 12 -3 8 10 12 47 12 l53 0 -7 32
c-8 42 -24 57 -68 65 -30 4 -41 1 -62 -20z m72 -35 c2 -7 -6 -12 -17 -12 -21
0 -27 11 -14 24 9 9 26 2 31 -12z"/>
<path d="M2451 4413 c-32 -26 -23 -66 19 -83 48 -20 49 -34 1 -27 -39 5 -42 4
-39 -16 3 -19 11 -22 51 -25 59 -4 79 10 75 52 -2 24 -11 35 -35 46 -40 19
-43 34 -4 25 21 -4 30 -2 35 11 8 22 5 25 -41 31 -28 4 -44 0 -62 -14z"/>
<path d="M4240 3605 l0 -375 1130 0 1130 0 0 375 0 375 -1130 0 -1130 0 0
-375z"/>
<path d="M6630 3605 l0 -375 860 0 860 0 0 375 0 375 -860 0 -860 0 0 -375z"/>
<path d="M8480 3605 l0 -375 855 0 855 0 0 375 0 375 -855 0 -855 0 0 -375z"/>
<path d="M2137 3683 c-4 -3 -7 -15 -7 -25 0 -12 -7 -18 -23 -18 -33 0 -47 -18
-47 -61 0 -45 13 -57 68 -56 l42 0 0 83 c0 63 -3 84 -13 84 -8 0 -17 -3 -20
-7z m-3 -88 c7 -18 -2 -45 -15 -45 -13 0 -22 27 -15 45 3 8 10 15 15 15 5 0
11 -7 15 -15z"/>
<path d="M3265 3680 c-4 -7 -3 -16 3 -22 14 -14 45 -2 40 15 -6 16 -34 21 -43
7z"/>
<path d="M3747 3683 c-4 -3 -7 -15 -7 -25 0 -12 -7 -18 -23 -18 -33 0 -47 -18
-47 -61 0 -45 13 -57 68 -56 l42 0 0 83 c0 63 -3 84 -13 84 -8 0 -17 -3 -20
-7z m-3 -88 c7 -18 -2 -45 -15 -45 -13 0 -22 27 -15 45 3 8 10 15 15 15 5 0
11 -7 15 -15z"/>
<path d="M1647 3673 c-4 -3 -7 -39 -7 -80 0 -71 1 -73 25 -73 21 0 25 5 25 28
l1 27 22 -27 c13 -16 33 -28 46 -28 l22 0 -22 31 c-18 26 -20 35 -11 50 18 28
15 46 -10 63 -23 16 -79 22 -91 9z m71 -45 c-6 -18 -28 -21 -28 -4 0 9 7 16
16 16 9 0 14 -5 12 -12z"/>
<path d="M2260 3622 c0 -76 18 -102 69 -102 52 0 66 19 66 94 0 54 -2 61 -20
61 -17 0 -20 -8 -23 -55 -2 -30 -8 -59 -13 -65 -18 -17 -39 25 -39 77 0 41 -3
48 -20 48 -18 0 -20 -7 -20 -58z"/>
<path d="M3348 3648 c-16 -25 -13 -94 4 -115 15 -19 68 -17 68 2 0 8 -7 15
-15 15 -10 0 -15 10 -15 30 0 20 5 30 15 30 8 0 15 7 15 15 0 8 -6 15 -14 15
-8 0 -16 7 -20 15 -8 21 -21 19 -38 -7z"/>
<path d="M3448 3648 c-16 -25 -13 -94 4 -115 15 -19 68 -17 68 2 0 8 -7 15
-15 15 -10 0 -15 10 -15 30 0 20 5 30 15 30 8 0 15 7 15 15 0 8 -6 15 -14 15
-8 0 -16 7 -20 15 -8 21 -21 19 -38 -7z"/>
<path d="M1800 3624 c-8 -8 -13 -28 -13 -44 0 -42 19 -60 64 -60 28 0 39 4 39
15 0 10 -10 15 -30 15 -16 0 -30 5 -30 10 0 6 16 10 35 10 30 0 35 3 35 23 0
13 -5 28 -12 35 -17 17 -73 15 -88 -4z m57 -20 c-3 -3 -12 -4 -19 -1 -8 3 -5
6 6 6 11 1 17 -2 13 -5z"/>
<path d="M1937 3634 c-12 -12 3 -24 31 -25 25 0 25 -1 -8 -12 -30 -10 -35 -17
-35 -42 0 -29 1 -30 53 -31 l53 -2 -3 57 -3 56 -40 3 c-23 2 -44 0 -48 -4z
m53 -74 c0 -5 -7 -10 -15 -10 -8 0 -15 5 -15 10 0 6 7 10 15 10 8 0 15 -4 15
-10z"/>
<path d="M2420 3579 c0 -56 1 -59 24 -59 22 0 25 5 28 42 4 59 28 63 28 4 0
-40 3 -46 20 -46 19 0 21 5 18 58 l-3 57 -57 2 -58 2 0 -60z"/>
<path d="M2580 3621 c-15 -28 -12 -77 4 -90 21 -18 80 -10 84 11 3 13 -3 16
-25 15 -24 -2 -28 2 -28 23 0 18 5 25 20 25 19 0 35 12 35 28 0 4 -18 7 -40 7
-29 0 -42 -5 -50 -19z"/>
<path d="M2700 3625 c-7 -9 -13 -29 -13 -45 0 -43 20 -62 62 -58 76 6 76 110
0 116 -23 2 -40 -2 -49 -13z m60 -45 c0 -20 -5 -30 -15 -30 -10 0 -15 10 -15
30 0 20 5 30 15 30 10 0 15 -10 15 -30z"/>
<path d="M2830 3579 c0 -52 2 -59 19 -59 16 0 20 8 23 42 4 59 28 63 28 4 0
-39 3 -46 20 -46 16 0 20 7 20 33 0 17 5 39 10 47 9 13 11 13 20 0 5 -8 10
-30 10 -47 0 -26 4 -33 20 -33 17 0 20 7 20 49 0 27 -6 53 -12 59 -7 5 -50 10
-95 10 l-83 0 0 -59z"/>
<path d="M3050 3579 c0 -52 2 -59 19 -59 16 0 20 8 23 42 4 59 28 63 28 4 0
-39 3 -46 20 -46 16 0 20 7 20 33 0 17 5 39 10 47 9 13 11 13 20 0 5 -8 10
-30 10 -47 0 -26 4 -33 20 -33 17 0 20 7 20 49 0 27 -6 53 -12 59 -7 5 -50 10
-95 10 l-83 0 0 -59z"/>
<path d="M3261 3580 c-2 -58 -1 -60 23 -60 25 0 26 2 26 60 0 56 -1 60 -23 60
-22 0 -24 -4 -26 -60z"/>
<path d="M3546 3618 c-34 -48 -6 -98 55 -98 28 0 39 4 39 15 0 10 -10 15 -30
15 -16 0 -30 5 -30 10 0 6 16 10 35 10 37 0 44 14 25 51 -15 28 -74 26 -94 -3z
m61 -14 c-3 -3 -12 -4 -19 -1 -8 3 -5 6 6 6 11 1 17 -2 13 -5z"/>
<path d="M6630 2725 l0 -375 860 0 860 0 0 375 0 375 -860 0 -860 0 0 -375z"/>
<path d="M8480 2725 l0 -375 855 0 855 0 0 375 0 375 -855 0 -855 0 0 -375z"/>
<path d="M2280 2792 c0 -24 -4 -27 -32 -27 -26 0 -34 -5 -42 -27 -6 -18 -6
-38 0 -55 9 -25 14 -28 62 -30 l52 -2 0 84 c0 78 -2 85 -20 85 -15 0 -20 -7
-20 -28z m-5 -82 c0 -13 -6 -25 -12 -27 -9 -3 -13 6 -13 27 0 21 4 30 13 28 6
-3 12 -15 12 -28z"/>
<path d="M3125 2810 c-4 -7 -3 -16 3 -22 14 -14 45 -2 40 15 -6 16 -34 21 -43
7z"/>
<path d="M3600 2792 c0 -26 -3 -28 -29 -24 -24 3 -30 0 -39 -27 -8 -22 -8 -40
-1 -60 10 -28 14 -30 60 -29 l49 1 0 84 c0 76 -2 83 -20 83 -15 0 -20 -7 -20
-28z m0 -82 c0 -25 -18 -36 -26 -16 -8 21 3 49 16 41 5 -3 10 -15 10 -25z"/>
<path d="M5280 2735 c0 -78 2 -85 20 -85 18 0 20 7 20 85 0 78 -2 85 -20 85
-18 0 -20 -7 -20 -85z"/>
<path d="M5680 2795 c0 -19 -5 -25 -23 -25 -33 0 -47 -18 -47 -61 0 -47 14
-57 73 -57 l47 0 0 84 c0 83 0 84 -25 84 -20 0 -25 -5 -25 -25z m4 -70 c6 -17
-2 -45 -14 -45 -12 0 -20 28 -14 45 4 8 10 15 14 15 4 0 10 -7 14 -15z"/>
<path d="M1790 2730 c0 -73 2 -80 20 -80 15 0 20 7 20 25 0 14 5 25 10 25 6 0
16 -11 22 -25 7 -17 19 -25 35 -25 l25 0 -22 34 c-13 22 -17 37 -10 41 5 3 10
20 10 36 0 33 -27 49 -81 49 l-29 0 0 -80z m70 25 c0 -8 -7 -15 -15 -15 -8 0
-15 7 -15 15 0 8 7 15 15 15 8 0 15 -7 15 -15z"/>
<path d="M2425 2785 c-32 -31 -34 -86 -4 -116 27 -27 92 -24 97 5 3 15 0 18
-21 12 -27 -6 -57 14 -57 39 0 32 13 45 46 45 36 0 48 23 18 34 -30 12 -55 6
-79 -19z"/>
<path d="M5015 2787 c-19 -30 -11 -53 27 -73 36 -19 28 -35 -13 -27 -27 5 -31
3 -27 -13 2 -14 13 -20 45 -22 35 -3 44 1 58 21 20 31 11 53 -29 75 l-31 17
33 3 c48 5 40 36 -10 40 -30 3 -40 -1 -53 -21z"/>
<path d="M3200 2774 c-17 -17 -21 -27 -13 -32 6 -4 13 -25 15 -47 3 -37 5 -40
36 -43 24 -2 32 1 32 12 0 9 -7 16 -15 16 -10 0 -15 10 -15 30 0 20 5 30 15
30 8 0 15 7 15 15 0 8 -7 15 -15 15 -8 0 -15 7 -15 15 0 22 -13 18 -40 -11z"/>
<path d="M3300 2774 c-17 -17 -21 -27 -13 -32 6 -4 13 -25 15 -47 3 -37 5 -40
36 -43 24 -2 32 1 32 12 0 9 -7 16 -15 16 -10 0 -15 10 -15 30 0 20 5 30 15
30 8 0 15 7 15 15 0 8 -7 15 -15 15 -8 0 -15 7 -15 15 0 22 -13 18 -40 -11z"/>
<path d="M1946 2754 c-9 -8 -16 -28 -16 -44 0 -40 24 -60 71 -60 28 0 39 4 39
15 0 10 -10 15 -29 15 -17 0 -33 5 -36 10 -4 6 10 10 34 10 34 0 41 3 41 19 0
28 -27 51 -60 51 -16 0 -36 -7 -44 -16z m61 -20 c-3 -3 -12 -4 -19 -1 -8 3 -5
6 6 6 11 1 17 -2 13 -5z"/>
<path d="M2080 2755 c0 -10 10 -15 28 -15 l27 -1 -33 -14 c-67 -29 -50 -74 29
-73 l49 1 0 47 c0 25 -5 51 -12 58 -18 18 -88 16 -88 -3z m55 -65 c-3 -5 -10
-10 -16 -10 -5 0 -9 5 -9 10 0 6 7 10 16 10 8 0 12 -4 9 -10z"/>
<path d="M2556 2754 c-22 -21 -20 -67 2 -87 41 -37 102 -11 102 43 0 16 -7 36
-16 44 -8 9 -28 16 -44 16 -16 0 -36 -7 -44 -16z m59 -44 c0 -13 -6 -25 -12
-27 -16 -6 -27 21 -19 43 9 23 31 11 31 -16z"/>
<path d="M2680 2709 c0 -56 1 -59 25 -59 23 0 25 4 25 46 0 59 24 55 28 -4 3
-33 7 -42 22 -42 15 0 19 9 22 42 4 59 28 63 28 4 0 -42 2 -46 25 -46 23 0 25
4 25 41 0 72 -7 77 -110 77 l-90 0 0 -59z"/>
<path d="M2900 2709 c0 -51 3 -59 19 -59 14 0 20 10 24 41 3 22 8 43 10 46 13
13 27 -12 27 -48 0 -32 3 -39 19 -39 16 0 20 8 23 42 4 59 28 63 28 4 0 -40 3
-46 20 -46 19 0 21 5 18 58 l-3 57 -92 2 -93 1 0 -59z"/>
<path d="M3120 2710 c0 -57 1 -60 25 -60 24 0 25 3 25 60 0 57 -1 60 -25 60
-24 0 -25 -3 -25 -60z"/>
<path d="M3406 2754 c-9 -8 -16 -28 -16 -44 0 -40 24 -60 71 -60 28 0 39 4 39
15 0 10 -10 15 -29 15 -17 0 -33 5 -36 10 -4 6 10 10 34 10 34 0 41 3 41 19 0
28 -27 51 -60 51 -16 0 -36 -7 -44 -16z m61 -20 c-3 -3 -12 -4 -19 -1 -8 3 -5
6 6 6 11 1 17 -2 13 -5z"/>
<path d="M5147 2752 c-38 -42 -8 -102 49 -102 39 0 54 16 54 60 0 20 -5 41
-12 48 -18 18 -73 14 -91 -6z m58 -42 c0 -13 -6 -25 -12 -27 -9 -3 -13 6 -13
27 0 21 4 30 13 28 6 -3 12 -15 12 -28z"/>
<path d="M5351 2718 c24 -63 31 -71 55 -66 11 2 26 24 40 61 l22 57 -23 0
c-17 0 -26 -9 -35 -32 l-12 -33 -9 33 c-8 25 -15 32 -34 32 l-25 0 21 -52z"/>
<path d="M5486 2748 c-20 -28 -20 -48 0 -76 13 -19 24 -22 57 -20 29 2 42 8
42 18 0 10 -8 14 -27 12 -14 -2 -29 2 -33 7 -4 7 7 11 29 11 31 0 36 3 36 23
0 32 -18 47 -56 47 -23 0 -38 -7 -48 -22z m61 -14 c-3 -3 -12 -4 -19 -1 -8 3
-5 6 6 6 11 1 17 -2 13 -5z"/>
<path d="M1630 2495 c0 -25 5 -45 10 -45 7 0 10 19 9 45 -2 25 -6 45 -11 45
-4 0 -8 -20 -8 -45z"/>
<path d="M2020 2531 c0 -5 -9 -11 -21 -14 -16 -4 -20 -12 -17 -34 2 -22 9 -29
31 -31 26 -3 27 -2 27 42 0 25 -4 46 -10 46 -5 0 -10 -4 -10 -9z m-4 -58 c-10
-10 -19 5 -10 18 6 11 8 11 12 0 2 -7 1 -15 -2 -18z"/>
<path d="M2090 2495 c0 -43 1 -45 29 -45 21 0 32 6 36 20 7 23 -10 50 -31 50
-8 0 -14 5 -14 10 0 6 -4 10 -10 10 -5 0 -10 -20 -10 -45z m37 -17 c-3 -8 -6
-5 -6 6 -1 11 2 17 5 13 3 -3 4 -12 1 -19z"/>
<path d="M2707 2528 c-7 -19 4 -78 14 -78 5 0 9 11 9 25 0 14 4 25 8 25 4 0 8
9 8 20 0 22 -31 28 -39 8z"/>
<path d="M2840 2495 c0 -51 11 -58 27 -17 l11 27 1 -27 c1 -18 7 -28 17 -28
11 0 14 8 12 33 -2 24 -8 33 -25 35 -13 2 -23 8 -23 13 0 5 -4 9 -10 9 -5 0
-10 -20 -10 -45z"/>
<path d="M3260 2495 c0 -25 5 -45 10 -45 6 0 10 20 10 45 0 25 -4 45 -10 45
-5 0 -10 -20 -10 -45z"/>
<path d="M3301 2495 c-1 -25 2 -45 8 -45 5 0 11 20 13 45 2 28 -1 45 -8 45 -5
0 -11 -20 -13 -45z"/>
<path d="M3540 2495 c0 -25 5 -45 10 -45 6 0 10 20 10 45 0 25 -4 45 -10 45
-5 0 -10 -20 -10 -45z"/>
<path d="M2543 2518 c-13 -17 -1 -62 18 -66 12 -2 16 6 15 34 -2 40 -16 53
-33 32z"/>
<path d="M2788 2518 c-9 -27 5 -68 23 -68 11 0 19 5 19 10 0 6 -4 10 -10 10
-14 0 -12 27 3 33 9 4 8 8 -3 16 -19 14 -27 14 -32 -1z"/>
<path d="M3484 2517 c-9 -25 0 -62 17 -65 12 -2 16 5 15 34 -2 39 -21 58 -32
31z"/>
<path d="M1665 2510 c-4 -6 -1 -17 5 -25 9 -11 9 -15 1 -15 -6 0 -11 -4 -11
-10 0 -14 47 -13 56 2 4 6 -1 17 -11 25 -11 7 -13 13 -7 13 7 0 12 5 12 10 0
13 -37 13 -45 0z"/>
<path d="M1762 2488 c3 -29 7 -33 36 -36 31 -3 32 -2 32 32 0 25 -4 36 -15 36
-9 0 -15 -10 -15 -26 0 -14 -4 -23 -10 -19 -5 3 -10 15 -10 26 0 10 -5 19 -11
19 -6 0 -9 -14 -7 -32z"/>
<path d="M1843 2504 c-3 -9 0 -20 8 -25 10 -6 10 -9 2 -9 -7 0 -13 -4 -13 -10
0 -5 11 -10 25 -10 18 0 25 5 25 19 0 11 -6 22 -12 24 -10 4 -10 6 0 6 6 1 12
6 12 11 0 16 -40 11 -47 -6z"/>
<path d="M1909 2504 c-16 -20 -1 -48 30 -52 25 -4 29 15 4 21 -14 4 -12 5 5 6
25 1 28 11 10 29 -16 16 -33 15 -49 -4z"/>
<path d="M2166 2503 c4 -10 8 -33 8 -50 0 -18 3 -33 8 -33 11 0 36 40 43 73 8
31 -2 35 -21 10 -13 -17 -13 -17 -14 0 0 9 -7 17 -16 17 -12 0 -14 -5 -8 -17z"/>
<path d="M2280 2483 c0 -18 5 -33 10 -33 6 0 10 11 10 25 0 14 5 25 10 25 6 0
10 -11 10 -25 0 -14 5 -25 10 -25 6 0 10 11 10 25 0 14 5 25 10 25 6 0 10 -11
10 -25 0 -14 5 -25 11 -25 6 0 9 14 7 33 -3 31 -4 32 -50 33 -48 1 -48 1 -48
-33z"/>
<path d="M2399 2504 c-17 -21 0 -49 32 -49 27 0 37 28 19 50 -16 19 -34 19
-51 -1z m41 -25 c0 -5 -4 -9 -10 -9 -5 0 -10 7 -10 16 0 8 5 12 10 9 6 -3 10
-10 10 -16z"/>
<path d="M2475 2510 c-4 -6 -1 -17 5 -25 9 -11 9 -15 1 -15 -6 0 -11 -4 -11
-10 0 -14 47 -13 56 2 4 6 -1 17 -11 25 -11 7 -13 13 -7 13 7 0 12 5 12 10 0
13 -37 13 -45 0z"/>
<path d="M2629 2504 c-17 -21 0 -49 32 -49 27 0 37 28 19 50 -16 19 -34 19
-51 -1z m41 -25 c0 -5 -4 -9 -10 -9 -5 0 -10 7 -10 16 0 8 5 12 10 9 6 -3 10
-10 10 -16z"/>
<path d="M2930 2505 c-19 -23 -8 -50 23 -53 30 -4 38 14 10 21 -14 4 -12 5 5
6 25 1 28 11 10 29 -16 16 -33 15 -48 -3z"/>
<path d="M3036 2511 c-4 -5 2 -12 11 -14 17 -4 17 -5 1 -6 -11 -1 -18 -9 -18
-21 0 -16 7 -20 31 -20 28 0 30 2 27 33 -2 24 -8 33 -25 35 -11 2 -24 -1 -27
-7z"/>
<path d="M3110 2469 c0 -27 5 -49 10 -49 6 0 10 6 10 14 0 7 9 16 21 19 16 4
20 12 17 34 -2 22 -8 28 -30 30 -27 2 -28 0 -28 -48z m40 10 c0 -5 -4 -9 -10
-9 -5 0 -10 7 -10 16 0 8 5 12 10 9 6 -3 10 -10 10 -16z"/>
<path d="M3180 2468 c0 -36 4 -48 15 -48 8 0 15 7 15 15 0 8 6 15 14 15 21 0
29 17 22 45 -5 19 -12 23 -36 23 -29 -1 -30 -3 -30 -50z m37 10 c-3 -8 -6 -5
-6 6 -1 11 2 17 5 13 3 -3 4 -12 1 -19z"/>
<path d="M3352 2511 c-22 -13 -11 -56 16 -59 12 -2 22 1 22 7 0 6 -7 11 -15
11 -8 0 -15 5 -15 10 0 6 7 13 15 16 8 4 15 10 15 15 0 11 -21 11 -38 0z"/>
<path d="M3415 2510 c-3 -5 2 -10 12 -11 14 0 13 -2 -5 -10 -32 -12 -23 -33
16 -37 28 -3 32 0 32 20 0 38 -39 64 -55 38z"/>
<path d="M3579 2504 c-17 -21 0 -49 32 -49 27 0 37 28 19 50 -16 19 -34 19
-51 -1z m41 -25 c0 -5 -4 -9 -10 -9 -5 0 -10 7 -10 16 0 8 5 12 10 9 6 -3 10
-10 10 -16z"/>
<path d="M3650 2484 c0 -24 5 -34 15 -34 9 0 15 10 15 26 0 14 4 23 10 19 6
-3 10 -15 10 -26 0 -10 5 -19 11 -19 6 0 9 14 7 33 -3 28 -7 32 -35 34 -31 1
-33 -1 -33 -33z"/>
<path d="M3743 2504 c-3 -9 0 -20 8 -25 10 -6 10 -9 2 -9 -7 0 -13 -4 -13 -10
0 -13 37 -13 46 1 3 6 2 15 -4 21 -6 6 -8 17 -5 24 3 8 -1 14 -11 14 -9 0 -19
-7 -23 -16z"/>
<path d="M8480 1850 l0 -370 855 0 855 0 0 370 0 370 -855 0 -855 0 0 -370z"/>
<path d="M2717 1933 c-4 -3 -7 -41 -7 -84 l0 -78 52 2 c48 2 53 5 62 30 6 17
6 37 0 55 -8 22 -16 27 -42 27 -28 0 -32 3 -32 27 0 26 -17 37 -33 21z m68
-83 c8 -13 -3 -50 -15 -50 -12 0 -20 28 -14 45 7 17 20 20 29 5z"/>
<path d="M2857 1933 c-4 -3 -7 -42 -7 -85 0 -71 2 -78 20 -78 18 0 20 7 20 85
0 64 -3 85 -13 85 -8 0 -17 -3 -20 -7z"/>
<path d="M3607 1934 c-4 -4 -7 -15 -7 -25 0 -12 -9 -19 -27 -21 -34 -4 -52
-44 -37 -85 9 -25 14 -28 62 -30 l53 -2 -3 82 c-2 64 -6 82 -18 85 -9 1 -19 0
-23 -4z m-2 -104 c0 -27 -22 -39 -31 -16 -8 22 3 49 19 43 6 -2 12 -14 12 -27z"/>
<path d="M5280 1855 c0 -78 2 -85 20 -85 18 0 20 7 20 85 0 78 -2 85 -20 85
-18 0 -20 -7 -20 -85z"/>
<path d="M5680 1915 c0 -19 -5 -25 -23 -25 -33 0 -47 -18 -47 -61 0 -47 14
-57 73 -57 l47 0 0 84 c0 83 0 84 -25 84 -20 0 -25 -5 -25 -25z m4 -70 c6 -17
-2 -45 -14 -45 -12 0 -20 28 -14 45 4 8 10 15 14 15 4 0 10 -7 14 -15z"/>
<path d="M7390 1855 c0 -84 0 -85 25 -85 25 0 25 1 25 85 0 84 0 85 -25 85
-25 0 -25 -1 -25 -85z"/>
<path d="M7800 1915 c0 -19 -5 -25 -23 -25 -33 0 -47 -18 -47 -61 0 -47 14
-57 73 -57 l47 0 0 84 c0 83 0 84 -25 84 -20 0 -25 -5 -25 -25z m4 -70 c6 -17
-2 -45 -14 -45 -4 0 -10 7 -14 15 -6 17 2 45 14 45 4 0 10 -7 14 -15z"/>
<path d="M1787 1923 c-4 -3 -7 -39 -7 -80 0 -71 1 -73 25 -73 21 0 25 5 25 28
l1 27 20 -27 c11 -16 29 -28 40 -28 24 0 24 5 -1 40 -17 24 -18 29 -5 40 22
18 18 46 -7 64 -23 16 -79 22 -91 9z m63 -48 c0 -8 -4 -15 -10 -15 -5 0 -10 7
-10 15 0 8 5 15 10 15 6 0 10 -7 10 -15z"/>
<path d="M3120 1850 c0 -73 2 -80 20 -80 15 0 20 7 20 25 0 14 4 25 8 25 5 0
14 -11 20 -25 8 -17 20 -25 38 -25 l26 0 -22 34 c-13 22 -17 37 -10 41 5 3 10
20 10 36 0 33 -27 49 -81 49 l-29 0 0 -80z m68 28 c-6 -18 -28 -21 -28 -4 0 9
7 16 16 16 9 0 14 -5 12 -12z"/>
<path d="M5015 1907 c-19 -30 -11 -53 27 -73 36 -19 28 -35 -13 -27 -27 5 -31
3 -27 -13 2 -14 13 -20 45 -22 35 -3 44 1 58 21 20 31 11 53 -29 75 l-31 17
33 3 c48 5 40 36 -10 40 -30 3 -40 -1 -53 -21z"/>
<path d="M7135 1907 c-19 -30 -11 -53 27 -73 36 -19 28 -35 -13 -27 -27 5 -31
3 -27 -13 2 -14 13 -20 45 -22 35 -3 44 1 58 21 20 31 11 53 -29 75 l-31 17
33 3 c48 5 40 36 -10 40 -30 3 -40 -1 -53 -21z"/>
<path d="M2487 1897 c-8 -13 -13 -36 -10 -53 11 -72 12 -74 43 -74 32 0 42 23
15 34 -8 3 -15 17 -15 31 0 16 6 25 15 25 8 0 15 7 15 15 0 8 -7 15 -15 15 -8
0 -15 7 -15 15 0 22 -16 18 -33 -8z"/>
<path d="M1940 1874 c-8 -8 -13 -28 -13 -44 0 -42 19 -60 64 -60 28 0 39 4 39
15 0 10 -10 15 -30 15 -16 0 -30 5 -30 10 0 6 16 10 35 10 30 0 35 3 35 23 0
13 -5 28 -12 35 -17 17 -73 15 -88 -4z m57 -20 c-3 -3 -12 -4 -19 -1 -8 3 -5
6 6 6 11 1 17 -2 13 -5z"/>
<path d="M2060 1804 c0 -83 0 -84 25 -84 20 0 25 5 25 25 0 19 5 25 23 25 33
0 47 18 47 61 0 47 -14 57 -73 57 l-47 0 0 -84z m75 28 c0 -31 -19 -28 -23 4
-3 18 0 25 10 22 7 -3 13 -14 13 -26z"/>
<path d="M2216 1874 c-9 -8 -16 -28 -16 -44 0 -40 24 -60 71 -60 28 0 39 4 39
15 0 10 -10 15 -29 15 -17 0 -33 5 -36 10 -4 6 10 10 34 10 34 0 41 3 41 19 0
28 -27 51 -60 51 -16 0 -36 -7 -44 -16z m61 -20 c-3 -3 -12 -4 -19 -1 -8 3 -5
6 6 6 11 1 17 -2 13 -5z"/>
<path d="M2350 1875 c0 -10 10 -15 28 -15 l27 -1 -33 -14 c-67 -29 -50 -74 29
-73 l49 1 0 47 c0 25 -5 51 -12 58 -18 18 -88 16 -88 -3z m55 -65 c-3 -5 -10
-10 -16 -10 -5 0 -9 5 -9 10 0 6 7 10 16 10 8 0 12 -4 9 -10z"/>
<path d="M2590 1875 c0 -9 10 -15 28 -16 27 -1 27 -1 -5 -11 -34 -11 -48 -34
-37 -61 4 -12 19 -16 60 -16 l54 1 0 40 c0 60 -14 78 -60 78 -29 0 -40 -4 -40
-15z m50 -65 c0 -5 -4 -10 -10 -10 -5 0 -10 5 -10 10 0 6 5 10 10 10 6 0 10
-4 10 -10z"/>
<path d="M2936 1874 c-9 -8 -16 -28 -16 -44 0 -40 24 -60 71 -60 28 0 39 4 39
15 0 10 -10 15 -29 15 -17 0 -33 5 -36 10 -4 6 10 10 34 10 34 0 41 3 41 19 0
28 -27 51 -60 51 -16 0 -36 -7 -44 -16z m61 -20 c-3 -3 -12 -4 -19 -1 -8 3 -5
6 6 6 11 1 17 -2 13 -5z"/>
<path d="M3276 1874 c-9 -8 -16 -28 -16 -44 0 -40 24 -60 71 -60 28 0 39 4 39
15 0 10 -10 15 -29 15 -17 0 -33 5 -36 10 -4 6 10 10 34 10 34 0 41 3 41 19 0
28 -27 51 -60 51 -16 0 -36 -7 -44 -16z m61 -20 c-3 -3 -12 -4 -19 -1 -8 3 -5
6 6 6 11 1 17 -2 13 -5z"/>
<path d="M3410 1875 c0 -10 10 -15 28 -15 l27 -1 -33 -14 c-67 -29 -50 -74 29
-73 l49 1 0 47 c0 25 -5 51 -12 58 -18 18 -88 16 -88 -3z m55 -65 c-3 -5 -10
-10 -16 -10 -5 0 -9 5 -9 10 0 6 7 10 16 10 8 0 12 -4 9 -10z"/>
<path d="M5147 1872 c-38 -42 -8 -102 49 -102 39 0 54 16 54 60 0 20 -5 41
-12 48 -18 18 -73 14 -91 -6z m58 -42 c0 -13 -6 -25 -12 -27 -9 -3 -13 6 -13
27 0 21 4 30 13 28 6 -3 12 -15 12 -28z"/>
<path d="M5351 1838 c24 -63 31 -71 55 -66 11 2 26 24 40 61 l22 57 -23 0
c-17 0 -26 -9 -35 -32 l-12 -33 -9 33 c-8 25 -15 32 -34 32 l-25 0 21 -52z"/>
<path d="M5486 1868 c-20 -28 -20 -48 0 -76 13 -19 24 -22 57 -20 29 2 42 8
42 18 0 10 -8 14 -27 12 -14 -2 -29 2 -33 7 -4 7 7 11 29 11 31 0 36 3 36 23
0 32 -18 47 -56 47 -23 0 -38 -7 -48 -22z m61 -14 c-3 -3 -12 -4 -19 -1 -8 3
-5 6 6 6 11 1 17 -2 13 -5z"/>
<path d="M7260 1871 c-26 -50 -1 -101 50 -101 35 0 60 23 60 56 0 46 -17 64
-60 64 -29 0 -42 -5 -50 -19z m64 -26 c6 -17 -2 -45 -14 -45 -4 0 -10 7 -14
15 -6 17 2 45 14 45 4 0 10 -7 14 -15z"/>
<path d="M7452 1882 c2 -4 12 -31 23 -60 17 -46 23 -53 43 -50 19 2 28 14 43
53 10 28 19 53 19 58 0 15 -41 6 -46 -10 -15 -46 -17 -48 -27 -15 -8 25 -15
32 -34 32 -14 0 -23 -4 -21 -8z"/>
<path d="M7606 1868 c-20 -28 -20 -48 0 -76 13 -19 24 -22 57 -20 29 2 42 8
42 18 0 10 -8 14 -27 12 -14 -2 -29 2 -33 7 -4 7 7 11 29 11 31 0 36 3 36 23
0 32 -18 47 -56 47 -23 0 -38 -7 -48 -22z m61 -14 c-3 -3 -12 -4 -19 -1 -8 3
-5 6 6 6 11 1 17 -2 13 -5z"/>
<path d="M2442 1043 c2 -10 10 -18 18 -18 8 0 16 8 18 18 2 12 -3 17 -18 17
-15 0 -20 -5 -18 -17z"/>
<path d="M2650 975 c0 -78 2 -85 20 -85 18 0 20 7 20 85 0 78 -2 85 -20 85
-18 0 -20 -7 -20 -85z"/>
<path d="M2722 1043 c2 -10 10 -18 18 -18 8 0 16 8 18 18 2 12 -3 17 -18 17
-15 0 -20 -5 -18 -17z"/>
<path d="M3037 1054 c-4 -4 -7 -42 -7 -85 l0 -77 47 0 c59 0 73 10 73 57 0 42
-14 61 -46 61 -16 0 -24 7 -26 22 -3 23 -27 35 -41 22z m68 -102 c0 -31 -19
-28 -23 4 -3 18 0 25 10 22 7 -3 13 -14 13 -26z"/>
<path d="M3177 1054 c-4 -4 -7 -43 -7 -86 0 -77 0 -78 25 -78 26 0 26 0 23 82
-2 65 -6 83 -18 86 -9 1 -19 0 -23 -4z"/>
<path d="M5280 975 c0 -78 2 -85 20 -85 18 0 20 7 20 85 0 78 -2 85 -20 85
-18 0 -20 -7 -20 -85z"/>
<path d="M5680 1035 c0 -19 -5 -25 -23 -25 -33 0 -47 -18 -47 -61 0 -47 14
-57 73 -57 l47 0 0 84 c0 83 0 84 -25 84 -20 0 -25 -5 -25 -25z m4 -70 c6 -17
-2 -45 -14 -45 -12 0 -20 28 -14 45 4 8 10 15 14 15 4 0 10 -7 14 -15z"/>
<path d="M7390 975 c0 -84 0 -85 25 -85 25 0 25 1 25 85 0 84 0 85 -25 85 -25
0 -25 -1 -25 -85z"/>
<path d="M7800 1035 c0 -19 -5 -25 -23 -25 -33 0 -47 -18 -47 -61 0 -47 14
-57 73 -57 l47 0 0 84 c0 83 0 84 -25 84 -20 0 -25 -5 -25 -25z m4 -70 c6 -17
-2 -45 -14 -45 -4 0 -10 7 -14 15 -6 17 2 45 14 45 4 0 10 -7 14 -15z"/>
<path d="M9240 976 c0 -85 0 -86 25 -86 26 0 26 0 23 83 -3 76 -5 82 -25 85
-22 3 -23 1 -23 -82z"/>
<path d="M9650 1036 c0 -22 -5 -26 -29 -26 -32 0 -41 -14 -41 -63 0 -47 10
-55 68 -55 l53 0 -3 82 c-3 75 -5 81 -25 84 -19 3 -23 -1 -23 -22z m0 -86 c0
-25 -18 -36 -26 -16 -8 21 3 49 16 41 5 -3 10 -15 10 -25z"/>
<path d="M2086 1034 c-26 -25 -19 -53 19 -75 41 -24 37 -43 -7 -34 -25 6 -29
4 -26 -12 4 -25 69 -31 92 -8 27 27 19 54 -21 78 l-38 22 30 3 c38 4 55 20 35
32 -23 15 -67 12 -84 -6z"/>
<path d="M5015 1027 c-19 -30 -11 -53 27 -73 36 -19 28 -35 -13 -27 -27 5 -31
3 -27 -13 2 -14 13 -20 45 -22 35 -3 44 1 58 21 20 31 11 53 -29 75 l-31 17
33 3 c48 5 40 36 -10 40 -30 3 -40 -1 -53 -21z"/>
<path d="M7135 1027 c-19 -30 -11 -53 27 -73 36 -19 28 -35 -13 -27 -27 5 -31
3 -27 -13 2 -14 13 -20 45 -22 35 -3 44 1 58 21 20 31 11 53 -29 75 l-31 17
33 3 c48 5 40 36 -10 40 -30 3 -40 -1 -53 -21z"/>
<path d="M8987 1032 c-9 -10 -17 -25 -17 -34 0 -17 26 -42 53 -51 29 -11 9
-27 -23 -20 -26 5 -30 2 -30 -16 0 -18 6 -21 43 -21 24 0 48 5 55 12 22 22 13
56 -19 80 l-31 23 29 5 c41 8 36 34 -8 38 -24 2 -40 -3 -52 -16z"/>
<path d="M2212 998 c-17 -17 -15 -74 4 -93 11 -10 29 -15 52 -13 45 4 56 28
13 28 -16 0 -33 5 -36 10 -4 6 8 10 29 10 31 0 36 3 36 23 0 13 -5 28 -12 35
-16 16 -70 16 -86 0z m55 -24 c-3 -3 -12 -4 -19 -1 -8 3 -5 6 6 6 11 1 17 -2
13 -5z"/>
<path d="M2340 949 c0 -52 2 -59 20 -59 17 0 20 7 20 40 0 33 3 40 20 40 13 0
20 7 20 19 0 15 -8 18 -40 18 l-40 0 0 -58z"/>
<path d="M2440 950 c0 -53 2 -60 20 -60 18 0 20 7 20 60 0 53 -2 60 -20 60
-18 0 -20 -7 -20 -60z"/>
<path d="M2520 995 c0 -10 10 -15 28 -15 l27 -1 -33 -14 c-67 -29 -50 -74 29
-73 l49 1 0 47 c0 25 -5 51 -12 58 -18 18 -88 16 -88 -3z m55 -65 c-3 -5 -10
-10 -16 -10 -5 0 -9 5 -9 10 0 6 7 10 16 10 8 0 12 -4 9 -10z"/>
<path d="M2720 950 c0 -53 2 -60 20 -60 18 0 20 7 20 60 0 53 -2 60 -20 60
-18 0 -20 -7 -20 -60z"/>
<path d="M2780 995 c0 -8 9 -15 20 -15 11 0 20 -3 20 -6 0 -3 -9 -17 -20 -31
-33 -42 -26 -53 30 -53 38 0 50 4 50 15 0 10 -10 15 -26 15 l-26 0 26 34 c14
19 26 39 26 45 0 6 -21 11 -50 11 -38 0 -50 -4 -50 -15z"/>
<path d="M2910 995 c0 -10 10 -15 28 -15 l27 -1 -33 -14 c-67 -29 -50 -74 29
-73 l49 1 0 47 c0 25 -5 51 -12 58 -18 18 -88 16 -88 -3z m55 -65 c-3 -5 -10
-10 -16 -10 -5 0 -9 5 -9 10 0 6 7 10 16 10 8 0 12 -4 9 -10z"/>
<path d="M3256 988 c-34 -48 -6 -98 55 -98 28 0 39 4 39 15 0 10 -10 15 -30
15 -16 0 -30 5 -30 10 0 6 16 10 35 10 37 0 44 14 25 51 -15 28 -74 26 -94 -3z
m61 -14 c-3 -3 -12 -4 -19 -1 -8 3 -5 6 6 6 11 1 17 -2 13 -5z"/>
<path d="M5147 992 c-38 -42 -8 -102 49 -102 39 0 54 16 54 60 0 20 -5 41 -12
48 -18 18 -73 14 -91 -6z m58 -42 c0 -13 -6 -25 -12 -27 -9 -3 -13 6 -13 27 0
21 4 30 13 28 6 -3 12 -15 12 -28z"/>
<path d="M5351 958 c24 -63 31 -71 55 -66 11 2 26 24 40 61 l22 57 -23 0 c-17
0 -26 -9 -35 -32 l-12 -33 -9 33 c-8 25 -15 32 -34 32 l-25 0 21 -52z"/>
<path d="M5486 988 c-20 -28 -20 -48 0 -76 13 -19 24 -22 57 -20 29 2 42 8 42
18 0 10 -8 14 -27 12 -14 -2 -29 2 -33 7 -4 7 7 11 29 11 31 0 36 3 36 23 0
32 -18 47 -56 47 -23 0 -38 -7 -48 -22z m61 -14 c-3 -3 -12 -4 -19 -1 -8 3 -5
6 6 6 11 1 17 -2 13 -5z"/>
<path d="M7260 991 c-26 -50 -1 -101 50 -101 35 0 60 23 60 56 0 46 -17 64
-60 64 -29 0 -42 -5 -50 -19z m64 -26 c6 -17 -2 -45 -14 -45 -12 0 -20 28 -14
45 4 8 10 15 14 15 4 0 10 -7 14 -15z"/>
<path d="M7452 1002 c2 -4 12 -31 23 -60 17 -46 23 -53 43 -50 19 2 28 14 43
53 10 28 19 53 19 58 0 15 -41 6 -46 -10 -15 -46 -17 -48 -27 -15 -8 25 -15
32 -34 32 -14 0 -23 -4 -21 -8z"/>
<path d="M7606 988 c-20 -28 -20 -48 0 -76 13 -19 24 -22 57 -20 29 2 42 8 42
18 0 10 -8 14 -27 12 -14 -2 -29 2 -33 7 -4 7 7 11 29 11 31 0 36 3 36 23 0
32 -18 47 -56 47 -23 0 -38 -7 -48 -22z m61 -14 c-3 -3 -12 -4 -19 -1 -8 3 -5
6 6 6 11 1 17 -2 13 -5z"/>
<path d="M9112 998 c-7 -7 -12 -28 -12 -48 0 -44 15 -60 55 -60 57 0 87 67 47
103 -22 20 -73 22 -90 5z m58 -48 c0 -16 -5 -30 -10 -30 -14 0 -24 26 -16 45
10 26 26 16 26 -15z"/>
<path d="M9300 1006 c0 -2 10 -29 21 -60 17 -45 26 -56 44 -56 18 0 27 11 44
56 26 68 26 64 -3 64 -19 0 -25 -7 -30 -32 -5 -26 -9 -30 -16 -18 -5 8 -10 23
-10 33 0 11 -8 17 -25 17 -14 0 -25 -2 -25 -4z"/>
<path d="M9450 991 c-28 -53 2 -101 63 -101 29 0 37 4 37 18 0 15 -6 18 -30
14 -18 -3 -30 0 -30 7 0 6 16 11 35 11 30 0 35 3 35 23 0 33 -18 47 -62 47
-27 0 -40 -5 -48 -19z m67 -17 c-3 -3 -12 -4 -19 -1 -8 3 -5 6 6 6 11 1 17 -2
13 -5z"/>
<path d="M1966 798 c25 -81 47 -91 63 -30 13 46 13 52 2 52 -5 0 -14 -12 -19
-27 l-10 -28 -7 28 c-4 15 -14 27 -22 27 -10 0 -12 -6 -7 -22z"/>
<path d="M2827 806 c-3 -9 -16 -13 -31 -12 -23 3 -26 0 -26 -30 0 -38 17 -47
22 -12 5 32 28 35 28 4 0 -43 25 -29 36 19 9 40 8 45 -7 45 -9 0 -19 -6 -22
-14z"/>
<path d="M2060 785 c-19 -23 -8 -50 23 -53 30 -4 38 14 10 21 -14 4 -12 5 5 6
25 1 28 11 10 29 -16 16 -33 15 -48 -3z"/>
<path d="M2130 763 c0 -37 17 -46 22 -11 5 32 26 33 40 2 10 -22 10 -28 0 -32
-17 -5 -15 -22 3 -22 9 0 24 20 36 46 21 49 17 72 -7 40 -12 -17 -14 -17 -20
-3 -4 11 -17 16 -40 15 -32 -1 -34 -4 -34 -35z"/>
<path d="M2290 749 c0 -27 5 -49 10 -49 6 0 10 7 10 15 0 8 9 15 19 15 23 0
37 35 22 54 -6 8 -23 14 -36 14 -23 0 -25 -4 -25 -49z m37 9 c-3 -8 -6 -5 -6
6 -1 11 2 17 5 13 3 -3 4 -12 1 -19z"/>
<path d="M2374 786 c-11 -29 0 -51 26 -51 21 0 25 5 25 30 0 24 -5 31 -23 33
-13 2 -24 -3 -28 -12z m36 -21 c0 -8 -4 -15 -10 -15 -5 0 -10 7 -10 15 0 8 5
15 10 15 6 0 10 -7 10 -15z"/>
<path d="M2449 784 c-17 -21 0 -49 32 -49 27 0 37 28 19 50 -16 19 -34 19 -51
-1z m41 -25 c0 -5 -4 -9 -10 -9 -5 0 -10 7 -10 16 0 8 5 12 10 9 6 -3 10 -10
10 -16z"/>
<path d="M2520 764 c0 -24 5 -34 15 -34 8 0 15 9 15 19 0 11 5 23 10 26 18 11
10 23 -15 23 -22 0 -25 -5 -25 -34z"/>
<path d="M2610 749 c0 -27 5 -49 10 -49 6 0 10 7 10 15 0 8 9 15 19 15 23 0
37 35 22 54 -6 8 -23 14 -36 14 -23 0 -25 -4 -25 -49z m37 9 c-3 -8 -6 -5 -6
6 -1 11 2 17 5 13 3 -3 4 -12 1 -19z"/>
<path d="M2694 786 c-11 -29 1 -51 29 -54 32 -4 37 15 5 21 l-23 4 23 2 c17 1
22 6 20 19 -4 22 -46 29 -54 8z"/>
<path d="M2882 791 c-20 -12 -11 -55 12 -59 27 -6 48 25 35 49 -10 20 -26 24
-47 10z m28 -26 c0 -8 -4 -15 -10 -15 -5 0 -10 7 -10 15 0 8 5 15 10 15 6 0
10 -7 10 -15z"/>
<path d="M2950 764 c0 -19 5 -34 10 -34 6 0 10 9 10 20 0 11 7 23 15 26 23 9
18 22 -10 22 -22 0 -25 -5 -25 -34z"/>
<path d="M3010 763 c0 -18 5 -33 10 -33 6 0 10 11 10 25 0 14 5 25 10 25 6 0
10 -11 10 -25 0 -14 5 -25 10 -25 6 0 10 11 10 25 0 14 5 25 10 25 6 0 10 -11
10 -25 0 -14 5 -25 11 -25 6 0 9 14 7 33 -3 31 -4 32 -50 33 -48 1 -48 1 -48
-33z"/>
<path d="M3136 791 c-4 -5 2 -12 11 -14 17 -4 17 -5 1 -6 -11 -1 -18 -9 -18
-21 0 -16 7 -20 31 -20 28 0 30 2 27 33 -2 24 -8 33 -25 35 -11 2 -24 -1 -27
-7z"/>
<path d="M3200 764 c0 -24 5 -34 15 -34 9 0 15 10 15 26 0 14 4 23 10 19 6 -3
10 -15 10 -26 0 -10 5 -19 11 -19 6 0 9 14 7 33 -3 28 -7 32 -35 34 -31 1 -33
-1 -33 -33z"/>
<path d="M3290 785 c-18 -22 -3 -55 26 -55 13 0 24 5 24 10 0 6 -7 10 -15 10
-8 0 -15 7 -15 15 0 8 7 15 15 15 8 0 15 5 15 10 0 15 -36 12 -50 -5z"/>
<path d="M3362 791 c-8 -4 -12 -19 -10 -32 2 -18 10 -25 31 -27 30 -4 38 14
10 21 -17 4 -16 5 0 6 12 1 17 7 15 18 -4 20 -27 27 -46 14z"/>
</g>
</svg>
