<?xml version="1.0" standalone="no"?>
<!DOCTYPE svg PUBLIC "-//W3C//DTD SVG 20010904//EN"
 "http://www.w3.org/TR/2001/REC-SVG-20010904/DTD/svg10.dtd">
<svg version="1.0" xmlns="http://www.w3.org/2000/svg"
 width="50%" height="40%" viewBox="0 0 1174.000000 538.000000"
 preserveAspectRatio="xMidYMid meet">

<g transform="translate(0.000000,538.000000) scale(0.100000,-0.100000)"
fill="#000000" stroke="none">
<path d="M830 5270 c0 -5 5 -10 10 -10 6 0 10 5 10 10 0 6 -4 10 -10 10 -5 0
-10 -4 -10 -10z"/>
<path d="M1030 5270 c0 -5 5 -10 10 -10 6 0 10 5 10 10 0 6 -4 10 -10 10 -5 0
-10 -4 -10 -10z"/>
<path d="M1370 5270 c0 -5 5 -10 10 -10 6 0 10 5 10 10 0 6 -4 10 -10 10 -5 0
-10 -4 -10 -10z"/>
<path d="M1590 5270 c0 -5 5 -10 10 -10 6 0 10 5 10 10 0 6 -4 10 -10 10 -5 0
-10 -4 -10 -10z"/>
<path d="M1730 5270 c0 -5 5 -10 10 -10 6 0 10 5 10 10 0 6 -4 10 -10 10 -5 0
-10 -4 -10 -10z"/>
<path d="M2020 5270 c0 -5 5 -10 10 -10 6 0 10 5 10 10 0 6 -4 10 -10 10 -5 0
-10 -4 -10 -10z"/>
<path d="M480 5245 c-5 -13 -23 -56 -39 -95 -22 -50 -26 -70 -17 -70 8 0 19
14 26 30 11 27 17 30 55 30 39 0 44 -3 54 -30 5 -16 15 -30 20 -30 15 0 15 -1
-25 100 -37 93 -57 110 -74 65z m54 -72 c7 -21 4 -23 -28 -23 -41 0 -42 3 -20
56 l16 38 13 -24 c7 -14 16 -35 19 -47z"/>
<path d="M10195 5258 c-21 -56 -51 -188 -42 -185 13 4 68 197 55 197 -5 0 -11
-6 -13 -12z"/>
<path d="M755 5237 c-5 -12 -8 -51 -5 -87 5 -60 7 -65 30 -69 24 -3 24 -2 7
16 -24 27 -24 113 0 113 15 0 15 1 1 13 -9 6 -17 17 -19 24 -2 7 -8 2 -14 -10z"/>
<path d="M1095 5237 c-5 -12 -8 -51 -5 -87 5 -60 7 -65 30 -69 24 -3 24 -2 7
16 -24 27 -24 113 0 113 15 0 15 1 1 13 -9 6 -17 17 -19 24 -2 7 -8 2 -14 -10z"/>
<path d="M1655 5237 c-5 -12 -8 -51 -5 -87 5 -60 7 -65 30 -69 24 -3 24 -2 7
16 -24 27 -24 113 0 113 15 0 15 1 1 13 -9 6 -17 17 -19 24 -2 7 -8 2 -14 -10z"/>
<path d="M1945 5237 c-5 -12 -8 -51 -5 -87 5 -60 7 -65 30 -69 24 -3 24 -2 7
16 -24 27 -24 113 0 113 15 0 15 1 1 13 -9 6 -17 17 -19 24 -2 7 -8 2 -14 -10z"/>
<path d="M9450 5165 c0 -57 4 -95 10 -95 6 0 10 20 10 46 l0 45 53 -3 52 -3 3
-42 c6 -81 22 -43 22 52 0 53 -4 95 -9 95 -6 0 -11 -17 -13 -37 l-3 -38 -52
-3 -53 -3 0 40 c0 23 -4 41 -10 41 -6 0 -10 -38 -10 -95z"/>
<path d="M9620 5250 c0 -5 16 -10 35 -10 l35 0 0 -85 c0 -50 4 -85 10 -85 6 0
10 35 10 85 l0 85 35 0 c19 0 35 5 35 10 0 6 -33 10 -80 10 -47 0 -80 -4 -80
-10z"/>
<path d="M9790 5250 c0 -5 16 -10 35 -10 l35 0 0 -85 c0 -50 4 -85 10 -85 6 0
10 35 10 85 l0 85 35 0 c19 0 35 5 35 10 0 6 -33 10 -80 10 -47 0 -80 -4 -80
-10z"/>
<path d="M9980 5165 c0 -53 4 -95 9 -95 6 0 11 17 13 38 3 37 3 37 50 40 53 3
79 28 71 65 -8 34 -33 47 -90 47 l-53 0 0 -95z m104 69 c23 -9 20 -51 -4 -64
-12 -6 -33 -10 -48 -8 -23 3 -27 8 -30 41 -3 36 -3 37 32 37 19 0 41 -3 50 -6z"/>
<path d="M10246 5244 c-16 -15 -21 -34 -10 -34 3 0 17 9 31 20 19 15 30 17 44
9 31 -16 22 -42 -31 -94 -27 -27 -50 -55 -50 -62 0 -9 19 -13 65 -13 37 0 65
4 65 10 0 6 -23 10 -52 10 l-52 0 47 48 c48 49 60 85 35 110 -17 17 -74 15
-92 -4z"/>
<path d="M10595 5227 c-5 -12 -8 -51 -5 -87 5 -60 7 -65 30 -69 24 -3 24 -2 7
16 -24 27 -24 113 0 113 15 0 15 1 1 13 -9 6 -17 17 -19 24 -2 7 -8 2 -14 -10z"/>
<path d="M630 5210 c-25 -25 -27 -91 -4 -114 25 -26 94 -18 94 10 0 18 -9 18
-32 -3 -17 -15 -19 -15 -38 2 -22 20 -26 55 -10 86 13 23 46 25 58 3 7 -13 11
-14 17 -4 9 15 -20 40 -47 40 -10 0 -27 -9 -38 -20z"/>
<path d="M1471 5221 c-8 -5 -20 -7 -28 -4 -10 4 -13 -11 -13 -66 0 -41 4 -71
10 -71 6 0 10 21 10 46 0 55 14 84 41 84 24 0 39 -35 39 -91 0 -21 5 -39 10
-39 17 0 12 116 -6 134 -17 18 -42 20 -63 7z"/>
<path d="M1804 5216 c-25 -19 -12 -31 15 -14 15 9 26 10 38 2 27 -17 27 -34
-1 -34 -13 0 -37 -4 -51 -10 -22 -8 -26 -15 -23 -42 2 -27 8 -34 30 -36 15 -2
36 2 48 8 13 7 20 7 20 0 0 -5 10 -10 22 -10 17 0 19 3 10 12 -7 7 -12 33 -12
59 0 71 -45 102 -96 65z m76 -76 c0 -12 -37 -50 -49 -50 -16 0 -31 27 -25 44
7 18 74 23 74 6z"/>
<path d="M2090 5210 c-25 -25 -27 -91 -4 -114 8 -9 31 -16 49 -16 46 0 70 35
62 88 -10 61 -66 83 -107 42z m75 -11 c11 -17 8 -79 -5 -94 -39 -47 -91 27
-60 86 11 20 54 26 65 8z"/>
<path d="M2271 5221 c-8 -5 -20 -7 -28 -4 -10 4 -13 -11 -13 -66 0 -41 4 -71
10 -71 6 0 10 21 10 46 0 55 14 84 41 84 24 0 39 -35 39 -91 0 -21 5 -39 10
-39 17 0 12 116 -6 134 -17 18 -42 20 -63 7z"/>
<path d="M830 5150 c0 -40 4 -70 10 -70 6 0 10 30 10 70 0 40 -4 70 -10 70 -6
0 -10 -30 -10 -70z"/>
<path d="M880 5213 c0 -5 10 -36 22 -70 15 -40 28 -63 38 -63 10 0 23 23 38
63 25 70 26 77 13 77 -6 0 -18 -25 -27 -55 -10 -30 -21 -55 -24 -55 -3 0 -14
25 -24 55 -9 30 -21 55 -27 55 -5 0 -9 -3 -9 -7z"/>
<path d="M1030 5150 c0 -40 4 -70 10 -70 6 0 10 30 10 70 0 40 -4 70 -10 70
-6 0 -10 -30 -10 -70z"/>
<path d="M1172 5168 c32 -80 34 -104 9 -120 -12 -7 -21 -16 -21 -20 0 -14 27
-8 42 10 19 20 80 174 73 181 -9 8 -21 -12 -40 -64 l-19 -50 -20 58 c-12 31
-26 57 -33 57 -9 0 -6 -15 9 -52z"/>
<path d="M1370 5150 c0 -40 4 -70 10 -70 6 0 10 30 10 70 0 40 -4 70 -10 70
-6 0 -10 -30 -10 -70z"/>
<path d="M1590 5150 c0 -40 4 -70 10 -70 6 0 10 30 10 70 0 40 -4 70 -10 70
-6 0 -10 -30 -10 -70z"/>
<path d="M1730 5150 c0 -40 4 -70 10 -70 6 0 10 30 10 70 0 40 -4 70 -10 70
-6 0 -10 -30 -10 -70z"/>
<path d="M2020 5150 c0 -40 4 -70 10 -70 6 0 10 30 10 70 0 40 -4 70 -10 70
-6 0 -10 -30 -10 -70z"/>
<path d="M10468 5209 c-21 -12 -24 -42 -5 -56 6 -6 26 -15 42 -20 17 -5 31
-17 33 -25 4 -21 -32 -32 -58 -18 -23 13 -36 8 -25 -9 7 -12 64 -15 89 -5 9 4
16 18 16 34 0 24 -6 30 -42 43 -24 7 -43 20 -43 28 0 18 42 24 61 8 8 -6 18
-9 22 -5 10 11 -28 36 -52 36 -12 0 -29 -5 -38 -11z"/>
<path d="M10705 5210 c-3 -5 -12 -7 -20 -3 -12 4 -15 -8 -15 -66 0 -41 4 -71
10 -71 6 0 10 25 10 55 0 44 4 57 20 67 11 7 20 16 20 20 0 11 -18 10 -25 -2z"/>
<path d="M10779 5201 c-27 -22 -33 -87 -10 -115 17 -20 84 -21 101 -1 15 18
-1 21 -31 5 -25 -14 -59 4 -59 30 0 17 7 20 50 20 43 0 50 3 50 20 0 25 -34
60 -59 60 -10 0 -29 -9 -42 -19z m71 -16 c17 -21 3 -35 -36 -35 -35 0 -44 16
-22 38 16 16 43 15 58 -3z"/>
<path d="M10928 5209 c-22 -12 -23 -29 -3 -29 8 0 15 5 15 11 0 17 54 6 58
-12 2 -12 -8 -18 -37 -23 -47 -7 -68 -34 -51 -66 12 -22 58 -28 77 -9 8 8 13
8 17 0 4 -6 15 -11 24 -11 12 0 13 3 4 12 -7 7 -12 36 -12 65 0 41 -4 54 -19
63 -25 13 -51 12 -73 -1z m72 -82 c0 -21 -37 -50 -55 -44 -15 6 -21 38 -8 50
12 13 63 7 63 -6z"/>
<path d="M11105 5210 c-3 -5 -12 -7 -20 -3 -12 4 -15 -8 -15 -66 0 -41 4 -71
10 -71 6 0 10 24 10 53 0 60 10 80 36 75 16 -3 20 -14 22 -66 3 -71 22 -85 22
-16 0 54 14 84 39 84 24 0 31 -19 31 -81 0 -27 5 -49 10 -49 6 0 10 28 10 64
0 76 -15 96 -60 79 -16 -6 -34 -7 -41 -2 -19 12 -46 11 -54 -1z"/>
<path d="M9361 4957 c-36 -44 -51 -129 -28 -160 10 -15 12 -7 12 45 0 50 5 70
23 96 22 30 17 47 -7 19z"/>
<path d="M10330 4945 c0 -21 -4 -24 -27 -19 -41 7 -56 -8 -57 -58 l-1 -43 38
-1 c30 -1 38 3 42 20 28 125 28 126 15 126 -5 0 -10 -11 -10 -25z m-15 -44 c9
-29 -12 -71 -35 -71 -16 0 -20 7 -20 33 0 51 41 80 55 38z"/>
<path d="M10575 4950 c-3 -11 -11 -20 -18 -20 -8 0 -8 -3 0 -11 7 -7 8 -23 2
-47 -11 -47 -11 -52 0 -52 5 0 12 21 16 46 4 26 13 48 22 51 11 4 12 8 2 14
-10 6 -10 11 0 23 11 13 11 16 -2 16 -9 0 -19 -9 -22 -20z"/>
<path d="M10713 4950 c-3 -11 -9 -20 -14 -20 -5 0 -6 -6 -3 -13 3 -8 1 -32 -5
-55 -5 -24 -5 -42 0 -42 5 0 12 18 15 41 4 22 13 46 20 54 11 10 11 15 1 19
-8 3 -6 9 7 20 18 15 18 16 2 16 -10 0 -20 -9 -23 -20z"/>
<path d="M11351 4949 c16 -31 5 -106 -20 -140 -12 -16 -17 -29 -12 -29 15 0
40 41 52 83 11 40 -3 107 -22 107 -6 0 -5 -9 2 -21z"/>
<path d="M9402 4917 c-19 -22 -25 -66 -12 -82 16 -19 54 -19 70 0 14 17 0 21
-17 4 -33 -33 -58 27 -29 67 13 16 18 17 35 7 28 -17 36 -16 21 2 -15 18 -54
20 -68 2z"/>
<path d="M9506 4911 c-11 -12 -16 -31 -14 -53 3 -29 7 -33 35 -36 34 -3 63 25
63 63 0 45 -53 61 -84 26z m59 -30 c0 -43 -29 -65 -50 -38 -21 28 3 81 34 75
11 -2 16 -14 16 -37z"/>
<path d="M9625 4920 c-2 -3 -6 -27 -10 -55 -5 -36 -4 -46 4 -35 6 8 11 25 11
37 0 23 24 53 42 53 7 0 9 -18 5 -50 -7 -58 8 -68 17 -11 6 43 31 70 47 54 6
-6 7 -24 0 -51 -5 -23 -5 -42 -1 -42 10 0 20 37 20 78 0 25 -4 32 -19 32 -11
0 -23 -5 -26 -10 -5 -8 -11 -8 -19 0 -13 10 -65 10 -71 0z"/>
<path d="M9790 4870 c-6 -30 -12 -63 -14 -72 -2 -10 0 -18 4 -18 5 0 10 10 12
23 2 18 8 21 35 19 38 -4 56 21 51 71 -3 30 -6 32 -40 32 l-37 1 -11 -56z m75
31 c3 -10 1 -30 -4 -45 -18 -46 -71 -25 -54 22 16 43 47 56 58 23z"/>
<path d="M9916 4911 c-11 -12 -16 -31 -14 -53 3 -29 7 -33 35 -36 34 -3 63 25
63 63 0 45 -53 61 -84 26z m59 -30 c0 -43 -29 -65 -50 -38 -21 28 3 81 34 75
11 -2 16 -14 16 -37z"/>
<path d="M10037 4923 c-15 -15 -5 -39 24 -55 39 -23 29 -42 -19 -34 -24 3 -32
2 -25 -5 6 -6 26 -9 44 -7 27 2 35 8 37 26 3 18 -3 25 -28 33 -39 14 -33 34 9
33 17 -1 28 2 25 7 -6 10 -57 12 -67 2z"/>
<path d="M10149 4920 c-22 -13 -32 -56 -19 -80 11 -21 64 -28 74 -11 3 5 -9 8
-26 7 -23 -1 -33 4 -36 17 -3 14 4 17 37 17 37 0 41 3 41 24 0 33 -36 46 -71
26z m50 -13 c6 -8 8 -17 4 -20 -12 -12 -53 -7 -53 6 0 28 30 37 49 14z"/>
<path d="M10453 4918 c-35 -44 -20 -98 27 -98 35 0 53 27 48 73 -3 28 -7 32
-34 35 -17 2 -35 -3 -41 -10z m57 -13 c19 -23 -1 -70 -31 -70 -28 0 -37 31
-19 64 13 25 33 27 50 6z"/>
<path d="M10754 4890 c-3 -19 -8 -43 -11 -52 -2 -10 0 -18 5 -18 5 0 12 18 16
39 3 24 15 46 27 54 20 15 20 15 -5 13 -22 -1 -27 -7 -32 -36z"/>
<path d="M10840 4921 c-8 -6 -11 -13 -7 -17 3 -4 13 -1 21 5 17 15 36 7 36
-15 0 -9 -11 -14 -34 -14 -26 0 -36 -5 -41 -20 -10 -30 2 -39 48 -38 l42 0 0
52 c0 47 -2 51 -25 54 -14 1 -32 -2 -40 -7z m40 -71 c-12 -22 -50 -27 -50 -7
0 20 10 27 37 27 21 0 22 -3 13 -20z"/>
<path d="M10945 4920 c-2 -3 -6 -27 -10 -55 -5 -36 -4 -46 4 -35 6 8 11 25 11
37 0 23 24 53 42 53 7 0 9 -18 5 -50 -7 -58 8 -68 17 -11 6 43 31 70 47 54 6
-6 7 -24 0 -51 -5 -23 -5 -42 -1 -42 10 0 20 37 20 78 0 25 -4 32 -19 32 -11
0 -23 -5 -26 -10 -5 -8 -11 -8 -19 0 -13 10 -65 10 -71 0z"/>
<path d="M11129 4920 c-22 -13 -32 -56 -19 -80 11 -21 64 -28 74 -11 3 5 -9 8
-26 7 -23 -1 -33 4 -36 17 -3 14 4 17 37 17 37 0 41 3 41 24 0 33 -36 46 -71
26z m50 -13 c6 -8 8 -17 4 -20 -12 -12 -53 -7 -53 6 0 28 30 37 49 14z"/>
<path d="M11241 4921 c-19 -13 -7 -39 25 -51 34 -13 25 -35 -15 -34 -17 1 -28
-2 -25 -7 8 -14 60 -10 74 6 15 17 6 33 -26 45 -13 5 -24 14 -24 20 0 18 29
23 47 9 14 -12 16 -12 11 1 -5 17 -47 24 -67 11z"/>
<path d="M9012 3728 c2 -403 4 -568 5 -365 l3 367 1340 0 1340 0 0 -370 0
-370 -1345 0 -1345 0 0 -1470 0 -1470 1350 0 1350 0 0 2205 0 2205 -1350 0
-1350 0 2 -732z m2688 367 l0 -355 -1340 0 -1340 0 0 355 0 355 1340 0 1340 0
0 -355z m0 -1475 l0 -360 -1340 0 -1340 0 0 360 0 360 1340 0 1340 0 0 -360z
m0 -735 l0 -355 -1340 0 -1340 0 0 355 0 355 1340 0 1340 0 0 -355z m0 -725
l0 -360 -1340 0 -1340 0 0 360 0 360 1340 0 1340 0 0 -360z m0 -735 l0 -365
-1340 0 -1340 0 0 365 0 365 1340 0 1340 0 0 -365z"/>
<path d="M10115 4338 c-2 -7 -8 -34 -13 -60 -8 -39 -7 -48 4 -48 8 0 14 10 14
25 0 23 4 25 40 25 36 0 40 -2 40 -25 0 -14 5 -25 10 -25 6 0 10 11 10 25 0
14 9 34 20 45 26 26 25 31 -2 26 -13 -1 -24 -11 -26 -22 -2 -16 -9 -19 -43
-16 -34 4 -40 7 -37 26 2 16 12 22 43 27 l40 6 -48 2 c-30 0 -49 -4 -52 -11z"/>
<path d="M10279 4314 c-12 -15 -10 -16 19 -10 21 5 32 4 32 -3 0 -6 -9 -11
-19 -11 -35 0 -51 -12 -51 -36 0 -22 11 -30 35 -24 6 2 19 2 30 2 17 -1 20 5
20 36 0 20 -4 43 -8 50 -11 17 -42 15 -58 -4z m39 -56 c-7 -19 -38 -22 -38 -4
0 10 9 16 21 16 12 0 19 -5 17 -12z"/>
<path d="M10374 4295 c-3 -16 -8 -38 -10 -47 -3 -10 -1 -18 5 -18 6 0 15 18
21 40 6 24 17 40 26 40 11 0 13 -9 8 -40 -4 -27 -3 -40 5 -40 6 0 11 9 11 21
0 26 18 59 32 59 7 0 9 -14 5 -40 -3 -22 -1 -40 4 -40 11 0 22 42 17 71 -3 22
-8 24 -60 24 -56 0 -58 -1 -64 -30z"/>
<path d="M10527 4312 c-38 -42 -9 -100 41 -81 30 11 28 20 -4 17 -15 -2 -29 3
-31 10 -3 8 7 12 31 12 28 0 36 4 36 18 0 41 -45 55 -73 24z m53 -12 c0 -5 -9
-10 -20 -10 -11 0 -20 5 -20 10 0 6 9 10 20 10 11 0 20 -4 20 -10z"/>
<path d="M10948 3949 c-30 -17 -22 -48 17 -65 19 -8 35 -19 35 -24 0 -13 -37
-13 -45 0 -3 5 -12 7 -20 4 -19 -8 -10 -23 21 -34 15 -6 34 -6 50 0 20 8 25
16 22 37 -2 21 -10 29 -35 37 -45 12 -43 30 2 22 38 -8 48 7 16 24 -24 12 -41
12 -63 -1z"/>
<path d="M9670 3941 c22 -6 26 -14 31 -61 l5 -55 5 55 c3 48 7 55 29 61 16 5
5 7 -35 7 -40 0 -51 -2 -35 -7z"/>
<path d="M10170 3890 c0 -47 3 -60 15 -60 9 0 15 9 15 25 0 20 5 25 25 25 20
0 25 -5 25 -25 0 -16 6 -25 15 -25 12 0 15 13 15 60 0 47 -3 60 -15 60 -9 0
-15 -9 -15 -25 0 -20 -5 -25 -25 -25 -20 0 -25 5 -25 25 0 16 -6 25 -15 25
-12 0 -15 -13 -15 -60z"/>
<path d="M10300 3890 l0 -60 50 0 c28 0 50 5 50 10 0 6 -18 10 -40 10 -29 0
-40 4 -40 15 0 10 11 15 35 15 44 0 46 18 3 22 -49 5 -48 28 1 28 23 0 41 5
41 10 0 6 -22 10 -50 10 l-50 0 0 -60z"/>
<path d="M10434 3890 c-17 -48 -18 -60 -7 -60 7 0 16 7 19 15 4 8 17 15 30 15
15 0 24 -6 24 -15 0 -8 8 -15 19 -15 17 0 17 2 -3 60 -16 46 -26 60 -41 60
-15 0 -25 -14 -41 -60z m56 -2 c0 -5 -7 -8 -15 -8 -17 0 -18 2 -9 25 5 13 8
14 15 3 5 -7 9 -16 9 -20z"/>
<path d="M10550 3890 l0 -60 43 0 c52 0 67 13 67 60 0 47 -15 60 -67 60 l-43
0 0 -60z m75 0 c0 -29 -4 -36 -22 -38 -21 -3 -23 1 -23 38 0 37 2 41 23 38 18
-2 22 -9 22 -38z"/>
<path d="M10680 3890 l0 -60 50 0 c28 0 50 5 50 10 0 6 -16 10 -35 10 -24 0
-35 5 -35 15 0 10 11 15 35 15 19 0 35 5 35 10 0 6 -16 10 -35 10 -24 0 -35 5
-35 15 0 10 11 15 35 15 19 0 35 5 35 10 0 6 -22 10 -50 10 l-50 0 0 -60z"/>
<path d="M10800 3891 c0 -48 3 -61 15 -61 8 0 15 9 15 20 0 11 7 20 15 20 8 0
19 -9 25 -20 6 -11 17 -20 25 -20 17 0 19 9 5 30 -5 9 -5 19 1 27 6 6 9 22 7
35 -3 20 -9 23 -55 26 l-53 3 0 -60z m80 24 c0 -9 -9 -15 -25 -15 -16 0 -25 6
-25 15 0 9 9 15 25 15 16 0 25 -6 25 -15z"/>
<path d="M9750 3925 c0 -3 7 -22 15 -42 19 -46 19 -63 -2 -80 -17 -13 -17 -14
2 -11 19 3 54 61 70 116 11 37 -11 25 -27 -15 l-14 -38 -13 38 c-7 20 -17 37
-22 37 -5 0 -9 -2 -9 -5z"/>
<path d="M9850 3858 c0 -39 4 -68 10 -68 6 0 10 9 10 21 0 12 5 19 13 16 25
-9 47 13 47 47 0 40 -15 55 -52 53 -28 -2 -28 -3 -28 -69z m58 20 c-3 -36 -30
-46 -36 -15 -5 26 5 47 23 47 12 0 15 -8 13 -32z"/>
<path d="M9962 3918 c-7 -7 -12 -27 -12 -45 0 -39 28 -60 60 -43 27 14 25 19
-6 17 -15 -1 -29 4 -31 11 -3 8 6 12 26 12 23 0 31 5 31 18 0 22 -19 42 -40
42 -9 0 -21 -5 -28 -12z m48 -18 c0 -5 -9 -10 -20 -10 -11 0 -20 5 -20 10 0 6
9 10 20 10 11 0 20 -4 20 -10z"/>
<path d="M10050 3910 c0 -5 20 -10 45 -10 25 0 45 5 45 10 0 6 -20 10 -45 10
-25 0 -45 -4 -45 -10z"/>
<path d="M10073 3863 c15 -2 37 -2 50 0 12 2 0 4 -28 4 -27 0 -38 -2 -22 -4z"/>
<path d="M10115 2878 c-2 -7 -8 -34 -13 -60 -8 -39 -7 -48 4 -48 8 0 14 10 14
25 0 23 4 25 40 25 36 0 40 -2 40 -25 0 -14 5 -25 10 -25 6 0 10 11 10 25 0
14 9 34 20 45 26 26 25 31 -2 26 -13 -1 -24 -11 -26 -22 -2 -16 -9 -19 -43
-16 -34 4 -40 7 -37 26 2 16 12 22 43 27 l40 6 -48 2 c-30 0 -49 -4 -52 -11z"/>
<path d="M10279 2854 c-12 -15 -10 -16 19 -10 21 5 32 4 32 -3 0 -6 -9 -11
-19 -11 -35 0 -51 -12 -51 -36 0 -22 11 -30 35 -24 6 2 19 2 30 2 17 -1 20 5
20 36 0 20 -4 43 -8 50 -11 17 -42 15 -58 -4z m39 -56 c-7 -19 -38 -22 -38 -4
0 10 9 16 21 16 12 0 19 -5 17 -12z"/>
<path d="M10374 2835 c-3 -16 -8 -38 -10 -47 -3 -10 -1 -18 5 -18 6 0 15 18
21 40 6 24 17 40 26 40 11 0 13 -9 8 -40 -4 -27 -3 -40 5 -40 6 0 11 9 11 21
0 26 18 59 32 59 7 0 9 -14 5 -40 -3 -22 -1 -40 4 -40 11 0 22 42 17 71 -3 22
-8 24 -60 24 -56 0 -58 -1 -64 -30z"/>
<path d="M10527 2852 c-38 -42 -9 -100 41 -81 30 11 28 20 -4 17 -15 -2 -29 3
-31 10 -3 8 7 12 31 12 28 0 36 4 36 18 0 41 -45 55 -73 24z m53 -12 c0 -5 -9
-10 -20 -10 -11 0 -20 5 -20 10 0 6 9 10 20 10 11 0 20 -4 20 -10z"/>
<path d="M9942 2474 c-19 -13 -22 -24 -20 -57 2 -34 8 -44 30 -55 31 -15 78
-1 78 23 0 18 -4 19 -29 3 -28 -17 -51 -3 -51 32 0 35 23 49 51 32 25 -16 38
7 14 25 -25 17 -45 17 -73 -3z"/>
<path d="M10072 2474 c-19 -13 -22 -24 -20 -57 2 -34 8 -44 31 -55 22 -11 32
-11 55 0 22 11 28 21 30 55 2 33 -1 44 -20 57 -12 9 -29 16 -38 16 -9 0 -26
-7 -38 -16z m63 -54 c0 -31 -3 -35 -25 -35 -19 0 -26 6 -28 23 -5 36 5 54 30
50 19 -2 23 -9 23 -38z"/>
<path d="M11063 2480 c-46 -19 -42 -105 5 -117 51 -13 92 11 92 56 0 32 -8 44
-37 60 -25 13 -30 13 -60 1z m57 -35 c15 -18 10 -45 -12 -59 -26 -16 -53 14
-44 48 7 29 36 35 56 11z"/>
<path d="M9430 2471 c22 -6 26 -14 31 -61 l5 -55 5 55 c3 48 7 55 29 61 16 5
5 7 -35 7 -40 0 -51 -2 -35 -7z"/>
<path d="M10190 2420 c0 -47 3 -60 15 -60 11 0 15 11 15 38 l0 37 22 -37 c13
-22 30 -38 40 -38 15 0 18 9 18 60 0 47 -3 60 -15 60 -11 0 -15 -11 -15 -37
l0 -38 -22 38 c-13 21 -30 37 -40 37 -15 0 -18 -9 -18 -60z"/>
<path d="M10320 2470 c0 -5 9 -10 20 -10 17 0 20 -7 20 -50 0 -27 5 -50 10
-50 6 0 10 23 10 50 0 43 3 50 20 50 11 0 20 5 20 10 0 6 -22 10 -50 10 -27 0
-50 -4 -50 -10z"/>
<path d="M10440 2420 c0 -33 4 -60 10 -60 6 0 10 27 10 60 0 33 -4 60 -10 60
-6 0 -10 -27 -10 -60z"/>
<path d="M10490 2420 c0 -47 3 -60 15 -60 11 0 15 11 15 38 l0 37 22 -37 c13
-22 30 -38 40 -38 15 0 18 9 18 60 0 47 -3 60 -15 60 -11 0 -15 -11 -15 -37
l0 -38 -22 38 c-13 21 -30 37 -40 37 -15 0 -18 -9 -18 -60z"/>
<path d="M10620 2431 c0 -39 5 -53 21 -64 20 -15 53 -12 77 6 18 14 16 107 -2
107 -11 0 -16 -14 -18 -47 -3 -40 -6 -48 -23 -48 -17 0 -20 8 -23 48 -2 33 -7
47 -18 47 -10 0 -14 -13 -14 -49z"/>
<path d="M10764 2420 c-17 -48 -18 -60 -7 -60 7 0 16 7 19 15 4 8 17 15 30 15
15 0 24 -6 24 -15 0 -8 8 -15 19 -15 17 0 17 2 -3 60 -16 46 -26 60 -41 60
-15 0 -25 -14 -41 -60z m56 -2 c0 -5 -7 -8 -15 -8 -17 0 -18 2 -9 25 5 13 8
14 15 3 5 -7 9 -16 9 -20z"/>
<path d="M10860 2470 c0 -5 9 -10 20 -10 17 0 20 -7 20 -50 0 -38 4 -50 15
-50 11 0 15 12 15 50 0 43 3 50 20 50 11 0 20 5 20 10 0 6 -25 10 -55 10 -30
0 -55 -4 -55 -10z"/>
<path d="M10990 2420 c0 -33 4 -60 10 -60 6 0 10 27 10 60 0 33 -4 60 -10 60
-6 0 -10 -27 -10 -60z"/>
<path d="M11180 2420 c0 -47 3 -60 15 -60 11 0 15 11 15 38 l0 37 22 -37 c13
-22 30 -38 40 -38 15 0 18 9 18 60 0 47 -3 60 -15 60 -11 0 -15 -11 -15 -37
l0 -38 -22 38 c-13 21 -30 37 -40 37 -15 0 -18 -9 -18 -60z"/>
<path d="M9510 2455 c0 -3 7 -22 15 -42 19 -46 19 -63 -2 -80 -17 -13 -17 -14
2 -11 19 3 54 61 70 116 11 37 -11 25 -27 -15 l-14 -38 -13 38 c-7 20 -17 37
-22 37 -5 0 -9 -2 -9 -5z"/>
<path d="M9610 2388 c0 -39 4 -68 10 -68 6 0 10 9 10 21 0 12 5 19 13 16 25
-9 47 13 47 47 0 40 -15 55 -52 53 -28 -2 -28 -3 -28 -69z m58 20 c-3 -36 -30
-46 -36 -15 -5 26 5 47 23 47 12 0 15 -8 13 -32z"/>
<path d="M9722 2448 c-7 -7 -12 -27 -12 -45 0 -39 28 -60 60 -43 27 14 25 19
-6 17 -15 -1 -29 4 -31 11 -3 8 6 12 26 12 23 0 31 5 31 18 0 22 -19 42 -40
42 -9 0 -21 -5 -28 -12z m48 -18 c0 -5 -9 -10 -20 -10 -11 0 -20 5 -20 10 0 6
9 10 20 10 11 0 20 -4 20 -10z"/>
<path d="M9810 2440 c0 -5 20 -10 45 -10 25 0 45 5 45 10 0 6 -20 10 -45 10
-25 0 -45 -4 -45 -10z"/>
<path d="M9833 2393 c15 -2 37 -2 50 0 12 2 0 4 -28 4 -27 0 -38 -2 -22 -4z"/>
<path d="M10117 2136 c-13 -33 -19 -106 -9 -106 6 0 12 10 14 23 2 17 11 23
43 28 l40 6 -38 2 c-34 1 -38 4 -35 24 2 17 11 23 43 28 l40 6 -46 2 c-32 1
-49 -4 -52 -13z"/>
<path d="M10215 2120 c-1 -3 -6 -24 -10 -47 -8 -52 10 -59 19 -7 4 19 14 38
22 41 21 8 17 22 -7 20 -11 -1 -22 -4 -24 -7z"/>
<path d="M10284 2115 c-18 -15 -17 -16 14 -10 20 4 32 3 32 -4 0 -6 -10 -11
-23 -11 -27 0 -47 -17 -47 -41 0 -21 16 -27 55 -19 26 4 30 10 33 39 4 55 -25
76 -64 46z m34 -57 c-7 -19 -38 -22 -38 -4 0 10 9 16 21 16 12 0 19 -5 17 -12z"/>
<path d="M10380 2120 c-1 -3 -5 -24 -9 -47 -5 -25 -5 -43 1 -43 9 0 13 8 22
53 4 15 13 27 22 27 13 0 14 -7 9 -40 -8 -50 8 -53 21 -3 13 54 37 57 32 4 -2
-25 0 -40 7 -38 5 2 10 23 10 48 l0 44 -57 0 c-32 1 -58 -2 -58 -5z"/>
<path d="M10530 2110 c-41 -41 -9 -106 40 -80 27 14 25 19 -6 17 -15 -1 -29 4
-31 11 -3 8 7 12 31 12 28 0 36 4 36 18 0 21 -18 42 -37 42 -7 0 -22 -9 -33
-20z m50 -10 c0 -5 -9 -10 -20 -10 -11 0 -20 5 -20 10 0 6 9 10 20 10 11 0 20
-4 20 -10z"/>
<path d="M9880 1731 c22 -6 25 -13 28 -59 4 -69 22 -67 22 2 0 49 2 55 23 59
12 2 -5 4 -38 5 -39 0 -51 -2 -35 -7z"/>
<path d="M10370 1680 l0 -61 47 3 c41 3 50 7 61 31 11 22 11 32 0 55 -11 23
-20 27 -61 30 l-47 3 0 -61z m79 18 c11 -29 -4 -58 -29 -58 -17 0 -20 7 -20
40 0 34 3 40 20 40 12 0 24 -9 29 -22z"/>
<path d="M10517 1698 c-8 -24 -18 -51 -22 -60 -5 -13 -2 -18 8 -18 8 0 17 7
21 15 3 8 15 15 26 15 11 0 23 -7 26 -15 4 -8 13 -15 21 -15 15 0 14 3 -12 80
-18 53 -49 52 -68 -2z m43 -13 c0 -8 -4 -15 -10 -15 -5 0 -10 7 -10 15 0 8 5
15 10 15 6 0 10 -7 10 -15z"/>
<path d="M10610 1730 c0 -5 9 -10 20 -10 17 0 20 -7 20 -50 0 -38 4 -50 15
-50 11 0 15 12 15 50 0 43 3 50 20 50 11 0 20 5 20 10 0 6 -25 10 -55 10 -30
0 -55 -4 -55 -10z"/>
<path d="M10735 1707 c-26 -62 -29 -87 -11 -87 9 0 16 7 16 15 0 9 9 15 24 15
13 0 26 -7 30 -15 3 -8 12 -15 20 -15 12 0 11 11 -7 60 -26 70 -50 79 -72 27z
m45 -29 c0 -5 -6 -8 -14 -8 -9 0 -12 7 -9 21 4 16 8 17 14 7 5 -7 9 -16 9 -20z"/>
<path d="M9960 1715 c0 -3 7 -22 15 -42 18 -43 19 -70 3 -76 -7 -2 -10 -8 -6
-12 16 -17 36 6 57 65 26 70 22 90 -6 36 l-19 -37 -13 36 c-7 19 -17 35 -22
35 -5 0 -9 -2 -9 -5z"/>
<path d="M10066 1712 c-10 -10 -6 -132 4 -132 6 0 10 9 10 21 0 14 5 19 14 16
24 -9 49 18 49 52 0 17 -3 34 -7 38 -8 9 -63 13 -70 5z m56 -24 c9 -25 -4 -59
-21 -56 -29 6 -27 68 3 68 8 0 16 -5 18 -12z"/>
<path d="M10172 1708 c-7 -7 -12 -27 -12 -45 0 -39 28 -60 60 -43 27 14 25 19
-6 17 -15 -1 -29 4 -31 11 -3 8 6 12 26 12 23 0 31 5 31 18 0 22 -19 42 -40
42 -9 0 -21 -5 -28 -12z m48 -18 c0 -5 -9 -10 -21 -10 -11 0 -17 5 -14 10 3 6
13 10 21 10 8 0 14 -4 14 -10z"/>
<path d="M10260 1700 c0 -5 20 -10 45 -10 25 0 45 5 45 10 0 6 -20 10 -45 10
-25 0 -45 -4 -45 -10z"/>
<path d="M10283 1653 c15 -2 37 -2 50 0 12 2 0 4 -28 4 -27 0 -38 -2 -22 -4z"/>
<path d="M10117 1406 c-13 -33 -19 -106 -9 -106 6 0 12 10 14 23 2 17 11 23
43 28 l40 6 -38 2 c-34 1 -38 4 -35 24 2 17 11 23 43 28 l40 6 -46 2 c-32 1
-49 -4 -52 -13z"/>
<path d="M10215 1390 c-1 -3 -6 -24 -10 -47 -8 -52 10 -59 19 -7 4 19 14 38
22 41 21 8 17 22 -7 20 -11 -1 -22 -4 -24 -7z"/>
<path d="M10284 1385 c-18 -15 -17 -16 14 -10 20 4 32 3 32 -4 0 -6 -10 -11
-23 -11 -27 0 -47 -17 -47 -41 0 -21 16 -27 55 -19 26 4 30 10 33 39 4 55 -25
76 -64 46z m34 -57 c-7 -19 -38 -22 -38 -4 0 10 9 16 21 16 12 0 19 -5 17 -12z"/>
<path d="M10380 1390 c-1 -3 -5 -24 -9 -47 -5 -25 -5 -43 1 -43 9 0 13 8 22
53 4 15 13 27 22 27 13 0 14 -7 9 -40 -8 -50 8 -53 21 -3 13 54 37 57 32 4 -2
-25 0 -40 7 -38 5 2 10 23 10 48 l0 44 -57 0 c-32 1 -58 -2 -58 -5z"/>
<path d="M10530 1380 c-41 -41 -9 -106 40 -80 27 14 25 19 -6 17 -15 -1 -29 4
-31 11 -3 8 7 12 31 12 28 0 36 4 36 18 0 21 -18 42 -37 42 -7 0 -22 -9 -33
-20z m50 -10 c0 -5 -9 -10 -20 -10 -11 0 -20 5 -20 10 0 6 9 10 20 10 11 0 20
-4 20 -10z"/>
<path d="M9880 1001 c22 -6 25 -13 28 -59 4 -69 22 -67 22 2 0 49 2 55 23 59
12 2 -5 4 -38 5 -39 0 -51 -2 -35 -7z"/>
<path d="M10370 950 l0 -61 47 3 c41 3 50 7 61 31 11 22 11 32 0 55 -11 23
-20 27 -61 30 l-47 3 0 -61z m79 18 c11 -29 -4 -58 -29 -58 -17 0 -20 7 -20
40 0 34 3 40 20 40 12 0 24 -9 29 -22z"/>
<path d="M10517 968 c-8 -24 -18 -51 -22 -60 -5 -13 -2 -18 8 -18 8 0 17 7 21
15 3 8 15 15 26 15 11 0 23 -7 26 -15 4 -8 13 -15 21 -15 15 0 14 3 -12 80
-18 53 -49 52 -68 -2z m43 -13 c0 -8 -4 -15 -10 -15 -5 0 -10 7 -10 15 0 8 5
15 10 15 6 0 10 -7 10 -15z"/>
<path d="M10610 1000 c0 -5 9 -10 20 -10 17 0 20 -7 20 -50 0 -38 4 -50 15
-50 11 0 15 12 15 50 0 43 3 50 20 50 11 0 20 5 20 10 0 6 -25 10 -55 10 -30
0 -55 -4 -55 -10z"/>
<path d="M10735 977 c-26 -62 -29 -87 -11 -87 9 0 16 7 16 15 0 9 9 15 24 15
13 0 26 -7 30 -15 3 -8 12 -15 20 -15 12 0 11 11 -7 60 -26 70 -50 79 -72 27z
m45 -29 c0 -5 -6 -8 -14 -8 -9 0 -12 7 -9 21 4 16 8 17 14 7 5 -7 9 -16 9 -20z"/>
<path d="M9960 985 c0 -3 7 -22 15 -42 18 -43 19 -70 3 -76 -7 -2 -10 -8 -6
-12 16 -17 36 6 57 65 26 70 22 90 -6 36 l-19 -37 -13 36 c-7 19 -17 35 -22
35 -5 0 -9 -2 -9 -5z"/>
<path d="M10066 982 c-10 -10 -6 -132 4 -132 6 0 10 9 10 21 0 14 5 19 14 16
24 -9 49 18 49 52 0 17 -3 34 -7 38 -8 9 -63 13 -70 5z m56 -24 c9 -25 -4 -59
-21 -56 -29 6 -27 68 3 68 8 0 16 -5 18 -12z"/>
<path d="M10172 978 c-7 -7 -12 -27 -12 -45 0 -39 28 -60 60 -43 27 14 25 19
-6 17 -15 -1 -29 4 -31 11 -3 8 6 12 26 12 23 0 31 5 31 18 0 22 -19 42 -40
42 -9 0 -21 -5 -28 -12z m48 -18 c0 -5 -9 -10 -21 -10 -11 0 -17 5 -14 10 3 6
13 10 21 10 8 0 14 -4 14 -10z"/>
<path d="M10260 970 c0 -5 20 -10 45 -10 25 0 45 5 45 10 0 6 -20 10 -45 10
-25 0 -45 -4 -45 -10z"/>
<path d="M10283 923 c15 -2 37 -2 50 0 12 2 0 4 -28 4 -27 0 -38 -2 -22 -4z"/>
<path d="M10117 676 c-13 -33 -19 -106 -9 -106 6 0 12 10 14 23 2 17 11 23 43
28 l40 6 -38 2 c-34 1 -38 4 -35 24 2 17 11 23 43 28 l40 6 -46 2 c-32 1 -49
-4 -52 -13z"/>
<path d="M10215 660 c-1 -3 -6 -24 -10 -47 -8 -52 10 -59 19 -7 4 19 14 38 22
41 21 8 17 22 -7 20 -11 -1 -22 -4 -24 -7z"/>
<path d="M10284 655 c-18 -15 -17 -16 14 -10 20 4 32 3 32 -4 0 -6 -10 -11
-23 -11 -27 0 -47 -17 -47 -41 0 -21 16 -27 55 -19 26 4 30 10 33 39 4 55 -25
76 -64 46z m34 -57 c-7 -19 -38 -22 -38 -4 0 10 9 16 21 16 12 0 19 -5 17 -12z"/>
<path d="M10380 660 c-1 -3 -5 -24 -9 -47 -5 -25 -5 -43 1 -43 9 0 13 8 22 53
4 15 13 27 22 27 13 0 14 -7 9 -40 -8 -50 8 -53 21 -3 13 54 37 57 32 4 -2
-25 0 -40 7 -38 5 2 10 23 10 48 l0 44 -57 0 c-32 1 -58 -2 -58 -5z"/>
<path d="M10530 650 c-41 -41 -9 -106 40 -80 27 14 25 19 -6 17 -15 -1 -29 4
-31 11 -3 8 7 12 31 12 28 0 36 4 36 18 0 21 -18 42 -37 42 -7 0 -22 -9 -33
-20z m50 -10 c0 -5 -9 -10 -20 -10 -11 0 -20 5 -20 10 0 6 9 10 20 10 11 0 20
-4 20 -10z"/>
<path d="M9880 281 c22 -6 25 -13 28 -59 4 -69 22 -67 22 2 0 49 2 55 23 59
12 2 -5 4 -38 5 -39 0 -51 -2 -35 -7z"/>
<path d="M10370 230 l0 -61 47 3 c41 3 50 7 61 31 11 22 11 32 0 55 -11 23
-20 27 -61 30 l-47 3 0 -61z m79 18 c11 -29 -4 -58 -29 -58 -17 0 -20 7 -20
40 0 34 3 40 20 40 12 0 24 -9 29 -22z"/>
<path d="M10517 248 c-8 -24 -18 -51 -22 -60 -5 -13 -2 -18 8 -18 8 0 17 7 21
15 3 8 15 15 26 15 11 0 23 -7 26 -15 4 -8 13 -15 21 -15 15 0 14 3 -12 80
-18 53 -49 52 -68 -2z m43 -13 c0 -8 -4 -15 -10 -15 -5 0 -10 7 -10 15 0 8 5
15 10 15 6 0 10 -7 10 -15z"/>
<path d="M10610 280 c0 -5 9 -10 20 -10 17 0 20 -7 20 -50 0 -38 4 -50 15 -50
11 0 15 12 15 50 0 43 3 50 20 50 11 0 20 5 20 10 0 6 -25 10 -55 10 -30 0
-55 -4 -55 -10z"/>
<path d="M10735 257 c-26 -62 -29 -87 -11 -87 9 0 16 7 16 15 0 9 9 15 24 15
13 0 26 -7 30 -15 3 -8 12 -15 20 -15 12 0 11 11 -7 60 -26 70 -50 79 -72 27z
m45 -29 c0 -5 -6 -8 -14 -8 -9 0 -12 7 -9 21 4 16 8 17 14 7 5 -7 9 -16 9 -20z"/>
<path d="M9960 265 c0 -3 7 -22 15 -42 18 -43 19 -70 3 -76 -7 -2 -10 -8 -6
-12 16 -17 36 6 57 65 26 70 22 90 -6 36 l-19 -37 -13 36 c-7 19 -17 35 -22
35 -5 0 -9 -2 -9 -5z"/>
<path d="M10066 262 c-10 -10 -6 -132 4 -132 6 0 10 9 10 21 0 14 5 19 14 16
24 -9 49 18 49 52 0 17 -3 34 -7 38 -8 9 -63 13 -70 5z m56 -24 c9 -25 -4 -59
-21 -56 -29 6 -27 68 3 68 8 0 16 -5 18 -12z"/>
<path d="M10172 258 c-7 -7 -12 -27 -12 -45 0 -39 28 -60 60 -43 27 14 25 19
-6 17 -15 -1 -29 4 -31 11 -3 8 6 12 26 12 23 0 31 5 31 18 0 22 -19 42 -40
42 -9 0 -21 -5 -28 -12z m48 -18 c0 -5 -9 -10 -21 -10 -11 0 -17 5 -14 10 3 6
13 10 21 10 8 0 14 -4 14 -10z"/>
<path d="M10260 250 c0 -5 20 -10 45 -10 25 0 45 5 45 10 0 6 -20 10 -45 10
-25 0 -45 -4 -45 -10z"/>
<path d="M10283 203 c15 -2 37 -2 50 0 12 2 0 4 -28 4 -27 0 -38 -2 -22 -4z"/>
<path d="M480 3940 l0 -480 890 0 890 0 0 235 0 235 235 0 235 0 2 -1797 c2
-989 4 -1378 5 -865 l3 932 785 0 785 0 0 -26 c0 -17 4 -24 13 -21 6 2 45 15
85 28 39 12 72 26 72 29 0 3 -33 17 -72 29 -40 13 -79 26 -85 28 -9 4 -13 -5
-13 -26 l0 -31 -785 0 -785 0 0 865 0 865 -240 0 -240 0 0 240 0 240 -890 0
-890 0 0 -480z m1770 0 l0 -470 -880 0 -880 0 0 470 0 470 880 0 880 0 0 -470z"/>
<path d="M1111 4108 c-18 -46 -35 -89 -38 -95 -10 -25 28 -13 39 12 9 21 18
25 54 25 36 0 43 -3 48 -25 4 -16 13 -25 26 -25 19 0 19 1 -1 53 -12 28 -28
71 -37 95 -12 31 -22 42 -38 42 -17 0 -27 -15 -53 -82z m73 -5 c6 -20 4 -23
-18 -23 -29 0 -31 6 -15 47 11 30 19 24 33 -24z"/>
<path d="M1270 4095 c0 -88 1 -95 20 -95 16 0 20 7 20 35 0 34 1 35 40 35 47
0 80 27 80 64 0 42 -25 56 -96 56 l-64 0 0 -95z m116 61 c28 -22 7 -50 -40
-54 -35 -3 -36 -2 -36 32 0 33 3 36 28 36 16 0 37 -6 48 -14z"/>
<path d="M1460 4095 c0 -84 2 -95 18 -95 15 0 17 11 17 95 0 84 -2 95 -17 95
-16 0 -18 -11 -18 -95z"/>
<path d="M1542 4138 c-28 -28 -8 -63 45 -77 39 -10 44 -41 6 -41 -16 0 -34 5
-41 12 -14 14 -27 4 -19 -16 8 -21 54 -31 86 -20 19 7 27 17 29 40 3 32 -1 36
-70 58 -10 3 -18 10 -18 15 0 16 29 21 55 9 30 -13 43 -5 25 17 -15 18 -81 20
-98 3z"/>
<path d="M955 3868 c-24 -34 -37 -96 -30 -137 8 -47 40 -101 60 -101 13 0 12
6 -5 40 -27 52 -27 133 0 183 16 30 17 37 6 37 -8 0 -22 -10 -31 -22z"/>
<path d="M1392 3878 c6 -18 28 -21 28 -4 0 9 -7 16 -16 16 -9 0 -14 -5 -12
-12z"/>
<path d="M1697 3843 c29 -57 26 -123 -7 -180 -18 -30 -18 -34 -4 -31 29 5 55
52 61 110 5 46 1 65 -17 102 -14 29 -28 46 -40 46 -16 0 -15 -5 7 -47z"/>
<path d="M1610 3856 c0 -8 -6 -16 -12 -19 -10 -4 -10 -7 0 -18 7 -7 12 -38 12
-70 0 -49 3 -59 20 -64 21 -7 40 0 40 16 0 5 -7 9 -15 9 -12 0 -15 13 -15 55
0 42 3 55 15 55 8 0 15 5 15 10 0 6 -7 10 -15 10 -8 0 -15 7 -15 15 0 8 -7 15
-15 15 -8 0 -15 -6 -15 -14z"/>
<path d="M1022 3828 c-28 -28 -8 -63 45 -77 39 -10 44 -41 6 -41 -16 0 -34 5
-41 12 -14 14 -27 4 -19 -16 8 -21 54 -31 86 -20 19 7 27 17 29 40 3 32 -1 36
-70 58 -10 3 -18 10 -18 15 0 16 29 21 55 9 30 -13 43 -5 25 17 -15 18 -81 20
-98 3z"/>
<path d="M1166 3818 c-23 -32 -20 -94 4 -118 33 -33 100 -20 100 20 0 24 -8
25 -32 3 -37 -34 -75 26 -48 77 13 24 23 25 44 5 18 -18 36 -19 36 -2 0 41
-78 52 -104 15z"/>
<path d="M1300 3763 c0 -58 3 -73 15 -73 12 0 15 13 15 56 0 47 3 57 20 61 35
9 24 33 -15 31 l-35 -1 0 -74z"/>
<path d="M1390 3765 c0 -60 3 -75 15 -75 12 0 15 15 15 75 0 60 -3 75 -15 75
-12 0 -15 -15 -15 -75z"/>
<path d="M1450 3734 c0 -86 3 -104 15 -104 11 0 15 11 15 37 0 29 3 34 12 25
35 -35 88 7 88 69 0 67 -12 79 -75 78 l-55 -2 0 -103z m88 74 c24 -24 12 -98
-17 -98 -40 0 -56 63 -25 94 19 19 26 20 42 4z"/>
<path d="M5535 4138 c-21 -56 -51 -188 -42 -185 13 4 68 197 55 197 -5 0 -11
-6 -13 -12z"/>
<path d="M4790 4045 c0 -57 4 -95 10 -95 6 0 10 20 10 46 l0 45 53 -3 52 -3 3
-42 c6 -81 22 -43 22 52 0 53 -4 95 -9 95 -6 0 -11 -17 -13 -37 l-3 -38 -52
-3 -53 -3 0 40 c0 23 -4 41 -10 41 -6 0 -10 -38 -10 -95z"/>
<path d="M4960 4130 c0 -5 16 -10 35 -10 l35 0 0 -85 c0 -50 4 -85 10 -85 6 0
10 35 10 85 l0 85 35 0 c19 0 35 5 35 10 0 6 -33 10 -80 10 -47 0 -80 -4 -80
-10z"/>
<path d="M5130 4130 c0 -5 16 -10 35 -10 l35 0 0 -85 c0 -50 4 -85 10 -85 6 0
10 35 10 85 l0 85 35 0 c19 0 35 5 35 10 0 6 -33 10 -80 10 -47 0 -80 -4 -80
-10z"/>
<path d="M5320 4045 c0 -53 4 -95 9 -95 6 0 11 17 13 38 3 37 3 37 50 40 53 3
79 28 71 65 -8 34 -33 47 -90 47 l-53 0 0 -95z m104 69 c23 -9 20 -51 -4 -64
-12 -6 -33 -10 -48 -8 -23 3 -27 8 -30 41 -3 36 -3 37 32 37 19 0 41 -3 50 -6z"/>
<path d="M5602 4124 c-28 -19 -30 -39 -3 -24 11 5 22 10 25 10 3 0 6 -31 6
-70 0 -68 -1 -70 -25 -70 -14 0 -25 -4 -25 -10 0 -6 27 -10 60 -10 33 0 60 4
60 10 0 6 -11 10 -25 10 -25 0 -25 1 -25 85 0 91 -5 99 -48 69z"/>
<path d="M6045 4090 c-3 -5 -12 -7 -20 -3 -12 4 -15 -8 -15 -66 0 -41 4 -71
10 -71 6 0 10 24 10 53 0 60 10 80 36 75 16 -3 20 -14 22 -66 3 -71 22 -85 22
-16 0 54 14 84 39 84 24 0 31 -19 31 -81 0 -27 5 -49 10 -49 6 0 10 28 10 64
0 76 -15 96 -60 79 -16 -6 -34 -7 -41 -2 -19 12 -46 11 -54 -1z"/>
<path d="M6250 4080 c-25 -25 -27 -91 -4 -114 20 -20 78 -21 94 -1 15 18 9 19
-24 3 -22 -9 -29 -8 -46 7 -35 32 -25 45 35 45 58 0 63 6 44 43 -23 43 -66 50
-99 17z m78 -27 c3 -20 -1 -23 -31 -23 -41 0 -49 7 -36 32 15 28 63 21 67 -9z"/>
<path d="M6408 4093 c-12 -3 -18 -14 -18 -33 0 -24 6 -30 38 -40 49 -16 58
-26 42 -45 -16 -19 -44 -19 -60 0 -7 8 -16 12 -22 9 -18 -12 15 -34 51 -34 74
0 84 51 16 80 -25 11 -45 24 -45 30 0 17 31 24 51 12 24 -15 29 -15 29 2 0 20
-41 30 -82 19z"/>
<path d="M6548 4093 c-12 -3 -18 -14 -18 -33 0 -24 6 -30 38 -40 49 -16 58
-26 42 -45 -16 -19 -44 -19 -60 0 -7 8 -16 12 -22 9 -18 -12 15 -34 51 -34 74
0 84 51 16 80 -25 11 -45 24 -45 30 0 17 31 24 51 12 24 -15 29 -15 29 2 0 20
-41 30 -82 19z"/>
<path d="M6684 4086 c-25 -19 -12 -31 15 -14 15 9 26 10 38 2 27 -17 27 -34
-1 -34 -13 0 -37 -4 -51 -10 -22 -8 -26 -15 -23 -42 2 -27 8 -34 30 -36 15 -2
36 2 48 8 13 7 20 7 20 0 0 -5 10 -10 22 -10 17 0 19 3 10 12 -7 7 -12 33 -12
59 0 71 -45 102 -96 65z m76 -76 c0 -12 -37 -50 -49 -50 -16 0 -31 27 -25 44
7 18 74 23 74 6z"/>
<path d="M6835 4086 c-24 -17 -28 -93 -6 -119 16 -20 56 -22 67 -5 5 8 2 9
-11 5 -28 -11 -45 11 -45 60 0 47 19 65 49 46 12 -8 16 -27 16 -84 0 -70 -1
-74 -23 -77 -13 -2 -30 2 -38 9 -8 6 -18 9 -22 5 -10 -11 28 -36 53 -36 47 0
60 23 63 113 4 84 4 85 -20 85 -12 0 -32 3 -43 6 -12 4 -28 1 -40 -8z"/>
<path d="M6989 4081 c-27 -22 -33 -87 -10 -115 17 -20 84 -21 101 -1 15 18 -1
21 -31 5 -25 -14 -59 4 -59 30 0 17 7 20 50 20 43 0 50 3 50 20 0 25 -34 60
-59 60 -10 0 -29 -9 -42 -19z m71 -16 c17 -21 3 -35 -36 -35 -35 0 -44 16 -22
38 16 16 43 15 58 -3z"/>
<path d="M5812 4059 l23 -30 -23 -40 c-26 -45 -14 -53 17 -11 l20 27 25 -30
c33 -41 45 -25 13 17 l-26 34 25 32 c18 23 21 32 11 32 -8 0 -22 -10 -31 -22
l-16 -23 -16 23 c-9 12 -23 22 -31 22 -10 0 -7 -8 9 -31z"/>
<path d="M5730 3965 c0 -8 7 -15 15 -15 8 0 15 7 15 15 0 8 -7 15 -15 15 -8 0
-15 -7 -15 -15z"/>
<path d="M10115 3618 c-2 -7 -8 -34 -13 -60 -8 -39 -7 -48 4 -48 8 0 14 10 14
25 0 23 4 25 40 25 36 0 40 -2 40 -25 0 -14 5 -25 10 -25 6 0 10 11 10 25 0
14 9 34 20 45 26 26 25 31 -2 26 -13 -1 -24 -11 -26 -22 -2 -16 -9 -19 -43
-16 -34 4 -40 7 -37 26 2 16 12 22 43 27 l40 6 -48 2 c-30 0 -49 -4 -52 -11z"/>
<path d="M10279 3594 c-12 -15 -10 -16 19 -10 21 5 32 4 32 -3 0 -6 -9 -11
-19 -11 -35 0 -51 -12 -51 -36 0 -22 11 -30 35 -24 6 2 19 2 30 2 17 -1 20 5
20 36 0 20 -4 43 -8 50 -11 17 -42 15 -58 -4z m39 -56 c-7 -19 -38 -22 -38 -4
0 10 9 16 21 16 12 0 19 -5 17 -12z"/>
<path d="M10374 3575 c-3 -16 -8 -38 -10 -47 -3 -10 -1 -18 5 -18 6 0 15 18
21 40 6 24 17 40 26 40 11 0 13 -9 8 -40 -4 -27 -3 -40 5 -40 6 0 11 9 11 21
0 26 18 59 32 59 7 0 9 -14 5 -40 -3 -22 -1 -40 4 -40 11 0 22 42 17 71 -3 22
-8 24 -60 24 -56 0 -58 -1 -64 -30z"/>
<path d="M10527 3592 c-38 -42 -9 -100 41 -81 30 11 28 20 -4 17 -15 -2 -29 3
-31 10 -3 8 7 12 31 12 28 0 36 4 36 18 0 41 -45 55 -73 24z m53 -12 c0 -5 -9
-10 -20 -10 -11 0 -20 5 -20 10 0 6 9 10 20 10 11 0 20 -4 20 -10z"/>
<path d="M480 2770 l0 -480 890 0 890 0 0 195 0 195 233 3 232 2 -232 3 -233
2 0 280 0 280 -890 0 -890 0 0 -480z m1770 0 l0 -470 -880 0 -880 0 0 470 0
470 880 0 880 0 0 -470z"/>
<path d="M1522 3018 c6 -18 28 -21 28 -4 0 9 -7 16 -16 16 -9 0 -14 -5 -12
-12z"/>
<path d="M1722 3018 c6 -18 28 -21 28 -4 0 9 -7 16 -16 16 -9 0 -14 -5 -12
-12z"/>
<path d="M780 2941 c0 -74 2 -81 26 -100 15 -12 39 -21 54 -21 15 0 39 9 54
21 24 19 26 26 26 100 0 64 -3 79 -15 79 -12 0 -15 -15 -15 -75 0 -63 -3 -76
-19 -85 -55 -29 -81 0 -81 91 0 55 -3 69 -15 69 -12 0 -15 -15 -15 -79z"/>
<path d="M980 2925 c0 -84 2 -95 18 -95 15 0 17 11 17 95 0 84 -2 95 -17 95
-16 0 -18 -11 -18 -95z"/>
<path d="M1450 2995 c0 -8 -4 -15 -8 -15 -11 0 -2 -132 10 -147 14 -17 48 -16
48 1 0 8 -7 16 -15 20 -10 4 -15 20 -15 51 0 31 5 47 15 51 8 4 15 10 15 15 0
5 -7 9 -15 9 -8 0 -15 7 -15 15 0 8 -4 15 -10 15 -5 0 -10 -7 -10 -15z"/>
<path d="M1790 2996 c0 -8 -6 -16 -12 -19 -10 -4 -10 -7 0 -18 7 -7 12 -38 12
-70 0 -49 3 -59 20 -64 21 -7 40 0 40 16 0 5 -7 9 -15 9 -12 0 -15 13 -15 55
0 76 21 72 54 -10 27 -68 26 -90 -5 -100 -29 -10 -23 -27 9 -23 30 3 42 24 86
141 23 61 24 67 7 67 -12 0 -22 -16 -36 -57 l-18 -58 -20 58 c-19 51 -24 57
-49 57 -18 0 -28 5 -28 15 0 8 -7 15 -15 15 -8 0 -15 -6 -15 -14z"/>
<path d="M1160 2965 c-19 -23 -2 -39 21 -19 21 19 49 13 49 -11 0 -9 -9 -15
-26 -15 -42 0 -64 -17 -64 -51 0 -37 37 -58 73 -42 15 7 27 7 39 -1 13 -8 21
-7 30 3 10 11 10 14 1 18 -8 3 -13 23 -13 53 0 31 -6 54 -16 64 -19 20 -78 21
-94 1z m68 -87 c-3 -25 -34 -36 -51 -19 -14 14 9 41 35 41 14 0 19 -6 16 -22z"/>
<path d="M1318 2969 c-10 -5 -20 -25 -24 -43 -13 -72 47 -127 100 -92 28 18
35 46 12 46 -8 0 -17 -7 -20 -16 -3 -9 -15 -14 -28 -12 -20 3 -23 10 -26 49
-3 52 17 72 48 44 33 -30 55 -12 24 19 -17 18 -60 20 -86 5z"/>
<path d="M1520 2905 c0 -60 3 -75 15 -75 12 0 15 15 15 75 0 60 -3 75 -15 75
-12 0 -15 -15 -15 -75z"/>
<path d="M1587 2905 c22 -61 31 -75 47 -75 17 0 26 14 48 75 25 68 25 75 9 75
-12 0 -22 -16 -35 -55 -9 -30 -19 -55 -21 -55 -2 0 -12 25 -21 55 -13 40 -23
55 -35 55 -17 0 -16 -6 8 -75z"/>
<path d="M1720 2905 c0 -60 3 -75 15 -75 12 0 15 15 15 75 0 60 -3 75 -15 75
-12 0 -15 -15 -15 -75z"/>
<path d="M1050 2905 c0 -10 11 -15 35 -15 24 0 35 5 35 15 0 10 -11 15 -35 15
-24 0 -35 -5 -35 -15z"/>
<path d="M795 2698 c-24 -34 -37 -96 -30 -137 8 -47 40 -101 60 -101 13 0 12
6 -5 40 -27 52 -27 133 0 183 16 30 17 37 6 37 -8 0 -22 -10 -31 -22z"/>
<path d="M850 2621 l0 -98 45 -6 c24 -4 51 -4 59 -1 37 14 45 116 11 144 -8 7
-28 10 -45 8 -27 -4 -30 -2 -30 24 0 21 -5 28 -20 28 -19 0 -20 -7 -20 -99z
m88 20 c9 -5 12 -24 10 -52 -3 -39 -6 -44 -28 -44 -22 0 -25 5 -28 38 -2 21 2
45 9 53 13 16 19 17 37 5z"/>
<path d="M1820 2715 c0 -2 9 -19 20 -37 26 -44 26 -121 0 -173 -21 -41 -20
-51 3 -42 46 17 63 165 27 225 -11 17 -27 32 -35 32 -8 0 -15 -2 -15 -5z"/>
<path d="M1010 2593 c0 -58 3 -73 15 -73 12 0 15 13 15 56 0 47 3 57 20 61 35
9 24 33 -15 31 l-35 -1 0 -74z"/>
<path d="M1107 2652 c-10 -11 -17 -36 -17 -60 0 -72 59 -105 111 -63 19 15 24
29 24 64 0 24 -6 51 -14 60 -19 23 -83 22 -104 -1z m67 -8 c23 -9 22 -92 0
-101 -39 -15 -68 42 -44 87 11 21 19 24 44 14z"/>
<path d="M1230 2667 c0 -2 4 -17 10 -33 5 -16 14 -48 20 -71 8 -32 16 -43 30
-43 14 0 22 11 30 43 6 23 12 47 14 52 1 6 8 -14 15 -42 10 -40 17 -53 32 -53
14 0 23 16 39 69 24 81 24 81 5 81 -13 0 -35 -55 -35 -89 0 -25 -15 -1 -25 42
-16 60 -41 61 -56 3 -6 -25 -15 -46 -19 -46 -4 0 -11 19 -16 42 -6 28 -15 44
-27 46 -9 2 -17 2 -17 -1z"/>
<path d="M1463 2663 c-7 -2 -13 -18 -13 -34 0 -23 6 -32 28 -40 45 -18 54 -24
53 -34 0 -16 -31 -18 -57 -4 -13 7 -27 9 -31 5 -11 -11 35 -46 61 -46 30 0 66
27 66 50 0 21 -35 50 -62 50 -22 0 -33 19 -19 33 8 8 17 7 35 -2 33 -18 54
-10 32 12 -16 16 -66 22 -93 10z"/>
<path d="M1596 2648 c-19 -27 -21 -88 -3 -111 20 -27 69 -32 97 -9 31 25 19
40 -16 22 -18 -10 -30 -11 -42 -4 -34 22 -25 34 27 34 27 0 52 4 55 9 8 12
-12 63 -27 73 -25 16 -76 8 -91 -14z m72 -10 c20 -20 14 -28 -23 -28 -33 0
-35 2 -25 20 12 23 30 26 48 8z"/>
<path d="M1740 2594 c0 -59 3 -74 15 -74 11 0 15 12 15 44 0 57 8 76 31 76 10
0 19 6 19 14 0 11 -12 15 -40 14 l-40 0 0 -74z"/>
<path d="M9942 3214 c-19 -13 -22 -24 -20 -57 2 -34 8 -44 30 -55 31 -15 78
-1 78 23 0 18 -4 19 -29 3 -28 -17 -51 -3 -51 32 0 35 23 49 51 32 25 -16 38
7 14 25 -25 17 -45 17 -73 -3z"/>
<path d="M10072 3214 c-19 -13 -22 -24 -20 -57 2 -34 8 -44 31 -55 22 -11 32
-11 55 0 22 11 28 21 30 55 2 33 -1 44 -20 57 -12 9 -29 16 -38 16 -9 0 -26
-7 -38 -16z m63 -54 c0 -31 -3 -35 -25 -35 -19 0 -26 6 -28 23 -5 36 5 54 30
50 19 -2 23 -9 23 -38z"/>
<path d="M11063 3220 c-46 -19 -42 -105 5 -117 51 -13 92 11 92 56 0 32 -8 44
-37 60 -25 13 -30 13 -60 1z m57 -35 c15 -18 10 -45 -12 -59 -26 -16 -53 14
-44 48 7 29 36 35 56 11z"/>
<path d="M9430 3211 c22 -6 26 -14 31 -61 l5 -55 5 55 c3 48 7 55 29 61 16 5
5 7 -35 7 -40 0 -51 -2 -35 -7z"/>
<path d="M10190 3160 c0 -47 3 -60 15 -60 11 0 15 11 15 38 l0 37 22 -37 c13
-22 30 -38 40 -38 15 0 18 9 18 60 0 47 -3 60 -15 60 -11 0 -15 -11 -15 -37
l0 -38 -22 38 c-13 21 -30 37 -40 37 -15 0 -18 -9 -18 -60z"/>
<path d="M10320 3210 c0 -5 9 -10 20 -10 17 0 20 -7 20 -50 0 -27 5 -50 10
-50 6 0 10 23 10 50 0 43 3 50 20 50 11 0 20 5 20 10 0 6 -22 10 -50 10 -27 0
-50 -4 -50 -10z"/>
<path d="M10440 3160 c0 -33 4 -60 10 -60 6 0 10 27 10 60 0 33 -4 60 -10 60
-6 0 -10 -27 -10 -60z"/>
<path d="M10490 3160 c0 -47 3 -60 15 -60 11 0 15 11 15 38 l0 37 22 -37 c13
-22 30 -38 40 -38 15 0 18 9 18 60 0 47 -3 60 -15 60 -11 0 -15 -11 -15 -37
l0 -38 -22 38 c-13 21 -30 37 -40 37 -15 0 -18 -9 -18 -60z"/>
<path d="M10620 3171 c0 -39 5 -53 21 -64 20 -15 53 -12 77 6 18 14 16 107 -2
107 -11 0 -16 -14 -18 -47 -3 -40 -6 -48 -23 -48 -17 0 -20 8 -23 48 -2 33 -7
47 -18 47 -10 0 -14 -13 -14 -49z"/>
<path d="M10764 3160 c-17 -48 -18 -60 -7 -60 7 0 16 7 19 15 4 8 17 15 30 15
15 0 24 -6 24 -15 0 -8 8 -15 19 -15 17 0 17 2 -3 60 -16 46 -26 60 -41 60
-15 0 -25 -14 -41 -60z m56 -2 c0 -5 -7 -8 -15 -8 -17 0 -18 2 -9 25 5 13 8
14 15 3 5 -7 9 -16 9 -20z"/>
<path d="M10860 3210 c0 -5 9 -10 20 -10 17 0 20 -7 20 -50 0 -38 4 -50 15
-50 11 0 15 12 15 50 0 43 3 50 20 50 11 0 20 5 20 10 0 6 -25 10 -55 10 -30
0 -55 -4 -55 -10z"/>
<path d="M10990 3160 c0 -33 4 -60 10 -60 6 0 10 27 10 60 0 33 -4 60 -10 60
-6 0 -10 -27 -10 -60z"/>
<path d="M11180 3160 c0 -47 3 -60 15 -60 11 0 15 11 15 38 l0 37 22 -37 c13
-22 30 -38 40 -38 15 0 18 9 18 60 0 47 -3 60 -15 60 -11 0 -15 -11 -15 -37
l0 -38 -22 38 c-13 21 -30 37 -40 37 -15 0 -18 -9 -18 -60z"/>
<path d="M9510 3195 c0 -3 7 -22 15 -42 19 -46 19 -63 -2 -80 -17 -13 -17 -14
2 -11 19 3 54 61 70 116 11 37 -11 25 -27 -15 l-14 -38 -13 38 c-7 20 -17 37
-22 37 -5 0 -9 -2 -9 -5z"/>
<path d="M9610 3128 c0 -39 4 -68 10 -68 6 0 10 9 10 21 0 12 5 19 13 16 25
-9 47 13 47 47 0 40 -15 55 -52 53 -28 -2 -28 -3 -28 -69z m58 20 c-3 -36 -30
-46 -36 -15 -5 26 5 47 23 47 12 0 15 -8 13 -32z"/>
<path d="M9722 3188 c-7 -7 -12 -27 -12 -45 0 -39 28 -60 60 -43 27 14 25 19
-6 17 -15 -1 -29 4 -31 11 -3 8 6 12 26 12 23 0 31 5 31 18 0 22 -19 42 -40
42 -9 0 -21 -5 -28 -12z m48 -18 c0 -5 -9 -10 -20 -10 -11 0 -20 5 -20 10 0 6
9 10 20 10 11 0 20 -4 20 -10z"/>
<path d="M9810 3180 c0 -5 20 -10 45 -10 25 0 45 5 45 10 0 6 -20 10 -45 10
-25 0 -45 -4 -45 -10z"/>
<path d="M9833 3133 c15 -2 37 -2 50 0 12 2 0 4 -28 4 -27 0 -38 -2 -22 -4z"/>
<path d="M5031 3024 c-34 -73 -35 -74 -22 -74 4 0 22 32 39 70 39 89 24 92
-17 4z"/>
<path d="M6891 3024 c-34 -73 -35 -74 -22 -74 4 0 22 32 39 70 39 89 24 92
-17 4z"/>
<path d="M6975 3070 c-3 -5 1 -10 9 -10 23 0 22 -66 -1 -79 -14 -8 -8 -10 27
-10 25 1 37 3 28 6 -14 3 -18 15 -18 54 0 42 -3 49 -19 49 -11 0 -23 -4 -26
-10z"/>
<path d="M7195 3070 c-3 -5 1 -10 9 -10 23 0 22 -66 -1 -79 -14 -8 -10 -10 22
-10 32 0 36 2 23 10 -13 7 -18 23 -18 54 0 33 -4 45 -14 45 -8 0 -18 -4 -21
-10z"/>
<path d="M4548 3064 c15 -7 16 -66 0 -82 -9 -9 -4 -12 22 -12 32 0 33 1 14 14
-21 16 -23 14 32 31 9 3 14 14 12 27 -3 20 -10 23 -48 25 -25 1 -39 0 -32 -3z
m68 -15 c7 -12 -15 -31 -31 -26 -5 2 -11 11 -13 20 -4 19 32 24 44 6z"/>
<path d="M4650 3023 c4 -41 9 -49 28 -51 33 -5 49 13 54 58 3 31 0 40 -12 40
-11 0 -15 -11 -15 -42 0 -32 -4 -43 -15 -43 -11 0 -15 11 -15 43 0 31 -4 42
-15 42 -13 0 -15 -9 -10 -47z"/>
<path d="M4750 3050 c0 -11 5 -20 10 -20 6 0 10 7 10 15 0 8 5 15 10 15 14 0
12 -64 -2 -78 -9 -9 -4 -12 23 -11 18 0 28 3 22 6 -8 2 -13 22 -13 44 0 40 15
53 23 22 4 -14 5 -12 6 5 1 20 -4 22 -44 22 -38 0 -45 -3 -45 -20z"/>
<path d="M5550 3052 c-10 -11 -11 -17 -2 -20 7 -2 12 -17 12 -33 0 -25 4 -29
29 -29 17 0 32 4 36 9 3 6 -7 9 -22 8 -22 -2 -29 3 -31 21 -3 18 1 22 22 22
14 0 26 5 26 10 0 6 -11 10 -24 10 -13 0 -26 4 -28 9 -1 5 -10 2 -18 -7z"/>
<path d="M6425 3020 c0 -42 3 -50 18 -50 14 0 17 5 12 20 -5 16 -2 20 15 20
17 0 20 -4 15 -20 -5 -15 -2 -20 12 -20 15 0 18 7 15 50 -3 33 -8 50 -17 50
-8 0 -11 -8 -8 -20 4 -16 0 -20 -17 -20 -17 0 -21 4 -17 20 4 14 0 20 -11 20
-14 0 -17 -10 -17 -50z"/>
<path d="M6530 3048 c1 -21 2 -21 11 -5 14 24 29 12 29 -23 0 -17 -7 -33 -17
-39 -15 -9 -12 -10 17 -11 26 0 31 3 22 12 -14 14 -16 78 -2 78 6 0 10 -7 10
-15 0 -8 5 -15 10 -15 6 0 10 9 10 20 0 17 -7 20 -45 20 -40 0 -45 -2 -45 -22z"/>
<path d="M6640 3048 c1 -21 2 -21 11 -5 14 24 29 12 29 -23 0 -17 -7 -33 -17
-39 -15 -9 -12 -10 17 -11 26 0 31 3 22 12 -14 14 -16 78 -2 78 6 0 10 -7 10
-15 0 -8 5 -15 10 -15 6 0 10 9 10 20 0 17 -7 20 -45 20 -40 0 -45 -2 -45 -22z"/>
<path d="M6755 3020 c0 -49 1 -50 30 -50 25 1 27 2 13 11 -26 14 -22 29 6 29
16 0 27 7 31 20 9 29 -2 40 -43 40 l-37 0 0 -50z m60 20 c0 -8 -8 -16 -17 -18
-13 -2 -18 3 -18 18 0 15 5 20 18 18 9 -2 17 -10 17 -18z"/>
<path d="M5112 3038 c-30 -30 -5 -68 45 -68 18 0 33 4 33 9 0 5 -15 8 -32 7
-27 -1 -33 3 -33 19 0 13 8 21 23 23 13 2 22 -2 22 -9 0 -10 3 -10 11 -2 6 6
8 16 5 22 -9 15 -59 14 -74 -1z"/>
<path d="M5227 3018 c4 -20 1 -33 -8 -39 -9 -6 1 -9 31 -8 38 0 41 2 22 10
-29 11 -26 43 6 47 37 6 24 21 -18 20 -38 0 -39 -1 -33 -30z"/>
<path d="M5330 3036 c-6 -8 -10 -25 -8 -38 2 -19 10 -23 46 -26 26 -2 42 1 42
8 0 8 -10 9 -29 5 -17 -3 -32 -2 -36 4 -4 7 7 11 29 11 39 0 45 10 20 34 -19
20 -48 20 -64 2z m43 -13 c-7 -2 -19 -2 -25 0 -7 3 -2 5 12 5 14 0 19 -2 13
-5z"/>
<path d="M5435 3041 c-4 -7 6 -11 27 -12 l33 -1 -30 -7 c-21 -4 -31 -13 -33
-29 -3 -20 1 -22 44 -22 36 0 44 3 36 13 -5 6 -12 23 -14 37 -2 19 -10 26 -30
28 -14 2 -29 -2 -33 -7z m42 -52 c-14 -8 -22 -8 -30 0 -8 8 -3 11 19 11 25 -1
27 -2 11 -11z"/>
<path d="M5650 3036 c-6 -8 -10 -25 -8 -38 2 -19 10 -23 46 -26 26 -2 42 1 42
8 0 8 -10 9 -29 5 -17 -3 -32 -2 -36 4 -4 7 7 11 29 11 39 0 45 10 20 34 -19
20 -48 20 -64 2z m43 -13 c-7 -2 -19 -2 -25 0 -7 3 -2 5 12 5 14 0 19 -2 13
-5z"/>
<path d="M5850 3040 c0 -5 5 -12 10 -15 15 -9 12 -64 -4 -80 -7 -8 -35 -16
-62 -18 -27 -2 -16 -3 24 -1 70 2 102 12 75 21 -23 8 -13 29 13 28 33 0 53 28
38 53 -12 18 -94 29 -94 12z m83 -24 c7 -17 -1 -26 -24 -26 -21 0 -33 15 -24
30 9 15 42 12 48 -4z"/>
<path d="M5975 3041 c-4 -7 6 -11 27 -12 l33 -1 -30 -7 c-21 -4 -31 -13 -33
-29 -3 -20 1 -22 44 -22 36 0 44 3 36 13 -5 6 -12 23 -14 37 -2 19 -10 26 -30
28 -14 2 -29 -2 -33 -7z m42 -52 c-14 -8 -22 -8 -30 0 -8 8 -3 11 19 11 25 -1
27 -2 11 -11z"/>
<path d="M6082 3038 c-27 -27 -6 -68 35 -68 13 0 23 -4 23 -10 0 -5 -11 -10
-25 -10 -14 0 -25 -4 -25 -10 0 -17 49 -11 58 8 5 9 12 36 15 60 l5 42 -37 0
c-20 0 -42 -5 -49 -12z m56 -29 c4 -19 -27 -34 -41 -20 -14 14 0 43 20 39 10
-2 19 -10 21 -19z"/>
<path d="M6196 3034 c-32 -32 -11 -64 41 -64 18 0 33 5 33 11 0 6 -9 8 -20 4
-11 -3 -28 -2 -37 4 -15 8 -11 10 20 11 38 0 48 15 25 38 -17 17 -44 15 -62
-4z m47 -11 c-7 -2 -19 -2 -25 0 -7 3 -2 5 12 5 14 0 19 -2 13 -5z"/>
<path d="M7100 2980 c0 -5 7 -10 16 -10 8 0 12 5 9 10 -3 6 -10 10 -16 10 -5
0 -9 -4 -9 -10z"/>
<path d="M5248 2863 c19 -8 15 -80 -5 -92 -14 -8 -8 -10 27 -10 25 1 37 3 28
6 -14 3 -18 15 -18 54 0 44 -2 49 -22 48 -13 0 -17 -3 -10 -6z"/>
<path d="M5678 2863 c19 -8 15 -80 -5 -92 -14 -8 -8 -10 27 -10 25 1 37 3 28
6 -14 3 -18 15 -18 54 0 44 -2 49 -22 48 -13 0 -17 -3 -10 -6z"/>
<path d="M5765 2815 c0 -45 3 -55 17 -55 12 0 16 8 15 27 -1 20 3 28 17 31 16
3 18 0 13 -27 -5 -26 -3 -31 12 -31 14 0 17 6 13 28 -6 35 -20 52 -43 52 -11
0 -19 7 -19 15 0 8 -6 15 -12 15 -9 0 -13 -18 -13 -55z"/>
<path d="M6318 2858 c-3 -7 -4 -31 -4 -53 1 -36 4 -40 30 -43 16 -2 32 2 36 8
6 9 6 25 1 93 -1 12 -59 8 -63 -5z m48 -9 c10 -17 -13 -36 -27 -22 -12 12 -4
33 11 33 5 0 12 -5 16 -11z m0 -50 c10 -17 -13 -36 -27 -22 -12 12 -4 33 11
33 5 0 12 -5 16 -11z"/>
<path d="M6432 2858 c-17 -17 -15 -73 3 -88 22 -18 48 -8 59 22 19 53 -27 101
-62 66z m43 -44 c0 -28 -4 -39 -15 -39 -16 0 -26 45 -16 72 11 28 31 7 31 -33z"/>
<path d="M6534 2856 c-3 -8 -4 -31 -2 -52 2 -32 7 -40 27 -42 13 -2 28 2 32
10 10 15 12 60 3 82 -8 20 -53 21 -60 2z m56 -41 c0 -30 -22 -49 -38 -33 -27
27 -3 90 25 67 7 -7 13 -22 13 -34z"/>
<path d="M6644 2856 c-3 -8 -4 -31 -2 -52 2 -32 7 -40 27 -42 13 -2 28 2 32
10 10 15 12 60 3 82 -8 20 -53 21 -60 2z m56 -41 c0 -30 -22 -49 -38 -33 -27
27 -3 90 25 67 7 -7 13 -22 13 -34z"/>
<path d="M4545 2810 c0 -43 3 -50 19 -50 16 0 17 3 8 12 -19 19 -14 28 13 28
27 0 32 -9 13 -28 -9 -9 -8 -12 8 -12 16 0 19 7 19 50 0 42 -3 50 -19 50 -14
0 -16 -3 -7 -13 13 -16 5 -27 -21 -27 -21 0 -23 11 -6 28 9 9 8 12 -7 12 -17
0 -20 -7 -20 -50z"/>
<path d="M4877 2847 c-3 -8 -2 -29 2 -48 6 -29 11 -34 39 -37 18 -2 32 1 32 8
0 6 -10 8 -25 4 -22 -5 -25 -3 -25 20 0 19 5 26 20 26 11 0 20 5 20 10 0 6 -9
10 -20 10 -11 0 -20 5 -20 10 0 15 -17 12 -23 -3z"/>
<path d="M6107 2847 c-3 -8 -2 -29 2 -48 6 -29 11 -34 39 -37 18 -2 32 1 32 8
0 6 -10 8 -25 4 -22 -5 -25 -3 -25 20 0 19 5 26 20 26 11 0 20 5 20 10 0 6 -9
10 -20 10 -11 0 -20 5 -20 10 0 15 -17 12 -23 -3z"/>
<path d="M4664 2832 c-37 -25 -15 -76 31 -70 22 2 31 9 33 26 6 40 -32 66 -64
44z m52 -23 c9 -16 -20 -41 -39 -33 -17 6 -22 25 -10 37 10 11 41 8 49 -4z"/>
<path d="M4773 2829 c-16 -16 1 -39 28 -39 11 0 19 -4 19 -10 0 -13 -16 -13
-41 0 -15 9 -19 7 -19 -5 0 -13 8 -15 37 -13 48 4 53 24 11 43 -28 13 -30 15
-8 13 14 -1 26 2 28 7 4 15 -41 18 -55 4z"/>
<path d="M5005 2830 c-3 -5 1 -10 10 -10 9 0 13 5 10 10 -3 6 -8 10 -10 10 -2
0 -7 -4 -10 -10z"/>
<path d="M5354 2832 c-37 -25 -15 -76 31 -70 22 2 31 9 33 26 6 40 -32 66 -64
44z m52 -23 c9 -16 -20 -41 -39 -33 -17 6 -22 25 -10 37 10 11 41 8 49 -4z"/>
<path d="M5452 2828 c-30 -30 -5 -68 45 -68 18 0 33 4 33 9 0 5 -15 8 -32 7
-27 -1 -33 3 -33 19 0 13 8 21 23 23 13 2 22 -2 22 -9 0 -10 3 -10 11 -2 6 6
8 16 5 22 -9 15 -59 14 -74 -1z"/>
<path d="M5565 2830 c-4 -6 6 -10 22 -11 28 -1 28 -1 -5 -10 -49 -14 -40 -43
14 -47 40 -3 41 -2 36 25 -2 15 -9 34 -15 41 -11 14 -43 16 -52 2z m40 -50
c-3 -5 -13 -10 -21 -10 -8 0 -14 5 -14 10 0 6 9 10 21 10 11 0 17 -4 14 -10z"/>
<path d="M5894 2832 c-37 -25 -15 -76 31 -70 22 2 31 9 33 26 6 40 -32 66 -64
44z m52 -23 c9 -16 -20 -41 -39 -33 -17 6 -22 25 -10 37 10 11 41 8 49 -4z"/>
<path d="M5993 2824 c-7 -18 12 -34 42 -34 15 0 16 -3 7 -12 -10 -10 -17 -10
-32 0 -17 10 -20 10 -20 -3 0 -10 10 -15 35 -15 28 0 35 4 35 19 0 12 -11 24
-27 30 l-28 11 28 -4 c18 -2 27 1 27 10 0 20 -59 18 -67 -2z"/>
<path d="M6230 2830 c0 -5 5 -10 10 -10 6 0 10 5 10 10 0 6 -4 10 -10 10 -5 0
-10 -4 -10 -10z"/>
<path d="M5000 2770 c0 -5 7 -10 16 -10 8 0 12 5 9 10 -3 6 -10 10 -16 10 -5
0 -9 -4 -9 -10z"/>
<path d="M6230 2770 c0 -5 5 -10 10 -10 6 0 10 5 10 10 0 6 -4 10 -10 10 -5 0
-10 -4 -10 -10z"/>
<path d="M4558 2659 c-22 -12 -24 -71 -4 -88 19 -16 68 -10 74 7 3 11 0 12
-17 3 -44 -24 -83 28 -45 60 12 10 20 10 35 1 24 -15 29 -15 29 2 0 7 -10 16
-22 20 -29 7 -30 7 -50 -5z"/>
<path d="M5878 2658 c7 -7 12 -26 12 -43 0 -17 -5 -36 -12 -43 -9 -9 -8 -12 5
-12 9 0 17 7 17 15 0 8 4 15 9 15 5 0 11 -7 15 -15 3 -8 16 -15 28 -15 l23 0
-25 20 c-23 19 -24 21 -7 34 22 17 22 26 -3 26 -11 0 -20 -4 -20 -10 0 -5 -4
-10 -10 -10 -5 0 -10 11 -10 25 0 17 -6 25 -17 25 -13 0 -14 -3 -5 -12z"/>
<path d="M6548 2663 c19 -8 15 -80 -5 -92 -14 -8 -8 -10 27 -10 25 1 37 3 28
6 -14 3 -18 15 -18 54 0 44 -2 49 -22 48 -13 0 -17 -3 -10 -6z"/>
<path d="M5200 2642 c-10 -11 -11 -17 -2 -20 7 -2 12 -17 12 -33 0 -25 4 -29
29 -29 17 0 32 4 36 9 3 6 -7 9 -22 8 -22 -2 -29 3 -31 21 -3 18 1 22 22 22
14 0 26 5 26 10 0 6 -11 10 -24 10 -13 0 -26 4 -28 9 -1 5 -10 2 -18 -7z"/>
<path d="M4664 2632 c-37 -25 -15 -76 31 -70 22 2 31 9 33 26 6 40 -32 66 -64
44z m52 -23 c9 -16 -20 -41 -39 -33 -17 6 -22 25 -10 37 10 11 41 8 49 -4z"/>
<path d="M4755 2630 c-3 -5 -1 -10 4 -10 15 0 14 -33 -1 -48 -9 -9 -7 -12 9
-12 17 0 21 5 20 27 -1 19 3 28 17 31 16 3 18 -1 14 -27 -4 -24 -1 -31 12 -31
13 0 16 6 12 28 -2 15 -9 33 -15 40 -11 14 -63 16 -72 2z"/>
<path d="M4865 2600 c0 -32 3 -40 17 -40 16 0 16 3 6 20 -15 24 2 46 27 36 12
-4 15 -13 11 -31 -5 -19 -2 -25 9 -25 12 0 14 7 9 28 -11 49 -13 52 -46 52
-32 0 -33 -1 -33 -40z"/>
<path d="M4980 2626 c-6 -8 -10 -25 -8 -38 2 -19 10 -23 46 -26 26 -2 42 1 42
8 0 8 -10 9 -29 5 -17 -3 -32 -2 -36 4 -4 7 7 11 29 11 39 0 45 10 20 34 -19
20 -48 20 -64 2z m43 -13 c-7 -2 -19 -2 -25 0 -7 3 -2 5 12 5 14 0 19 -2 13
-5z"/>
<path d="M5092 2628 c-30 -30 -5 -68 45 -68 18 0 33 4 33 9 0 5 -15 8 -32 7
-27 -1 -33 3 -33 19 0 13 8 21 23 23 13 2 22 -2 22 -9 0 -10 3 -10 11 -2 6 6
8 16 5 22 -9 15 -59 14 -74 -1z"/>
<path d="M5310 2630 c0 -5 5 -10 10 -10 17 0 11 -38 -7 -49 -14 -8 -8 -10 27
-10 25 1 37 3 28 6 -13 3 -18 15 -18 39 0 27 -4 34 -20 34 -11 0 -20 -4 -20
-10z"/>
<path d="M5412 2628 c-28 -28 -3 -72 39 -66 30 4 47 33 33 56 -14 21 -55 27
-72 10z m56 -31 c2 -9 -4 -20 -12 -23 -21 -8 -46 13 -39 32 8 20 47 13 51 -9z"/>
<path d="M5515 2600 c0 -32 3 -40 17 -40 16 0 16 3 6 20 -15 24 2 46 27 36 12
-4 15 -13 11 -31 -5 -19 -2 -25 9 -25 12 0 14 7 9 28 -11 49 -13 52 -46 52
-32 0 -33 -1 -33 -40z"/>
<path d="M5655 2630 c-3 -5 1 -10 10 -10 9 0 13 5 10 10 -3 6 -8 10 -10 10 -2
0 -7 -4 -10 -10z"/>
<path d="M5996 2624 c-32 -32 -11 -64 41 -64 18 0 33 5 33 11 0 6 -9 8 -20 4
-11 -3 -28 -2 -37 4 -15 8 -11 10 20 11 38 0 48 15 25 38 -17 17 -44 15 -62
-4z m47 -11 c-7 -2 -19 -2 -25 0 -7 3 -2 5 12 5 14 0 19 -2 13 -5z"/>
<path d="M6106 2624 c-32 -32 -11 -64 41 -64 18 0 33 5 33 11 0 6 -9 8 -20 4
-11 -3 -28 -2 -37 4 -15 8 -11 10 20 11 38 0 48 15 25 38 -17 17 -44 15 -62
-4z m47 -11 c-7 -2 -19 -2 -25 0 -7 3 -2 5 12 5 14 0 19 -2 13 -5z"/>
<path d="M6190 2630 c0 -5 5 -12 10 -15 6 -3 10 -22 10 -41 0 -19 -4 -34 -10
-34 -5 0 -10 -4 -10 -10 0 -5 11 -10 25 -10 14 0 25 5 25 10 0 6 -4 10 -10 10
-5 0 -10 6 -10 13 0 7 11 13 26 12 33 0 53 28 38 53 -12 18 -94 29 -94 12z
m83 -24 c7 -17 -1 -26 -24 -26 -21 0 -33 15 -24 30 9 15 42 12 48 -4z"/>
<path d="M6425 2631 c-4 -7 6 -11 27 -12 l33 -1 -30 -7 c-21 -4 -31 -13 -33
-29 -3 -20 1 -22 44 -22 36 0 44 3 36 13 -5 6 -12 23 -14 37 -2 19 -10 26 -30
28 -14 2 -29 -2 -33 -7z m42 -52 c-14 -8 -22 -8 -30 0 -8 8 -3 11 19 11 25 -1
27 -2 11 -11z"/>
<path d="M6650 2630 c0 -5 5 -10 10 -10 17 0 11 -38 -7 -49 -14 -8 -8 -10 27
-10 25 1 37 3 28 6 -13 3 -18 15 -18 39 0 27 -4 34 -20 34 -11 0 -20 -4 -20
-10z"/>
<path d="M6730 2631 c0 -6 4 -11 9 -11 5 0 14 -13 21 -30 7 -16 18 -30 25 -30
7 0 18 14 25 30 7 17 16 30 21 30 5 0 9 5 9 10 0 6 -11 10 -25 10 -18 0 -24
-5 -22 -17 1 -10 -2 -18 -8 -18 -5 0 -10 7 -10 15 0 8 -10 16 -22 18 -13 2
-23 -1 -23 -7z"/>
<path d="M6860 2626 c-6 -8 -10 -25 -8 -38 2 -19 10 -23 46 -26 26 -2 42 1 42
8 0 8 -10 9 -29 5 -17 -3 -32 -2 -36 4 -4 7 7 11 29 11 39 0 45 10 20 34 -19
20 -48 20 -64 2z m43 -13 c-7 -2 -19 -2 -25 0 -7 3 -2 5 12 5 14 0 19 -2 13
-5z"/>
<path d="M6320 2610 c0 -5 16 -10 35 -10 19 0 35 5 35 10 0 6 -16 10 -35 10
-19 0 -35 -4 -35 -10z"/>
<path d="M5650 2570 c0 -5 7 -10 16 -10 8 0 12 5 9 10 -3 6 -10 10 -16 10 -5
0 -9 -4 -9 -10z"/>
<path d="M8060 2510 c0 -5 5 -10 10 -10 6 0 10 5 10 10 0 6 -4 10 -10 10 -5 0
-10 -4 -10 -10z"/>
<path d="M7880 2415 l0 -95 54 0 c61 0 86 16 86 55 0 13 -8 28 -17 34 -15 8
-16 12 -5 22 18 19 15 57 -7 69 -11 5 -40 10 -65 10 l-46 0 0 -95z m100 60
c19 -22 -5 -45 -46 -45 -31 0 -34 3 -34 30 0 27 3 30 34 30 18 0 39 -7 46 -15z
m11 -81 c21 -25 -1 -49 -50 -52 -41 -3 -41 -3 -41 32 0 35 1 36 39 36 23 0 44
-6 52 -16z"/>
<path d="M3650 2370 c0 -60 4 -100 10 -100 6 0 10 40 10 100 0 60 -4 100 -10
100 -6 0 -10 -40 -10 -100z"/>
<path d="M3940 2460 c0 -5 5 -10 10 -10 6 0 10 5 10 10 0 6 -4 10 -10 10 -5 0
-10 -4 -10 -10z"/>
<path d="M8161 2461 c-8 -5 -20 -7 -28 -4 -10 4 -13 -11 -13 -66 0 -84 18 -96
22 -15 3 60 20 83 52 71 12 -5 16 -20 16 -67 0 -33 4 -60 10 -60 14 0 13 123
-2 138 -14 14 -37 15 -57 3z"/>
<path d="M8288 2459 c-22 -12 -23 -29 -3 -29 8 0 15 5 15 11 0 17 54 6 58 -12
2 -12 -8 -18 -37 -23 -47 -7 -68 -34 -51 -66 12 -22 58 -28 77 -9 8 8 13 8 17
0 4 -6 15 -11 24 -11 12 0 13 3 4 12 -7 7 -12 36 -12 65 0 41 -4 54 -19 63
-25 13 -51 12 -73 -1z m72 -82 c0 -21 -37 -50 -55 -44 -15 6 -21 38 -8 50 12
13 63 7 63 -6z"/>
<path d="M8465 2460 c-3 -5 -12 -7 -20 -3 -12 4 -15 -8 -15 -66 0 -41 4 -71
10 -71 6 0 10 21 10 46 0 51 14 84 35 84 8 0 15 5 15 10 0 13 -27 13 -35 0z"/>
<path d="M2950 2450 c0 -5 14 -10 30 -10 l30 0 0 -85 c0 -69 3 -85 15 -85 12
0 15 16 15 85 l0 85 30 0 c17 0 30 5 30 10 0 6 -32 10 -75 10 -43 0 -75 -4
-75 -10z"/>
<path d="M5140 2445 c11 -13 9 -15 -13 -15 -31 0 -50 -22 -45 -52 3 -20 10
-23 53 -26 40 -3 48 -1 38 9 -7 7 -13 32 -13 56 0 33 -4 43 -16 43 -14 0 -14
-3 -4 -15z m6 -46 c3 -6 -1 -18 -10 -27 -15 -15 -17 -15 -32 0 -19 19 -11 38
16 38 10 0 22 -5 26 -11z"/>
<path d="M7525 2450 c-3 -5 1 -10 9 -10 23 0 22 -66 -1 -79 -14 -8 -10 -10 22
-10 32 0 36 2 23 10 -13 7 -18 23 -18 54 0 33 -4 45 -14 45 -8 0 -18 -4 -21
-10z"/>
<path d="M8060 2390 c0 -40 4 -70 10 -70 6 0 10 30 10 70 0 40 -4 70 -10 70
-6 0 -10 -30 -10 -70z"/>
<path d="M8510 2452 c0 -5 11 -36 25 -71 26 -64 23 -101 -10 -101 -8 0 -15 -4
-15 -10 0 -6 -174 -11 -487 -13 -471 -2 -466 -2 155 -5 l642 -2 0 -24 0 -25
92 31 93 31 -85 29 c-46 15 -88 28 -92 28 -4 0 -8 -13 -8 -30 l0 -30 -142 0
c-116 0 -139 2 -125 13 9 6 30 48 47 92 33 87 35 95 21 95 -6 0 -18 -25 -27
-55 -10 -30 -21 -52 -24 -48 -4 5 -15 29 -24 56 -15 41 -36 63 -36 39z"/>
<path d="M3863 2425 c-6 -14 -7 -25 -2 -25 5 0 9 -29 9 -65 0 -63 1 -65 25
-65 14 0 25 5 25 10 0 6 -6 9 -12 8 -9 -2 -14 15 -16 55 -3 49 -1 57 15 57 17
1 17 1 1 11 -10 5 -18 17 -18 24 0 23 -14 17 -27 -10z"/>
<path d="M4538 2437 c6 -6 12 -28 14 -47 3 -30 7 -35 31 -38 29 -4 32 1 41 61
4 33 2 37 -17 36 -12 0 -16 -3 -9 -6 6 -2 12 -20 12 -38 0 -33 -13 -46 -37
-38 -7 3 -13 20 -13 38 0 18 6 36 13 38 6 3 -1 6 -17 6 -22 1 -26 -2 -18 -12z"/>
<path d="M5423 2439 c10 -6 17 -22 17 -39 0 -17 -7 -33 -17 -39 -14 -8 -10
-10 22 -10 32 0 36 2 23 10 -12 6 -18 22 -18 44 0 24 5 35 18 38 9 3 -1 5 -23
6 -32 0 -36 -2 -22 -10z"/>
<path d="M6375 2400 c0 -46 2 -50 25 -50 19 0 21 3 12 12 -7 7 -12 16 -12 20
0 15 19 8 40 -14 11 -12 23 -19 26 -15 4 4 0 15 -9 25 -12 13 -14 21 -6 29 21
21 2 43 -38 43 l-38 0 0 -50z m63 23 c2 -8 -5 -13 -17 -13 -12 0 -21 6 -21 16
0 18 31 15 38 -3z"/>
<path d="M7037 2437 c-3 -8 -2 -29 2 -48 6 -29 11 -34 39 -37 18 -2 32 1 32 8
0 6 -10 8 -25 4 -22 -5 -25 -3 -25 20 0 19 5 26 20 26 11 0 20 5 20 10 0 6 -9
10 -20 10 -11 0 -20 5 -20 10 0 15 -17 12 -23 -3z"/>
<path d="M4645 2370 c0 -56 2 -60 23 -60 12 0 22 5 22 10 0 6 -4 10 -10 10 -5
0 -10 6 -10 14 0 9 7 12 19 9 17 -4 51 20 51 37 0 19 -33 40 -63 40 l-32 0 0
-60z m70 20 c0 -8 -10 -16 -22 -18 -18 -3 -23 2 -23 18 0 16 5 21 23 18 12 -2
22 -10 22 -18z"/>
<path d="M4762 2418 c-27 -27 -6 -68 35 -68 13 0 23 -4 23 -10 0 -5 -11 -10
-25 -10 -14 0 -25 -4 -25 -10 0 -17 49 -11 58 8 5 9 12 36 15 60 l5 42 -37 0
c-20 0 -42 -5 -49 -12z m56 -29 c4 -19 -27 -34 -41 -20 -14 14 0 43 20 39 10
-2 19 -10 21 -19z"/>
<path d="M4877 2398 c4 -20 1 -33 -8 -39 -9 -6 1 -9 31 -8 38 0 41 2 22 10
-29 11 -26 43 6 47 37 6 24 21 -18 20 -38 0 -39 -1 -33 -30z"/>
<path d="M4985 2420 c-4 -6 6 -10 22 -11 28 -1 28 -1 -5 -10 -49 -14 -40 -43
14 -47 40 -3 41 -2 36 25 -2 15 -9 34 -15 41 -11 14 -43 16 -52 2z m40 -50
c-3 -5 -13 -10 -21 -10 -8 0 -14 5 -14 10 0 6 9 10 21 10 11 0 17 -4 14 -10z"/>
<path d="M5196 2414 c-32 -32 -11 -64 41 -64 18 0 33 5 33 11 0 6 -9 8 -20 4
-11 -3 -28 -2 -37 4 -15 8 -11 10 20 11 38 0 48 15 25 38 -17 17 -44 15 -62
-4z m47 -11 c-7 -2 -19 -2 -25 0 -7 3 -2 5 12 5 14 0 19 -2 13 -5z"/>
<path d="M5515 2390 c0 -32 3 -40 17 -40 16 0 16 3 6 20 -15 24 2 46 27 36 12
-4 15 -13 11 -31 -5 -19 -2 -25 9 -25 12 0 14 7 9 28 -11 49 -13 52 -46 52
-32 0 -33 -1 -33 -40z"/>
<path d="M5633 2414 c-7 -18 12 -34 42 -34 15 0 16 -3 7 -12 -10 -10 -17 -10
-32 0 -17 10 -20 10 -20 -3 0 -10 10 -15 35 -15 28 0 35 4 35 19 0 12 -11 24
-27 30 l-28 11 28 -4 c18 -2 27 1 27 10 0 20 -59 18 -67 -2z"/>
<path d="M5736 2414 c-32 -32 -11 -64 41 -64 18 0 33 5 33 11 0 6 -9 8 -20 4
-11 -3 -28 -2 -37 4 -15 8 -11 10 20 11 38 0 48 15 25 38 -17 17 -44 15 -62
-4z m47 -11 c-7 -2 -19 -2 -25 0 -7 3 -2 5 12 5 14 0 19 -2 13 -5z"/>
<path d="M5850 2416 c-6 -8 -10 -25 -8 -38 2 -18 10 -24 37 -26 18 -2 39 2 45
8 8 9 4 11 -20 6 -21 -5 -35 -2 -43 8 -24 29 20 51 47 24 9 -9 12 -7 12 10 0
18 -6 22 -29 22 -16 0 -34 -7 -41 -14z"/>
<path d="M5944 2414 c3 -9 6 -27 6 -40 0 -21 4 -24 41 -24 33 0 40 3 35 16 -3
9 -6 27 -6 40 0 15 -6 24 -15 24 -18 0 -20 -17 -2 -23 9 -3 9 -9 1 -23 -18
-30 -39 -23 -42 14 -2 17 -8 32 -14 32 -5 0 -7 -7 -4 -16z"/>
<path d="M6067 2398 c4 -20 1 -33 -8 -39 -9 -6 1 -9 31 -8 38 0 41 2 22 10
-29 11 -26 43 6 47 37 6 24 21 -18 20 -38 0 -39 -1 -33 -30z"/>
<path d="M6170 2416 c-6 -8 -10 -25 -8 -38 2 -19 10 -23 46 -26 26 -2 42 1 42
8 0 8 -10 9 -29 5 -17 -3 -32 -2 -36 4 -4 7 7 11 29 11 39 0 45 10 20 34 -19
20 -48 20 -64 2z m43 -13 c-7 -2 -19 -2 -25 0 -7 3 -2 5 12 5 14 0 19 -2 13
-5z"/>
<path d="M6490 2416 c-6 -8 -10 -25 -8 -38 2 -19 10 -23 46 -26 26 -2 42 1 42
8 0 8 -10 9 -29 5 -17 -3 -32 -2 -36 4 -4 7 7 11 29 11 39 0 45 10 20 34 -19
20 -48 20 -64 2z m43 -13 c-7 -2 -19 -2 -25 0 -7 3 -2 5 12 5 14 0 19 -2 13
-5z"/>
<path d="M6601 2417 c-27 -27 1 -74 39 -64 13 3 20 0 20 -9 0 -8 -4 -14 -10
-14 -5 0 -10 -4 -10 -10 0 -5 11 -10 25 -10 14 0 25 5 25 10 0 6 -4 10 -10 10
-5 0 -10 18 -10 40 0 33 3 40 20 40 16 0 20 -7 20 -30 0 -28 2 -30 41 -30 33
0 40 3 35 16 -3 9 -6 27 -6 40 0 15 -6 24 -15 24 -18 0 -20 -17 -2 -23 9 -3 9
-9 1 -23 -17 -29 -39 -23 -42 12 -3 30 -4 31 -56 32 -30 0 -59 -5 -65 -11z
m54 -27 c0 -18 -33 -26 -47 -12 -6 6 -7 15 -3 22 10 16 50 8 50 -10z"/>
<path d="M6816 2414 c-32 -32 -11 -64 41 -64 18 0 33 5 33 11 0 6 -9 8 -20 4
-11 -3 -28 -2 -37 4 -15 8 -11 10 20 11 38 0 48 15 25 38 -17 17 -44 15 -62
-4z m47 -11 c-7 -2 -19 -2 -25 0 -7 3 -2 5 12 5 14 0 19 -2 13 -5z"/>
<path d="M6933 2419 c-16 -16 1 -39 28 -39 11 0 19 -4 19 -10 0 -13 -16 -13
-41 0 -15 9 -19 7 -19 -5 0 -13 8 -15 37 -13 48 4 53 24 11 43 -28 13 -30 15
-8 13 14 -1 26 2 28 7 4 15 -41 18 -55 4z"/>
<path d="M7143 2414 c-7 -18 12 -34 42 -34 15 0 16 -3 7 -12 -10 -10 -17 -10
-32 0 -17 10 -20 10 -20 -3 0 -10 10 -15 35 -15 28 0 35 4 35 19 0 12 -11 24
-27 30 l-28 11 28 -4 c18 -2 27 1 27 10 0 20 -59 18 -67 -2z"/>
<path d="M7275 2420 c-3 -5 1 -10 10 -10 9 0 13 5 10 10 -3 6 -8 10 -10 10 -2
0 -7 -4 -10 -10z"/>
<path d="M3155 2410 c-3 -5 -12 -7 -20 -3 -12 4 -15 -8 -15 -66 0 -41 4 -71
10 -71 6 0 10 25 10 55 0 44 4 57 20 67 11 7 20 16 20 20 0 11 -18 10 -25 -2z"/>
<path d="M3224 2406 c-25 -19 -12 -31 15 -14 15 9 26 10 38 2 27 -17 27 -34
-1 -34 -13 0 -37 -4 -51 -10 -22 -8 -26 -15 -23 -42 2 -27 8 -34 30 -36 15 -2
36 2 48 8 13 7 20 7 20 0 0 -5 10 -10 22 -10 17 0 19 3 10 12 -7 7 -12 33 -12
59 0 71 -45 102 -96 65z m76 -76 c0 -12 -37 -50 -49 -50 -16 0 -31 27 -25 44
7 18 74 23 74 6z"/>
<path d="M3401 2411 c-8 -5 -20 -7 -28 -4 -10 4 -13 -11 -13 -66 0 -41 4 -71
10 -71 6 0 10 21 10 46 0 55 14 84 41 84 24 0 39 -35 39 -91 0 -21 5 -39 10
-39 17 0 12 116 -6 134 -17 18 -42 20 -63 7z"/>
<path d="M3528 2409 c-21 -12 -24 -42 -5 -56 6 -6 26 -15 42 -20 17 -5 31 -17
33 -25 4 -21 -32 -32 -58 -18 -23 13 -36 8 -25 -9 7 -12 64 -15 89 -5 9 4 16
18 16 34 0 24 -6 30 -42 43 -24 7 -43 20 -43 28 0 18 42 24 61 8 8 -6 18 -9
22 -5 10 11 -28 36 -52 36 -12 0 -29 -5 -38 -11z"/>
<path d="M3728 2409 c-22 -12 -23 -29 -3 -29 8 0 15 5 15 11 0 17 54 6 58 -12
2 -12 -8 -18 -37 -23 -47 -7 -68 -34 -51 -66 12 -22 58 -28 77 -9 8 8 13 8 17
0 4 -6 15 -11 24 -11 12 0 13 3 4 12 -7 7 -12 36 -12 65 0 41 -4 54 -19 63
-25 13 -51 12 -73 -1z m72 -82 c0 -21 -37 -50 -55 -44 -15 6 -21 38 -8 50 12
13 63 7 63 -6z"/>
<path d="M4028 2413 c-27 -7 -44 -74 -27 -109 11 -23 22 -30 50 -32 49 -4 69
17 69 73 0 60 -32 84 -92 68z m60 -25 c17 -17 15 -74 -4 -92 -32 -33 -64 -11
-64 44 0 39 14 60 40 60 9 0 21 -5 28 -12z"/>
<path d="M4191 2411 c-8 -5 -20 -7 -28 -4 -10 4 -13 -11 -13 -66 0 -41 4 -71
10 -71 6 0 10 21 10 46 0 55 14 84 41 84 24 0 39 -35 39 -91 0 -21 5 -39 10
-39 17 0 12 116 -6 134 -17 18 -42 20 -63 7z"/>
<path d="M3940 2340 c0 -40 4 -70 10 -70 6 0 10 30 10 70 0 40 -4 70 -10 70
-6 0 -10 -30 -10 -70z"/>
<path d="M5300 2400 c0 -5 18 -10 41 -10 24 0 38 4 34 10 -3 6 -22 10 -41 10
-19 0 -34 -4 -34 -10z"/>
<path d="M6270 2400 c0 -5 18 -10 41 -10 24 0 38 4 34 10 -3 6 -22 10 -41 10
-19 0 -34 -4 -34 -10z"/>
<path d="M7270 2360 c0 -5 7 -10 16 -10 8 0 12 5 9 10 -3 6 -10 10 -16 10 -5
0 -9 -4 -9 -10z"/>
<path d="M6561 2194 c-34 -73 -35 -74 -22 -74 4 0 22 32 39 70 39 89 24 92
-17 4z"/>
<path d="M4558 2239 c-22 -12 -24 -71 -4 -88 19 -16 68 -10 74 7 3 11 0 12
-17 3 -44 -24 -83 28 -45 60 12 10 20 10 35 1 24 -15 29 -15 29 2 0 7 -10 16
-22 20 -29 7 -30 7 -50 -5z"/>
<path d="M6635 2195 c0 -45 3 -55 17 -55 12 0 16 8 15 27 -1 20 3 28 17 31 16
3 18 0 13 -27 -5 -26 -3 -31 12 -31 14 0 17 6 13 28 -6 35 -20 52 -43 52 -11
0 -19 7 -19 15 0 8 -6 15 -12 15 -9 0 -13 -18 -13 -55z"/>
<path d="M6983 2239 c27 -16 23 -77 -5 -89 -19 -7 -15 -9 22 -9 35 0 41 2 28
10 -13 7 -18 23 -18 54 0 40 -2 45 -22 45 -21 -1 -21 -2 -5 -11z"/>
<path d="M4877 2227 c-3 -8 -2 -29 2 -48 6 -29 11 -34 39 -37 18 -2 32 1 32 8
0 6 -10 8 -25 4 -22 -5 -25 -3 -25 20 0 19 5 26 20 26 11 0 20 5 20 10 0 6 -9
10 -20 10 -11 0 -20 5 -20 10 0 15 -17 12 -23 -3z"/>
<path d="M5200 2222 c-10 -11 -11 -17 -2 -20 7 -2 12 -17 12 -33 0 -25 4 -29
29 -29 17 0 32 4 36 9 3 6 -7 9 -22 8 -22 -2 -29 3 -31 21 -3 18 1 22 22 22
14 0 26 5 26 10 0 6 -11 10 -24 10 -13 0 -26 4 -28 9 -1 5 -10 2 -18 -7z"/>
<path d="M5400 2218 c1 -21 2 -21 11 -5 14 24 29 12 29 -23 0 -17 -7 -33 -17
-39 -15 -9 -12 -10 17 -11 26 0 31 3 22 12 -14 14 -16 78 -2 78 6 0 10 -7 10
-15 0 -8 5 -15 10 -15 6 0 10 9 10 20 0 17 -7 20 -45 20 -40 0 -45 -2 -45 -22z"/>
<path d="M6110 2222 c-10 -11 -11 -17 -2 -20 7 -2 12 -17 12 -33 0 -25 4 -29
29 -29 17 0 32 4 36 9 3 6 -7 9 -22 8 -22 -2 -29 3 -31 21 -3 18 1 22 22 22
14 0 26 5 26 10 0 6 -11 10 -24 10 -13 0 -26 4 -28 9 -1 5 -10 2 -18 -7z"/>
<path d="M6437 2227 c-3 -8 -2 -29 2 -48 6 -29 11 -34 39 -37 18 -2 32 1 32 8
0 6 -10 8 -25 4 -22 -5 -25 -3 -25 20 0 19 5 26 20 26 11 0 20 5 20 10 0 6 -9
10 -20 10 -11 0 -20 5 -20 10 0 15 -17 12 -23 -3z"/>
<path d="M6760 2222 c-10 -11 -11 -17 -2 -20 7 -2 12 -17 12 -33 0 -28 1 -29
53 -29 l54 0 -5 30 c-3 18 0 30 7 30 6 0 11 -13 11 -30 0 -16 4 -30 9 -30 6 0
9 12 8 26 -1 15 4 29 11 31 8 3 12 -6 12 -26 0 -17 5 -31 10 -31 9 0 7 27 -6
68 -2 7 -21 12 -48 12 -45 0 -45 -1 -40 -29 5 -24 2 -29 -20 -35 -33 -8 -46
-1 -46 25 0 14 7 19 25 19 14 0 25 5 25 10 0 6 -11 10 -24 10 -13 0 -26 4 -28
9 -1 5 -10 2 -18 -7z"/>
<path d="M4664 2212 c-37 -25 -15 -76 31 -70 22 2 31 9 33 26 6 40 -32 66 -64
44z m52 -23 c9 -16 -20 -41 -39 -33 -17 6 -22 25 -10 37 10 11 41 8 49 -4z"/>
<path d="M4755 2210 c-3 -5 -1 -10 4 -10 15 0 14 -33 -1 -48 -9 -9 -7 -12 9
-12 17 0 21 5 20 27 -1 19 3 28 17 31 16 3 18 -1 14 -27 -4 -24 -1 -31 12 -31
13 0 16 6 12 28 -2 15 -9 33 -15 40 -11 14 -63 16 -72 2z"/>
<path d="M4980 2206 c-6 -8 -10 -25 -8 -38 2 -19 10 -23 46 -26 26 -2 42 1 42
8 0 8 -10 9 -29 5 -17 -3 -32 -2 -36 4 -4 7 7 11 29 11 39 0 45 10 20 34 -19
20 -48 20 -64 2z m43 -13 c-7 -2 -19 -2 -25 0 -7 3 -2 5 12 5 14 0 19 -2 13
-5z"/>
<path d="M5085 2180 c0 -32 3 -40 17 -40 16 0 16 3 6 20 -15 24 2 46 27 36 12
-4 15 -13 11 -31 -5 -19 -2 -25 9 -25 12 0 14 7 9 28 -11 49 -13 52 -46 52
-32 0 -33 -1 -33 -40z"/>
<path d="M5510 2213 c1 -5 7 -19 15 -33 19 -33 19 -60 0 -60 -8 0 -15 -4 -15
-10 0 -5 11 -10 25 -10 16 0 25 6 25 15 0 9 9 33 20 55 24 47 24 50 5 50 -8 0
-15 -8 -15 -17 0 -10 -5 -25 -10 -33 -7 -12 -11 -8 -16 18 -4 17 -13 32 -20
32 -8 0 -14 -3 -14 -7z"/>
<path d="M5610 2210 c0 -5 5 -12 10 -15 6 -3 10 -22 10 -41 0 -19 -4 -34 -10
-34 -5 0 -10 -4 -10 -10 0 -5 11 -10 25 -10 14 0 25 5 25 10 0 6 -4 10 -10 10
-5 0 -10 6 -10 13 0 7 11 13 26 12 33 0 53 28 38 53 -12 18 -94 29 -94 12z
m83 -24 c7 -17 -1 -26 -24 -26 -21 0 -33 15 -24 30 9 15 42 12 48 -4z"/>
<path d="M5736 2204 c-32 -32 -11 -64 41 -64 18 0 33 5 33 11 0 6 -9 8 -20 4
-11 -3 -28 -2 -37 4 -15 8 -11 10 20 11 38 0 48 15 25 38 -17 17 -44 15 -62
-4z m47 -11 c-7 -2 -19 -2 -25 0 -7 3 -2 5 12 5 14 0 19 -2 13 -5z"/>
<path d="M5870 2210 c0 -5 5 -10 10 -10 6 0 10 5 10 10 0 6 -4 10 -10 10 -5 0
-10 -4 -10 -10z"/>
<path d="M6216 2204 c-32 -32 -11 -64 41 -64 18 0 33 5 33 11 0 6 -9 8 -20 4
-11 -3 -28 -2 -37 4 -15 8 -11 10 20 11 38 0 48 15 25 38 -17 17 -44 15 -62
-4z m47 -11 c-7 -2 -19 -2 -25 0 -7 3 -2 5 12 5 14 0 19 -2 13 -5z"/>
<path d="M6310 2210 c0 -5 8 -14 18 -20 16 -10 16 -10 0 -20 -24 -15 -23 -30
3 -30 11 0 18 4 14 9 -3 5 -1 12 5 16 5 3 10 -1 10 -9 0 -9 9 -16 20 -16 25 0
25 9 3 26 -17 13 -17 15 0 28 22 17 22 26 -3 26 -12 0 -20 -7 -20 -17 -1 -17
-1 -17 -11 0 -11 18 -39 24 -39 7z"/>
<path d="M7854 2193 c-3 -10 -10 -26 -15 -35 -6 -12 -6 -18 1 -18 6 0 10 -28
10 -65 0 -37 4 -65 10 -65 6 0 10 28 10 64 0 53 3 65 18 69 16 4 16 5 0 6 -22
1 -25 41 -3 41 8 0 15 5 15 10 0 17 -40 11 -46 -7z"/>
<path d="M8400 2200 c0 -5 5 -10 10 -10 6 0 10 5 10 10 0 6 -4 10 -10 10 -5 0
-10 -4 -10 -10z"/>
<path d="M5300 2190 c0 -5 18 -10 41 -10 24 0 38 4 34 10 -3 6 -22 10 -41 10
-19 0 -34 -4 -34 -10z"/>
<path d="M3020 2150 c0 -5 5 -10 10 -10 6 0 10 5 10 10 0 6 -4 10 -10 10 -5 0
-10 -4 -10 -10z"/>
<path d="M5870 2150 c0 -5 5 -10 10 -10 6 0 10 5 10 10 0 6 -4 10 -10 10 -5 0
-10 -4 -10 -10z"/>
<path d="M7955 2150 c-3 -5 -12 -7 -20 -3 -12 4 -15 -8 -15 -66 0 -41 4 -71
10 -71 6 0 10 25 10 55 0 44 4 57 20 67 11 7 20 16 20 20 0 11 -18 10 -25 -2z"/>
<path d="M8028 2149 c-22 -12 -23 -29 -3 -29 8 0 15 5 15 11 0 17 54 6 58 -12
2 -12 -8 -18 -37 -23 -47 -7 -68 -34 -51 -66 12 -22 58 -28 77 -9 8 8 13 8 17
0 4 -6 15 -11 24 -11 12 0 13 3 4 12 -7 7 -12 36 -12 65 0 41 -4 54 -19 63
-25 13 -51 12 -73 -1z m72 -82 c0 -21 -37 -50 -55 -44 -15 6 -21 38 -8 50 12
13 63 7 63 -6z"/>
<path d="M8205 2150 c-3 -5 -12 -7 -20 -3 -12 4 -15 -8 -15 -66 0 -41 4 -71
10 -71 6 0 10 24 10 53 0 60 10 80 36 75 16 -3 20 -14 22 -66 3 -71 22 -85 22
-16 0 54 14 84 39 84 24 0 31 -19 31 -81 0 -27 5 -49 10 -49 6 0 10 28 10 64
0 76 -15 96 -60 79 -16 -6 -34 -7 -41 -2 -19 12 -46 11 -54 -1z"/>
<path d="M8501 2151 c-8 -5 -20 -7 -28 -4 -10 4 -13 -11 -13 -66 0 -41 4 -71
10 -71 6 0 10 21 10 46 0 55 14 84 41 84 24 0 39 -35 39 -91 0 -21 5 -39 10
-39 17 0 12 116 -6 134 -17 18 -42 20 -63 7z"/>
<path d="M8627 2142 c-19 -21 -23 -83 -7 -113 12 -22 59 -26 79 -6 10 10 12 7
9 -12 -4 -34 -32 -49 -59 -33 -28 18 -40 5 -14 -14 22 -17 74 -12 87 9 4 6 8
49 8 94 0 71 -2 82 -17 82 -10 0 -29 3 -43 6 -18 5 -31 1 -43 -13z m74 -26
c24 -51 -21 -115 -55 -80 -19 18 -21 75 -4 92 20 20 48 14 59 -12z"/>
<path d="M3540 2055 c0 -57 4 -95 10 -95 6 0 10 20 10 46 l0 45 53 -3 52 -3 3
-42 c6 -81 22 -43 22 52 0 53 -4 95 -9 95 -6 0 -11 -17 -13 -37 l-3 -38 -52
-3 -53 -3 0 40 c0 23 -4 41 -10 41 -6 0 -10 -38 -10 -95z"/>
<path d="M3720 2140 c0 -5 14 -10 30 -10 l30 0 0 -85 c0 -69 3 -85 15 -85 12
0 15 16 15 85 l0 85 30 0 c17 0 30 5 30 10 0 6 -32 10 -75 10 -43 0 -75 -4
-75 -10z"/>
<path d="M3890 2140 c0 -5 14 -10 30 -10 l30 0 0 -85 c0 -69 3 -85 15 -85 12
0 15 16 15 85 l0 85 30 0 c17 0 30 5 30 10 0 6 -32 10 -75 10 -43 0 -75 -4
-75 -10z"/>
<path d="M4080 2055 c0 -57 4 -95 10 -95 6 0 10 18 10 40 l0 40 50 0 c38 0 52
4 60 19 29 56 0 91 -76 91 l-54 0 0 -95z m108 63 c29 -29 -2 -68 -54 -68 -33
0 -34 1 -34 40 0 40 0 40 38 40 21 0 43 -5 50 -12z"/>
<path d="M8400 2080 c0 -40 4 -70 10 -70 6 0 10 30 10 70 0 40 -4 70 -10 70
-6 0 -10 -30 -10 -70z"/>
<path d="M3233 2115 c-6 -14 -7 -25 -2 -25 5 0 9 -29 9 -65 0 -63 1 -65 25
-65 14 0 25 5 25 10 0 6 -6 9 -12 8 -9 -2 -14 15 -16 55 -3 49 -1 57 15 57 17
1 17 1 1 11 -10 5 -18 17 -18 24 0 23 -14 17 -27 -10z"/>
<path d="M480 1640 l0 -480 890 0 890 0 0 240 0 240 233 3 232 2 -232 3 -233
2 0 235 0 235 -890 0 -890 0 0 -480z m1770 0 l0 -470 -880 0 -880 0 0 470 0
470 880 0 880 0 0 -470z"/>
<path d="M590 1805 c0 -78 3 -95 15 -95 11 0 15 11 15 40 l0 40 50 0 50 0 0
-40 c0 -29 4 -40 15 -40 12 0 15 17 15 95 0 78 -3 95 -15 95 -11 0 -15 -11
-15 -40 l0 -40 -50 0 -50 0 0 40 c0 29 -4 40 -15 40 -12 0 -15 -17 -15 -95z"/>
<path d="M770 1890 c0 -5 14 -10 30 -10 l30 0 0 -85 c0 -78 2 -85 20 -85 18 0
20 7 20 85 l0 85 30 0 c17 0 30 5 30 10 0 6 -33 10 -80 10 -47 0 -80 -4 -80
-10z"/>
<path d="M950 1805 c0 -84 2 -95 18 -95 15 0 17 9 15 67 -3 66 -2 67 12 38 8
-16 21 -47 29 -67 8 -21 21 -38 29 -38 8 0 25 28 40 68 l25 67 1 -67 c1 -53 4
-68 16 -68 12 0 15 17 15 96 0 93 -1 95 -22 92 -17 -2 -28 -19 -49 -73 l-27
-70 -11 30 c-7 17 -19 49 -28 73 -12 33 -21 42 -39 42 -24 0 -24 -2 -24 -95z"/>
<path d="M1180 1805 l0 -95 70 0 c40 0 70 4 70 10 0 6 -22 10 -50 10 l-50 0 0
85 c0 78 -2 85 -20 85 -19 0 -20 -7 -20 -95z"/>
<path d="M1390 1805 c0 -88 1 -95 20 -95 16 0 20 7 20 35 l0 35 50 0 c38 0 50
4 50 15 0 11 -12 15 -50 15 l-50 0 0 35 0 35 55 0 c30 0 55 5 55 10 0 6 -32
10 -75 10 l-75 0 0 -95z"/>
<path d="M1574 1846 c-29 -22 -27 -101 5 -127 53 -43 111 -9 111 64 0 30 -6
49 -18 60 -23 21 -71 22 -98 3z m74 -18 c14 -14 16 -67 3 -86 -4 -8 -19 -12
-32 -10 -20 2 -25 10 -27 41 -5 55 26 85 56 55z"/>
<path d="M1710 1784 c0 -59 3 -74 15 -74 11 0 15 12 15 44 0 57 8 76 31 76 10
0 19 6 19 14 0 11 -12 15 -40 14 l-40 0 0 -74z"/>
<path d="M1800 1784 c0 -59 3 -74 15 -74 11 0 15 12 15 48 0 60 20 93 44 73
11 -9 16 -30 16 -67 0 -41 4 -54 15 -54 11 0 15 13 15 54 0 35 5 58 15 66 24
20 35 2 35 -61 0 -46 3 -59 15 -59 13 0 15 13 13 73 -3 71 -3 72 -31 75 -16 2
-34 -2 -42 -8 -9 -7 -15 -8 -20 -1 -3 6 -28 10 -55 10 l-50 -2 0 -73z"/>
<path d="M2042 1848 c-28 -28 -8 -63 45 -77 39 -10 44 -41 6 -41 -16 0 -34 5
-41 12 -14 14 -27 4 -19 -16 8 -21 54 -31 86 -20 19 7 27 17 29 40 3 32 -1 36
-70 58 -10 3 -18 10 -18 15 0 16 29 21 55 9 30 -13 43 -5 25 17 -15 18 -81 20
-98 3z"/>
<path d="M825 1578 c-24 -34 -37 -96 -30 -137 8 -47 40 -101 60 -101 13 0 12
6 -5 40 -27 52 -27 133 0 183 16 30 17 37 6 37 -8 0 -22 -10 -31 -22z"/>
<path d="M880 1501 l0 -98 45 -6 c24 -4 51 -4 59 -1 37 14 45 116 11 144 -8 7
-28 10 -45 8 -27 -4 -30 -2 -30 24 0 21 -5 28 -20 28 -19 0 -20 -7 -20 -99z
m88 20 c9 -5 12 -24 10 -52 -3 -39 -6 -44 -28 -44 -22 0 -25 5 -28 38 -2 21 2
45 9 53 13 16 19 17 37 5z"/>
<path d="M1850 1595 c0 -2 9 -19 20 -37 26 -44 26 -121 0 -173 -21 -41 -20
-51 3 -42 46 17 63 165 27 225 -11 17 -27 32 -35 32 -8 0 -15 -2 -15 -5z"/>
<path d="M1040 1473 c0 -58 3 -73 15 -73 12 0 15 13 15 56 0 47 3 57 20 61 35
9 24 33 -15 31 l-35 -1 0 -74z"/>
<path d="M1137 1532 c-10 -11 -17 -36 -17 -60 0 -72 59 -105 111 -63 19 15 24
29 24 64 0 24 -6 51 -14 60 -19 23 -83 22 -104 -1z m67 -8 c23 -9 22 -92 0
-101 -39 -15 -68 42 -44 87 11 21 19 24 44 14z"/>
<path d="M1260 1547 c0 -2 4 -17 10 -33 5 -16 14 -48 20 -71 8 -32 16 -43 30
-43 14 0 22 11 30 43 6 23 12 47 14 52 1 6 8 -14 15 -42 10 -40 17 -53 32 -53
14 0 23 16 39 69 24 81 24 81 5 81 -13 0 -35 -55 -35 -89 0 -25 -15 -1 -25 42
-16 60 -41 61 -56 3 -6 -25 -15 -46 -19 -46 -4 0 -11 19 -16 42 -6 28 -15 44
-27 46 -9 2 -17 2 -17 -1z"/>
<path d="M1493 1543 c-7 -2 -13 -18 -13 -34 0 -23 6 -32 28 -40 45 -18 54 -24
53 -34 0 -16 -31 -18 -57 -4 -13 7 -27 9 -31 5 -11 -11 35 -46 61 -46 30 0 66
27 66 50 0 21 -35 50 -62 50 -22 0 -33 19 -19 33 8 8 17 7 35 -2 33 -18 54
-10 32 12 -16 16 -66 22 -93 10z"/>
<path d="M1626 1528 c-19 -27 -21 -88 -3 -111 20 -27 69 -32 97 -9 31 25 19
40 -16 22 -18 -10 -30 -11 -42 -4 -34 22 -25 34 27 34 27 0 52 4 55 9 8 12
-12 63 -27 73 -25 16 -76 8 -91 -14z m72 -10 c20 -20 14 -28 -23 -28 -33 0
-35 2 -25 20 12 23 30 26 48 8z"/>
<path d="M1770 1474 c0 -59 3 -74 15 -74 11 0 15 12 15 44 0 57 8 76 31 76 10
0 19 6 19 14 0 11 -12 15 -40 14 l-40 0 0 -74z"/>
<path d="M3121 2101 c-8 -5 -20 -7 -28 -4 -10 4 -13 -11 -13 -66 0 -41 4 -71
10 -71 6 0 10 21 10 46 0 55 14 84 41 84 24 0 39 -35 39 -91 0 -21 5 -39 10
-39 17 0 12 116 -6 134 -17 18 -42 20 -63 7z"/>
<path d="M3338 2103 c-27 -7 -44 -74 -27 -109 11 -23 22 -30 50 -32 49 -4 69
17 69 73 0 60 -32 84 -92 68z m60 -25 c17 -17 15 -74 -4 -92 -32 -33 -64 -11
-64 44 0 39 14 60 40 60 9 0 21 -5 28 -12z"/>
<path d="M3020 2030 c0 -40 4 -70 10 -70 6 0 10 30 10 70 0 40 -4 70 -10 70
-6 0 -10 -30 -10 -70z"/>
<path d="M4558 2039 c-22 -12 -24 -71 -4 -88 19 -16 68 -10 74 7 3 11 0 12
-17 3 -44 -24 -83 28 -45 60 12 10 20 10 35 1 24 -15 29 -15 29 2 0 7 -10 16
-22 20 -29 7 -30 7 -50 -5z"/>
<path d="M5940 2035 c8 -9 11 -30 7 -55 -4 -35 -3 -40 15 -40 17 0 18 3 8 15
-15 18 -6 45 15 45 21 0 30 -27 15 -45 -10 -13 -9 -15 9 -15 18 0 20 4 15 28
-10 48 -13 52 -39 52 -16 0 -25 6 -25 15 0 8 -7 15 -16 15 -14 0 -14 -3 -4
-15z"/>
<path d="M6315 2039 c-4 -6 3 -9 21 -7 15 2 29 -3 31 -9 3 -7 -2 -13 -11 -13
-21 0 -20 -10 1 -25 23 -17 7 -38 -23 -31 -14 4 -24 2 -24 -4 0 -7 15 -10 38
-8 l37 3 -2 45 c-1 25 -2 48 -2 53 -1 11 -59 8 -66 -4z"/>
<path d="M6438 2019 c-23 -40 -23 -49 3 -49 15 0 19 -5 15 -15 -3 -10 1 -15
13 -15 12 0 17 7 15 23 -1 12 -3 37 -3 55 -1 41 -21 41 -43 1z m18 -36 c-10
-10 -19 5 -10 18 6 11 8 11 12 0 2 -7 1 -15 -2 -18z"/>
<path d="M6530 2020 c0 -27 2 -30 25 -24 18 4 27 1 31 -11 9 -22 -14 -37 -46
-29 -19 4 -22 3 -14 -6 6 -6 24 -10 40 -8 25 3 29 7 29 33 0 23 -5 31 -22 33
-32 5 -29 30 5 35 22 3 20 4 -10 6 -36 1 -38 -1 -38 -29z"/>
<path d="M4877 2027 c-3 -8 -2 -29 2 -48 6 -29 11 -34 39 -37 18 -2 32 1 32 8
0 6 -10 8 -25 4 -22 -5 -25 -3 -25 20 0 19 5 26 20 26 11 0 20 5 20 10 0 6 -9
10 -20 10 -11 0 -20 5 -20 10 0 15 -17 12 -23 -3z"/>
<path d="M5200 2022 c-10 -11 -11 -17 -2 -20 7 -2 12 -17 12 -33 0 -25 4 -29
29 -29 17 0 32 4 36 9 3 6 -7 9 -22 8 -22 -2 -29 3 -31 21 -3 18 1 22 22 22
14 0 26 5 26 10 0 6 -11 10 -24 10 -13 0 -26 4 -28 9 -1 5 -10 2 -18 -7z"/>
<path d="M5408 2033 c15 -6 16 -65 0 -81 -9 -9 -2 -12 35 -12 42 0 47 2 47 23
-1 20 -2 20 -11 5 -5 -10 -17 -18 -24 -18 -19 0 -21 76 -2 83 6 3 -4 5 -23 5
-19 0 -29 -2 -22 -5z"/>
<path d="M5850 2022 c-10 -11 -11 -17 -2 -20 7 -2 12 -17 12 -33 0 -25 4 -29
29 -29 17 0 32 4 36 9 3 6 -7 9 -22 8 -22 -2 -29 3 -31 21 -3 18 1 22 22 22
14 0 26 5 26 10 0 6 -11 10 -24 10 -13 0 -26 4 -28 9 -1 5 -10 2 -18 -7z"/>
<path d="M4664 2012 c-37 -25 -15 -76 31 -70 22 2 31 9 33 26 6 40 -32 66 -64
44z m52 -23 c9 -16 -20 -41 -39 -33 -17 6 -22 25 -10 37 10 11 41 8 49 -4z"/>
<path d="M4755 2010 c-3 -5 -1 -10 4 -10 15 0 14 -33 -1 -48 -9 -9 -7 -12 9
-12 17 0 21 5 20 27 -1 19 3 28 17 31 16 3 18 -1 14 -27 -4 -24 -1 -31 12 -31
13 0 16 6 12 28 -2 15 -9 33 -15 40 -11 14 -63 16 -72 2z"/>
<path d="M4980 2006 c-6 -8 -10 -25 -8 -38 2 -19 10 -23 46 -26 26 -2 42 1 42
8 0 8 -10 9 -29 5 -17 -3 -32 -2 -36 4 -4 7 7 11 29 11 39 0 45 10 20 34 -19
20 -48 20 -64 2z m43 -13 c-7 -2 -19 -2 -25 0 -7 3 -2 5 12 5 14 0 19 -2 13
-5z"/>
<path d="M5085 1980 c0 -32 3 -40 17 -40 16 0 16 3 6 20 -15 24 2 46 27 36 12
-4 15 -13 11 -31 -5 -19 -2 -25 9 -25 12 0 14 7 9 28 -11 49 -13 52 -46 52
-32 0 -33 -1 -33 -40z"/>
<path d="M5520 2006 c-6 -8 -10 -25 -8 -38 2 -19 10 -23 46 -26 26 -2 42 1 42
8 0 8 -10 9 -29 5 -17 -3 -32 -2 -36 4 -4 7 7 11 29 11 39 0 45 10 20 34 -19
20 -48 20 -64 2z m43 -13 c-7 -2 -19 -2 -25 0 -7 3 -2 5 12 5 14 0 19 -2 13
-5z"/>
<path d="M5625 1980 c0 -32 3 -40 17 -40 16 0 16 3 6 20 -15 24 2 46 27 36 12
-4 15 -13 11 -31 -5 -19 -2 -25 9 -25 12 0 14 7 9 28 -11 49 -13 52 -46 52
-32 0 -33 -1 -33 -40z"/>
<path d="M5732 2008 c-27 -27 -6 -68 35 -68 13 0 23 -4 23 -10 0 -5 -11 -10
-25 -10 -14 0 -25 -4 -25 -10 0 -17 49 -11 58 8 5 9 12 36 15 60 l5 42 -37 0
c-20 0 -42 -5 -49 -12z m56 -29 c4 -19 -27 -34 -41 -20 -14 14 0 43 20 39 10
-2 19 -10 21 -19z"/>
<path d="M6085 2010 c-3 -5 1 -10 10 -10 9 0 13 5 10 10 -3 6 -8 10 -10 10 -2
0 -7 -4 -10 -10z"/>
<path d="M5300 1990 c0 -5 18 -10 41 -10 24 0 38 4 34 10 -3 6 -22 10 -41 10
-19 0 -34 -4 -34 -10z"/>
<path d="M6080 1950 c0 -5 7 -10 16 -10 8 0 12 5 9 10 -3 6 -10 10 -16 10 -5
0 -9 -4 -9 -10z"/>
<path d="M4816 1615 c5 -11 -1 -15 -20 -15 -18 0 -30 -8 -38 -25 -16 -35 4
-55 54 -55 33 0 39 3 34 16 -3 9 -6 33 -6 55 0 28 -4 39 -15 39 -9 0 -12 -6
-9 -15z m2 -58 c4 -20 -25 -34 -40 -19 -15 15 -1 44 19 40 10 -2 19 -11 21
-21z"/>
<path d="M5113 1619 c27 -16 23 -77 -5 -89 -19 -7 -15 -9 22 -9 35 0 41 2 28
10 -13 7 -18 23 -18 54 0 40 -2 45 -22 45 -21 -1 -21 -2 -5 -11z"/>
<path d="M5655 1620 c-3 -5 1 -10 9 -10 23 0 22 -66 -1 -79 -14 -8 -10 -10 22
-10 32 0 36 2 23 10 -13 7 -18 23 -18 54 0 33 -4 45 -14 45 -8 0 -18 -4 -21
-10z"/>
<path d="M4538 1613 c15 -6 16 -65 0 -81 -9 -9 -2 -12 34 -12 26 0 49 4 53 9
3 6 3 28 -1 50 l-7 41 -46 -1 c-25 0 -40 -3 -33 -6z m63 -18 c0 -5 -9 -11 -21
-13 -20 -3 -27 8 -13 22 10 9 34 3 34 -9z m14 -44 c7 -12 -31 -25 -45 -16 -5
3 -10 10 -10 16 0 12 47 12 55 0z"/>
<path d="M4664 1592 c-37 -25 -15 -76 31 -70 22 2 31 9 33 26 6 40 -32 66 -64
44z m52 -23 c9 -16 -20 -41 -39 -33 -17 6 -22 25 -10 37 10 11 41 8 49 -4z"/>
<path d="M4860 1593 c1 -5 7 -19 15 -33 19 -33 19 -60 0 -60 -8 0 -15 -4 -15
-10 0 -5 11 -10 25 -10 16 0 25 6 25 15 0 9 9 33 20 55 24 47 24 50 5 50 -8 0
-15 -8 -15 -17 0 -10 -5 -25 -10 -33 -7 -12 -11 -8 -16 18 -4 17 -13 32 -20
32 -8 0 -14 -3 -14 -7z"/>
<path d="M5210 1590 c0 -5 5 -10 10 -10 17 0 11 -38 -7 -49 -14 -8 -8 -10 27
-10 25 1 37 3 28 6 -13 3 -18 15 -18 39 0 27 -4 34 -20 34 -11 0 -20 -4 -20
-10z"/>
<path d="M5305 1590 c-3 -5 -1 -10 4 -10 15 0 14 -33 -1 -48 -9 -9 -7 -12 9
-12 17 0 21 5 20 27 -1 19 3 28 17 31 16 3 18 -1 14 -27 -4 -24 -1 -31 12 -31
13 0 16 6 12 28 -2 15 -9 33 -15 40 -11 14 -63 16 -72 2z"/>
<path d="M5426 1584 c-32 -32 -11 -64 41 -64 18 0 33 5 33 11 0 6 -9 8 -20 4
-11 -3 -28 -2 -37 4 -15 8 -11 10 20 11 38 0 48 15 25 38 -17 17 -44 15 -62
-4z m47 -11 c-7 -2 -19 -2 -25 0 -7 3 -2 5 12 5 14 0 19 -2 13 -5z"/>
<path d="M4816 1405 c5 -11 -1 -15 -20 -15 -18 0 -30 -8 -38 -25 -16 -35 4
-55 54 -55 33 0 39 3 34 16 -3 9 -6 33 -6 55 0 28 -4 39 -15 39 -9 0 -12 -6
-9 -15z m2 -58 c4 -20 -25 -34 -40 -19 -15 15 -1 44 19 40 10 -2 19 -11 21
-21z"/>
<path d="M5113 1409 c27 -16 23 -77 -5 -89 -19 -7 -15 -9 22 -9 35 0 41 2 28
10 -13 7 -18 23 -18 54 0 40 -2 45 -22 45 -21 -1 -21 -2 -5 -11z"/>
<path d="M5650 1404 c0 -14 3 -14 15 -4 12 10 19 10 27 2 9 -9 4 -20 -20 -45
-18 -18 -32 -36 -32 -40 0 -4 18 -7 40 -7 22 0 40 5 40 11 0 6 -9 8 -20 4 -26
-8 -26 7 0 30 31 28 22 59 -17 63 -26 3 -33 -1 -33 -14z"/>
<path d="M4538 1403 c15 -6 16 -65 0 -81 -9 -9 -2 -12 34 -12 26 0 49 4 53 9
3 6 3 28 -1 50 l-7 41 -46 -1 c-25 0 -40 -3 -33 -6z m63 -18 c0 -5 -9 -11 -21
-13 -20 -3 -27 8 -13 22 10 9 34 3 34 -9z m14 -44 c7 -12 -31 -25 -45 -16 -5
3 -10 10 -10 16 0 12 47 12 55 0z"/>
<path d="M4664 1382 c-37 -25 -15 -76 31 -70 22 2 31 9 33 26 6 40 -32 66 -64
44z m52 -23 c9 -16 -20 -41 -39 -33 -17 6 -22 25 -10 37 10 11 41 8 49 -4z"/>
<path d="M4860 1383 c1 -5 7 -19 15 -33 19 -33 19 -60 0 -60 -8 0 -15 -4 -15
-10 0 -5 11 -10 25 -10 16 0 25 6 25 15 0 9 9 33 20 55 24 47 24 50 5 50 -8 0
-15 -8 -15 -17 0 -10 -5 -25 -10 -33 -7 -12 -11 -8 -16 18 -4 17 -13 32 -20
32 -8 0 -14 -3 -14 -7z"/>
<path d="M5210 1380 c0 -5 5 -10 10 -10 17 0 11 -38 -7 -49 -14 -8 -8 -10 27
-10 25 1 37 3 28 6 -13 3 -18 15 -18 39 0 27 -4 34 -20 34 -11 0 -20 -4 -20
-10z"/>
<path d="M5305 1380 c-3 -5 -1 -10 4 -10 15 0 14 -33 -1 -48 -9 -9 -7 -12 9
-12 17 0 21 5 20 27 -1 19 3 28 17 31 16 3 18 -1 14 -27 -4 -24 -1 -31 12 -31
13 0 16 6 12 28 -2 15 -9 33 -15 40 -11 14 -63 16 -72 2z"/>
<path d="M5426 1374 c-32 -32 -11 -64 41 -64 18 0 33 5 33 11 0 6 -9 8 -20 4
-11 -3 -28 -2 -37 4 -15 8 -11 10 20 11 38 0 48 15 25 38 -17 17 -44 15 -62
-4z m47 -11 c-7 -2 -19 -2 -25 0 -7 3 -2 5 12 5 14 0 19 -2 13 -5z"/>
<path d="M482 473 l3 -478 2 473 3 472 880 0 880 0 2 -472 c1 -260 4 -395 5
-301 l3 173 233 3 232 2 -232 3 -233 2 0 300 0 300 -890 0 -890 0 2 -477z"/>
<path d="M810 727 c-35 -18 -52 -55 -47 -106 6 -59 34 -86 92 -86 50 0 99 35
78 56 -8 8 -17 5 -32 -10 -26 -26 -52 -27 -82 -2 -44 35 -20 131 34 131 10 0
32 -8 48 -17 39 -23 51 -7 16 23 -31 26 -69 30 -107 11z"/>
<path d="M1287 733 c-4 -3 -7 -14 -7 -24 0 -9 -8 -20 -17 -24 -17 -6 -17 -7 0
-16 13 -8 17 -23 17 -69 0 -47 3 -60 15 -60 12 0 15 14 15 65 0 51 3 65 15 65
8 0 15 5 15 10 0 6 -7 10 -15 10 -8 0 -15 7 -15 15 0 8 7 15 15 15 8 0 15 5
15 10 0 11 -43 14 -53 3z"/>
<path d="M1352 728 c6 -18 28 -21 28 -4 0 9 -7 16 -16 16 -9 0 -14 -5 -12 -12z"/>
<path d="M1647 733 c-4 -3 -7 -14 -7 -24 0 -9 -8 -20 -17 -24 -17 -6 -17 -7 0
-16 13 -8 17 -23 17 -69 0 -47 3 -60 15 -60 12 0 15 14 15 65 0 51 3 65 15 65
12 0 15 -14 15 -65 0 -58 2 -65 20 -65 18 0 20 7 20 76 0 66 -2 75 -17 73 -37
-3 -53 2 -53 17 0 11 8 14 32 12 18 -2 33 2 35 10 3 8 -9 12 -39 12 -25 0 -48
-3 -51 -7z"/>
<path d="M1760 640 c0 -93 1 -100 20 -100 19 0 20 7 20 100 0 93 -1 100 -20
100 -19 0 -20 -7 -20 -100z"/>
<path d="M977 672 c-10 -11 -17 -36 -17 -60 0 -72 59 -105 111 -63 19 15 24
29 24 64 0 24 -6 51 -14 60 -19 23 -83 22 -104 -1z m67 -8 c23 -9 22 -92 0
-101 -39 -15 -68 42 -44 87 11 21 19 24 44 14z"/>
<path d="M1120 613 c0 -58 3 -73 15 -73 11 0 15 13 15 54 0 57 15 81 44 70 12
-5 16 -20 16 -65 0 -46 3 -59 15 -59 12 0 15 14 15 64 0 76 -9 86 -73 84 l-47
-2 0 -73z"/>
<path d="M1350 615 c0 -60 3 -75 15 -75 12 0 15 15 15 75 0 60 -3 75 -15 75
-12 0 -15 -15 -15 -75z"/>
<path d="M1418 673 c-16 -20 -17 -108 -1 -124 7 -7 29 -13 48 -12 22 1 35 -4
35 -12 0 -19 -27 -26 -55 -13 -30 13 -43 5 -25 -17 15 -18 83 -20 98 -2 6 7
12 53 14 103 l3 91 -52 1 c-36 1 -55 -3 -65 -15z m70 -15 c30 -30 3 -108 -33
-94 -19 7 -21 92 -2 99 19 8 22 8 35 -5z"/>
<path d="M1836 668 c-19 -27 -21 -88 -3 -111 20 -27 69 -32 97 -9 31 25 19 40
-16 22 -18 -10 -30 -11 -42 -4 -34 22 -25 34 27 34 27 0 52 4 55 9 8 12 -12
63 -27 73 -25 16 -76 8 -91 -14z m72 -10 c20 -20 14 -28 -23 -28 -33 0 -35 2
-25 20 12 23 30 26 48 8z"/>
<path d="M935 408 c-24 -34 -37 -96 -30 -137 8 -47 40 -101 60 -101 13 0 12 6
-5 40 -27 52 -27 133 0 183 16 30 17 37 6 37 -8 0 -22 -10 -31 -22z"/>
<path d="M1787 383 c29 -57 26 -123 -7 -180 -18 -30 -18 -34 -4 -31 29 5 55
52 61 110 5 46 1 65 -17 102 -14 29 -28 46 -40 46 -16 0 -15 -5 7 -47z"/>
<path d="M1002 368 c-28 -28 -8 -63 45 -77 39 -10 44 -41 6 -41 -16 0 -34 5
-41 12 -14 14 -27 4 -19 -16 8 -21 54 -31 86 -20 19 7 27 17 29 40 3 32 -1 36
-70 58 -10 3 -18 10 -18 15 0 16 29 21 55 9 30 -13 43 -5 25 17 -15 18 -81 20
-98 3z"/>
<path d="M1146 358 c-19 -27 -21 -88 -3 -111 20 -27 69 -32 97 -9 31 25 19 40
-16 22 -18 -10 -30 -11 -42 -4 -34 22 -25 34 27 34 27 0 52 4 55 9 8 12 -12
63 -27 73 -25 16 -76 8 -91 -14z m72 -10 c20 -20 14 -28 -23 -28 -33 0 -35 2
-25 20 12 23 30 26 48 8z"/>
<path d="M1290 304 c0 -59 3 -74 15 -74 11 0 15 12 15 44 0 59 8 76 35 76 19
0 27 -10 42 -57 15 -43 25 -59 40 -61 17 -3 25 9 48 68 15 39 25 74 22 77 -14
14 -35 -9 -47 -51 -7 -25 -16 -46 -20 -46 -3 0 -13 21 -21 48 l-15 47 -57 2
-57 1 0 -74z"/>
<path d="M1536 358 c-19 -27 -21 -88 -3 -111 20 -27 69 -32 97 -9 31 25 19 40
-16 22 -18 -10 -30 -11 -42 -4 -34 22 -25 34 27 34 27 0 52 4 55 9 8 12 -12
63 -27 73 -25 16 -76 8 -91 -14z m72 -10 c20 -20 14 -28 -23 -28 -33 0 -35 2
-25 20 12 23 30 26 48 8z"/>
<path d="M1680 304 c0 -59 3 -74 15 -74 11 0 15 12 15 44 0 57 8 76 31 76 10
0 19 6 19 14 0 11 -12 15 -40 14 l-40 0 0 -74z"/>
</g>
</svg>
