<?xml version="1.0" standalone="no"?>
<!DOCTYPE svg PUBLIC "-//W3C//DTD SVG 20010904//EN"
 "http://www.w3.org/TR/2001/REC-SVG-20010904/DTD/svg10.dtd">
<svg version="1.0" xmlns="http://www.w3.org/2000/svg"
 width="40%" height="30%" viewBox="0 0 800.000000 480.000000"
 preserveAspectRatio="xMidYMid meet">

<g transform="translate(0.000000,480.000000) scale(0.100000,-0.100000)"
fill="#000000" stroke="none">
<path d="M3650 4446 c0 -80 3 -96 15 -96 13 0 15 15 13 92 -2 62 -7 93 -15 96
-10 3 -13 -20 -13 -92z"/>
<path d="M3820 4520 c0 -13 5 -20 13 -17 6 2 12 10 12 17 0 7 -6 15 -12 18 -8
2 -13 -5 -13 -18z"/>
<path d="M4050 4446 c0 -80 3 -96 15 -96 13 0 15 15 13 92 -2 62 -7 93 -15 96
-10 3 -13 -20 -13 -92z"/>
<path d="M4394 4529 c-10 -17 13 -36 27 -22 12 12 4 33 -11 33 -5 0 -12 -5
-16 -11z"/>
<path d="M3266 4508 c-3 -13 -6 -53 -6 -90 0 -53 3 -68 15 -68 10 0 15 15 17
58 l3 57 27 -57 c15 -32 31 -58 36 -58 4 0 19 25 31 56 26 63 41 58 41 -13 0
-33 4 -43 16 -43 14 0 16 8 10 53 -3 28 -6 69 -6 90 0 29 -4 37 -18 37 -12 0
-26 -20 -46 -62 l-28 -63 -29 63 c-30 64 -52 78 -63 40z"/>
<path d="M3723 4500 c-3 -11 -9 -20 -14 -20 -5 0 -9 -7 -9 -15 0 -8 5 -15 10
-15 6 0 10 -14 10 -31 0 -17 5 -39 10 -50 12 -22 60 -26 60 -5 0 8 -8 13 -17
12 -14 -1 -19 8 -21 37 -3 32 0 37 17 37 12 0 21 7 21 15 0 8 -9 15 -20 15
-13 0 -20 7 -20 20 0 11 -5 20 -11 20 -6 0 -13 -9 -16 -20z"/>
<path d="M3493 4465 c-9 -24 4 -97 19 -106 7 -5 32 -8 55 -7 l43 1 0 63 c0 50
-3 64 -15 64 -11 0 -15 -12 -15 -49 0 -36 -4 -51 -16 -55 -27 -10 -44 13 -44
60 0 43 -15 59 -27 29z"/>
<path d="M3820 4415 c0 -51 3 -65 15 -65 12 0 15 14 15 65 0 51 -3 65 -15 65
-12 0 -15 -14 -15 -65z"/>
<path d="M3887 4473 c-4 -3 -7 -44 -7 -90 0 -67 3 -83 15 -83 10 0 15 11 15
35 0 32 2 34 18 24 48 -30 105 24 86 79 -12 33 -56 52 -84 34 -12 -7 -20 -8
-20 -2 0 11 -13 13 -23 3z m87 -29 c9 -8 16 -22 16 -29 0 -15 -27 -45 -40 -45
-13 0 -40 30 -40 45 0 15 27 45 40 45 5 0 16 -7 24 -16z"/>
<path d="M4127 4462 c-10 -10 -17 -32 -17 -49 0 -48 45 -76 94 -57 29 11 17
23 -20 21 -22 -1 -39 3 -41 11 -3 8 9 12 41 12 42 0 46 2 46 23 0 50 -70 76
-103 39z m61 -14 c19 -19 14 -28 -18 -28 -41 0 -40 33 1 39 3 1 10 -4 17 -11z"/>
<path d="M4250 4473 c0 -5 9 -19 20 -33 19 -25 19 -25 -6 -57 -21 -27 -22 -33
-9 -33 9 0 25 10 35 22 l17 22 14 -22 c8 -12 22 -22 32 -22 17 0 17 2 -2 29
-26 36 -26 42 0 75 18 23 18 26 4 26 -9 0 -25 -10 -35 -22 l-17 -22 -12 22
c-11 21 -41 31 -41 15z"/>
<path d="M4397 4473 c-4 -3 -7 -33 -7 -65 0 -45 3 -58 15 -58 12 0 15 14 15
65 0 60 -6 75 -23 58z"/>
<path d="M4460 4413 c0 -49 3 -63 15 -63 11 0 15 12 15 44 0 47 17 70 44 60
12 -4 16 -19 16 -55 0 -37 4 -49 15 -49 19 0 21 102 3 118 -7 6 -34 10 -60 10
l-48 -1 0 -64z"/>
<path d="M4630 4460 c-45 -45 -7 -117 56 -107 25 4 32 2 27 -8 -7 -19 -39 -28
-70 -20 -18 4 -24 2 -21 -7 7 -21 77 -22 99 -2 15 14 19 31 19 91 0 42 -4 73
-10 73 -5 0 -10 -5 -10 -10 0 -7 -6 -7 -19 0 -29 15 -49 12 -71 -10z m75 -24
c17 -25 12 -51 -11 -60 -40 -15 -73 45 -39 71 26 18 32 17 50 -11z"/>
<path d="M3519 3911 c22 -6 22 -7 6 -21 -16 -13 -15 -14 5 -22 27 -10 21 -33
-9 -32 -11 0 -21 -3 -21 -8 0 -5 12 -8 28 -6 32 4 45 44 17 54 -14 6 -14 8 1
25 16 18 16 19 -17 18 -29 -1 -31 -2 -10 -8z"/>
<path d="M3617 3913 c18 -4 23 -12 26 -51 l3 -47 2 47 c2 35 6 48 20 51 9 3
-3 5 -28 4 -25 0 -35 -2 -23 -4z"/>
<path d="M3702 3908 c-16 -16 -15 -50 1 -72 16 -21 68 -19 75 4 4 12 2 13 -9
3 -34 -33 -81 6 -58 48 8 17 17 20 40 15 19 -3 28 -2 24 4 -9 14 -59 12 -73
-2z"/>
<path d="M3800 3870 c0 -27 5 -50 10 -50 6 0 10 9 10 20 0 13 7 20 19 20 24 0
43 23 35 44 -4 10 -18 16 -40 16 l-34 0 0 -50z m55 20 c0 -8 -8 -16 -17 -18
-13 -2 -18 3 -18 18 0 15 5 20 18 18 9 -2 17 -10 17 -18z"/>
<path d="M4428 3903 c-8 -35 6 -78 27 -80 11 -2 14 0 8 3 -15 6 -18 51 -4 56
4 2 0 11 -9 21 -17 17 -18 17 -22 0z"/>
<path d="M3935 3887 c-27 -21 -13 -67 20 -67 14 0 25 4 25 9 0 5 -8 7 -19 4
-11 -3 -21 2 -25 12 -8 22 1 35 25 35 11 0 17 5 14 10 -8 13 -18 13 -40 -3z"/>
<path d="M4005 3884 c-19 -20 -16 -43 8 -58 37 -23 77 35 41 61 -23 17 -29 16
-49 -3z m48 -18 c7 -17 -18 -40 -33 -31 -5 3 -10 15 -10 26 0 23 35 27 43 5z"/>
<path d="M4108 3893 c-14 -3 -18 -14 -16 -41 l1 -37 4 33 c3 24 9 32 24 32 14
0 19 -7 19 -30 0 -16 5 -30 10 -30 6 0 10 13 10 30 0 31 -22 49 -52 43z"/>
<path d="M4198 3893 c-14 -3 -18 -14 -16 -41 l1 -37 4 33 c3 24 9 32 24 32 14
0 19 -7 19 -30 0 -16 5 -30 10 -30 6 0 10 13 10 30 0 31 -22 49 -52 43z"/>
<path d="M4276 3884 c-9 -8 -16 -21 -16 -28 0 -29 51 -49 65 -26 4 7 -2 9 -19
4 -16 -4 -26 -2 -26 5 0 6 11 11 25 11 27 0 33 18 13 38 -16 16 -23 15 -42 -4z
m44 -14 c0 -5 -9 -10 -20 -10 -11 0 -20 5 -20 10 0 6 9 10 20 10 11 0 20 -4
20 -10z"/>
<path d="M4365 3886 c-27 -19 -16 -60 18 -64 15 -2 27 1 27 6 0 5 -10 8 -22 8
-33 -1 -31 36 2 44 20 5 22 7 8 12 -9 4 -24 1 -33 -6z"/>
<path d="M4530 3886 c-6 -8 -10 -25 -8 -38 2 -18 9 -23 33 -23 24 0 31 5 33
24 3 15 -3 30 -14 38 -23 17 -29 16 -44 -1z m48 -29 c4 -20 -25 -34 -40 -19
-15 15 -1 44 19 40 10 -2 19 -11 21 -21z"/>
<path d="M4628 3893 c-13 -3 -18 -14 -17 -41 1 -36 1 -36 8 -7 4 21 12 30 26
30 14 0 22 -9 26 -30 l7 -30 1 31 c1 27 -14 56 -28 53 -4 -1 -14 -3 -23 -6z"/>
<path d="M4710 3890 c-16 -10 -6 -40 15 -40 23 0 18 -18 -7 -23 -20 -5 -20 -5
2 -4 32 2 39 32 9 40 -11 3 -18 10 -15 16 4 6 13 8 21 4 8 -3 15 -3 15 0 0 10
-27 15 -40 7z"/>
<path d="M4493 3855 c0 -22 2 -30 4 -17 2 12 2 30 0 40 -3 9 -5 -1 -4 -23z"/>
<path d="M2004 3727 c-3 -8 -4 -49 -2 -93 l3 -79 70 0 70 0 3 69 c4 96 -10
116 -84 116 -36 0 -56 -4 -60 -13z m96 -12 c0 -8 7 -15 15 -15 12 0 15 -14 15
-70 l0 -70 -55 0 -55 0 0 85 0 85 40 0 c29 0 40 -4 40 -15z"/>
<path d="M2053 3683 c15 -2 37 -2 50 0 12 2 0 4 -28 4 -27 0 -38 -2 -22 -4z"/>
<path d="M2053 3633 c15 -2 37 -2 50 0 12 2 0 4 -28 4 -27 0 -38 -2 -22 -4z"/>
<path d="M2053 3613 c15 -2 37 -2 50 0 12 2 0 4 -28 4 -27 0 -38 -2 -22 -4z"/>
<path d="M5154 3727 c-3 -8 -4 -49 -2 -93 l3 -79 70 0 70 0 3 69 c4 96 -10
116 -84 116 -36 0 -56 -4 -60 -13z m96 -12 c0 -8 7 -15 15 -15 12 0 15 -14 15
-70 l0 -70 -55 0 -55 0 0 85 0 85 40 0 c29 0 40 -4 40 -15z"/>
<path d="M5203 3683 c15 -2 37 -2 50 0 12 2 0 4 -28 4 -27 0 -38 -2 -22 -4z"/>
<path d="M5203 3633 c15 -2 37 -2 50 0 12 2 0 4 -28 4 -27 0 -38 -2 -22 -4z"/>
<path d="M5203 3613 c15 -2 37 -2 50 0 12 2 0 4 -28 4 -27 0 -38 -2 -22 -4z"/>
<path d="M3270 3685 l-34 -35 37 -37 c40 -40 65 -38 27 2 l-23 25 853 0 853 0
-23 -25 c-38 -41 -13 -42 28 -2 l37 37 -37 37 c-41 40 -66 39 -28 -2 l23 -25
-853 0 -853 0 21 23 c12 13 22 26 22 30 0 15 -18 5 -50 -28z"/>
<path d="M2315 3690 c-3 -5 -1 -10 4 -10 6 0 11 5 11 10 0 6 -2 10 -4 10 -3 0
-8 -4 -11 -10z"/>
<path d="M2780 3690 c0 -5 5 -10 11 -10 5 0 7 5 4 10 -3 6 -8 10 -11 10 -2 0
-4 -4 -4 -10z"/>
<path d="M5735 3690 c-3 -5 -1 -10 4 -10 6 0 11 5 11 10 0 6 -2 10 -4 10 -3 0
-8 -4 -11 -10z"/>
<path d="M6200 3690 c0 -5 5 -10 11 -10 5 0 7 5 4 10 -3 6 -8 10 -11 10 -2 0
-4 -4 -4 -10z"/>
<path d="M1710 3685 c0 -3 14 -14 31 -24 l32 -19 -39 -11 c-21 -6 -167 -46
-323 -90 -157 -44 -287 -79 -289 -77 -2 3 2 14 8 26 24 45 2 42 -25 -4 -30
-52 -31 -50 28 -82 41 -22 56 -12 18 13 l-33 20 314 88 c172 49 319 91 327 93
11 4 12 1 7 -14 -28 -68 -10 -70 25 -2 22 44 23 43 -33 73 -27 15 -48 19 -48
10z"/>
<path d="M6450 3668 c-19 -12 -37 -23 -39 -24 -2 -2 9 -25 25 -51 15 -26 29
-42 32 -35 2 7 -3 24 -12 37 -9 14 -13 25 -9 25 5 0 134 -36 288 -79 154 -44
300 -84 324 -91 l45 -12 -34 -21 c-39 -24 -25 -35 17 -13 59 32 58 30 28 82
-16 27 -30 43 -33 36 -2 -7 3 -24 12 -37 9 -14 13 -25 9 -25 -5 0 -134 36
-288 79 -154 44 -300 84 -324 91 l-44 12 32 19 c17 10 31 21 31 24 0 11 -27 4
-60 -17z"/>
<path d="M2317 3663 c-4 -3 -7 -25 -7 -49 0 -24 -5 -44 -12 -47 -7 -3 -3 -6
10 -6 20 -1 22 3 22 54 0 56 -1 60 -13 48z"/>
<path d="M2360 3660 c-6 -4 -10 -20 -8 -36 2 -23 8 -29 28 -29 16 0 27 -7 32
-20 3 -12 6 3 7 35 1 51 -1 55 -23 56 -13 1 -29 -2 -36 -6z m48 -33 c4 -20
-25 -34 -40 -19 -15 15 -1 44 19 40 10 -2 19 -11 21 -21z"/>
<path d="M2446 3657 c-5 -9 -5 -28 -2 -42 5 -20 13 -25 36 -25 29 0 30 2 29
43 l-2 42 -6 -35 c-4 -22 -12 -35 -21 -35 -9 0 -17 13 -21 35 -4 27 -7 31 -13
17z"/>
<path d="M2540 3656 c-19 -24 -8 -61 19 -64 13 -2 28 2 35 8 8 9 4 10 -16 5
-18 -5 -28 -3 -28 4 0 6 11 11 25 11 27 0 33 18 13 38 -16 16 -33 15 -48 -2z
m40 -16 c0 -5 -7 -10 -15 -10 -8 0 -15 5 -15 10 0 6 7 10 15 10 8 0 15 -4 15
-10z"/>
<path d="M2621 3625 c2 -31 3 -34 6 -12 3 16 11 31 19 34 21 8 17 22 -6 20
-17 -1 -20 -8 -19 -42z"/>
<path d="M2670 3661 c0 -8 5 -30 12 -48 10 -29 10 -36 -2 -43 -13 -8 -13 -10
1 -10 16 0 65 98 54 108 -3 3 -11 -9 -17 -26 l-12 -32 -18 32 c-9 18 -17 27
-18 19z"/>
<path d="M2820 3656 c-9 -12 -7 -17 9 -28 26 -16 27 -25 4 -31 -14 -4 -13 -5
4 -6 33 -2 39 19 12 40 l-24 19 23 0 c13 0 20 4 17 10 -9 14 -31 12 -45 -4z"/>
<path d="M5737 3663 c-4 -3 -7 -25 -7 -49 0 -24 -5 -44 -12 -47 -7 -3 -3 -6
10 -6 20 -1 22 3 22 54 0 56 -1 60 -13 48z"/>
<path d="M5780 3660 c-6 -4 -10 -20 -8 -36 2 -23 8 -29 28 -29 16 0 27 -7 32
-20 3 -12 6 3 7 35 1 51 -1 55 -23 56 -13 1 -29 -2 -36 -6z m48 -33 c4 -20
-25 -34 -40 -19 -15 15 -1 44 19 40 10 -2 19 -11 21 -21z"/>
<path d="M5866 3657 c-5 -9 -5 -28 -2 -42 5 -20 13 -25 36 -25 29 0 30 2 29
43 l-2 42 -6 -35 c-4 -22 -12 -35 -21 -35 -9 0 -17 13 -21 35 -4 27 -7 31 -13
17z"/>
<path d="M5960 3656 c-19 -24 -8 -61 19 -64 13 -2 28 2 35 8 8 9 4 10 -16 5
-18 -5 -28 -3 -28 4 0 6 11 11 25 11 27 0 33 18 13 38 -16 16 -33 15 -48 -2z
m40 -16 c0 -5 -7 -10 -15 -10 -8 0 -15 5 -15 10 0 6 7 10 15 10 8 0 15 -4 15
-10z"/>
<path d="M6041 3625 c2 -31 3 -34 6 -12 3 16 11 31 19 34 21 8 17 22 -6 20
-17 -1 -20 -8 -19 -42z"/>
<path d="M6090 3661 c0 -8 5 -30 12 -48 10 -29 10 -36 -2 -43 -13 -8 -13 -10
1 -10 16 0 65 98 54 108 -3 3 -11 -9 -17 -26 l-12 -32 -18 32 c-9 18 -17 27
-18 19z"/>
<path d="M6240 3656 c-9 -12 -7 -17 9 -28 26 -16 27 -25 4 -31 -14 -4 -13 -5
4 -6 33 -2 39 19 12 40 l-24 19 23 0 c13 0 20 4 17 10 -9 14 -31 12 -45 -4z"/>
<path d="M2780 3616 c0 -26 -5 -47 -12 -50 -7 -3 -4 -5 7 -3 16 2 21 11 23 50
2 28 -1 47 -7 47 -6 0 -11 -20 -11 -44z"/>
<path d="M6200 3616 c0 -26 -5 -47 -12 -50 -7 -3 -4 -5 7 -3 16 2 21 11 23 50
2 28 -1 47 -7 47 -6 0 -11 -20 -11 -44z"/>
<path d="M2745 3600 c-3 -5 -1 -10 4 -10 6 0 11 5 11 10 0 6 -2 10 -4 10 -3 0
-8 -4 -11 -10z"/>
<path d="M6165 3600 c-3 -5 -1 -10 4 -10 6 0 11 5 11 10 0 6 -2 10 -4 10 -3 0
-8 -4 -11 -10z"/>
<path d="M7243 3593 c-9 -3 -13 -28 -13 -73 0 -84 6 -100 36 -100 35 0 30 -26
-6 -33 -30 -6 -30 -7 -30 -76 0 -85 6 -101 36 -101 35 0 30 -26 -6 -33 l-30
-6 0 -73 c0 -40 4 -79 8 -86 7 -9 73 -12 298 -10 l289 3 3 65 c4 88 -2 110
-33 110 -35 0 -32 28 3 32 26 3 27 5 30 68 4 88 -2 110 -33 110 -35 0 -32 28
3 32 26 3 27 5 30 68 2 35 0 75 -3 87 l-5 23 -283 -1 c-155 0 -288 -3 -294 -6z
m567 -83 l0 -70 -280 0 -280 0 0 70 0 70 280 0 280 0 0 -70z m-480 -105 c0 -8
-4 -15 -10 -15 -5 0 -10 7 -10 15 0 8 5 15 10 15 6 0 10 -7 10 -15z m380 0 c0
-13 -27 -15 -180 -15 -153 0 -180 2 -180 15 0 13 27 15 180 15 153 0 180 -2
180 -15z m40 0 c0 -8 -4 -15 -10 -15 -5 0 -10 7 -10 15 0 8 5 15 10 15 6 0 10
-7 10 -15z m60 -105 l0 -70 -280 0 -280 0 0 70 0 70 280 0 280 0 0 -70z m-480
-105 c0 -8 -4 -15 -10 -15 -5 0 -10 7 -10 15 0 8 5 15 10 15 6 0 10 -7 10 -15z
m380 0 c0 -13 -27 -15 -180 -15 -153 0 -180 2 -180 15 0 13 27 15 180 15 153
0 180 -2 180 -15z m40 0 c0 -8 -4 -15 -10 -15 -5 0 -10 7 -10 15 0 8 5 15 10
15 6 0 10 -7 10 -15z m60 -105 l0 -70 -280 0 -280 0 0 70 0 70 280 0 280 0 0
-70z"/>
<path d="M7590 3550 c0 -5 5 -10 10 -10 6 0 10 5 10 10 0 6 -4 10 -10 10 -5 0
-10 -4 -10 -10z"/>
<path d="M7630 3550 c0 -5 5 -10 10 -10 6 0 10 5 10 10 0 6 -4 10 -10 10 -5 0
-10 -4 -10 -10z"/>
<path d="M7670 3550 c0 -5 5 -10 10 -10 6 0 10 5 10 10 0 6 -4 10 -10 10 -5 0
-10 -4 -10 -10z"/>
<path d="M7710 3550 c0 -5 5 -10 10 -10 6 0 10 5 10 10 0 6 -4 10 -10 10 -5 0
-10 -4 -10 -10z"/>
<path d="M7750 3550 c0 -5 5 -10 10 -10 6 0 10 5 10 10 0 6 -4 10 -10 10 -5 0
-10 -4 -10 -10z"/>
<path d="M7303 3533 c-19 -7 -16 -43 3 -50 9 -3 25 -1 35 5 11 7 60 12 119 12
60 0 100 4 100 10 0 6 -43 10 -110 10 -67 0 -110 4 -110 10 0 10 -16 12 -37 3z
m27 -23 c0 -5 -4 -10 -10 -10 -5 0 -10 5 -10 10 0 6 5 10 10 10 6 0 10 -4 10
-10z"/>
<path d="M7590 3510 c0 -5 5 -10 10 -10 6 0 10 5 10 10 0 6 -4 10 -10 10 -5 0
-10 -4 -10 -10z"/>
<path d="M7630 3510 c0 -5 5 -10 10 -10 6 0 10 5 10 10 0 6 -4 10 -10 10 -5 0
-10 -4 -10 -10z"/>
<path d="M7670 3510 c0 -5 5 -10 10 -10 6 0 10 5 10 10 0 6 -4 10 -10 10 -5 0
-10 -4 -10 -10z"/>
<path d="M7710 3510 c0 -5 5 -10 10 -10 6 0 10 5 10 10 0 6 -4 10 -10 10 -5 0
-10 -4 -10 -10z"/>
<path d="M7750 3510 c0 -5 5 -10 10 -10 6 0 10 5 10 10 0 6 -4 10 -10 10 -5 0
-10 -4 -10 -10z"/>
<path d="M7590 3470 c0 -5 5 -10 10 -10 6 0 10 5 10 10 0 6 -4 10 -10 10 -5 0
-10 -4 -10 -10z"/>
<path d="M7630 3470 c0 -5 5 -10 10 -10 6 0 10 5 10 10 0 6 -4 10 -10 10 -5 0
-10 -4 -10 -10z"/>
<path d="M7670 3470 c0 -5 5 -10 10 -10 6 0 10 5 10 10 0 6 -4 10 -10 10 -5 0
-10 -4 -10 -10z"/>
<path d="M7710 3470 c0 -5 5 -10 10 -10 6 0 10 5 10 10 0 6 -4 10 -10 10 -5 0
-10 -4 -10 -10z"/>
<path d="M7750 3470 c0 -5 5 -10 10 -10 6 0 10 5 10 10 0 6 -4 10 -10 10 -5 0
-10 -4 -10 -10z"/>
<path d="M7590 3340 c0 -5 5 -10 10 -10 6 0 10 5 10 10 0 6 -4 10 -10 10 -5 0
-10 -4 -10 -10z"/>
<path d="M7630 3340 c0 -5 5 -10 10 -10 6 0 10 5 10 10 0 6 -4 10 -10 10 -5 0
-10 -4 -10 -10z"/>
<path d="M7670 3340 c0 -5 5 -10 10 -10 6 0 10 5 10 10 0 6 -4 10 -10 10 -5 0
-10 -4 -10 -10z"/>
<path d="M7710 3340 c0 -5 5 -10 10 -10 6 0 10 5 10 10 0 6 -4 10 -10 10 -5 0
-10 -4 -10 -10z"/>
<path d="M7750 3340 c0 -5 5 -10 10 -10 6 0 10 5 10 10 0 6 -4 10 -10 10 -5 0
-10 -4 -10 -10z"/>
<path d="M7303 3323 c-19 -7 -16 -43 3 -50 9 -3 25 -1 35 5 11 7 60 12 119 12
60 0 100 4 100 10 0 6 -43 10 -110 10 -67 0 -110 4 -110 10 0 10 -16 12 -37 3z
m27 -23 c0 -5 -4 -10 -10 -10 -5 0 -10 5 -10 10 0 6 5 10 10 10 6 0 10 -4 10
-10z"/>
<path d="M7590 3300 c0 -5 5 -10 10 -10 6 0 10 5 10 10 0 6 -4 10 -10 10 -5 0
-10 -4 -10 -10z"/>
<path d="M7630 3300 c0 -5 5 -10 10 -10 6 0 10 5 10 10 0 6 -4 10 -10 10 -5 0
-10 -4 -10 -10z"/>
<path d="M7670 3300 c0 -5 5 -10 10 -10 6 0 10 5 10 10 0 6 -4 10 -10 10 -5 0
-10 -4 -10 -10z"/>
<path d="M7710 3300 c0 -5 5 -10 10 -10 6 0 10 5 10 10 0 6 -4 10 -10 10 -5 0
-10 -4 -10 -10z"/>
<path d="M7750 3300 c0 -5 5 -10 10 -10 6 0 10 5 10 10 0 6 -4 10 -10 10 -5 0
-10 -4 -10 -10z"/>
<path d="M7590 3260 c0 -5 5 -10 10 -10 6 0 10 5 10 10 0 6 -4 10 -10 10 -5 0
-10 -4 -10 -10z"/>
<path d="M7630 3260 c0 -5 5 -10 10 -10 6 0 10 5 10 10 0 6 -4 10 -10 10 -5 0
-10 -4 -10 -10z"/>
<path d="M7670 3260 c0 -5 5 -10 10 -10 6 0 10 5 10 10 0 6 -4 10 -10 10 -5 0
-10 -4 -10 -10z"/>
<path d="M7710 3260 c0 -5 5 -10 10 -10 6 0 10 5 10 10 0 6 -4 10 -10 10 -5 0
-10 -4 -10 -10z"/>
<path d="M7750 3260 c0 -5 5 -10 10 -10 6 0 10 5 10 10 0 6 -4 10 -10 10 -5 0
-10 -4 -10 -10z"/>
<path d="M7590 3130 c0 -5 5 -10 10 -10 6 0 10 5 10 10 0 6 -4 10 -10 10 -5 0
-10 -4 -10 -10z"/>
<path d="M7630 3130 c0 -5 5 -10 10 -10 6 0 10 5 10 10 0 6 -4 10 -10 10 -5 0
-10 -4 -10 -10z"/>
<path d="M7670 3130 c0 -5 5 -10 10 -10 6 0 10 5 10 10 0 6 -4 10 -10 10 -5 0
-10 -4 -10 -10z"/>
<path d="M7710 3130 c0 -5 5 -10 10 -10 6 0 10 5 10 10 0 6 -4 10 -10 10 -5 0
-10 -4 -10 -10z"/>
<path d="M7750 3130 c0 -5 5 -10 10 -10 6 0 10 5 10 10 0 6 -4 10 -10 10 -5 0
-10 -4 -10 -10z"/>
<path d="M7303 3113 c-19 -7 -16 -43 3 -50 9 -3 25 -1 35 5 11 7 60 12 119 12
60 0 100 4 100 10 0 6 -43 10 -110 10 -67 0 -110 4 -110 10 0 10 -16 12 -37 3z
m27 -23 c0 -5 -4 -10 -10 -10 -5 0 -10 5 -10 10 0 6 5 10 10 10 6 0 10 -4 10
-10z"/>
<path d="M7590 3090 c0 -5 5 -10 10 -10 6 0 10 5 10 10 0 6 -4 10 -10 10 -5 0
-10 -4 -10 -10z"/>
<path d="M7630 3090 c0 -5 5 -10 10 -10 6 0 10 5 10 10 0 6 -4 10 -10 10 -5 0
-10 -4 -10 -10z"/>
<path d="M7670 3090 c0 -5 5 -10 10 -10 6 0 10 5 10 10 0 6 -4 10 -10 10 -5 0
-10 -4 -10 -10z"/>
<path d="M7710 3090 c0 -5 5 -10 10 -10 6 0 10 5 10 10 0 6 -4 10 -10 10 -5 0
-10 -4 -10 -10z"/>
<path d="M7750 3090 c0 -5 5 -10 10 -10 6 0 10 5 10 10 0 6 -4 10 -10 10 -5 0
-10 -4 -10 -10z"/>
<path d="M7590 3050 c0 -5 5 -10 10 -10 6 0 10 5 10 10 0 6 -4 10 -10 10 -5 0
-10 -4 -10 -10z"/>
<path d="M7630 3050 c0 -5 5 -10 10 -10 6 0 10 5 10 10 0 6 -4 10 -10 10 -5 0
-10 -4 -10 -10z"/>
<path d="M7670 3050 c0 -5 5 -10 10 -10 6 0 10 5 10 10 0 6 -4 10 -10 10 -5 0
-10 -4 -10 -10z"/>
<path d="M7710 3050 c0 -5 5 -10 10 -10 6 0 10 5 10 10 0 6 -4 10 -10 10 -5 0
-10 -4 -10 -10z"/>
<path d="M7750 3050 c0 -5 5 -10 10 -10 6 0 10 5 10 10 0 6 -4 10 -10 10 -5 0
-10 -4 -10 -10z"/>
<path d="M321 3534 c-20 -25 -21 -39 -21 -256 l0 -229 25 -24 24 -25 271 0
271 0 24 25 25 24 0 229 c0 217 -1 231 -21 256 l-20 26 -279 0 -279 0 -20 -26z
m589 -13 c5 -11 10 -33 10 -50 l0 -31 -300 0 -300 0 0 34 c0 66 1 66 305 66
261 0 275 -1 285 -19z m10 -285 c0 -154 -3 -187 -16 -200 -23 -24 -545 -24
-568 0 -13 13 -16 46 -16 200 l0 184 300 0 300 0 0 -184z"/>
<path d="M354 3506 c-10 -26 4 -48 28 -44 17 2 23 10 23 28 0 18 -6 26 -23 28
-13 2 -25 -3 -28 -12z m36 -16 c0 -5 -4 -10 -9 -10 -6 0 -13 5 -16 10 -3 6 1
10 9 10 9 0 16 -4 16 -10z"/>
<path d="M432 3508 c-15 -15 3 -48 27 -48 21 0 33 22 25 45 -7 18 -35 20 -52
3z m38 -18 c0 -5 -7 -10 -15 -10 -8 0 -15 5 -15 10 0 6 7 10 15 10 8 0 15 -4
15 -10z"/>
<path d="M506 3505 c-13 -36 24 -61 52 -33 7 7 8 17 1 30 -12 22 -45 24 -53 3z
m44 -15 c0 -5 -7 -10 -15 -10 -8 0 -15 5 -15 10 0 6 7 10 15 10 8 0 15 -4 15
-10z"/>
<path d="M390 3215 l0 -125 105 0 105 0 0 125 0 125 -105 0 -105 0 0 -125z
m190 -5 l0 -111 -87 3 -88 3 -3 108 -3 107 91 0 90 0 0 -110z"/>
<path d="M670 3330 c0 -6 37 -10 90 -10 53 0 90 4 90 10 0 6 -37 10 -90 10
-53 0 -90 -4 -90 -10z"/>
<path d="M665 3250 c3 -5 46 -10 96 -10 53 0 89 4 89 10 0 6 -39 10 -96 10
-61 0 -93 -4 -89 -10z"/>
<path d="M708 3173 c29 -2 74 -2 100 0 26 2 2 3 -53 3 -55 0 -76 -1 -47 -3z"/>
<path d="M708 3093 c29 -2 74 -2 100 0 26 2 2 3 -53 3 -55 0 -76 -1 -47 -3z"/>
<path d="M2004 3337 c-3 -8 -4 -49 -2 -93 l3 -79 70 0 70 0 3 69 c4 96 -10
116 -84 116 -36 0 -56 -4 -60 -13z m96 -12 c0 -8 7 -15 15 -15 12 0 15 -14 15
-70 l0 -70 -55 0 -55 0 0 85 0 85 40 0 c29 0 40 -4 40 -15z"/>
<path d="M2053 3293 c15 -2 37 -2 50 0 12 2 0 4 -28 4 -27 0 -38 -2 -22 -4z"/>
<path d="M2053 3243 c15 -2 37 -2 50 0 12 2 0 4 -28 4 -27 0 -38 -2 -22 -4z"/>
<path d="M2053 3223 c15 -2 37 -2 50 0 12 2 0 4 -28 4 -27 0 -38 -2 -22 -4z"/>
<path d="M5154 3337 c-3 -8 -4 -49 -2 -93 l3 -79 70 0 70 0 3 69 c4 96 -10
116 -84 116 -36 0 -56 -4 -60 -13z m96 -12 c0 -8 7 -15 15 -15 12 0 15 -14 15
-70 l0 -70 -55 0 -55 0 0 85 0 85 40 0 c29 0 40 -4 40 -15z"/>
<path d="M5203 3293 c15 -2 37 -2 50 0 12 2 0 4 -28 4 -27 0 -38 -2 -22 -4z"/>
<path d="M5203 3243 c15 -2 37 -2 50 0 12 2 0 4 -28 4 -27 0 -38 -2 -22 -4z"/>
<path d="M5203 3223 c15 -2 37 -2 50 0 12 2 0 4 -28 4 -27 0 -38 -2 -22 -4z"/>
<path d="M2780 3275 c0 -30 5 -55 10 -55 6 0 10 25 10 55 0 30 -4 55 -10 55
-5 0 -10 -25 -10 -55z"/>
<path d="M5940 3275 c0 -30 5 -55 10 -55 6 0 10 25 10 55 0 30 -4 55 -10 55
-5 0 -10 -25 -10 -55z"/>
<path d="M1110 3275 l-34 -35 37 -37 c40 -40 65 -38 27 2 l-23 25 328 0 328 0
-23 -25 c-38 -41 -13 -42 28 -2 l37 37 -37 37 c-41 40 -66 39 -28 -2 l23 -25
-328 0 -328 0 21 23 c12 13 22 26 22 30 0 15 -18 5 -50 -28z"/>
<path d="M3270 3275 l-34 -35 37 -37 c40 -40 65 -38 27 2 l-23 25 853 0 853 0
-23 -25 c-38 -41 -13 -42 28 -2 l37 37 -37 37 c-41 40 -66 39 -28 -2 l23 -25
-853 0 -853 0 21 23 c12 13 22 26 22 30 0 15 -18 5 -50 -28z"/>
<path d="M6440 3275 l-34 -35 37 -37 c40 -40 65 -38 27 2 l-23 25 328 0 328 0
-23 -25 c-38 -41 -13 -42 28 -2 l37 37 -37 37 c-41 40 -66 39 -28 -2 l23 -25
-328 0 -328 0 21 23 c12 13 22 26 22 30 0 15 -18 5 -50 -28z"/>
<path d="M2320 3286 c-19 -24 -8 -61 19 -64 13 -2 28 2 35 8 8 9 4 10 -16 5
-18 -5 -28 -3 -28 4 0 6 11 11 25 11 27 0 33 18 13 38 -16 16 -33 15 -48 -2z
m40 -16 c0 -5 -7 -10 -15 -10 -8 0 -15 5 -15 10 0 6 7 10 15 10 8 0 15 -4 15
-10z"/>
<path d="M2390 3294 c0 -5 5 -15 11 -21 8 -8 8 -17 0 -32 -7 -12 -8 -21 -2
-21 5 0 11 6 14 13 4 10 7 10 18 0 18 -18 34 -16 20 1 -7 8 -9 26 -6 43 6 25
5 26 -8 11 -13 -16 -15 -16 -30 0 -9 9 -17 12 -17 6z"/>
<path d="M2475 3290 c-3 -5 3 -10 14 -10 12 0 21 -4 21 -10 0 -5 -9 -10 -20
-10 -13 0 -20 -7 -20 -20 0 -16 7 -20 30 -20 26 0 30 4 30 28 0 41 -38 70 -55
42z m35 -50 c0 -5 -7 -10 -15 -10 -8 0 -15 5 -15 10 0 6 7 10 15 10 8 0 15 -4
15 -10z"/>
<path d="M2550 3258 c0 -21 5 -38 10 -38 6 0 10 14 10 30 0 20 5 30 15 30 10
0 15 -10 15 -30 0 -16 5 -30 10 -30 6 0 10 14 10 30 0 20 5 30 15 30 10 0 15
-10 15 -30 0 -16 5 -30 10 -30 14 0 12 57 -2 67 -7 4 -34 8 -60 8 l-48 0 0
-37z"/>
<path d="M2691 3240 c1 -30 4 -45 6 -34 3 17 9 20 25 16 25 -6 48 20 41 48 -6
22 -6 22 -45 24 -28 2 -28 1 -27 -54z m54 15 c0 -11 -7 -21 -16 -23 -18 -3
-33 23 -23 39 10 17 39 5 39 -16z"/>
<path d="M2826 3284 c-9 -8 -16 -21 -16 -28 0 -30 51 -49 66 -25 4 7 0 9 -14
5 -11 -4 -23 -2 -27 4 -4 6 4 10 19 10 32 0 40 14 20 34 -19 20 -29 20 -48 0z
m44 -14 c0 -5 -9 -10 -20 -10 -11 0 -20 5 -20 10 0 6 9 10 20 10 11 0 20 -4
20 -10z"/>
<path d="M2940 3286 c-20 -26 -8 -61 23 -64 15 -2 27 1 27 6 0 5 -8 9 -17 8
-12 0 -19 7 -21 22 -3 17 2 22 18 22 12 0 18 5 15 10 -9 14 -31 12 -45 -4z"/>
<path d="M3013 3284 c-4 -11 2 -23 17 -34 l24 -18 -25 -5 c-23 -4 -23 -4 4 -6
34 -1 38 31 5 47 l-23 11 23 0 c13 1 20 5 17 11 -10 16 -35 12 -42 -6z"/>
<path d="M3080 3286 c-9 -12 -7 -17 9 -28 26 -16 27 -25 4 -31 -11 -3 -7 -5
10 -6 34 -1 38 33 5 44 l-23 8 23 4 c12 2 20 9 17 14 -9 14 -31 11 -45 -5z"/>
<path d="M5480 3286 c-19 -24 -8 -61 19 -64 13 -2 28 2 35 8 8 9 4 10 -16 5
-18 -5 -28 -3 -28 4 0 6 11 11 25 11 27 0 33 18 13 38 -16 16 -33 15 -48 -2z
m40 -16 c0 -5 -7 -10 -15 -10 -8 0 -15 5 -15 10 0 6 7 10 15 10 8 0 15 -4 15
-10z"/>
<path d="M5550 3294 c0 -5 5 -15 11 -21 8 -8 8 -17 0 -32 -7 -12 -8 -21 -2
-21 5 0 11 6 14 13 4 10 7 10 18 0 18 -18 34 -16 20 1 -7 8 -9 26 -6 43 6 25
5 26 -8 11 -13 -16 -15 -16 -30 0 -9 9 -17 12 -17 6z"/>
<path d="M5635 3290 c-3 -5 3 -10 14 -10 12 0 21 -4 21 -10 0 -5 -9 -10 -20
-10 -13 0 -20 -7 -20 -20 0 -16 7 -20 30 -20 26 0 30 4 30 28 0 41 -38 70 -55
42z m35 -50 c0 -5 -7 -10 -15 -10 -8 0 -15 5 -15 10 0 6 7 10 15 10 8 0 15 -4
15 -10z"/>
<path d="M5710 3258 c0 -21 5 -38 10 -38 6 0 10 14 10 30 0 20 5 30 15 30 10
0 15 -10 15 -30 0 -16 5 -30 10 -30 6 0 10 14 10 30 0 20 5 30 15 30 10 0 15
-10 15 -30 0 -16 5 -30 10 -30 14 0 12 57 -2 67 -7 4 -34 8 -60 8 l-48 0 0
-37z"/>
<path d="M5851 3240 c1 -30 4 -45 6 -34 3 17 9 20 25 16 25 -6 48 20 41 48 -6
22 -6 22 -45 24 -28 2 -28 1 -27 -54z m54 15 c0 -11 -7 -21 -16 -23 -18 -3
-33 23 -23 39 10 17 39 5 39 -16z"/>
<path d="M5986 3284 c-9 -8 -16 -21 -16 -28 0 -30 51 -49 66 -25 4 7 0 9 -14
5 -11 -4 -23 -2 -27 4 -4 6 4 10 19 10 32 0 40 14 20 34 -19 20 -29 20 -48 0z
m44 -14 c0 -5 -9 -10 -20 -10 -11 0 -20 5 -20 10 0 6 9 10 20 10 11 0 20 -4
20 -10z"/>
<path d="M6100 3286 c-20 -26 -8 -61 23 -64 15 -2 27 1 27 6 0 5 -8 9 -17 8
-12 0 -19 7 -21 22 -3 17 2 22 18 22 12 0 18 5 15 10 -9 14 -31 12 -45 -4z"/>
<path d="M6173 3284 c-4 -11 2 -23 17 -34 l24 -18 -25 -5 c-23 -4 -23 -4 4 -6
34 -1 38 31 5 47 l-23 11 23 0 c13 1 20 5 17 11 -10 16 -35 12 -42 -6z"/>
<path d="M6240 3286 c-9 -12 -7 -17 9 -28 26 -16 27 -25 4 -31 -11 -3 -7 -5
10 -6 34 -1 38 33 5 44 l-23 8 23 4 c12 2 20 9 17 14 -9 14 -31 11 -45 -5z"/>
<path d="M2900 3230 c0 -5 5 -10 11 -10 5 0 7 5 4 10 -3 6 -8 10 -11 10 -2 0
-4 -4 -4 -10z"/>
<path d="M6060 3230 c0 -5 5 -10 11 -10 5 0 7 5 4 10 -3 6 -8 10 -11 10 -2 0
-4 -4 -4 -10z"/>
<path d="M1120 3078 c-19 -12 -37 -23 -39 -24 -2 -2 9 -25 25 -51 15 -26 29
-42 32 -35 2 7 -3 24 -12 37 -9 14 -13 25 -9 25 5 0 134 -36 288 -79 154 -44
300 -84 324 -91 l45 -12 -34 -21 c-39 -24 -25 -35 17 -13 59 32 58 30 28 82
-16 27 -30 43 -33 36 -2 -7 3 -24 12 -37 9 -14 13 -25 9 -25 -5 0 -134 36
-288 79 -154 44 -300 84 -324 91 l-44 12 32 19 c17 10 31 21 31 24 0 11 -27 4
-60 -17z"/>
<path d="M7040 3095 c0 -3 14 -14 31 -24 l32 -19 -39 -11 c-21 -6 -167 -46
-323 -90 -157 -44 -287 -79 -289 -77 -2 3 2 14 8 26 24 45 2 42 -25 -4 -30
-52 -31 -50 28 -82 41 -22 56 -12 18 13 l-33 20 314 88 c172 49 319 91 327 93
11 4 12 1 7 -14 -28 -68 -10 -70 25 -2 22 44 23 43 -33 73 -27 15 -48 19 -48
10z"/>
<path d="M2007 2964 c-4 -4 -7 -49 -7 -101 l0 -93 100 0 101 0 -3 98 -3 97
-90 3 c-50 1 -94 0 -98 -4z m178 -94 l0 -85 -85 0 -85 0 -3 74 c-2 41 -1 80 2
88 4 11 25 13 88 11 l83 -3 0 -85z"/>
<path d="M2104 2909 c-10 -17 13 -36 27 -22 12 12 4 33 -11 33 -5 0 -12 -5
-16 -11z"/>
<path d="M2050 2845 l-23 -25 73 0 c73 0 73 0 55 20 -10 12 -25 18 -32 16 -7
-3 -15 -1 -18 4 -10 17 -31 11 -55 -15z"/>
<path d="M5157 2964 c-4 -4 -7 -49 -7 -101 l0 -93 100 0 101 0 -3 98 -3 97
-90 3 c-50 1 -94 0 -98 -4z m178 -94 l0 -85 -85 0 -85 0 -3 74 c-2 41 -1 80 2
88 4 11 25 13 88 11 l83 -3 0 -85z"/>
<path d="M5254 2909 c-10 -17 13 -36 27 -22 12 12 4 33 -11 33 -5 0 -12 -5
-16 -11z"/>
<path d="M5200 2845 l-23 -25 73 0 c73 0 73 0 55 20 -10 12 -25 18 -32 16 -7
-3 -15 -1 -18 4 -10 17 -31 11 -55 -15z"/>
<path d="M2365 2920 c-3 -5 -1 -10 4 -10 6 0 11 5 11 10 0 6 -2 10 -4 10 -3 0
-8 -4 -11 -10z"/>
<path d="M5525 2920 c-3 -5 -1 -10 4 -10 6 0 11 5 11 10 0 6 -2 10 -4 10 -3 0
-8 -4 -11 -10z"/>
<path d="M2367 2893 c-11 -10 -8 -73 3 -73 6 0 10 18 10 40 0 41 -2 45 -13 33z"/>
<path d="M2401 2855 l1 -40 9 33 c12 41 39 43 39 2 0 -16 5 -30 10 -30 6 0 10
14 10 30 0 20 5 30 15 30 10 0 15 -10 15 -30 0 -16 5 -30 10 -30 14 0 12 57
-2 67 -7 4 -34 8 -60 8 l-48 0 1 -40z"/>
<path d="M2545 2890 c-3 -5 3 -10 14 -10 28 0 27 -18 -1 -22 -36 -5 -28 -32
10 -36 29 -3 32 -1 32 25 0 42 -38 71 -55 43z m30 -50 c-3 -5 -10 -10 -16 -10
-5 0 -9 5 -9 10 0 6 7 10 16 10 8 0 12 -4 9 -10z"/>
<path d="M2620 2885 c-7 -8 -9 -26 -6 -40 5 -19 13 -25 33 -25 29 0 22 -15
-12 -23 -16 -4 -15 -5 6 -6 35 -1 49 16 49 64 0 37 -2 40 -29 42 -16 1 -35 -4
-41 -12z m48 -27 c-2 -13 -10 -23 -18 -23 -8 0 -16 10 -18 23 -3 17 2 22 18
22 16 0 21 -5 18 -22z"/>
<path d="M2724 2892 c-32 -21 -17 -72 21 -72 14 0 25 4 25 9 0 5 -8 7 -19 4
-10 -3 -22 0 -25 6 -5 7 4 11 23 11 36 0 42 23 12 40 -23 12 -23 12 -37 2z
m36 -22 c0 -5 -9 -10 -21 -10 -11 0 -17 5 -14 10 3 6 13 10 21 10 8 0 14 -4
14 -10z"/>
<path d="M2831 2840 c1 -30 4 -46 6 -34 3 16 10 20 28 17 26 -6 49 25 39 51
-7 18 -7 18 -46 20 -28 2 -28 1 -27 -54z m54 15 c0 -11 -7 -21 -16 -23 -18 -3
-33 23 -23 39 10 17 39 5 39 -16z"/>
<path d="M2938 2893 c-13 -3 -18 -15 -18 -39 0 -19 5 -34 10 -34 6 0 10 14 10
31 0 41 32 36 41 -6 7 -29 7 -29 8 6 1 25 -4 39 -15 43 -9 3 -16 5 -17 5 -1
-1 -10 -3 -19 -6z"/>
<path d="M3021 2886 c-22 -26 -9 -60 24 -67 24 -5 27 -7 13 -13 -10 -5 -25 -6
-33 -2 -8 3 -15 1 -15 -4 0 -19 59 -11 70 9 15 29 13 81 -4 81 -8 0 -21 2 -29
5 -7 3 -19 -1 -26 -9z m47 -29 c4 -21 -27 -35 -38 -17 -12 19 0 42 19 38 9 -2
17 -11 19 -21z"/>
<path d="M3270 2865 l-34 -35 37 -37 c40 -40 65 -38 27 2 l-23 25 853 0 853 0
-23 -25 c-38 -41 -13 -42 28 -2 l37 37 -37 37 c-41 40 -66 39 -28 -2 l23 -25
-853 0 -853 0 21 23 c12 13 22 26 22 30 0 15 -18 5 -50 -28z"/>
<path d="M5527 2893 c-11 -10 -8 -73 3 -73 6 0 10 18 10 40 0 41 -2 45 -13 33z"/>
<path d="M5561 2855 l1 -40 9 33 c12 41 39 43 39 2 0 -16 5 -30 10 -30 6 0 10
14 10 30 0 20 5 30 15 30 10 0 15 -10 15 -30 0 -16 5 -30 10 -30 14 0 12 57
-2 67 -7 4 -34 8 -60 8 l-48 0 1 -40z"/>
<path d="M5705 2890 c-3 -5 3 -10 14 -10 28 0 27 -18 -1 -22 -36 -5 -28 -32
10 -36 29 -3 32 -1 32 25 0 42 -38 71 -55 43z m30 -50 c-3 -5 -10 -10 -16 -10
-5 0 -9 5 -9 10 0 6 7 10 16 10 8 0 12 -4 9 -10z"/>
<path d="M5780 2885 c-7 -8 -9 -26 -6 -40 5 -19 13 -25 33 -25 29 0 22 -15
-12 -23 -16 -4 -15 -5 6 -6 35 -1 49 16 49 64 0 37 -2 40 -29 42 -16 1 -35 -4
-41 -12z m48 -27 c-2 -13 -10 -23 -18 -23 -8 0 -16 10 -18 23 -3 17 2 22 18
22 16 0 21 -5 18 -22z"/>
<path d="M5884 2892 c-32 -21 -17 -72 21 -72 14 0 25 4 25 9 0 5 -8 7 -19 4
-10 -3 -22 0 -25 6 -5 7 4 11 23 11 36 0 42 23 12 40 -23 12 -23 12 -37 2z
m36 -22 c0 -5 -9 -10 -21 -10 -11 0 -17 5 -14 10 3 6 13 10 21 10 8 0 14 -4
14 -10z"/>
<path d="M5991 2840 c1 -30 4 -46 6 -34 3 16 10 20 28 17 26 -6 49 25 39 51
-7 18 -7 18 -46 20 -28 2 -28 1 -27 -54z m54 15 c0 -11 -7 -21 -16 -23 -18 -3
-33 23 -23 39 10 17 39 5 39 -16z"/>
<path d="M6098 2893 c-13 -3 -18 -15 -18 -39 0 -19 5 -34 10 -34 6 0 10 14 10
31 0 41 32 36 41 -6 7 -29 7 -29 8 6 1 25 -4 39 -15 43 -9 3 -16 5 -17 5 -1
-1 -10 -3 -19 -6z"/>
<path d="M6181 2886 c-22 -26 -9 -60 24 -67 24 -5 27 -7 13 -13 -10 -5 -25 -6
-33 -2 -8 3 -15 1 -15 -4 0 -19 59 -11 70 9 15 29 13 81 -4 81 -8 0 -21 2 -29
5 -7 3 -19 -1 -26 -9z m47 -29 c4 -21 -27 -35 -38 -17 -12 19 0 42 19 38 9 -2
17 -11 19 -21z"/>
<path d="M310 2790 c0 -33 4 -60 10 -60 6 0 10 11 10 25 0 21 5 25 30 25 25 0
30 -4 30 -25 0 -14 5 -25 10 -25 6 0 10 27 10 60 0 33 -4 60 -10 60 -5 0 -10
-11 -10 -25 0 -21 -5 -25 -30 -25 -25 0 -30 4 -30 25 0 14 -4 25 -10 25 -6 0
-10 -27 -10 -60z"/>
<path d="M430 2840 c0 -5 9 -10 20 -10 17 0 20 -7 20 -50 0 -27 5 -50 10 -50
6 0 10 23 10 50 0 38 4 50 15 50 8 0 15 5 15 10 0 6 -20 10 -45 10 -25 0 -45
-4 -45 -10z"/>
<path d="M530 2840 c0 -5 9 -10 20 -10 17 0 20 -7 20 -50 0 -27 5 -50 10 -50
6 0 10 23 10 50 0 38 4 50 15 50 8 0 15 5 15 10 0 6 -20 10 -45 10 -25 0 -45
-4 -45 -10z"/>
<path d="M640 2791 c0 -34 4 -61 10 -61 6 0 10 9 10 19 0 14 8 21 26 23 63 7
55 71 -10 76 l-36 3 0 -60z m65 19 c0 -8 -10 -16 -22 -18 -18 -3 -23 2 -23 18
0 16 5 21 23 18 12 -2 22 -10 22 -18z"/>
<path d="M789 2830 l-24 -19 23 -1 c19 0 22 -5 22 -40 0 -22 5 -40 10 -40 6 0
10 27 10 60 0 33 -4 60 -9 60 -5 0 -19 -9 -32 -20z"/>
<path d="M895 2830 c-16 -18 -16 -20 -2 -20 13 0 17 -9 17 -40 0 -22 5 -40 10
-40 6 0 10 27 10 60 0 64 -6 72 -35 40z"/>
<path d="M7291 2836 c-18 -22 -7 -45 29 -57 36 -13 30 -29 -11 -29 -18 0 -28
-4 -24 -10 9 -14 58 -13 73 2 21 21 13 37 -25 57 -31 16 -35 21 -20 26 9 4 24
4 33 1 10 -4 14 -1 12 6 -7 19 -53 21 -67 4z"/>
<path d="M2790 2830 c0 -5 5 -10 10 -10 6 0 10 5 10 10 0 6 -4 10 -10 10 -5 0
-10 -4 -10 -10z"/>
<path d="M5950 2830 c0 -5 5 -10 10 -10 6 0 10 5 10 10 0 6 -4 10 -10 10 -5 0
-10 -4 -10 -10z"/>
<path d="M7395 2800 c-15 -17 -16 -24 -7 -45 12 -26 54 -35 67 -15 4 6 -5 10
-19 10 -14 0 -26 5 -26 10 0 6 14 10 30 10 33 0 38 11 14 34 -21 21 -37 20
-59 -4z m50 -10 c3 -5 -3 -10 -14 -10 -12 0 -21 5 -21 10 0 6 6 10 14 10 8 0
18 -4 21 -10z"/>
<path d="M7490 2773 c0 -24 5 -43 10 -43 6 0 10 14 10 30 0 18 6 33 15 36 24
9 17 22 -10 20 -23 -1 -25 -5 -25 -43z"/>
<path d="M7550 2805 c0 -22 28 -75 40 -75 9 0 40 63 40 81 0 21 -19 6 -30 -23
l-11 -33 -14 33 c-15 35 -25 41 -25 17z"/>
<path d="M7658 2809 c-21 -12 -24 -49 -6 -67 15 -15 54 -16 63 -2 4 6 -5 10
-19 10 -14 0 -26 5 -26 10 0 6 14 10 31 10 30 0 31 1 17 23 -18 26 -36 31 -60
16z m42 -19 c0 -5 -9 -10 -21 -10 -11 0 -17 5 -14 10 3 6 13 10 21 10 8 0 14
-4 14 -10z"/>
<path d="M7745 2811 c-10 -9 -5 -81 5 -81 6 0 10 11 10 24 0 13 7 29 15 36 8
7 15 15 15 19 0 7 -38 9 -45 2z"/>
<path d="M856 2753 c-11 -11 -6 -23 9 -23 8 0 15 4 15 9 0 13 -16 22 -24 14z"/>
<path d="M1934 1407 c-3 -8 -4 -49 -2 -93 l3 -79 70 0 70 0 3 69 c4 96 -10
116 -84 116 -36 0 -56 -4 -60 -13z m96 -12 c0 -8 7 -15 15 -15 12 0 15 -14 15
-70 l0 -70 -55 0 -55 0 0 85 0 85 40 0 c29 0 40 -4 40 -15z"/>
<path d="M1983 1363 c15 -2 37 -2 50 0 12 2 0 4 -28 4 -27 0 -38 -2 -22 -4z"/>
<path d="M1983 1313 c15 -2 37 -2 50 0 12 2 0 4 -28 4 -27 0 -38 -2 -22 -4z"/>
<path d="M1983 1293 c15 -2 37 -2 50 0 12 2 0 4 -28 4 -27 0 -38 -2 -22 -4z"/>
<path d="M5114 1407 c-3 -8 -4 -49 -2 -93 l3 -79 70 0 70 0 3 69 c4 96 -10
116 -84 116 -36 0 -56 -4 -60 -13z m96 -12 c0 -8 7 -15 15 -15 12 0 15 -14 15
-70 l0 -70 -55 0 -55 0 0 85 0 85 40 0 c29 0 40 -4 40 -15z"/>
<path d="M5163 1363 c15 -2 37 -2 50 0 12 2 0 4 -28 4 -27 0 -38 -2 -22 -4z"/>
<path d="M5163 1313 c15 -2 37 -2 50 0 12 2 0 4 -28 4 -27 0 -38 -2 -22 -4z"/>
<path d="M5163 1293 c15 -2 37 -2 50 0 12 2 0 4 -28 4 -27 0 -38 -2 -22 -4z"/>
<path d="M2245 1370 c-3 -5 -1 -10 4 -10 6 0 11 5 11 10 0 6 -2 10 -4 10 -3 0
-8 -4 -11 -10z"/>
<path d="M2710 1370 c0 -5 5 -10 11 -10 5 0 7 5 4 10 -3 6 -8 10 -11 10 -2 0
-4 -4 -4 -10z"/>
<path d="M5425 1370 c-3 -5 -1 -10 4 -10 6 0 11 5 11 10 0 6 -2 10 -4 10 -3 0
-8 -4 -11 -10z"/>
<path d="M5890 1370 c0 -5 5 -10 11 -10 5 0 7 5 4 10 -3 6 -8 10 -11 10 -2 0
-4 -4 -4 -10z"/>
<path d="M2247 1343 c-4 -3 -7 -25 -7 -49 0 -24 -5 -44 -12 -47 -7 -3 -3 -6
10 -6 20 -1 22 3 22 54 0 56 -1 60 -13 48z"/>
<path d="M2290 1340 c-6 -4 -10 -20 -8 -36 2 -23 8 -29 28 -29 16 0 27 -7 32
-20 3 -12 6 3 7 35 1 51 -1 55 -23 56 -13 1 -29 -2 -36 -6z m48 -33 c4 -20
-25 -34 -40 -19 -15 15 -1 44 19 40 10 -2 19 -11 21 -21z"/>
<path d="M2376 1337 c-5 -9 -5 -28 -2 -42 5 -20 13 -25 36 -25 29 0 30 2 29
43 l-2 42 -6 -35 c-4 -22 -12 -35 -21 -35 -9 0 -17 13 -21 35 -4 27 -7 31 -13
17z"/>
<path d="M2470 1336 c-19 -24 -8 -61 19 -64 13 -2 28 2 35 8 8 9 4 10 -16 5
-18 -5 -28 -3 -28 4 0 6 11 11 25 11 27 0 33 18 13 38 -16 16 -33 15 -48 -2z
m40 -16 c0 -5 -7 -10 -15 -10 -8 0 -15 5 -15 10 0 6 7 10 15 10 8 0 15 -4 15
-10z"/>
<path d="M2551 1305 c2 -31 3 -34 6 -12 3 16 11 31 19 34 21 8 17 22 -6 20
-17 -1 -20 -8 -19 -42z"/>
<path d="M2600 1341 c0 -8 5 -30 12 -48 10 -29 10 -36 -2 -43 -13 -8 -13 -10
1 -10 16 0 65 98 54 108 -3 3 -11 -9 -17 -26 l-12 -32 -18 32 c-9 18 -17 27
-18 19z"/>
<path d="M2750 1336 c-9 -12 -7 -17 9 -28 26 -16 27 -25 4 -31 -14 -4 -13 -5
4 -6 33 -2 39 19 12 40 l-24 19 23 0 c13 0 20 4 17 10 -9 14 -31 12 -45 -4z"/>
<path d="M5427 1343 c-4 -3 -7 -25 -7 -49 0 -24 -5 -44 -12 -47 -7 -3 -3 -6
10 -6 20 -1 22 3 22 54 0 56 -1 60 -13 48z"/>
<path d="M5470 1340 c-6 -4 -10 -20 -8 -36 2 -23 8 -29 28 -29 16 0 27 -7 32
-20 3 -12 6 3 7 35 1 51 -1 55 -23 56 -13 1 -29 -2 -36 -6z m48 -33 c4 -20
-25 -34 -40 -19 -15 15 -1 44 19 40 10 -2 19 -11 21 -21z"/>
<path d="M5556 1337 c-5 -9 -5 -28 -2 -42 5 -20 13 -25 36 -25 29 0 30 2 29
43 l-2 42 -6 -35 c-4 -22 -12 -35 -21 -35 -9 0 -17 13 -21 35 -4 27 -7 31 -13
17z"/>
<path d="M5650 1336 c-19 -24 -8 -61 19 -64 13 -2 28 2 35 8 8 9 4 10 -16 5
-18 -5 -28 -3 -28 4 0 6 11 11 25 11 27 0 33 18 13 38 -16 16 -33 15 -48 -2z
m40 -16 c0 -5 -7 -10 -15 -10 -8 0 -15 5 -15 10 0 6 7 10 15 10 8 0 15 -4 15
-10z"/>
<path d="M5731 1305 c2 -31 3 -34 6 -12 3 16 11 31 19 34 21 8 17 22 -6 20
-17 -1 -20 -8 -19 -42z"/>
<path d="M5780 1341 c0 -8 5 -30 12 -48 10 -29 10 -36 -2 -43 -13 -8 -13 -10
1 -10 16 0 65 98 54 108 -3 3 -11 -9 -17 -26 l-12 -32 -18 32 c-9 18 -17 27
-18 19z"/>
<path d="M5930 1336 c-9 -12 -7 -17 9 -28 26 -16 27 -25 4 -31 -14 -4 -13 -5
4 -6 33 -2 39 19 12 40 l-24 19 23 0 c13 0 20 4 17 10 -9 14 -31 12 -45 -4z"/>
<path d="M2710 1296 c0 -26 -5 -47 -12 -50 -7 -3 -4 -5 7 -3 16 2 21 11 23 50
2 28 -1 47 -7 47 -6 0 -11 -20 -11 -44z"/>
<path d="M5890 1296 c0 -26 -5 -47 -12 -50 -7 -3 -4 -5 7 -3 16 2 21 11 23 50
2 28 -1 47 -7 47 -6 0 -11 -20 -11 -44z"/>
<path d="M2675 1280 c-3 -5 -1 -10 4 -10 6 0 11 5 11 10 0 6 -2 10 -4 10 -3 0
-8 -4 -11 -10z"/>
<path d="M5855 1280 c-3 -5 -1 -10 4 -10 6 0 11 5 11 10 0 6 -2 10 -4 10 -3 0
-8 -4 -11 -10z"/>
<path d="M7243 1283 c-9 -3 -13 -28 -13 -73 0 -84 6 -100 36 -100 35 0 30 -26
-6 -33 -30 -6 -30 -7 -30 -76 0 -85 6 -101 36 -101 35 0 30 -26 -6 -33 l-30
-6 0 -73 c0 -40 4 -79 8 -86 7 -9 73 -12 298 -10 l289 3 3 65 c4 88 -2 110
-33 110 -35 0 -32 28 3 32 26 3 27 5 30 68 4 88 -2 110 -33 110 -35 0 -32 28
3 32 26 3 27 5 30 68 2 35 0 75 -3 87 l-5 23 -283 -1 c-155 0 -288 -3 -294 -6z
m567 -83 l0 -70 -280 0 -280 0 0 70 0 70 280 0 280 0 0 -70z m-480 -105 c0 -8
-4 -15 -10 -15 -5 0 -10 7 -10 15 0 8 5 15 10 15 6 0 10 -7 10 -15z m380 0 c0
-13 -27 -15 -180 -15 -153 0 -180 2 -180 15 0 13 27 15 180 15 153 0 180 -2
180 -15z m40 0 c0 -8 -4 -15 -10 -15 -5 0 -10 7 -10 15 0 8 5 15 10 15 6 0 10
-7 10 -15z m60 -105 l0 -70 -280 0 -280 0 0 70 0 70 280 0 280 0 0 -70z m-480
-105 c0 -8 -4 -15 -10 -15 -5 0 -10 7 -10 15 0 8 5 15 10 15 6 0 10 -7 10 -15z
m380 0 c0 -13 -27 -15 -180 -15 -153 0 -180 2 -180 15 0 13 27 15 180 15 153
0 180 -2 180 -15z m40 0 c0 -8 -4 -15 -10 -15 -5 0 -10 7 -10 15 0 8 5 15 10
15 6 0 10 -7 10 -15z m60 -105 l0 -70 -280 0 -280 0 0 70 0 70 280 0 280 0 0
-70z"/>
<path d="M7590 1240 c0 -5 5 -10 10 -10 6 0 10 5 10 10 0 6 -4 10 -10 10 -5 0
-10 -4 -10 -10z"/>
<path d="M7630 1240 c0 -5 5 -10 10 -10 6 0 10 5 10 10 0 6 -4 10 -10 10 -5 0
-10 -4 -10 -10z"/>
<path d="M7670 1240 c0 -5 5 -10 10 -10 6 0 10 5 10 10 0 6 -4 10 -10 10 -5 0
-10 -4 -10 -10z"/>
<path d="M7710 1240 c0 -5 5 -10 10 -10 6 0 10 5 10 10 0 6 -4 10 -10 10 -5 0
-10 -4 -10 -10z"/>
<path d="M7750 1240 c0 -5 5 -10 10 -10 6 0 10 5 10 10 0 6 -4 10 -10 10 -5 0
-10 -4 -10 -10z"/>
<path d="M7303 1223 c-19 -7 -16 -43 3 -50 9 -3 25 -1 35 5 11 7 60 12 119 12
60 0 100 4 100 10 0 6 -43 10 -110 10 -67 0 -110 4 -110 10 0 10 -16 12 -37 3z
m27 -23 c0 -5 -4 -10 -10 -10 -5 0 -10 5 -10 10 0 6 5 10 10 10 6 0 10 -4 10
-10z"/>
<path d="M7590 1200 c0 -5 5 -10 10 -10 6 0 10 5 10 10 0 6 -4 10 -10 10 -5 0
-10 -4 -10 -10z"/>
<path d="M7630 1200 c0 -5 5 -10 10 -10 6 0 10 5 10 10 0 6 -4 10 -10 10 -5 0
-10 -4 -10 -10z"/>
<path d="M7670 1200 c0 -5 5 -10 10 -10 6 0 10 5 10 10 0 6 -4 10 -10 10 -5 0
-10 -4 -10 -10z"/>
<path d="M7710 1200 c0 -5 5 -10 10 -10 6 0 10 5 10 10 0 6 -4 10 -10 10 -5 0
-10 -4 -10 -10z"/>
<path d="M7750 1200 c0 -5 5 -10 10 -10 6 0 10 5 10 10 0 6 -4 10 -10 10 -5 0
-10 -4 -10 -10z"/>
<path d="M7590 1160 c0 -5 5 -10 10 -10 6 0 10 5 10 10 0 6 -4 10 -10 10 -5 0
-10 -4 -10 -10z"/>
<path d="M7630 1160 c0 -5 5 -10 10 -10 6 0 10 5 10 10 0 6 -4 10 -10 10 -5 0
-10 -4 -10 -10z"/>
<path d="M7670 1160 c0 -5 5 -10 10 -10 6 0 10 5 10 10 0 6 -4 10 -10 10 -5 0
-10 -4 -10 -10z"/>
<path d="M7710 1160 c0 -5 5 -10 10 -10 6 0 10 5 10 10 0 6 -4 10 -10 10 -5 0
-10 -4 -10 -10z"/>
<path d="M7750 1160 c0 -5 5 -10 10 -10 6 0 10 5 10 10 0 6 -4 10 -10 10 -5 0
-10 -4 -10 -10z"/>
<path d="M7590 1030 c0 -5 5 -10 10 -10 6 0 10 5 10 10 0 6 -4 10 -10 10 -5 0
-10 -4 -10 -10z"/>
<path d="M7630 1030 c0 -5 5 -10 10 -10 6 0 10 5 10 10 0 6 -4 10 -10 10 -5 0
-10 -4 -10 -10z"/>
<path d="M7670 1030 c0 -5 5 -10 10 -10 6 0 10 5 10 10 0 6 -4 10 -10 10 -5 0
-10 -4 -10 -10z"/>
<path d="M7710 1030 c0 -5 5 -10 10 -10 6 0 10 5 10 10 0 6 -4 10 -10 10 -5 0
-10 -4 -10 -10z"/>
<path d="M7750 1030 c0 -5 5 -10 10 -10 6 0 10 5 10 10 0 6 -4 10 -10 10 -5 0
-10 -4 -10 -10z"/>
<path d="M7303 1013 c-19 -7 -16 -43 3 -50 9 -3 25 -1 35 5 11 7 60 12 119 12
60 0 100 4 100 10 0 6 -43 10 -110 10 -67 0 -110 4 -110 10 0 10 -16 12 -37 3z
m27 -23 c0 -5 -4 -10 -10 -10 -5 0 -10 5 -10 10 0 6 5 10 10 10 6 0 10 -4 10
-10z"/>
<path d="M7590 990 c0 -5 5 -10 10 -10 6 0 10 5 10 10 0 6 -4 10 -10 10 -5 0
-10 -4 -10 -10z"/>
<path d="M7630 990 c0 -5 5 -10 10 -10 6 0 10 5 10 10 0 6 -4 10 -10 10 -5 0
-10 -4 -10 -10z"/>
<path d="M7670 990 c0 -5 5 -10 10 -10 6 0 10 5 10 10 0 6 -4 10 -10 10 -5 0
-10 -4 -10 -10z"/>
<path d="M7710 990 c0 -5 5 -10 10 -10 6 0 10 5 10 10 0 6 -4 10 -10 10 -5 0
-10 -4 -10 -10z"/>
<path d="M7750 990 c0 -5 5 -10 10 -10 6 0 10 5 10 10 0 6 -4 10 -10 10 -5 0
-10 -4 -10 -10z"/>
<path d="M7590 950 c0 -5 5 -10 10 -10 6 0 10 5 10 10 0 6 -4 10 -10 10 -5 0
-10 -4 -10 -10z"/>
<path d="M7630 950 c0 -5 5 -10 10 -10 6 0 10 5 10 10 0 6 -4 10 -10 10 -5 0
-10 -4 -10 -10z"/>
<path d="M7670 950 c0 -5 5 -10 10 -10 6 0 10 5 10 10 0 6 -4 10 -10 10 -5 0
-10 -4 -10 -10z"/>
<path d="M7710 950 c0 -5 5 -10 10 -10 6 0 10 5 10 10 0 6 -4 10 -10 10 -5 0
-10 -4 -10 -10z"/>
<path d="M7750 950 c0 -5 5 -10 10 -10 6 0 10 5 10 10 0 6 -4 10 -10 10 -5 0
-10 -4 -10 -10z"/>
<path d="M7590 820 c0 -5 5 -10 10 -10 6 0 10 5 10 10 0 6 -4 10 -10 10 -5 0
-10 -4 -10 -10z"/>
<path d="M7630 820 c0 -5 5 -10 10 -10 6 0 10 5 10 10 0 6 -4 10 -10 10 -5 0
-10 -4 -10 -10z"/>
<path d="M7670 820 c0 -5 5 -10 10 -10 6 0 10 5 10 10 0 6 -4 10 -10 10 -5 0
-10 -4 -10 -10z"/>
<path d="M7710 820 c0 -5 5 -10 10 -10 6 0 10 5 10 10 0 6 -4 10 -10 10 -5 0
-10 -4 -10 -10z"/>
<path d="M7750 820 c0 -5 5 -10 10 -10 6 0 10 5 10 10 0 6 -4 10 -10 10 -5 0
-10 -4 -10 -10z"/>
<path d="M7303 803 c-19 -7 -16 -43 3 -50 9 -3 25 -1 35 5 11 7 60 12 119 12
60 0 100 4 100 10 0 6 -43 10 -110 10 -67 0 -110 4 -110 10 0 10 -16 12 -37 3z
m27 -23 c0 -5 -4 -10 -10 -10 -5 0 -10 5 -10 10 0 6 5 10 10 10 6 0 10 -4 10
-10z"/>
<path d="M7590 780 c0 -5 5 -10 10 -10 6 0 10 5 10 10 0 6 -4 10 -10 10 -5 0
-10 -4 -10 -10z"/>
<path d="M7630 780 c0 -5 5 -10 10 -10 6 0 10 5 10 10 0 6 -4 10 -10 10 -5 0
-10 -4 -10 -10z"/>
<path d="M7670 780 c0 -5 5 -10 10 -10 6 0 10 5 10 10 0 6 -4 10 -10 10 -5 0
-10 -4 -10 -10z"/>
<path d="M7710 780 c0 -5 5 -10 10 -10 6 0 10 5 10 10 0 6 -4 10 -10 10 -5 0
-10 -4 -10 -10z"/>
<path d="M7750 780 c0 -5 5 -10 10 -10 6 0 10 5 10 10 0 6 -4 10 -10 10 -5 0
-10 -4 -10 -10z"/>
<path d="M7590 740 c0 -5 5 -10 10 -10 6 0 10 5 10 10 0 6 -4 10 -10 10 -5 0
-10 -4 -10 -10z"/>
<path d="M7630 740 c0 -5 5 -10 10 -10 6 0 10 5 10 10 0 6 -4 10 -10 10 -5 0
-10 -4 -10 -10z"/>
<path d="M7670 740 c0 -5 5 -10 10 -10 6 0 10 5 10 10 0 6 -4 10 -10 10 -5 0
-10 -4 -10 -10z"/>
<path d="M7710 740 c0 -5 5 -10 10 -10 6 0 10 5 10 10 0 6 -4 10 -10 10 -5 0
-10 -4 -10 -10z"/>
<path d="M7750 740 c0 -5 5 -10 10 -10 6 0 10 5 10 10 0 6 -4 10 -10 10 -5 0
-10 -4 -10 -10z"/>
<path d="M3447 1273 c-11 -10 -8 -25 3 -18 6 4 10 -10 10 -34 0 -23 5 -41 10
-41 6 0 10 23 10 50 0 35 -4 50 -13 50 -8 0 -17 -3 -20 -7z"/>
<path d="M3537 1273 c18 -4 23 -12 26 -51 l3 -47 2 47 c2 35 6 48 20 51 9 3
-3 5 -28 4 -25 0 -35 -2 -23 -4z"/>
<path d="M3622 1268 c-16 -16 -15 -50 1 -72 16 -21 68 -19 75 4 4 12 2 13 -9
3 -34 -33 -81 6 -58 48 8 17 17 20 40 15 19 -3 28 -2 24 4 -9 14 -59 12 -73
-2z"/>
<path d="M3720 1230 c0 -27 5 -50 10 -50 6 0 10 9 10 20 0 13 7 20 19 20 24 0
43 23 35 44 -4 10 -18 16 -40 16 l-34 0 0 -50z m55 20 c0 -8 -8 -16 -17 -18
-13 -2 -18 3 -18 18 0 15 5 20 18 18 9 -2 17 -10 17 -18z"/>
<path d="M4348 1263 c-8 -35 6 -78 27 -80 11 -2 14 0 8 3 -15 6 -18 51 -4 56
4 2 0 11 -9 21 -17 17 -18 17 -22 0z"/>
<path d="M3855 1247 c-27 -21 -13 -67 20 -67 14 0 25 4 25 8 0 5 -10 8 -22 8
-32 -1 -32 38 0 42 12 2 20 8 17 13 -8 12 -18 11 -40 -4z"/>
<path d="M3925 1244 c-19 -20 -16 -43 8 -58 37 -23 77 35 41 61 -23 17 -29 16
-49 -3z m48 -18 c7 -17 -18 -40 -33 -31 -5 3 -10 15 -10 26 0 23 35 27 43 5z"/>
<path d="M4028 1253 c-14 -3 -18 -14 -16 -41 l1 -37 4 33 c3 24 9 32 24 32 14
0 19 -7 19 -30 0 -16 5 -30 10 -30 6 0 10 13 10 30 0 31 -22 49 -52 43z"/>
<path d="M4118 1253 c-14 -3 -18 -14 -16 -41 l1 -37 4 33 c3 24 9 32 24 32 14
0 19 -7 19 -30 0 -16 5 -30 10 -30 6 0 10 13 10 30 0 31 -22 49 -52 43z"/>
<path d="M4196 1244 c-9 -8 -16 -21 -16 -28 0 -29 51 -49 65 -26 4 7 -2 9 -19
4 -16 -4 -26 -2 -26 5 0 6 11 11 25 11 27 0 33 18 13 38 -16 16 -23 15 -42 -4z
m44 -14 c0 -5 -9 -10 -20 -10 -11 0 -20 5 -20 10 0 6 9 10 20 10 11 0 20 -4
20 -10z"/>
<path d="M4285 1246 c-27 -19 -16 -60 18 -64 15 -2 27 1 27 6 0 5 -10 8 -22 8
-33 -1 -31 36 2 44 20 5 22 7 8 12 -9 4 -24 1 -33 -6z"/>
<path d="M4450 1246 c-6 -8 -10 -25 -8 -38 2 -18 9 -23 33 -23 24 0 31 5 33
24 3 15 -3 30 -14 38 -23 17 -29 16 -44 -1z m48 -29 c4 -20 -25 -34 -40 -19
-15 15 -1 44 19 40 10 -2 19 -11 21 -21z"/>
<path d="M4548 1253 c-13 -3 -18 -14 -17 -41 1 -36 1 -36 8 -7 4 21 12 30 26
30 14 0 22 -9 26 -30 l7 -30 1 31 c1 27 -14 56 -28 53 -4 -1 -14 -3 -23 -6z"/>
<path d="M4630 1250 c-16 -10 -6 -40 15 -40 23 0 18 -18 -7 -23 -20 -5 -20 -5
2 -4 32 2 39 32 9 40 -11 3 -18 10 -15 16 4 6 13 8 21 4 8 -3 15 -3 15 0 0 10
-27 15 -40 7z"/>
<path d="M4413 1215 c0 -22 2 -30 4 -17 2 12 2 30 0 40 -3 9 -5 -1 -4 -23z"/>
<path d="M1010 1045 l-34 -35 37 -37 c40 -40 65 -38 27 2 l-23 25 313 0 313 0
-23 -25 c-38 -41 -13 -42 28 -2 l37 37 -37 37 c-41 40 -66 39 -28 -2 l23 -25
-313 0 -313 0 21 23 c12 13 22 26 22 30 0 15 -18 5 -50 -28z"/>
<path d="M3200 1045 l-34 -35 37 -37 c40 -40 65 -38 27 2 l-23 25 853 0 853 0
-23 -25 c-38 -41 -13 -42 28 -2 l37 37 -37 37 c-41 40 -66 39 -28 -2 l23 -25
-853 0 -853 0 21 23 c12 13 22 26 22 30 0 15 -18 5 -50 -28z"/>
<path d="M6370 1045 l-34 -35 37 -37 c40 -40 65 -38 27 2 l-23 25 378 0 378 0
-23 -25 c-38 -41 -13 -42 28 -2 l37 37 -37 37 c-41 40 -66 39 -28 -2 l23 -25
-378 0 -378 0 21 23 c12 13 22 26 22 30 0 15 -18 5 -50 -28z"/>
<path d="M1934 1017 c-3 -8 -4 -49 -2 -93 l3 -79 70 0 70 0 3 69 c4 96 -10
116 -84 116 -36 0 -56 -4 -60 -13z m96 -12 c0 -8 7 -15 15 -15 12 0 15 -14 15
-70 l0 -70 -55 0 -55 0 0 85 0 85 40 0 c29 0 40 -4 40 -15z"/>
<path d="M1983 973 c15 -2 37 -2 50 0 12 2 0 4 -28 4 -27 0 -38 -2 -22 -4z"/>
<path d="M1983 923 c15 -2 37 -2 50 0 12 2 0 4 -28 4 -27 0 -38 -2 -22 -4z"/>
<path d="M1983 903 c15 -2 37 -2 50 0 12 2 0 4 -28 4 -27 0 -38 -2 -22 -4z"/>
<path d="M5114 1017 c-3 -8 -4 -49 -2 -93 l3 -79 70 0 70 0 3 69 c4 96 -10
116 -84 116 -36 0 -56 -4 -60 -13z m96 -12 c0 -8 7 -15 15 -15 12 0 15 -14 15
-70 l0 -70 -55 0 -55 0 0 85 0 85 40 0 c29 0 40 -4 40 -15z"/>
<path d="M5163 973 c15 -2 37 -2 50 0 12 2 0 4 -28 4 -27 0 -38 -2 -22 -4z"/>
<path d="M5163 923 c15 -2 37 -2 50 0 12 2 0 4 -28 4 -27 0 -38 -2 -22 -4z"/>
<path d="M5163 903 c15 -2 37 -2 50 0 12 2 0 4 -28 4 -27 0 -38 -2 -22 -4z"/>
<path d="M2710 955 c0 -30 5 -55 10 -55 6 0 10 25 10 55 0 30 -4 55 -10 55 -5
0 -10 -25 -10 -55z"/>
<path d="M5890 955 c0 -30 5 -55 10 -55 6 0 10 25 10 55 0 30 -4 55 -10 55 -5
0 -10 -25 -10 -55z"/>
<path d="M2250 966 c-19 -24 -8 -61 19 -64 13 -2 28 2 35 8 8 9 4 10 -16 5
-18 -5 -28 -3 -28 4 0 6 11 11 25 11 27 0 33 18 13 38 -16 16 -33 15 -48 -2z
m40 -16 c0 -5 -7 -10 -15 -10 -8 0 -15 5 -15 10 0 6 7 10 15 10 8 0 15 -4 15
-10z"/>
<path d="M2320 974 c0 -5 5 -15 11 -21 8 -8 8 -17 0 -32 -7 -12 -8 -21 -2 -21
5 0 11 6 14 13 4 10 7 10 18 0 18 -18 34 -16 20 1 -7 8 -9 26 -6 43 6 25 5 26
-8 11 -13 -16 -15 -16 -30 0 -9 9 -17 12 -17 6z"/>
<path d="M2405 970 c-3 -5 3 -10 14 -10 12 0 21 -4 21 -10 0 -5 -9 -10 -20
-10 -13 0 -20 -7 -20 -20 0 -16 7 -20 30 -20 26 0 30 4 30 28 0 41 -38 70 -55
42z m35 -50 c0 -5 -7 -10 -15 -10 -8 0 -15 5 -15 10 0 6 7 10 15 10 8 0 15 -4
15 -10z"/>
<path d="M2480 938 c0 -21 5 -38 10 -38 6 0 10 14 10 30 0 20 5 30 15 30 10 0
15 -10 15 -30 0 -16 5 -30 10 -30 6 0 10 14 10 30 0 20 5 30 15 30 10 0 15
-10 15 -30 0 -16 5 -30 10 -30 14 0 12 57 -2 67 -7 4 -34 8 -60 8 l-48 0 0
-37z"/>
<path d="M2621 920 c1 -30 4 -45 6 -34 3 17 9 20 25 16 25 -6 48 20 41 48 -6
22 -6 22 -45 24 -28 2 -28 1 -27 -54z m54 15 c0 -11 -7 -21 -16 -23 -18 -3
-33 23 -23 39 10 17 39 5 39 -16z"/>
<path d="M2756 964 c-9 -8 -16 -21 -16 -28 0 -30 51 -49 66 -25 4 7 0 9 -14 5
-11 -4 -23 -2 -27 4 -4 6 4 10 19 10 32 0 40 14 20 34 -19 20 -29 20 -48 0z
m44 -14 c0 -5 -9 -10 -20 -10 -11 0 -20 5 -20 10 0 6 9 10 20 10 11 0 20 -4
20 -10z"/>
<path d="M2870 966 c-20 -26 -8 -61 23 -64 15 -2 27 1 27 6 0 5 -8 9 -17 8
-12 0 -19 7 -21 22 -3 17 2 22 18 22 12 0 18 5 15 10 -9 14 -31 12 -45 -4z"/>
<path d="M2943 964 c-4 -11 2 -23 17 -34 l24 -18 -25 -5 c-23 -4 -23 -4 4 -6
34 -1 38 31 5 47 l-23 11 23 0 c13 1 20 5 17 11 -10 16 -35 12 -42 -6z"/>
<path d="M3010 966 c-9 -12 -7 -17 9 -28 26 -16 27 -25 4 -31 -11 -3 -7 -5 10
-6 34 -1 38 33 5 44 l-23 8 23 4 c12 2 20 9 17 14 -9 14 -31 11 -45 -5z"/>
<path d="M5430 966 c-19 -24 -8 -61 19 -64 13 -2 28 2 35 8 8 9 4 10 -16 5
-18 -5 -28 -3 -28 4 0 6 11 11 25 11 27 0 33 18 13 38 -16 16 -33 15 -48 -2z
m40 -16 c0 -5 -7 -10 -15 -10 -8 0 -15 5 -15 10 0 6 7 10 15 10 8 0 15 -4 15
-10z"/>
<path d="M5500 974 c0 -5 5 -15 11 -21 8 -8 8 -17 0 -32 -7 -12 -8 -21 -2 -21
5 0 11 6 14 13 4 10 7 10 18 0 18 -18 34 -16 20 1 -7 8 -9 26 -6 43 6 25 5 26
-8 11 -13 -16 -15 -16 -30 0 -9 9 -17 12 -17 6z"/>
<path d="M5585 970 c-3 -5 3 -10 14 -10 12 0 21 -4 21 -10 0 -5 -9 -10 -20
-10 -13 0 -20 -7 -20 -20 0 -16 7 -20 30 -20 26 0 30 4 30 28 0 41 -38 70 -55
42z m35 -50 c0 -5 -7 -10 -15 -10 -8 0 -15 5 -15 10 0 6 7 10 15 10 8 0 15 -4
15 -10z"/>
<path d="M5660 938 c0 -21 5 -38 10 -38 6 0 10 14 10 30 0 20 5 30 15 30 10 0
15 -10 15 -30 0 -16 5 -30 10 -30 6 0 10 14 10 30 0 20 5 30 15 30 10 0 15
-10 15 -30 0 -16 5 -30 10 -30 14 0 12 57 -2 67 -7 4 -34 8 -60 8 l-48 0 0
-37z"/>
<path d="M5801 920 c1 -30 4 -45 6 -34 3 17 9 20 25 16 25 -6 48 20 41 48 -6
22 -6 22 -45 24 -28 2 -28 1 -27 -54z m54 15 c0 -11 -7 -21 -16 -23 -18 -3
-33 23 -23 39 10 17 39 5 39 -16z"/>
<path d="M5936 964 c-9 -8 -16 -21 -16 -28 0 -30 51 -49 66 -25 4 7 0 9 -14 5
-11 -4 -23 -2 -27 4 -4 6 4 10 19 10 32 0 40 14 20 34 -19 20 -29 20 -48 0z
m44 -14 c0 -5 -9 -10 -20 -10 -11 0 -20 5 -20 10 0 6 9 10 20 10 11 0 20 -4
20 -10z"/>
<path d="M6050 966 c-20 -26 -8 -61 23 -64 15 -2 27 1 27 6 0 5 -8 9 -17 8
-12 0 -19 7 -21 22 -3 17 2 22 18 22 12 0 18 5 15 10 -9 14 -31 12 -45 -4z"/>
<path d="M6123 964 c-4 -11 2 -23 17 -34 l24 -18 -25 -5 c-23 -4 -23 -4 4 -6
34 -1 38 31 5 47 l-23 11 23 0 c13 1 20 5 17 11 -10 16 -35 12 -42 -6z"/>
<path d="M6190 966 c-9 -12 -7 -17 9 -28 26 -16 27 -25 4 -31 -11 -3 -7 -5 10
-6 34 -1 38 33 5 44 l-23 8 23 4 c12 2 20 9 17 14 -9 14 -31 11 -45 -5z"/>
<path d="M2830 910 c0 -5 5 -10 11 -10 5 0 7 5 4 10 -3 6 -8 10 -11 10 -2 0
-4 -4 -4 -10z"/>
<path d="M6010 910 c0 -5 5 -10 11 -10 5 0 7 5 4 10 -3 6 -8 10 -11 10 -2 0
-4 -4 -4 -10z"/>
<path d="M827 643 c-12 -21 -39 -144 -34 -150 4 -3 10 -4 13 -1 4 5 43 141 44
156 0 6 -19 1 -23 -5z"/>
<path d="M1937 644 c-4 -4 -7 -49 -7 -101 l0 -93 100 0 101 0 -3 98 -3 97 -90
3 c-50 1 -94 0 -98 -4z m178 -94 l0 -85 -85 0 -85 0 -3 74 c-2 41 -1 80 2 88
4 11 25 13 88 11 l83 -3 0 -85z"/>
<path d="M2034 589 c-10 -17 13 -36 27 -22 12 12 4 33 -11 33 -5 0 -12 -5 -16
-11z"/>
<path d="M1980 525 l-23 -25 73 0 c73 0 73 0 55 20 -10 12 -25 18 -32 16 -7
-3 -15 -1 -18 4 -10 17 -31 11 -55 -15z"/>
<path d="M5117 644 c-4 -4 -7 -49 -7 -101 l0 -93 100 0 101 0 -3 98 -3 97 -90
3 c-50 1 -94 0 -98 -4z m178 -94 l0 -85 -85 0 -85 0 -3 74 c-2 41 -1 80 2 88
4 11 25 13 88 11 l83 -3 0 -85z"/>
<path d="M5214 589 c-10 -17 13 -36 27 -22 12 12 4 33 -11 33 -5 0 -12 -5 -16
-11z"/>
<path d="M5160 525 l-23 -25 73 0 c73 0 73 0 55 20 -10 12 -25 18 -32 16 -7
-3 -15 -1 -18 4 -10 17 -31 11 -55 -15z"/>
<path d="M300 575 c0 -51 3 -65 15 -65 10 0 15 10 15 30 0 28 3 30 35 30 32 0
35 -2 35 -30 0 -16 5 -30 10 -30 6 0 10 28 10 65 0 37 -4 65 -10 65 -5 0 -10
-11 -10 -25 0 -22 -4 -25 -35 -25 -31 0 -35 3 -35 25 0 16 -6 25 -15 25 -12 0
-15 -14 -15 -65z"/>
<path d="M440 630 c0 -5 9 -10 20 -10 18 0 20 -7 20 -55 0 -42 3 -55 15 -55
12 0 15 13 15 55 l0 55 40 0 40 0 0 -55 c0 -42 3 -55 15 -55 12 0 15 13 15 55
0 48 2 55 20 55 11 0 20 5 20 10 0 6 -43 10 -110 10 -67 0 -110 -4 -110 -10z"/>
<path d="M680 576 c0 -62 15 -92 22 -44 2 16 12 24 32 28 68 12 58 73 -13 78
l-41 3 0 -65z m70 24 c0 -15 -7 -20 -25 -20 -18 0 -25 5 -25 20 0 15 7 20 25
20 18 0 25 -5 25 -20z"/>
<path d="M877 634 c-16 -16 -5 -25 23 -19 20 4 30 3 30 -5 0 -7 -13 -28 -30
-47 -16 -18 -30 -38 -30 -43 0 -6 20 -10 45 -10 25 0 45 5 45 10 0 6 -14 10
-32 10 l-32 0 28 29 c37 39 33 75 -9 79 -17 2 -34 0 -38 -4z"/>
<path d="M2295 600 c-3 -5 -1 -10 4 -10 6 0 11 5 11 10 0 6 -2 10 -4 10 -3 0
-8 -4 -11 -10z"/>
<path d="M5475 600 c-3 -5 -1 -10 4 -10 6 0 11 5 11 10 0 6 -2 10 -4 10 -3 0
-8 -4 -11 -10z"/>
<path d="M2297 573 c-11 -10 -8 -73 3 -73 6 0 10 18 10 40 0 41 -2 45 -13 33z"/>
<path d="M2331 535 l1 -40 9 33 c12 41 39 43 39 2 0 -16 5 -30 10 -30 6 0 10
14 10 30 0 20 5 30 15 30 10 0 15 -10 15 -30 0 -16 5 -30 10 -30 14 0 12 57
-2 67 -7 4 -34 8 -60 8 l-48 0 1 -40z"/>
<path d="M2475 570 c-3 -5 3 -10 14 -10 28 0 27 -18 -1 -22 -36 -5 -28 -32 10
-36 29 -3 32 -1 32 25 0 42 -38 71 -55 43z m30 -50 c-3 -5 -10 -10 -16 -10 -5
0 -9 5 -9 10 0 6 7 10 16 10 8 0 12 -4 9 -10z"/>
<path d="M2550 565 c-7 -8 -9 -26 -6 -40 5 -19 13 -25 33 -25 29 0 22 -15 -12
-23 -16 -4 -15 -5 6 -6 35 -1 49 16 49 64 0 37 -2 40 -29 42 -16 1 -35 -4 -41
-12z m48 -27 c-2 -13 -10 -23 -18 -23 -8 0 -16 10 -18 23 -3 17 2 22 18 22 16
0 21 -5 18 -22z"/>
<path d="M2654 572 c-32 -21 -17 -72 21 -72 14 0 25 4 25 9 0 5 -8 7 -19 4
-10 -3 -22 0 -25 6 -5 7 4 11 23 11 36 0 42 23 12 40 -23 12 -23 12 -37 2z
m36 -22 c0 -5 -9 -10 -21 -10 -11 0 -17 5 -14 10 3 6 13 10 21 10 8 0 14 -4
14 -10z"/>
<path d="M2761 520 c1 -30 4 -46 6 -34 3 16 10 20 28 17 26 -6 49 25 39 51 -7
18 -7 18 -46 20 -28 2 -28 1 -27 -54z m54 15 c0 -11 -7 -21 -16 -23 -18 -3
-33 23 -23 39 10 17 39 5 39 -16z"/>
<path d="M2868 573 c-13 -3 -18 -15 -18 -39 0 -19 5 -34 10 -34 6 0 10 14 10
31 0 41 32 36 41 -6 7 -29 7 -29 8 6 1 25 -4 39 -15 43 -9 3 -16 5 -17 5 -1
-1 -10 -3 -19 -6z"/>
<path d="M2951 566 c-22 -26 -9 -60 24 -67 24 -5 27 -7 13 -13 -10 -5 -25 -6
-33 -2 -8 3 -15 1 -15 -4 0 -19 59 -11 70 9 15 29 13 81 -4 81 -8 0 -21 2 -29
5 -7 3 -19 -1 -26 -9z m47 -29 c4 -21 -27 -35 -38 -17 -12 19 0 42 19 38 9 -2
17 -11 19 -21z"/>
<path d="M5477 573 c-11 -10 -8 -73 3 -73 6 0 10 18 10 40 0 41 -2 45 -13 33z"/>
<path d="M5511 535 l1 -40 9 33 c12 41 39 43 39 2 0 -16 5 -30 10 -30 6 0 10
14 10 30 0 20 5 30 15 30 10 0 15 -10 15 -30 0 -16 5 -30 10 -30 14 0 12 57
-2 67 -7 4 -34 8 -60 8 l-48 0 1 -40z"/>
<path d="M5655 570 c-3 -5 3 -10 14 -10 28 0 27 -18 -1 -22 -36 -5 -28 -32 10
-36 29 -3 32 -1 32 25 0 42 -38 71 -55 43z m30 -50 c-3 -5 -10 -10 -16 -10 -5
0 -9 5 -9 10 0 6 7 10 16 10 8 0 12 -4 9 -10z"/>
<path d="M5730 565 c-7 -8 -9 -26 -6 -40 5 -19 13 -25 33 -25 29 0 22 -15 -12
-23 -16 -4 -15 -5 6 -6 35 -1 49 16 49 64 0 37 -2 40 -29 42 -16 1 -35 -4 -41
-12z m48 -27 c-2 -13 -10 -23 -18 -23 -8 0 -16 10 -18 23 -3 17 2 22 18 22 16
0 21 -5 18 -22z"/>
<path d="M5834 572 c-32 -21 -17 -72 21 -72 14 0 25 4 25 9 0 5 -8 7 -19 4
-10 -3 -22 0 -25 6 -5 7 4 11 23 11 36 0 42 23 12 40 -23 12 -23 12 -37 2z
m36 -22 c0 -5 -9 -10 -21 -10 -11 0 -17 5 -14 10 3 6 13 10 21 10 8 0 14 -4
14 -10z"/>
<path d="M5941 520 c1 -30 4 -46 6 -34 3 16 10 20 28 17 26 -6 49 25 39 51 -7
18 -7 18 -46 20 -28 2 -28 1 -27 -54z m54 15 c0 -11 -7 -21 -16 -23 -18 -3
-33 23 -23 39 10 17 39 5 39 -16z"/>
<path d="M6048 573 c-13 -3 -18 -15 -18 -39 0 -19 5 -34 10 -34 6 0 10 14 10
31 0 41 32 36 41 -6 7 -29 7 -29 8 6 1 25 -4 39 -15 43 -9 3 -16 5 -17 5 -1
-1 -10 -3 -19 -6z"/>
<path d="M6131 566 c-22 -26 -9 -60 24 -67 24 -5 27 -7 13 -13 -10 -5 -25 -6
-33 -2 -8 3 -15 1 -15 -4 0 -19 59 -11 70 9 15 29 13 81 -4 81 -8 0 -21 2 -29
5 -7 3 -19 -1 -26 -9z m47 -29 c4 -21 -27 -35 -38 -17 -12 19 0 42 19 38 9 -2
17 -11 19 -21z"/>
<path d="M7291 526 c-18 -22 -7 -45 29 -57 36 -13 30 -29 -11 -29 -18 0 -28
-4 -24 -10 9 -14 58 -13 73 2 21 21 13 37 -25 57 -31 16 -35 21 -20 26 9 4 24
4 33 1 10 -4 14 -1 12 6 -7 19 -53 21 -67 4z"/>
<path d="M2720 510 c0 -5 5 -10 10 -10 6 0 10 5 10 10 0 6 -4 10 -10 10 -5 0
-10 -4 -10 -10z"/>
<path d="M5900 510 c0 -5 5 -10 10 -10 6 0 10 5 10 10 0 6 -4 10 -10 10 -5 0
-10 -4 -10 -10z"/>
<path d="M7395 490 c-15 -17 -16 -24 -7 -45 12 -26 54 -35 67 -15 4 6 -5 10
-19 10 -14 0 -26 5 -26 10 0 6 14 10 30 10 33 0 38 11 14 34 -21 21 -37 20
-59 -4z m50 -10 c3 -5 -3 -10 -14 -10 -12 0 -21 5 -21 10 0 6 6 10 14 10 8 0
18 -4 21 -10z"/>
<path d="M7490 463 c0 -24 5 -43 10 -43 6 0 10 14 10 30 0 18 6 33 15 36 24 9
17 22 -10 20 -23 -1 -25 -5 -25 -43z"/>
<path d="M7550 495 c0 -22 28 -75 40 -75 9 0 40 63 40 81 0 21 -19 6 -30 -23
l-11 -33 -14 33 c-15 35 -25 41 -25 17z"/>
<path d="M7658 499 c-21 -12 -24 -49 -6 -67 15 -15 54 -16 63 -2 4 6 -5 10
-19 10 -14 0 -26 5 -26 10 0 6 14 10 31 10 30 0 31 1 17 23 -18 26 -36 31 -60
16z m42 -19 c0 -5 -9 -10 -21 -10 -11 0 -17 5 -14 10 3 6 13 10 21 10 8 0 14
-4 14 -10z"/>
<path d="M7745 501 c-10 -9 -5 -81 5 -81 6 0 10 11 10 24 0 13 7 29 15 36 8 7
15 15 15 19 0 7 -38 9 -45 2z"/>
</g>
</svg>
