<?xml version="1.0" standalone="no"?>
<!DOCTYPE svg PUBLIC "-//W3C//DTD SVG 20010904//EN"
 "http://www.w3.org/TR/2001/REC-SVG-20010904/DTD/svg10.dtd">
<svg version="1.0" xmlns="http://www.w3.org/2000/svg"
 width="50%" height="40%" viewBox="0 0 730.000000 350.000000"
 preserveAspectRatio="xMidYMid meet">

<g transform="translate(0.000000,350.000000) scale(0.100000,-0.100000)"
fill="#000000" stroke="none">
<path d="M5446 3122 c-4 -7 3 -26 16 -43 33 -45 33 -154 0 -199 -27 -36 -22
-52 8 -25 37 33 50 123 29 194 -14 47 -44 88 -53 73z"/>
<path d="M4711 3071 c-33 -77 -24 -177 19 -216 30 -27 35 -11 8 25 -33 45 -33
154 0 199 26 35 27 41 8 41 -7 0 -23 -22 -35 -49z"/>
<path d="M1707 3103 c-4 -3 -10 -28 -13 -55 -4 -31 -11 -48 -20 -48 -8 0 -14
-4 -14 -10 0 -5 5 -10 10 -10 6 0 10 -22 10 -50 0 -27 5 -50 10 -50 6 0 10 20
10 45 0 40 3 47 26 55 41 16 44 13 44 -45 0 -30 5 -55 10 -55 6 0 10 24 11 53
0 28 4 76 8 105 4 28 4 52 0 52 -9 0 -19 -26 -19 -51 0 -18 -34 -39 -62 -39
-11 0 -6 59 7 93 7 16 -5 24 -18 10z"/>
<path d="M4826 3093 c-3 -10 -8 -35 -12 -55 -4 -23 -12 -38 -20 -38 -8 0 -14
-4 -14 -10 0 -5 7 -10 16 -10 12 0 14 -8 9 -44 -4 -25 -3 -46 3 -50 5 -3 12
14 15 40 6 53 3 50 44 59 l32 6 -6 -49 c-3 -29 -1 -52 4 -55 7 -4 13 22 17 66
4 39 9 87 13 105 3 19 1 32 -5 32 -6 0 -13 -18 -17 -39 -5 -29 -12 -41 -28
-45 -52 -14 -54 -10 -31 78 7 29 -11 37 -20 9z"/>
<path d="M2883 3083 c-65 -15 -87 -37 -32 -31 l31 3 2 -82 c0 -50 5 -82 11
-80 6 1 9 26 7 59 -6 84 4 116 35 120 15 2 28 9 31 16 4 15 -4 14 -85 -5z"/>
<path d="M3492 3084 c-26 -18 -52 -65 -52 -93 0 -11 -8 -25 -17 -30 -15 -9
-16 -12 -4 -20 14 -9 12 -42 -5 -85 -5 -14 -3 -17 7 -14 8 3 19 27 24 54 10
43 15 50 43 58 41 12 42 31 1 22 -31 -6 -31 -5 -25 27 3 18 19 43 37 58 33 29
26 48 -9 23z"/>
<path d="M5023 3082 c-71 -19 -97 -38 -40 -29 l37 6 0 -84 c0 -117 19 -119 22
-3 l3 93 29 5 c16 3 31 11 34 18 5 15 -7 14 -85 -6z"/>
<path d="M5205 3083 c-72 -17 -99 -37 -42 -31 l37 4 0 -82 c0 -46 5 -86 10
-89 6 -3 10 0 11 7 0 7 1 49 2 93 2 80 2 80 31 85 16 3 31 11 34 18 5 15 -5
14 -83 -5z"/>
<path d="M3883 3066 c-24 -20 -29 -33 -31 -78 -3 -59 6 -111 17 -104 4 3 6 19
3 36 -4 26 2 36 36 66 46 39 59 68 42 89 -17 21 -34 19 -67 -9z m51 -5 c7 -10
-41 -71 -55 -71 -14 0 2 53 20 67 19 15 28 16 35 4z"/>
<path d="M4576 3059 c-10 -50 -7 -169 4 -169 6 0 10 33 10 78 0 42 3 87 6 100
4 12 2 22 -4 22 -5 0 -12 -14 -16 -31z"/>
<path d="M5344 3067 c-28 -24 -29 -27 -26 -101 2 -42 8 -76 13 -76 5 0 9 14 9
30 0 22 11 41 41 71 30 30 39 47 37 67 -4 36 -37 40 -74 9z m56 -11 c0 -16
-38 -66 -51 -66 -18 0 -9 49 13 64 28 20 38 20 38 2z"/>
<path d="M2337 3073 c-3 -5 -8 -23 -12 -40 -3 -18 -10 -33 -13 -33 -9 0 -9
-106 -1 -114 4 -4 9 16 13 44 6 45 9 50 31 50 30 0 33 16 5 23 -16 4 -18 11
-13 41 5 33 0 47 -10 29z"/>
<path d="M2687 3073 c-3 -5 -8 -23 -12 -40 -3 -18 -10 -33 -13 -33 -11 0 -12
-109 -2 -115 6 -4 10 6 10 22 0 52 11 73 36 73 29 0 32 16 3 23 -17 5 -19 10
-13 41 6 33 1 47 -9 29z"/>
<path d="M4209 3053 c-5 -16 -12 -35 -15 -43 -11 -29 -14 -119 -4 -125 6 -4
10 6 10 22 0 52 11 73 36 73 29 0 32 16 3 23 -17 5 -19 10 -13 41 7 43 -2 48
-17 9z"/>
<path d="M1981 3007 c-10 -26 -14 -62 -12 -125 1 -51 21 -48 21 3 0 26 6 39
25 51 28 18 39 45 30 74 -9 29 -53 27 -64 -3z m49 -10 c0 -19 -27 -53 -35 -45
-12 12 4 58 20 58 8 0 15 -6 15 -13z"/>
<path d="M1860 2965 c0 -49 18 -67 45 -45 12 10 15 10 15 -2 0 -29 -31 -58
-61 -58 -20 0 -29 -4 -26 -12 6 -18 58 -10 81 12 12 11 21 38 24 69 5 57 -6
66 -33 25 -21 -32 -30 -24 -26 22 1 19 -2 34 -8 34 -6 0 -11 -20 -11 -45z"/>
<path d="M3217 2997 c-10 -25 -9 -95 1 -101 5 -3 16 8 26 25 21 35 39 38 30 5
-3 -13 -1 -27 5 -30 6 -4 11 -1 11 7 0 8 3 29 6 46 8 38 -13 42 -42 10 l-19
-21 -5 38 c-4 30 -7 35 -13 21z"/>
<path d="M3350 3000 c-12 -7 -12 -16 -3 -51 10 -37 9 -42 -8 -46 -25 -7 -25
-23 0 -23 31 0 43 23 30 60 -10 28 -9 34 5 42 9 5 16 13 16 18 0 13 -21 12
-40 0z"/>
<path d="M2107 2971 c-6 -17 -17 -31 -24 -31 -7 0 -13 -4 -13 -10 0 -5 6 -10
14 -10 7 0 19 -7 26 -15 14 -17 56 -20 65 -5 4 6 -5 10 -19 10 -30 0 -32 5
-10 27 19 20 14 57 -9 61 -13 3 -22 -6 -30 -27z m29 -18 c-10 -10 -19 5 -10
18 6 11 8 11 12 0 2 -7 1 -15 -2 -18z"/>
<path d="M2198 2994 c-8 -15 3 -104 13 -104 5 0 9 11 9 25 0 25 31 65 50 65 6
0 10 5 10 10 0 14 -34 12 -48 -2 -10 -10 -15 -10 -21 1 -5 7 -11 9 -13 5z"/>
<path d="M2437 2971 c-6 -17 -17 -31 -24 -31 -7 0 -13 -4 -13 -10 0 -5 6 -10
14 -10 7 0 19 -7 26 -15 14 -17 60 -21 60 -5 0 6 -9 10 -20 10 -24 0 -26 13
-5 30 21 17 15 54 -8 58 -13 3 -22 -6 -30 -27z m29 -18 c-10 -10 -19 5 -10 18
6 11 8 11 12 0 2 -7 1 -15 -2 -18z"/>
<path d="M2540 2987 c0 -7 5 -18 12 -25 9 -9 8 -16 -5 -30 -24 -26 -23 -50 1
-29 23 21 31 21 49 0 13 -16 14 -15 8 11 -4 19 -1 34 11 47 22 24 13 34 -16
17 -18 -11 -22 -11 -31 5 -12 20 -29 23 -29 4z"/>
<path d="M3035 2990 c-4 -6 -16 -8 -27 -4 -17 5 -20 3 -15 -11 4 -9 7 -32 7
-51 0 -41 15 -37 23 6 4 19 16 34 32 42 14 6 25 15 25 20 0 12 -38 10 -45 -2z"/>
<path d="M3131 2974 c-32 -27 -39 -52 -19 -72 8 -8 17 -8 32 0 15 8 21 8 24
-1 9 -26 18 -8 17 32 -3 80 -6 82 -54 41z m39 -11 c-1 -14 -27 -43 -39 -43
-16 0 -14 16 5 34 16 17 34 21 34 9z"/>
<path d="M3592 2988 c-6 -6 -12 -20 -12 -30 0 -10 -7 -18 -15 -18 -8 0 -15 -4
-15 -10 0 -5 6 -10 14 -10 7 0 19 -7 26 -15 14 -17 60 -21 60 -5 0 6 -9 10
-20 10 -24 0 -26 13 -5 30 19 16 16 54 -5 58 -9 1 -21 -3 -28 -10z m20 -30
c-7 -7 -12 -8 -12 -2 0 6 3 14 7 17 3 4 9 5 12 2 2 -3 -1 -11 -7 -17z"/>
<path d="M3715 2990 c-4 -6 -16 -8 -27 -4 -17 5 -20 3 -15 -11 4 -9 7 -32 7
-51 0 -41 15 -37 23 6 4 19 16 34 32 42 14 6 25 15 25 20 0 12 -38 10 -45 -2z"/>
<path d="M3979 2996 c-7 -8 3 -106 11 -106 4 0 11 16 14 35 5 25 15 39 32 47
13 6 24 15 24 20 0 12 -34 10 -48 -4 -10 -10 -14 -10 -21 0 -4 7 -9 10 -12 8z"/>
<path d="M4094 2975 c-31 -48 8 -105 47 -69 32 29 20 94 -18 94 -7 0 -20 -11
-29 -25z m46 -24 c0 -10 -7 -24 -15 -31 -12 -10 -16 -9 -21 4 -3 9 -4 23 0 31
8 21 36 19 36 -4z"/>
<path d="M4292 2988 c-17 -17 -15 -73 4 -89 23 -19 48 1 52 40 5 50 -27 78
-56 49z m41 -25 c8 -13 -12 -55 -23 -48 -16 10 -12 55 4 55 8 0 17 -3 19 -7z"/>
<path d="M4396 2984 c-24 -24 -21 -81 5 -89 14 -5 27 -1 37 9 20 19 8 34 -13
16 -12 -10 -19 -10 -27 -2 -15 15 5 62 27 62 8 0 15 5 15 10 0 15 -27 12 -44
-6z"/>
<path d="M4487 2982 c-21 -23 -22 -65 -2 -82 34 -28 78 29 57 75 -14 30 -33
32 -55 7z m43 -31 c0 -10 -7 -24 -15 -31 -12 -10 -16 -9 -21 4 -3 9 -4 23 0
31 8 21 36 19 36 -4z"/>
<path d="M207 2293 c-4 -3 -7 -262 -7 -575 l0 -568 648 2 647 3 5 152 5 153
30 -20 c17 -11 38 -20 48 -20 18 0 24 25 7 35 -5 3 -10 9 -10 13 0 9 1015 13
1104 4 l69 -7 14 -55 c7 -30 28 -79 45 -107 l32 -53 694 0 694 0 27 29 c15 16
35 56 45 89 l19 60 181 6 c182 6 1022 29 1106 30 l45 1 5 -180 5 -180 640 0
640 0 0 565 0 565 -642 3 -643 2 0 -205 c0 -134 -4 -205 -10 -205 -6 0 -38 14
-71 30 -57 29 -79 31 -79 8 0 -6 8 -17 18 -24 14 -11 -67 -13 -493 -13 -280 1
-552 4 -604 8 l-94 6 -14 58 c-14 66 -33 105 -60 129 -18 16 -70 18 -714 19
l-694 0 -26 -37 c-15 -21 -34 -62 -43 -91 l-17 -53 -57 6 c-31 3 -63 8 -71 10
-24 8 -1048 -32 -1103 -42 l-28 -6 0 219 c0 157 -3 222 -12 231 -9 9 -166 12
-643 12 -348 0 -635 -3 -638 -7z m6693 -618 l0 -525 -600 0 -599 0 -1 525 0
525 600 0 600 0 0 -525z m-2765 303 c-36 -111 -46 -197 -42 -358 3 -110 10
-183 21 -220 8 -30 18 -65 22 -78 l6 -22 -638 2 -639 3 -28 56 c-75 149 -73
437 4 597 l21 42 640 0 640 0 -7 -22z m114 -21 c10 -23 22 -57 26 -75 l7 -32
-66 0 -65 0 6 33 c9 50 44 117 59 117 8 0 23 -19 33 -43z m-3459 -42 c0 -26
-14 -33 -25 -15 -9 14 1 40 15 40 5 0 10 -11 10 -25z m-72 3 c8 -8 8 -16 -1
-32 -6 -12 -12 -68 -14 -126 -1 -58 -2 -107 -3 -109 0 -2 -7 3 -16 10 -14 11
-16 30 -12 124 6 136 16 163 46 133z m-88 -18 c35 -35 21 -59 -18 -34 -24 16
-26 16 -44 -5 -19 -24 -38 -83 -38 -116 0 -34 15 -48 46 -42 60 12 67 12 71 0
6 -17 -40 -44 -76 -45 -51 -2 -71 25 -71 94 0 70 18 117 55 146 34 27 49 28
75 2z m555 -40 c-6 -46 -5 -50 14 -50 14 0 21 -6 21 -20 0 -17 -6 -20 -27 -18
-30 3 -40 -17 -42 -84 -1 -27 -6 -38 -16 -38 -12 0 -15 14 -12 80 1 44 5 80 9
80 3 0 10 15 13 33 18 80 51 94 40 17z m1557 -30 c2 -3 2 -76 0 -164 l-4 -158
-45 6 c-25 3 -286 6 -580 6 -451 0 -534 2 -530 14 3 7 0 19 -6 25 -8 8 -20 4
-44 -15 l-33 -25 0 139 0 140 43 6 c36 5 380 21 637 30 135 4 558 2 562 -4z
m-1731 -22 c1 -7 0 -26 -1 -43 l-2 -30 29 28 c50 46 62 36 53 -45 -6 -62 -30
-79 -30 -21 l-1 38 -23 -27 c-13 -15 -26 -33 -29 -40 -4 -10 -7 -10 -18 -1
-13 13 -16 124 -4 144 9 13 25 11 26 -3z m-73 -40 c2 -27 -2 -40 -17 -50 -24
-17 -18 -28 16 -28 27 0 32 -29 6 -31 -36 -2 -58 3 -66 17 -4 8 -16 14 -26 14
-22 0 -45 25 -37 39 4 6 12 8 19 6 7 -3 19 12 29 36 15 35 21 40 45 37 24 -3
28 -8 31 -40z m3356 -51 c3 -45 3 -116 -2 -157 l-7 -75 -55 3 c-89 5 -86 3
-94 95 -6 70 -1 177 9 212 1 6 31 9 73 7 l70 -4 6 -81z m-3518 46 c-3 -21 -6
-53 -6 -70 0 -23 -5 -33 -15 -33 -11 0 -15 12 -15 48 0 63 9 92 27 92 12 0 14
-8 9 -37z m4246 26 c496 -2 497 -2 495 -23 -3 -31 25 -30 79 3 26 17 52 31 56
31 4 0 8 -63 8 -140 0 -104 -3 -142 -12 -145 -24 -8 -510 -24 -913 -31 l-400
-7 3 154 c1 85 2 158 2 163 0 5 41 6 93 2 50 -3 316 -6 589 -7z m-752 -372 c0
-26 -33 -102 -49 -111 -5 -4 -17 5 -26 18 -17 26 -46 112 -40 118 2 1 28 1 59
0 50 -3 56 -6 56 -25z"/>
<path d="M6301 1734 c0 -11 3 -14 6 -6 3 7 2 16 -1 19 -3 4 -6 -2 -5 -13z"/>
<path d="M3926 1788 c-4 -13 -9 -72 -13 -132 -5 -91 -4 -108 8 -104 8 3 16 17
19 32 l5 27 29 -30 c28 -29 56 -41 56 -23 -1 4 -16 25 -35 46 l-33 40 39 17
c21 10 39 25 39 34 0 19 -11 19 -55 -2 -19 -9 -37 -14 -40 -12 -2 3 -1 30 4
60 5 29 7 57 4 62 -8 14 -21 7 -27 -15z"/>
<path d="M3051 1763 c-6 -21 -11 -63 -11 -93 l0 -55 -25 30 c-14 17 -35 51
-47 78 -13 26 -27 46 -33 44 -22 -8 -46 -239 -26 -251 14 -9 33 38 26 67 -3
12 -2 40 2 61 l9 40 48 -62 c27 -34 54 -62 61 -62 9 0 14 31 17 103 3 56 9
110 13 120 5 12 3 17 -8 17 -10 0 -20 -15 -26 -37z"/>
<path d="M3310 1740 c-7 -27 -15 -50 -19 -50 -11 0 -7 -145 4 -148 6 -2 11 3
12 10 1 7 5 34 8 61 6 44 8 47 36 47 35 0 41 27 7 32 -18 2 -22 9 -20 28 1 14
4 34 5 44 1 10 -3 21 -9 23 -7 2 -17 -17 -24 -47z"/>
<path d="M3407 1693 c-11 -10 -8 -97 4 -132 13 -38 25 -39 60 -5 27 26 27 26
38 5 16 -29 55 -27 79 4 23 28 36 87 27 115 -11 34 -22 22 -29 -28 -11 -86
-48 -108 -62 -37 -9 50 -19 51 -45 5 -33 -59 -49 -52 -49 20 0 55 -6 70 -23
53z"/>
<path d="M3170 1671 c-5 -11 -10 -29 -10 -41 0 -16 -5 -20 -22 -18 -32 5 -34
-20 -1 -33 15 -6 35 -17 45 -25 9 -9 29 -14 44 -12 36 4 45 28 10 28 -34 0
-40 14 -16 35 34 31 20 85 -22 85 -9 0 -22 -9 -28 -19z m31 -38 c-8 -15 -10
-15 -11 -2 0 17 10 32 18 25 2 -3 -1 -13 -7 -23z"/>
<path d="M3682 1683 c-22 -9 -44 -63 -37 -94 9 -40 39 -55 70 -35 60 40 31
155 -33 129z m36 -60 c3 -22 -22 -48 -38 -38 -14 8 -13 38 2 53 16 16 32 10
36 -15z"/>
<path d="M3823 1675 c-14 -10 -24 -12 -28 -5 -3 5 -10 10 -15 10 -11 0 -5
-133 7 -137 5 -2 16 18 24 44 10 35 22 52 42 61 30 15 37 42 9 42 -10 0 -27
-7 -39 -15z"/>
<path d="M890 1754 c0 -8 5 -12 10 -9 6 3 10 10 10 16 0 5 -4 9 -10 9 -5 0
-10 -7 -10 -16z"/>
<path d="M1637 2149 c-21 -11 -35 -24 -32 -29 4 -7 13 -6 25 0 10 5 20 10 22
10 2 0 2 -34 0 -75 -2 -43 0 -75 6 -75 5 0 10 28 10 63 0 34 5 74 11 89 14 36
4 40 -42 17z"/>
<path d="M2600 2156 c0 -8 -5 -27 -11 -43 -16 -38 -22 -143 -9 -143 5 0 10 12
10 28 0 51 11 72 36 72 13 0 24 5 24 10 0 6 -9 10 -21 10 -19 0 -20 4 -14 40
4 26 3 40 -4 40 -6 0 -11 -6 -11 -14z"/>
<path d="M2106 2109 c-21 -16 -26 -28 -24 -53 3 -26 7 -31 30 -31 26 1 26 0
21 -52 -4 -36 -2 -53 6 -53 6 0 11 14 11 32 0 17 8 58 17 91 16 57 16 60 -2
73 -25 18 -27 18 -59 -7z m44 -15 c0 -16 -23 -44 -35 -44 -18 0 -20 21 -3 38
12 12 38 17 38 6z"/>
<path d="M2505 2089 c-4 -6 -4 -30 -1 -53 6 -39 5 -44 -16 -50 -18 -5 -20 -8
-9 -15 7 -5 22 -6 33 -3 18 4 19 10 14 53 -6 40 -4 49 9 49 8 0 15 7 15 15 0
17 -35 20 -45 4z"/>
<path d="M1710 2075 c0 -8 5 -15 10 -15 6 0 10 7 10 15 0 8 -4 15 -10 15 -5 0
-10 -7 -10 -15z"/>
<path d="M1830 2033 c0 -71 12 -82 26 -26 6 26 17 42 37 51 15 7 27 17 27 23
0 15 -36 10 -50 -6 -11 -13 -14 -13 -26 2 -12 16 -13 10 -14 -44z"/>
<path d="M1982 2058 c-6 -24 -14 -32 -26 -30 -11 2 -16 -2 -14 -10 3 -7 13
-15 23 -17 10 -2 25 -9 33 -17 16 -16 52 -19 52 -4 0 6 -6 10 -14 10 -23 0
-29 19 -11 36 22 23 15 58 -12 62 -18 3 -24 -3 -31 -30z m34 -15 c-10 -10 -19
5 -10 18 6 11 8 11 12 0 2 -7 1 -15 -2 -18z"/>
<path d="M2381 2071 c-6 -11 -11 -27 -11 -35 0 -10 -6 -13 -15 -10 -8 4 -15 1
-15 -5 0 -6 11 -16 24 -21 13 -5 27 -14 31 -19 8 -14 55 -14 55 -1 0 6 -8 10
-18 10 -30 0 -34 12 -11 36 11 12 19 30 17 41 -5 26 -44 29 -57 4z m37 -13
c-2 -6 -10 -14 -16 -16 -7 -2 -10 2 -6 12 7 18 28 22 22 4z"/>
<path d="M2209 2045 c-1 -19 -2 -41 -3 -47 -2 -20 34 -21 55 -2 18 16 19 16
19 -4 0 -12 5 -22 10 -22 6 0 10 11 10 24 0 13 3 38 6 55 9 42 -5 38 -39 -10
-32 -46 -43 -44 -38 7 1 19 -2 34 -8 34 -6 0 -12 -16 -12 -35z"/>
<path d="M1710 1991 c0 -6 5 -13 10 -16 6 -3 10 1 10 9 0 9 -4 16 -10 16 -5 0
-10 -4 -10 -9z"/>
<path d="M4433 1395 c-18 -8 -33 -19 -33 -26 0 -7 7 -8 18 -4 34 15 62 17 62
6 0 -6 -16 -36 -36 -66 -44 -65 -40 -85 15 -85 53 0 62 18 11 22 l-41 3 36 55
c38 59 44 94 19 104 -9 3 -16 6 -17 6 -1 -1 -17 -7 -34 -15z"/>
<path d="M5009 1338 c-17 -31 -25 -188 -10 -188 6 0 11 18 11 45 0 38 4 47 24
56 35 17 52 53 38 84 -14 31 -47 33 -63 3z m51 -20 c0 -14 -30 -48 -42 -48
-11 0 -1 39 14 57 11 14 28 8 28 -9z"/>
<path d="M4925 1323 c-9 -9 -13 -23 -10 -32 4 -9 9 -28 12 -43 5 -24 2 -28
-16 -28 -11 0 -21 -4 -21 -10 0 -16 50 -11 57 6 3 9 1 32 -5 51 -10 31 -9 36
9 40 23 6 25 19 4 27 -8 3 -22 -2 -30 -11z"/>
<path d="M5355 1326 c-17 -12 -18 -18 -7 -52 12 -40 9 -54 -14 -54 -8 0 -14
-4 -14 -10 0 -16 50 -11 57 6 3 9 1 31 -5 50 -9 31 -8 36 10 43 17 6 18 9 6
19 -11 9 -19 9 -33 -2z"/>
<path d="M4690 1313 c-17 -12 -25 -13 -28 -5 -10 30 -19 7 -18 -43 1 -61 13
-67 30 -15 6 20 21 39 34 45 12 5 22 13 22 17 0 16 -18 16 -40 1z"/>
<path d="M4800 1311 c-5 -11 -10 -26 -10 -35 0 -8 -10 -16 -22 -19 -22 -3 -22
-4 4 -15 14 -6 29 -16 33 -21 8 -14 65 -14 65 -1 0 6 -11 10 -25 10 -14 0 -25
5 -25 10 0 6 4 10 8 10 5 0 15 11 22 25 11 20 11 27 0 40 -17 21 -37 19 -50
-4z m34 -26 c-6 -16 -24 -21 -24 -7 0 11 11 22 21 22 5 0 6 -7 3 -15z"/>
<path d="M5121 1311 c-24 -24 -28 -73 -6 -91 43 -36 88 51 47 92 l-20 20 -21
-21z m37 -35 c4 -20 -16 -48 -29 -40 -11 6 -12 48 -2 58 11 10 28 1 31 -18z"/>
<path d="M5204 1295 c-3 -19 -3 -47 0 -61 l7 -27 29 34 29 34 1 -32 c0 -18 5
-33 10 -33 6 0 10 23 10 50 0 28 -3 50 -7 50 -4 0 -20 -12 -36 -27 l-30 -28 7
38 c4 22 3 37 -3 37 -6 0 -13 -16 -17 -35z"/>
<path d="M5460 1311 c-5 -11 -10 -26 -10 -35 0 -8 -10 -16 -22 -19 -22 -3 -22
-4 4 -15 14 -6 29 -16 33 -21 8 -14 65 -14 65 -1 0 6 -11 10 -25 10 -14 0 -25
5 -25 10 0 6 5 10 10 10 6 0 15 12 20 26 18 45 -27 76 -50 35z m34 -26 c-6
-16 -24 -21 -24 -7 0 11 11 22 21 22 5 0 6 -7 3 -15z"/>
<path d="M4530 1304 c0 -8 5 -12 10 -9 6 3 10 10 10 16 0 5 -4 9 -10 9 -5 0
-10 -7 -10 -16z"/>
<path d="M4530 1226 c0 -9 5 -16 10 -16 6 0 10 4 10 9 0 6 -4 13 -10 16 -5 3
-10 -1 -10 -9z"/>
<path d="M2972 1083 c-30 -43 -42 -90 -42 -161 0 -80 16 -134 46 -163 26 -25
45 -18 26 9 -66 90 -68 216 -6 298 21 29 22 44 3 44 -4 0 -16 -12 -27 -27z"/>
<path d="M4100 1096 c0 -8 5 -18 11 -22 6 -3 20 -25 30 -48 34 -75 21 -207
-24 -245 -22 -18 -22 -43 1 -39 9 2 28 26 42 53 36 72 35 178 -2 258 -25 53
-58 78 -58 43z"/>
<path d="M3056 1038 c-11 -50 -17 -226 -9 -231 8 -5 33 179 33 237 0 24 -19
19 -24 -6z"/>
<path d="M3280 1000 c-7 -27 -15 -50 -18 -50 -4 0 -8 -34 -10 -75 -3 -89 11
-99 24 -18 8 54 11 58 39 63 36 6 40 24 7 28 -22 3 -23 7 -17 53 9 65 -9 65
-25 -1z"/>
<path d="M4009 1008 c-6 -24 -16 -49 -21 -55 -6 -7 -8 -20 -4 -28 3 -8 2 -34
-3 -58 -8 -44 -5 -67 9 -67 4 0 10 27 14 59 7 58 8 60 39 63 37 4 43 21 8 26
-22 4 -23 7 -17 53 8 61 -9 66 -25 7z"/>
<path d="M172 903 c-36 -79 -38 -186 -4 -255 21 -43 47 -66 61 -53 3 3 1 12
-4 19 -43 58 -49 73 -53 127 -6 76 3 119 33 163 29 43 31 56 9 56 -9 0 -26
-24 -42 -57z"/>
<path d="M1380 947 c0 -8 9 -22 20 -32 26 -24 40 -76 40 -155 0 -64 -5 -77
-52 -142 -7 -9 -9 -20 -6 -24 14 -13 38 6 60 48 19 35 23 59 23 128 0 72 -4
93 -26 135 -24 48 -59 72 -59 42z"/>
<path d="M3116 953 c-8 -8 -8 -143 0 -143 4 0 22 17 40 38 l33 37 1 -37 c0
-55 16 -46 24 13 10 72 -4 82 -50 38 l-37 -34 7 42 c6 39 -3 61 -18 46z"/>
<path d="M3675 927 c-8 -44 -3 -110 10 -113 6 -2 19 11 30 28 28 44 42 45 37
3 -2 -19 0 -35 6 -35 14 0 22 26 22 76 0 51 -14 57 -50 19 -32 -34 -39 -31
-33 15 7 49 -13 55 -22 7z"/>
<path d="M5454 935 c-42 -64 -56 -176 -33 -257 12 -46 51 -94 68 -84 8 5 4 16
-13 37 -34 40 -50 102 -42 167 6 52 36 124 56 137 11 7 4 25 -10 25 -5 0 -17
-11 -26 -25z"/>
<path d="M7120 946 c0 -8 5 -18 11 -22 6 -3 20 -25 30 -48 34 -75 21 -207 -24
-245 -22 -18 -22 -43 0 -39 10 2 29 23 43 48 21 38 25 58 25 130 -1 71 -5 93
-26 135 -25 48 -59 73 -59 41z"/>
<path d="M3432 937 c-6 -6 -14 -25 -17 -40 -5 -17 -13 -26 -23 -25 -25 5 -25
-20 0 -28 12 -4 35 -16 49 -26 17 -13 34 -18 48 -13 29 9 27 25 -3 25 -32 0
-40 14 -20 31 23 19 33 51 22 72 -10 20 -41 23 -56 4z m38 -26 c0 -5 -7 -14
-15 -21 -12 -10 -15 -10 -15 2 0 8 3 18 7 21 9 10 23 9 23 -2z"/>
<path d="M3585 930 c-16 -18 -20 -19 -27 -5 -18 31 -26 13 -21 -47 7 -75 19
-94 28 -44 8 41 40 86 61 86 8 0 14 7 14 15 0 22 -34 18 -55 -5z"/>
<path d="M3872 937 c-6 -6 -14 -25 -17 -40 -5 -17 -13 -26 -23 -25 -25 5 -25
-20 0 -28 12 -4 35 -16 49 -26 17 -13 34 -18 48 -13 29 9 27 25 -3 25 -32 0
-40 14 -20 31 23 19 33 51 22 72 -10 20 -41 23 -56 4z m38 -26 c0 -5 -7 -14
-15 -21 -12 -10 -15 -10 -15 2 0 8 3 18 7 21 9 10 23 9 23 -2z"/>
<path d="M5529 933 c-8 -102 19 -263 44 -263 8 0 24 19 37 41 l23 42 18 -24
c10 -13 21 -32 25 -41 12 -38 33 -16 62 65 34 95 41 122 28 128 -4 2 -20 -32
-35 -75 -14 -44 -31 -81 -37 -83 -6 -2 -17 10 -24 26 -22 54 -36 56 -61 11
-38 -68 -47 -51 -52 94 -1 61 -6 91 -14 94 -7 2 -14 -5 -14 -15z"/>
<path d="M5995 893 c-12 -49 -22 -228 -13 -238 12 -13 76 22 101 56 26 36 16
69 -22 69 -15 0 -32 -5 -39 -12 -20 -20 -24 -2 -13 58 6 32 11 66 11 76 0 28
-17 21 -25 -9z m75 -153 c0 -14 -41 -50 -57 -50 -15 0 -10 13 15 43 16 18 42
23 42 7z"/>
<path d="M6275 889 c-63 -40 -76 -98 -27 -123 45 -23 58 -44 40 -62 -8 -8 -27
-16 -43 -17 -16 -1 -30 -7 -32 -13 -7 -21 29 -25 66 -7 28 14 37 25 39 50 3
31 0 36 -50 74 -34 25 -26 48 27 73 20 10 34 23 32 29 -6 18 -20 17 -52 -4z"/>
<path d="M260 885 c0 -8 7 -15 15 -15 13 0 14 -14 9 -92 -3 -51 -10 -97 -15
-103 -13 -13 -11 -25 4 -25 31 0 120 33 138 51 37 37 25 61 -44 83 -16 5 -15
9 12 32 59 49 36 84 -56 84 -49 0 -63 -3 -63 -15z m120 -30 c0 -13 -42 -45
-60 -45 -5 0 -10 13 -10 29 0 23 5 30 23 33 29 5 47 -1 47 -17z m-11 -101 c41
-8 39 -26 -4 -47 -50 -24 -55 -22 -55 18 0 37 5 40 59 29z"/>
<path d="M727 803 c-4 -3 -7 -27 -6 -52 2 -96 28 -125 70 -76 l23 25 21 -26
c27 -34 57 -26 79 20 18 38 22 116 6 116 -5 0 -10 -14 -10 -30 0 -37 -25 -100
-39 -100 -13 0 -31 33 -31 59 0 36 -18 32 -41 -9 -38 -67 -55 -51 -49 48 1 30
-8 41 -23 25z"/>
<path d="M1000 795 c-10 -12 -11 -24 -1 -54 15 -53 14 -59 -11 -63 -34 -5 -23
-23 15 -23 29 0 32 3 31 30 -1 17 -5 45 -9 63 -7 29 -5 32 15 32 13 0 20 5 18
13 -7 18 -43 20 -58 2z"/>
<path d="M6734 759 c-32 -44 -39 -49 -45 -33 -4 10 -8 29 -8 42 -1 12 -5 22
-11 22 -11 0 -11 -47 -1 -95 3 -16 11 -30 18 -30 18 0 106 126 95 137 -6 6
-23 -10 -48 -43z"/>
<path d="M461 733 c1 -85 13 -102 30 -41 13 51 25 67 57 79 13 5 20 13 17 19
-9 15 -36 12 -57 -7 -17 -15 -19 -15 -33 3 -13 17 -14 12 -14 -53z"/>
<path d="M617 783 c-26 -29 -31 -70 -13 -98 20 -31 50 -32 70 -3 43 61 -9 153
-57 101z m45 -68 c-7 -15 -18 -25 -25 -23 -17 6 -21 46 -6 64 11 13 14 13 27
0 13 -13 13 -20 4 -41z"/>
<path d="M1142 788 c-6 -7 -14 -26 -17 -41 -5 -17 -13 -26 -23 -25 -27 5 -24
-19 5 -31 15 -7 40 -18 55 -26 26 -15 58 -11 58 6 0 5 -10 9 -23 9 -35 0 -40
11 -16 36 27 29 23 78 -7 82 -11 2 -26 -3 -32 -10z m38 -27 c0 -5 -7 -14 -15
-21 -12 -10 -15 -10 -15 2 0 8 3 18 7 21 9 10 23 9 23 -2z"/>
<path d="M1248 794 c-8 -14 3 -134 13 -134 4 0 13 17 19 38 10 40 31 64 63 75
21 8 14 27 -10 27 -9 0 -25 -8 -35 -17 -17 -15 -19 -15 -32 2 -7 10 -15 14
-18 9z"/>
<path d="M5860 781 c-5 -11 -10 -29 -10 -41 0 -17 -4 -20 -21 -15 -16 6 -20 3
-17 -11 2 -10 12 -21 23 -24 11 -3 32 -13 47 -23 23 -16 30 -17 50 -6 l23 13
-29 6 c-28 5 -50 30 -27 30 17 0 33 40 27 66 -8 30 -50 33 -66 5z m40 -25 c0
-8 -4 -18 -10 -21 -5 -3 -10 3 -10 14 0 12 5 21 10 21 6 0 10 -6 10 -14z"/>
<path d="M6410 775 c-5 -14 -10 -33 -10 -41 0 -11 -6 -13 -21 -9 -17 6 -20 3
-17 -11 2 -11 12 -20 23 -23 11 -2 31 -12 44 -22 29 -23 44 -24 61 -4 11 13 8
15 -13 15 -35 0 -42 15 -17 40 31 31 24 74 -12 78 -22 3 -30 -2 -38 -23z m40
-19 c0 -8 -4 -18 -10 -21 -5 -3 -10 3 -10 14 0 12 5 21 10 21 6 0 10 -6 10
-14z"/>
<path d="M6570 783 c-17 -12 -25 -13 -28 -5 -2 7 -7 12 -12 12 -11 0 -4 -124
7 -127 5 -2 14 17 21 43 10 37 19 48 42 57 33 12 41 37 12 37 -10 0 -28 -8
-42 -17z"/>
<path d="M6876 778 c-9 -12 -16 -31 -16 -41 0 -14 -5 -17 -20 -12 -32 10 -25
-21 8 -34 15 -7 38 -18 50 -25 24 -14 62 -11 62 5 0 5 -11 9 -24 9 -35 0 -40
16 -16 40 28 28 24 74 -7 78 -13 2 -27 -5 -37 -20z m44 -17 c0 -5 -7 -14 -15
-21 -13 -10 -15 -9 -15 9 0 12 6 21 15 21 8 0 15 -4 15 -9z"/>
<path d="M7034 786 c-13 -10 -23 -11 -32 -4 -7 6 -14 9 -17 7 -7 -8 8 -129 16
-129 5 0 9 7 9 16 0 32 33 84 56 90 28 7 32 34 6 34 -10 0 -27 -6 -38 -14z"/>
</g>
</svg>
